<svg width="1489" height="2861" viewBox="0 0 1489 2861" fill="none" xmlns="http://www.w3.org/2000/svg">
<path d="M156.48 2581.5C156.48 2581.5 194.146 2182 221.479 2159C301.079 2213.8 478.072 2295.12 525.405 2297.62L734.905 2440.12L958.406 2308.62C1067.61 2302.62 1198.24 2217.12 1249.9 2175.12C1425.1 2327.92 1380.98 2503 1369.98 2612.5C1232.38 2699.3 1394.48 2764.62 1213.9 2804.23C845.505 2929.43 429.981 2811.28 262.48 2741.12L253.98 2730.5C253.98 2730.5 223.98 2639 156.48 2581.5Z" fill="#4EA9FE"/>
<path d="M819.48 2809.5C922.68 2831.1 972.48 2792.17 984.48 2770C1007.81 2750 1028.18 2706.6 922.98 2693C817.78 2679.4 753.147 2718.33 733.98 2739.5C719.48 2753.83 716.28 2787.9 819.48 2809.5Z" fill="#FEFEFE"/>
<path d="M1251.9 2180.62C1322.4 2235.12 1395.58 2372.5 1373.98 2610.5L1302.48 2673.5L1209.98 2710C1209.98 2710 1075.48 2786.5 984.48 2770M922.98 2693C1028.18 2706.6 1007.81 2750 984.48 2770C972.48 2792.17 922.68 2831.1 819.48 2809.5C716.28 2787.9 719.48 2753.83 733.98 2739.5C753.147 2718.33 817.78 2679.4 922.98 2693ZM922.98 2693C942.147 2657.67 1001.18 2533.2 1129.98 2486" stroke="#1F4371" stroke-width="20"/>
<path d="M656.982 2567C623 2609.5 610.833 2725 691 2774.5C828.6 2798.1 834.5 2733.5 861.5 2712.5C897.5 2648.1 868.667 2606.33 851 2579.5C754 2502 716.816 2531 656.982 2567Z" fill="#FEFEFE" stroke="black"/>
<path d="M476.5 2425C757 2508.5 698.5 2543.5 698.5 2543.5M631.5 2702.5C623 2626.5 606 2585.5 698.5 2543.5C747.5 2515.5 853 2550.38 871.5 2616.5C886.051 2668.5 893.452 2705.51 793 2769.5C761 2789.88 662 2793.5 631.5 2702.5ZM631.5 2702.5C484.5 2753.5 355.07 2663.88 223.482 2646C184.481 2814 783.491 2920.62 1209.89 2796.62" stroke="#1F4371" stroke-width="20"/>
<path d="M534.395 2299.62C-8.00537 2200.02 49.0613 1718.45 145.395 1490.12C-53.4054 1383.72 9.22804 1218.45 65.3948 1149.12C261.395 973.115 388.728 1100.45 427.895 1186.12C751.895 1058.12 990.228 1155.45 1068.89 1220.12C1219.69 1064.12 1357.73 1139.45 1407.89 1196.62C1564.29 1367.02 1429.39 1502.28 1342.39 1548.62C1518.79 2091.42 1154.23 2281.45 949.895 2308.62L742.395 2435.62L534.395 2299.62Z" fill="#FEFEFE" stroke="black"/>
<path d="M249.396 1778.62C220.596 1905.82 301.062 1926.62 344.895 1924.62C411.895 1912.12 477.895 1894.62 450.895 1778.62C422.033 1654.61 262.64 1720.12 249.396 1778.62Z" fill="#FFE6E8"/>
<path d="M1057.89 1849.61C1041.39 1950.11 1118.89 1991.62 1168.39 1987.61C1308.89 1976.26 1271.4 1793.12 1209.89 1771.62C1148.39 1750.11 1074.39 1749.12 1057.89 1849.61Z" fill="#FFE6E8"/>
<path d="M249.396 1778.62C220.596 1905.82 301.062 1926.62 344.895 1924.62C411.895 1912.12 477.895 1894.62 450.895 1778.62C422.033 1654.61 262.64 1720.12 249.396 1778.62Z" stroke="#FFE6E8" stroke-width="2"/>
<path d="M1057.89 1849.61C1041.39 1950.11 1118.89 1991.62 1168.39 1987.61C1308.89 1976.26 1271.4 1793.12 1209.89 1771.62C1148.39 1750.11 1074.39 1749.12 1057.89 1849.61Z" stroke="#FFE6E8" stroke-width="2"/>
<path d="M770.894 1769.62C741.228 1749.45 700.894 1707.62 776.894 1701.62C810.561 1705.28 856.494 1724.02 770.894 1769.62Z" fill="#1F4371" stroke="#1F4371" stroke-width="2"/>
<path d="M782.159 1762.17C788.865 1779.6 802.001 1801.1 818.882 1811.65C827.003 1816.72 835.683 1819.09 845.095 1817.7C854.64 1816.3 866.258 1810.83 879.723 1797.73L895.061 1813.5C880.971 1827.2 866.948 1835.37 853.132 1838.55C854.827 1864.88 852.722 1902.36 840.551 1933.54C834.13 1949.99 824.623 1965.41 810.672 1976.26C796.469 1987.31 778.434 1993 756.431 1991.07C734.464 1989.15 717.288 1980.46 704.366 1967.42C691.623 1954.56 683.481 1937.97 678.424 1920.72C669.586 1890.58 669.613 1856.57 672.628 1831.3C656.936 1825.69 644.383 1815.24 636.424 1805.64L653.361 1791.59C662.574 1802.71 678.615 1813.77 696.853 1813.42C714.317 1813.08 737.887 1802.11 762.418 1760.53L773.986 1740.91L782.159 1762.17ZM770.325 1788.68C746.705 1821.48 721.456 1834.94 697.281 1835.41C696.281 1835.43 695.288 1835.43 694.302 1835.4C691.71 1858.44 691.927 1888.59 699.535 1914.53C703.923 1929.5 710.588 1942.45 719.99 1951.93C729.213 1961.24 741.52 1967.68 758.352 1969.16C775.149 1970.63 787.599 1966.34 797.166 1958.89C806.984 1951.26 814.533 1939.69 820.057 1925.54C830.742 1898.17 832.781 1863.87 831.142 1839.43C822.428 1838.09 814.411 1834.79 807.227 1830.31C791.228 1820.31 778.852 1804.15 770.325 1788.68ZM999.977 1611.99C1015.37 1603.85 1031.19 1606.44 1041.42 1611.34L1042.4 1611.82L1042.44 1611.84L1042.48 1611.86C1059.4 1620.68 1082.1 1650.91 1072.21 1705.09C1067.36 1731.69 1058.28 1748.48 1047.21 1758.08C1036.37 1767.48 1024.21 1769.35 1015.07 1766.89C1003.26 1765.08 987.638 1758.06 976.435 1742.85C964.735 1726.96 958.848 1703.54 965.09 1671.04C971.23 1639.07 983.929 1620.47 999.977 1611.99ZM491.028 1576.96C497.974 1570.81 507.033 1567.25 517.397 1569.53C530.033 1568.9 547.413 1572.51 560.541 1586.01C574.72 1600.59 581.698 1624.33 575.737 1659.46C569.973 1693.42 560.153 1714.14 548.473 1725.64C537.277 1736.67 524.424 1738.97 514.378 1735.62C502.632 1735.43 486.599 1731.57 474.569 1719.67C461.179 1706.43 454.962 1685.49 461.528 1655.81C463.222 1640.74 467.479 1618.66 475.126 1600.89C478.965 1591.97 484.09 1583.1 491.028 1576.96Z" fill="#1F4371"/>
<path d="M202.981 1393.78L312.895 1251.62C271.695 1170.02 206.061 1199.28 178.395 1224.12C112.795 1288.12 170.815 1369.28 202.981 1393.78Z" fill="#9DD0FA"/>
<path d="M1285.48 1436.78L1195.89 1300.62C1226.29 1239.02 1290.23 1265.28 1318.39 1286.12C1372.39 1351.72 1316.48 1412.94 1285.48 1436.78Z" fill="#9DD0FA"/>
<path d="M202.981 1393.78L312.895 1251.62C271.695 1170.02 206.061 1199.28 178.395 1224.12C112.795 1288.12 170.815 1369.28 202.981 1393.78Z" stroke="#9DD0FA" stroke-width="2"/>
<path d="M1285.48 1436.78L1195.89 1300.62C1226.29 1239.02 1290.23 1265.28 1318.39 1286.12C1372.39 1351.72 1316.48 1412.94 1285.48 1436.78Z" stroke="#9DD0FA" stroke-width="2"/>
<path d="M85.1768 1104.31C124.354 1070.25 189.564 1041.97 256.305 1046.47C322.195 1050.92 388.23 1087.26 431.323 1177.79C494.324 1149.03 597.212 1118.45 712.592 1114.29C828.35 1110.13 957.423 1132.55 1071.31 1210.94C1101.81 1174.67 1152.17 1133.19 1212.27 1118.51C1244.83 1110.55 1280.27 1110.48 1316.65 1123.44C1352.98 1136.38 1389.56 1162.08 1424.86 1204.59C1460.15 1247.09 1478.85 1287.86 1485.18 1326.11C1491.52 1364.4 1485.35 1399.46 1472 1430.31C1447.21 1487.6 1397.71 1530.37 1356.96 1554.13C1375.63 1606.59 1394.96 1691.56 1396.57 1787.87C1398.27 1889.89 1380.1 2005.43 1319.38 2108.69L1319.04 2109.26L1318.65 2109.78C1271.03 2172.31 1131.71 2301.8 951.601 2322.76L743.207 2452.45L737.09 2456.26L731.155 2452.18L529.47 2313.27C506.371 2310.8 469.579 2304.41 429.986 2292.85C388.804 2280.82 343.835 2262.98 308.031 2237.59V2237.59C207.859 2168.25 90.5551 2033.3 64.6445 1853.17C49.4417 1747.48 65.8314 1627.21 134.393 1496.59C89.7328 1468.53 36.7186 1411.58 13.0313 1343.08C0.331331 1306.36 -4.05402 1265.97 6.17872 1224.85C16.4257 1183.67 41.1209 1142.62 85.1768 1104.31ZM254.824 1068.42C194.662 1064.36 135.022 1090.13 99.6113 1120.92C58.4612 1156.69 36.5326 1193.97 27.5274 1230.16C18.5082 1266.41 22.2416 1302.41 33.8223 1335.89C55.538 1398.69 104.434 1451.38 144.907 1477.21C193.749 1390.04 265.916 1298.42 367.384 1203.58L370.555 1200.62H387.285V1222.62H379.244C123.336 1463.11 61.7995 1678.87 86.4199 1850.04C111.048 2021.25 222.259 2150.68 318.385 2217.99L320.653 2219.57L320.706 2219.61L320.759 2219.64C353.754 2243.05 396.12 2260.04 436.153 2271.73C476.104 2283.4 512.98 2289.57 534.465 2291.67L537.294 2291.94L539.634 2293.56L737.7 2429.97L942.083 2302.78L944.203 2301.46L946.686 2301.18C1119.27 2282.09 1254.53 2157.35 1300.75 2096.97C1358.55 1998.37 1376.23 1887.4 1374.57 1788.24C1372.91 1688.85 1351.84 1602.11 1333.12 1553.04L1329.67 1543.99L1338.2 1539.42C1377.59 1518.31 1427.9 1476.83 1451.81 1421.57C1463.68 1394.15 1469.05 1363.35 1463.48 1329.7C1457.9 1296 1441.24 1258.74 1407.93 1218.64C1374.63 1178.55 1341.18 1155.53 1309.27 1144.16C1277.4 1132.81 1246.39 1132.82 1217.49 1139.88C1163.97 1152.95 1117.81 1190.24 1089.22 1223.83C1094.42 1227.74 1099.58 1231.77 1104.71 1235.93C1105.6 1236.66 1106.49 1237.39 1107.38 1238.12L1093.43 1255.13L1093.41 1255.11L1090.84 1253.01C1082.98 1246.63 1075.02 1240.56 1066.98 1234.79C956.08 1155.17 828.673 1132.13 713.383 1136.28C598.005 1140.43 495.543 1171.81 435.584 1200.07L434.89 1198.59L434.395 1199.12L426.829 1207.1L417.329 1198.1L415.74 1196.6L414.849 1194.6C375.006 1105.29 313.966 1072.41 254.824 1068.42Z" fill="#1F4371"/>
<path d="M85.1768 1104.31L84.8487 1103.94V1103.94L85.1768 1104.31ZM256.305 1046.47L256.338 1045.97V1045.97L256.305 1046.47ZM431.323 1177.79L430.872 1178.01L431.083 1178.45L431.531 1178.25L431.323 1177.79ZM712.592 1114.29L712.574 1113.79V1113.79L712.592 1114.29ZM1071.31 1210.94L1071.03 1211.35L1071.4 1211.61L1071.69 1211.26L1071.31 1210.94ZM1212.27 1118.51L1212.15 1118.02V1118.02L1212.27 1118.51ZM1316.65 1123.44L1316.82 1122.97V1122.97L1316.65 1123.44ZM1424.86 1204.59L1425.24 1204.27V1204.27L1424.86 1204.59ZM1485.18 1326.11L1485.68 1326.03V1326.03L1485.18 1326.11ZM1472 1430.31L1472.46 1430.51V1430.51L1472 1430.31ZM1356.96 1554.13L1356.71 1553.69L1356.35 1553.9L1356.49 1554.29L1356.96 1554.13ZM1396.57 1787.87L1397.07 1787.86V1787.86L1396.57 1787.87ZM1319.38 2108.69L1318.95 2108.44V2108.44L1319.38 2108.69ZM1319.04 2109.26L1319.44 2109.56L1319.46 2109.54L1319.47 2109.51L1319.04 2109.26ZM1318.65 2109.78L1318.25 2109.48L1318.25 2109.48L1318.65 2109.78ZM951.601 2322.76L951.543 2322.27L951.432 2322.28L951.336 2322.34L951.601 2322.76ZM743.207 2452.45L742.943 2452.03H742.943L743.207 2452.45ZM737.09 2456.26L736.806 2456.67L737.076 2456.86L737.354 2456.69L737.09 2456.26ZM731.155 2452.18L730.872 2452.59H730.872L731.155 2452.18ZM529.47 2313.27L529.753 2312.86L529.649 2312.79L529.523 2312.77L529.47 2313.27ZM429.986 2292.85L429.846 2293.33V2293.33L429.986 2292.85ZM308.031 2237.59H307.531V2237.85L307.742 2238L308.031 2237.59ZM308.031 2237.59H308.531V2237.33L308.316 2237.18L308.031 2237.59ZM64.6445 1853.17L64.1496 1853.24V1853.24L64.6445 1853.17ZM134.393 1496.59L134.835 1496.83L135.05 1496.42L134.659 1496.17L134.393 1496.59ZM13.0313 1343.08L12.5587 1343.25V1343.25L13.0313 1343.08ZM6.17872 1224.85L5.69352 1224.73H5.69352L6.17872 1224.85ZM254.824 1068.42L254.858 1067.92V1067.92L254.824 1068.42ZM99.6113 1120.92L99.9394 1121.29V1121.29L99.6113 1120.92ZM27.5274 1230.16L27.0421 1230.04V1230.04L27.5274 1230.16ZM33.8223 1335.89L33.3497 1336.06H33.3497L33.8223 1335.89ZM144.907 1477.21L144.638 1477.63L145.085 1477.92L145.343 1477.46L144.907 1477.21ZM367.384 1203.58L367.042 1203.21V1203.21L367.384 1203.58ZM370.555 1200.62V1200.12H370.357L370.213 1200.25L370.555 1200.62ZM387.285 1200.62H387.785V1200.12H387.285V1200.62ZM387.285 1222.62V1223.12H387.785V1222.62H387.285ZM379.244 1222.62V1222.12H379.046L378.902 1222.25L379.244 1222.62ZM86.4199 1850.04L85.925 1850.11V1850.11L86.4199 1850.04ZM318.385 2217.99L318.098 2218.4L318.099 2218.4L318.385 2217.99ZM320.653 2219.57L320.368 2219.98L320.371 2219.98L320.653 2219.57ZM320.706 2219.61L320.999 2219.2L320.989 2219.19L320.706 2219.61ZM320.759 2219.64L320.466 2220.05L320.47 2220.05L320.759 2219.64ZM436.153 2271.73L436.293 2271.25V2271.25L436.153 2271.73ZM534.465 2291.67L534.514 2291.17H534.513L534.465 2291.67ZM537.294 2291.94L537.578 2291.53L537.471 2291.46L537.343 2291.45L537.294 2291.94ZM539.634 2293.56L539.917 2293.14H539.917L539.634 2293.56ZM737.7 2429.97L737.417 2430.38L737.686 2430.57L737.964 2430.39L737.7 2429.97ZM942.083 2302.78L942.347 2303.2L942.347 2303.2L942.083 2302.78ZM944.203 2301.46L944.148 2300.96L944.035 2300.97L943.939 2301.03L944.203 2301.46ZM946.686 2301.18L946.74 2301.68H946.741L946.686 2301.18ZM1300.75 2096.97L1301.14 2097.27L1301.16 2097.25L1301.18 2097.22L1300.75 2096.97ZM1374.57 1788.24L1375.07 1788.23V1788.23L1374.57 1788.24ZM1333.12 1553.04L1333.58 1552.86V1552.86L1333.12 1553.04ZM1329.67 1543.99L1329.43 1543.55L1329.04 1543.76L1329.2 1544.17L1329.67 1543.99ZM1338.2 1539.42L1337.96 1538.98V1538.98L1338.2 1539.42ZM1451.81 1421.57L1452.27 1421.77V1421.77L1451.81 1421.57ZM1463.48 1329.7L1463.97 1329.62V1329.62L1463.48 1329.7ZM1407.93 1218.64L1408.32 1218.32V1218.32L1407.93 1218.64ZM1309.27 1144.16L1309.43 1143.69V1143.69L1309.27 1144.16ZM1217.49 1139.88L1217.37 1139.39V1139.39L1217.49 1139.88ZM1089.22 1223.83L1088.84 1223.51L1088.5 1223.91L1088.92 1224.23L1089.22 1223.83ZM1104.71 1235.93L1105.02 1235.55V1235.55L1104.71 1235.93ZM1107.38 1238.12L1107.77 1238.44L1108.09 1238.05L1107.7 1237.73L1107.38 1238.12ZM1093.43 1255.13L1093.12 1255.52L1093.5 1255.84L1093.82 1255.45L1093.43 1255.13ZM1093.41 1255.11L1093.72 1254.72L1093.72 1254.72L1093.41 1255.11ZM1090.84 1253.01L1091.16 1252.63L1091.16 1252.63L1090.84 1253.01ZM1066.98 1234.79L1067.27 1234.38V1234.38L1066.98 1234.79ZM713.383 1136.28L713.365 1135.78V1135.78L713.383 1136.28ZM435.584 1200.07L435.132 1200.28L435.345 1200.73L435.797 1200.52L435.584 1200.07ZM434.89 1198.59L435.342 1198.38L435.03 1197.72L434.526 1198.25L434.89 1198.59ZM434.395 1199.12L434.758 1199.46L434.758 1199.46L434.395 1199.12ZM426.829 1207.1L426.485 1207.46L426.848 1207.81L427.192 1207.45L426.829 1207.1ZM417.329 1198.1L417.673 1197.74L417.673 1197.74L417.329 1198.1ZM415.74 1196.6L415.284 1196.8L415.324 1196.89L415.396 1196.96L415.74 1196.6ZM414.849 1194.6L415.305 1194.39V1194.39L414.849 1194.6ZM85.1768 1104.31L85.5048 1104.69C124.596 1070.7 189.68 1042.48 256.271 1046.97L256.305 1046.47L256.338 1045.97C189.448 1041.46 124.111 1069.8 84.8487 1103.94L85.1768 1104.31ZM256.305 1046.47L256.271 1046.97C321.973 1051.4 387.853 1087.63 430.872 1178.01L431.323 1177.79L431.775 1177.58C388.608 1086.89 322.418 1050.43 256.338 1045.97L256.305 1046.47ZM431.323 1177.79L431.531 1178.25C494.477 1149.51 597.301 1118.94 712.61 1114.79L712.592 1114.29L712.574 1113.79C597.123 1117.95 494.171 1148.55 431.116 1177.34L431.323 1177.79ZM712.592 1114.29L712.61 1114.79C828.293 1110.63 957.252 1133.04 1071.03 1211.35L1071.31 1210.94L1071.59 1210.53C957.594 1132.06 828.406 1109.62 712.574 1113.79L712.592 1114.29ZM1071.31 1210.94L1071.69 1211.26C1102.15 1175.04 1152.43 1133.64 1212.39 1118.99L1212.27 1118.51L1212.15 1118.02C1151.91 1132.73 1101.47 1174.3 1070.93 1210.62L1071.31 1210.94ZM1212.27 1118.51L1212.39 1118.99C1244.87 1111.06 1280.21 1110.98 1316.48 1123.91L1316.65 1123.44L1316.82 1122.97C1280.34 1109.97 1244.8 1110.05 1212.15 1118.02L1212.27 1118.51ZM1316.65 1123.44L1316.48 1123.91C1352.72 1136.82 1389.22 1162.46 1424.47 1204.91L1424.86 1204.59L1425.24 1204.27C1389.9 1161.71 1353.25 1135.95 1316.82 1122.97L1316.65 1123.44ZM1424.86 1204.59L1424.47 1204.91C1459.72 1247.35 1478.38 1288.04 1484.69 1326.19L1485.18 1326.11L1485.68 1326.03C1479.33 1287.67 1460.58 1246.82 1425.24 1204.27L1424.86 1204.59ZM1485.18 1326.11L1484.69 1326.19C1491.01 1364.37 1484.86 1399.34 1471.54 1430.11L1472 1430.31L1472.46 1430.51C1485.84 1399.59 1492.03 1364.42 1485.68 1326.03L1485.18 1326.11ZM1472 1430.31L1471.54 1430.11C1446.81 1487.27 1397.4 1529.97 1356.71 1553.69L1356.96 1554.13L1357.21 1554.56C1398.02 1530.76 1447.62 1487.93 1472.46 1430.51L1472 1430.31ZM1356.96 1554.13L1356.49 1554.29C1375.14 1606.71 1394.46 1691.62 1396.07 1787.88L1396.57 1787.87L1397.07 1787.86C1395.46 1691.49 1376.11 1606.48 1357.43 1553.96L1356.96 1554.13ZM1396.57 1787.87L1396.07 1787.88C1397.77 1889.84 1379.61 2005.28 1318.95 2108.44L1319.38 2108.69L1319.81 2108.95C1380.6 2005.59 1398.77 1889.94 1397.07 1787.86L1396.57 1787.87ZM1319.38 2108.69L1318.95 2108.44L1318.61 2109L1319.04 2109.26L1319.47 2109.51L1319.81 2108.95L1319.38 2108.69ZM1319.04 2109.26L1318.65 2108.96L1318.25 2109.48L1318.65 2109.78L1319.04 2110.08L1319.44 2109.56L1319.04 2109.26ZM1318.65 2109.78L1318.25 2109.48C1270.68 2171.95 1131.46 2301.32 951.543 2322.27L951.601 2322.76L951.658 2323.26C1131.95 2302.27 1271.38 2172.67 1319.04 2110.08L1318.65 2109.78ZM951.601 2322.76L951.336 2322.34L742.943 2452.03L743.207 2452.45L743.471 2452.88L951.865 2323.19L951.601 2322.76ZM743.207 2452.45L742.943 2452.03L736.826 2455.84L737.09 2456.26L737.354 2456.69L743.471 2452.88L743.207 2452.45ZM737.09 2456.26L737.373 2455.85L731.439 2451.76L731.155 2452.18L730.872 2452.59L736.806 2456.67L737.09 2456.26ZM731.155 2452.18L731.439 2451.76L529.753 2312.86L529.47 2313.27L529.186 2313.68L730.872 2452.59L731.155 2452.18ZM529.47 2313.27L529.523 2312.77C506.453 2310.3 469.69 2303.92 430.126 2292.37L429.986 2292.85L429.846 2293.33C469.468 2304.9 506.289 2311.29 529.417 2313.77L529.47 2313.27ZM429.986 2292.85L430.126 2292.37C388.97 2280.35 344.061 2262.53 308.321 2237.18L308.031 2237.59L307.742 2238C343.61 2263.44 388.638 2281.3 429.846 2293.33L429.986 2292.85ZM308.031 2237.59H308.531V2237.59H308.031H307.531V2237.59H308.031ZM308.031 2237.59L308.316 2237.18C208.224 2167.9 91.025 2033.05 65.1394 1853.1L64.6445 1853.17L64.1496 1853.24C90.0851 2033.54 207.493 2168.61 307.747 2238L308.031 2237.59ZM64.6445 1853.17L65.1394 1853.1C49.9524 1747.52 66.3202 1627.36 134.835 1496.83L134.393 1496.59L133.95 1496.36C65.3425 1627.07 48.9309 1747.44 64.1496 1853.24L64.6445 1853.17ZM134.393 1496.59L134.659 1496.17C90.0826 1468.16 37.1493 1411.29 13.5038 1342.92L13.0313 1343.08L12.5587 1343.25C36.2878 1411.86 89.383 1468.9 134.127 1497.02L134.393 1496.59ZM13.0313 1343.08L13.5038 1342.92C0.829298 1306.27 -3.54123 1265.98 6.66392 1224.97L6.17872 1224.85L5.69352 1224.73C-4.5668 1265.96 -0.166636 1306.45 12.5587 1343.25L13.0313 1343.08ZM6.17872 1224.85L6.66392 1224.97C16.8827 1183.91 41.515 1142.94 85.5048 1104.69L85.1768 1104.31L84.8487 1103.94C40.7269 1142.3 15.9687 1183.44 5.69352 1224.73L6.17872 1224.85ZM254.824 1068.42L254.858 1067.92C194.546 1063.86 134.779 1089.68 99.2833 1120.54L99.6113 1120.92L99.9394 1121.29C135.264 1090.58 194.778 1064.87 254.791 1068.92L254.824 1068.42ZM99.6113 1120.92L99.2833 1120.54C58.0671 1156.37 36.0756 1193.74 27.0421 1230.04L27.5274 1230.16L28.0126 1230.28C36.9896 1194.21 58.8554 1157.01 99.9394 1121.29L99.6113 1120.92ZM27.5274 1230.16L27.0421 1230.04C17.9954 1266.4 21.7437 1302.5 33.3497 1336.06L33.8223 1335.89L34.2948 1335.73C22.7396 1302.32 19.0209 1266.42 28.0126 1230.28L27.5274 1230.16ZM33.8223 1335.89L33.3497 1336.06C55.1072 1398.97 104.083 1451.75 144.638 1477.63L144.907 1477.21L145.176 1476.79C104.785 1451.01 55.9689 1398.4 34.2948 1335.73L33.8223 1335.89ZM144.907 1477.21L145.343 1477.46C194.155 1390.34 266.288 1298.76 367.725 1203.94L367.384 1203.58L367.042 1203.21C265.544 1298.09 193.342 1389.75 144.471 1476.97L144.907 1477.21ZM367.384 1203.58L367.725 1203.94L370.896 1200.98L370.555 1200.62L370.213 1200.25L367.042 1203.21L367.384 1203.58ZM370.555 1200.62V1201.12H387.285V1200.62V1200.12H370.555V1200.62ZM387.285 1200.62H386.785V1222.62H387.285H387.785V1200.62H387.285ZM387.285 1222.62V1222.12H379.244V1222.62V1223.12H387.285V1222.62ZM379.244 1222.62L378.902 1222.25C122.91 1462.82 61.2753 1678.74 85.925 1850.11L86.4199 1850.04L86.9148 1849.97C62.3238 1679.01 123.762 1463.39 379.587 1222.98L379.244 1222.62ZM86.4199 1850.04L85.925 1850.11C110.578 2021.5 221.892 2151.03 318.098 2218.4L318.385 2217.99L318.672 2217.58C222.625 2150.33 111.518 2021.01 86.9148 1849.97L86.4199 1850.04ZM318.385 2217.99L318.099 2218.4L320.368 2219.98L320.653 2219.57L320.939 2219.16L318.67 2217.58L318.385 2217.99ZM320.653 2219.57L320.371 2219.98L320.423 2220.02L320.706 2219.61L320.989 2219.19L320.936 2219.16L320.653 2219.57ZM320.706 2219.61L320.413 2220.01L320.466 2220.05L320.759 2219.64L321.052 2219.24L320.999 2219.2L320.706 2219.61ZM320.759 2219.64L320.47 2220.05C353.529 2243.5 395.953 2260.51 436.013 2272.21L436.153 2271.73L436.293 2271.25C396.286 2259.57 353.98 2242.59 321.048 2219.24L320.759 2219.64ZM436.153 2271.73L436.013 2272.21C475.994 2283.89 512.9 2290.06 534.416 2292.16L534.465 2291.67L534.513 2291.17C513.059 2289.07 476.214 2282.91 436.293 2271.25L436.153 2271.73ZM534.465 2291.67L534.416 2292.16L537.245 2292.44L537.294 2291.94L537.343 2291.45L534.514 2291.17L534.465 2291.67ZM537.294 2291.94L537.01 2292.36L539.35 2293.97L539.634 2293.56L539.917 2293.14L537.578 2291.53L537.294 2291.94ZM539.634 2293.56L539.35 2293.97L737.417 2430.38L737.7 2429.97L737.984 2429.56L539.917 2293.14L539.634 2293.56ZM737.7 2429.97L737.964 2430.39L942.347 2303.2L942.083 2302.78L941.819 2302.35L737.436 2429.54L737.7 2429.97ZM942.083 2302.78L942.347 2303.2L944.467 2301.88L944.203 2301.46L943.939 2301.03L941.819 2302.35L942.083 2302.78ZM944.203 2301.46L944.258 2301.95L946.74 2301.68L946.686 2301.18L946.631 2300.68L944.148 2300.96L944.203 2301.46ZM946.686 2301.18L946.741 2301.68C1119.52 2282.57 1254.89 2157.71 1301.14 2097.27L1300.75 2096.97L1300.35 2096.67C1254.18 2156.99 1119.03 2281.62 946.631 2300.68L946.686 2301.18ZM1300.75 2096.97L1301.18 2097.22C1359.04 1998.52 1376.73 1887.45 1375.07 1788.23L1374.57 1788.24L1374.07 1788.24C1375.73 1887.35 1358.06 1998.22 1300.31 2096.72L1300.75 2096.97ZM1374.57 1788.24L1375.07 1788.23C1373.41 1688.78 1352.32 1601.98 1333.58 1552.86L1333.12 1553.04L1332.65 1553.21C1351.35 1602.23 1372.41 1688.91 1374.07 1788.24L1374.57 1788.24ZM1333.12 1553.04L1333.58 1552.86L1330.13 1543.81L1329.67 1543.99L1329.2 1544.17L1332.65 1553.21L1333.12 1553.04ZM1329.67 1543.99L1329.9 1544.43L1338.44 1539.86L1338.2 1539.42L1337.96 1538.98L1329.43 1543.55L1329.67 1543.99ZM1338.2 1539.42L1338.44 1539.86C1377.89 1518.72 1428.3 1477.16 1452.27 1421.77L1451.81 1421.57L1451.35 1421.37C1427.5 1476.49 1377.29 1517.91 1337.96 1538.98L1338.2 1539.42ZM1451.81 1421.57L1452.27 1421.77C1464.17 1394.27 1469.56 1363.38 1463.97 1329.62L1463.48 1329.7L1462.99 1329.78C1468.54 1363.33 1463.19 1394.03 1451.35 1421.37L1451.81 1421.57ZM1463.48 1329.7L1463.97 1329.62C1458.38 1295.82 1441.67 1258.48 1408.32 1218.32L1407.93 1218.64L1407.55 1218.96C1440.81 1259.01 1457.42 1296.19 1462.99 1329.78L1463.48 1329.7ZM1407.93 1218.64L1408.32 1218.32C1374.97 1178.17 1341.44 1155.09 1309.43 1143.69L1309.27 1144.16L1309.1 1144.63C1340.91 1155.96 1374.29 1178.92 1407.55 1218.96L1407.93 1218.64ZM1309.27 1144.16L1309.43 1143.69C1277.47 1132.3 1246.35 1132.31 1217.37 1139.39L1217.49 1139.88L1217.61 1140.36C1246.42 1133.32 1277.34 1133.31 1309.1 1144.63L1309.27 1144.16ZM1217.49 1139.88L1217.37 1139.39C1163.71 1152.5 1117.47 1189.87 1088.84 1223.51L1089.22 1223.83L1089.6 1224.15C1118.15 1190.62 1164.22 1153.4 1217.61 1140.36L1217.49 1139.88ZM1089.22 1223.83L1088.92 1224.23C1094.12 1228.14 1099.27 1232.17 1104.39 1236.32L1104.71 1235.93L1105.02 1235.55C1099.89 1231.38 1094.73 1227.34 1089.52 1223.43L1089.22 1223.83ZM1104.71 1235.93L1104.39 1236.32C1105.28 1237.05 1106.18 1237.77 1107.07 1238.51L1107.38 1238.12L1107.7 1237.73C1106.81 1237 1105.92 1236.27 1105.02 1235.55L1104.71 1235.93ZM1107.38 1238.12L1107 1237.8L1093.05 1254.82L1093.43 1255.13L1093.82 1255.45L1107.77 1238.44L1107.38 1238.12ZM1093.43 1255.13L1093.75 1254.75L1093.72 1254.72L1093.41 1255.11L1093.09 1255.5L1093.12 1255.52L1093.43 1255.13ZM1093.41 1255.11L1093.72 1254.72L1091.16 1252.63L1090.84 1253.01L1090.53 1253.4L1093.09 1255.5L1093.41 1255.11ZM1090.84 1253.01L1091.16 1252.63C1083.29 1246.24 1075.32 1240.16 1067.27 1234.38L1066.98 1234.79L1066.69 1235.19C1074.72 1240.96 1082.67 1247.03 1090.53 1253.4L1090.84 1253.01ZM1066.98 1234.79L1067.27 1234.38C956.257 1154.69 828.731 1131.63 713.365 1135.78L713.383 1136.28L713.401 1136.78C828.615 1132.63 955.903 1155.66 1066.69 1235.19L1066.98 1234.79ZM713.383 1136.28L713.365 1135.78C597.915 1139.94 495.387 1171.33 435.371 1199.61L435.584 1200.07L435.797 1200.52C495.7 1172.29 598.096 1140.93 713.401 1136.78L713.383 1136.28ZM435.584 1200.07L436.036 1199.85L435.342 1198.38L434.89 1198.59L434.437 1198.81L435.132 1200.28L435.584 1200.07ZM434.89 1198.59L434.526 1198.25L434.031 1198.77L434.395 1199.12L434.758 1199.46L435.253 1198.94L434.89 1198.59ZM434.395 1199.12L434.032 1198.77L426.466 1206.76L426.829 1207.1L427.192 1207.45L434.758 1199.46L434.395 1199.12ZM426.829 1207.1L427.173 1206.74L417.673 1197.74L417.329 1198.1L416.985 1198.46L426.485 1207.46L426.829 1207.1ZM417.329 1198.1L417.673 1197.74L416.084 1196.23L415.74 1196.6L415.396 1196.96L416.985 1198.46L417.329 1198.1ZM415.74 1196.6L416.197 1196.39L415.305 1194.39L414.849 1194.6L414.392 1194.8L415.284 1196.8L415.74 1196.6ZM414.849 1194.6L415.305 1194.39C375.392 1104.93 314.195 1071.93 254.858 1067.92L254.824 1068.42L254.791 1068.92C313.737 1072.9 374.62 1105.65 414.392 1194.8L414.849 1194.6Z" fill="#1F4371"/>
<path d="M1179.89 1302.12C1205.89 1320.62 1263.09 1373.62 1283.89 1437.62" stroke="#1F4371" stroke-width="22"/>
<path d="M762.393 1967.62C693.926 1967.62 686.061 1878.28 690.895 1834.62C720.395 1841.62 752.395 1815.62 771.395 1788.62C776.595 1812.62 815.895 1841.62 829.895 1841.62C832.395 1880.62 822.892 1967.62 762.393 1967.62Z" fill="url(#paint0_linear_30_216)" stroke="#FFE6E8" stroke-width="2"/>
<path d="M222.479 2163C164.98 2298.5 178.479 2425 164.98 2541.5C164.98 2541.5 149.981 2630.5 230.98 2644.5" stroke="#1F4371" stroke-width="20"/>
<path d="M1302.48 2680.5V2764.5L1202.98 2798" stroke="#1F4371" stroke-width="20"/>
<path d="M560.5 5L656.532 703H825.492L906 5H560.5Z" fill="#E54144"/>
<path d="M825.492 807H656.533V958H825.492V807Z" fill="#E54144"/>
<path d="M560.5 5L656.532 703H825.492L906 5H560.5Z" stroke="#E54144" stroke-width="10"/>
<path d="M825.492 807H656.533V958H825.492V807Z" stroke="#E54144" stroke-width="10"/>
<defs>
<linearGradient id="paint0_linear_30_216" x1="761.708" y1="1790.62" x2="761.708" y2="1967.38" gradientUnits="userSpaceOnUse">
<stop stop-color="#F1C9EB"/>
<stop offset="1" stop-color="#E9EFFF"/>
</linearGradient>
</defs>
</svg>
