<svg width="1489" height="2775" viewBox="0 0 1489 2775" fill="none" xmlns="http://www.w3.org/2000/svg">
<path d="M156.48 2495.5C156.48 2495.5 194.146 2096 221.479 2073C301.079 2127.8 478.072 2209.12 525.405 2211.62L734.905 2354.12L958.406 2222.62C1067.61 2216.62 1198.24 2131.12 1249.9 2089.12C1425.1 2241.92 1380.98 2417 1369.98 2526.5C1232.38 2613.3 1394.48 2678.62 1213.9 2718.23C845.505 2843.43 429.981 2725.28 262.48 2655.12L253.98 2644.5C253.98 2644.5 223.98 2553 156.48 2495.5Z" fill="#4EA9FE"/>
<path d="M819.48 2723.5C922.68 2745.1 972.48 2706.17 984.48 2684C1007.81 2664 1028.18 2620.6 922.98 2607C817.78 2593.4 753.147 2632.33 733.98 2653.5C719.48 2667.83 716.28 2701.9 819.48 2723.5Z" fill="#FEFEFE"/>
<path d="M1251.9 2094.62C1322.4 2149.12 1395.58 2286.5 1373.98 2524.5L1302.48 2587.5L1209.98 2624C1209.98 2624 1075.48 2700.5 984.48 2684M922.98 2607C1028.18 2620.6 1007.81 2664 984.48 2684C972.48 2706.17 922.68 2745.1 819.48 2723.5C716.28 2701.9 719.48 2667.83 733.98 2653.5C753.147 2632.33 817.78 2593.4 922.98 2607ZM922.98 2607C942.147 2571.67 1001.18 2447.2 1129.98 2400" stroke="#1F4371" stroke-width="20"/>
<path d="M656.982 2481C623 2523.5 610.833 2639 691 2688.5C828.6 2712.1 834.5 2647.5 861.5 2626.5C897.5 2562.1 868.667 2520.33 851 2493.5C754 2416 716.816 2445 656.982 2481Z" fill="#FEFEFE" stroke="black"/>
<path d="M476.5 2339C757 2422.5 698.5 2457.5 698.5 2457.5M631.5 2616.5C623 2540.5 606 2499.5 698.5 2457.5C747.5 2429.5 853 2464.38 871.5 2530.5C886.051 2582.5 893.452 2619.51 793 2683.5C761 2703.88 662 2707.5 631.5 2616.5ZM631.5 2616.5C484.5 2667.5 355.07 2577.88 223.482 2560C184.481 2728 783.491 2834.62 1209.89 2710.62" stroke="#1F4371" stroke-width="20"/>
<path d="M534.395 2213.62C-8.00537 2114.02 49.0613 1632.45 145.395 1404.12C-53.4054 1297.72 9.22804 1132.45 65.3948 1063.12C261.395 887.116 388.728 1014.45 427.895 1100.12C751.895 972.116 990.228 1069.45 1068.89 1134.12C1219.69 978.116 1357.73 1053.45 1407.89 1110.62C1564.29 1281.02 1429.39 1416.28 1342.39 1462.62C1518.79 2005.42 1154.23 2195.45 949.895 2222.62L742.395 2349.62L534.395 2213.62Z" fill="#FEFEFE" stroke="black"/>
<path d="M249.396 1692.62C220.596 1819.82 301.062 1840.62 344.895 1838.62C411.895 1826.12 477.895 1808.62 450.895 1692.62C422.033 1568.62 262.64 1634.12 249.396 1692.62Z" fill="#FFE6E8"/>
<path d="M1057.89 1763.62C1041.39 1864.11 1118.89 1905.62 1168.39 1901.62C1308.89 1890.26 1271.4 1707.12 1209.89 1685.62C1148.39 1664.12 1074.39 1663.12 1057.89 1763.62Z" fill="#FFE6E8"/>
<path d="M249.396 1692.62C220.596 1819.82 301.062 1840.62 344.895 1838.62C411.895 1826.12 477.895 1808.62 450.895 1692.62C422.033 1568.62 262.64 1634.12 249.396 1692.62Z" stroke="#FFE6E8" stroke-width="2"/>
<path d="M1057.89 1763.62C1041.39 1864.11 1118.89 1905.62 1168.39 1901.62C1308.89 1890.26 1271.4 1707.12 1209.89 1685.62C1148.39 1664.12 1074.39 1663.12 1057.89 1763.62Z" stroke="#FFE6E8" stroke-width="2"/>
<path d="M770.894 1683.62C741.228 1663.45 700.894 1621.62 776.894 1615.62C810.561 1619.28 856.494 1638.02 770.894 1683.62Z" fill="#1F4371" stroke="#1F4371" stroke-width="2"/>
<path d="M782.161 1676.17C788.867 1693.6 802.003 1715.1 818.884 1725.65C827.005 1730.72 835.686 1733.09 845.097 1731.7C854.642 1730.3 866.26 1724.83 879.725 1711.73L895.063 1727.5C880.973 1741.2 866.95 1749.37 853.134 1752.55C854.829 1778.88 852.724 1816.36 840.553 1847.54C834.132 1863.99 824.625 1879.41 810.674 1890.26C796.471 1901.31 778.436 1907 756.433 1905.07C734.466 1903.15 717.29 1894.46 704.368 1881.42C691.625 1868.56 683.483 1851.97 678.425 1834.72C669.588 1804.58 669.615 1770.57 672.63 1745.3C656.938 1739.69 644.385 1729.24 636.425 1719.64L653.363 1705.59C662.576 1716.71 678.618 1727.77 696.855 1727.42C714.319 1727.08 737.89 1716.11 762.42 1674.53L773.988 1654.91L782.161 1676.17ZM770.327 1702.68C746.707 1735.48 721.458 1748.94 697.283 1749.41C696.282 1749.43 695.289 1749.43 694.303 1749.4C691.711 1772.44 691.929 1802.59 699.537 1828.53C703.925 1843.5 710.59 1856.45 719.992 1865.93C729.215 1875.24 741.522 1881.68 758.354 1883.16C775.151 1884.63 787.601 1880.34 797.168 1872.89C806.986 1865.26 814.535 1853.69 820.059 1839.54C830.744 1812.17 832.783 1777.87 831.144 1753.43C822.43 1752.09 814.413 1748.79 807.229 1744.31C791.23 1734.31 778.854 1718.15 770.327 1702.68ZM999.979 1525.99C1015.37 1517.85 1031.2 1520.44 1041.42 1525.34L1042.4 1525.82L1042.44 1525.84L1042.48 1525.86C1059.4 1534.68 1082.11 1564.91 1072.22 1619.09C1067.36 1645.69 1058.28 1662.48 1047.21 1672.08C1036.37 1681.48 1024.21 1683.35 1015.07 1680.89C1003.26 1679.08 987.64 1672.06 976.437 1656.85C964.737 1640.96 958.85 1617.54 965.092 1585.04C971.232 1553.07 983.931 1534.47 999.979 1525.99ZM491.03 1490.96C497.976 1484.81 507.035 1481.25 517.399 1483.53C530.035 1482.9 547.415 1486.51 560.543 1500.01C574.722 1514.59 581.7 1538.33 575.739 1573.46C569.975 1607.42 560.155 1628.14 548.475 1639.64C537.279 1650.67 524.426 1652.97 514.38 1649.62C502.634 1649.43 486.601 1645.57 474.571 1633.67C461.181 1620.43 454.964 1599.49 461.53 1569.81C463.224 1554.74 467.481 1532.66 475.128 1514.89C478.967 1505.97 484.092 1497.1 491.03 1490.96Z" fill="#1F4371"/>
<path d="M202.981 1307.78L312.895 1165.62C271.695 1084.02 206.061 1113.28 178.395 1138.12C112.795 1202.12 170.815 1283.28 202.981 1307.78Z" fill="#9DD0FA"/>
<path d="M1285.48 1350.78L1195.89 1214.62C1226.29 1153.02 1290.23 1179.28 1318.39 1200.12C1372.39 1265.72 1316.48 1326.95 1285.48 1350.78Z" fill="#9DD0FA"/>
<path d="M202.981 1307.78L312.895 1165.62C271.695 1084.02 206.061 1113.28 178.395 1138.12C112.795 1202.12 170.815 1283.28 202.981 1307.78Z" stroke="#9DD0FA" stroke-width="2"/>
<path d="M1285.48 1350.78L1195.89 1214.62C1226.29 1153.02 1290.23 1179.28 1318.39 1200.12C1372.39 1265.72 1316.48 1326.95 1285.48 1350.78Z" stroke="#9DD0FA" stroke-width="2"/>
<path d="M85.1768 1018.31C124.354 984.253 189.564 955.97 256.305 960.473C322.195 964.919 388.23 1001.26 431.323 1091.79C494.324 1063.03 597.212 1032.45 712.592 1028.3C828.35 1024.13 957.423 1046.55 1071.31 1124.94C1101.81 1088.67 1152.17 1047.19 1212.27 1032.51C1244.83 1024.55 1280.27 1024.48 1316.65 1037.44C1352.98 1050.38 1389.56 1076.08 1424.86 1118.59C1460.15 1161.09 1478.85 1201.86 1485.18 1240.11C1491.52 1278.4 1485.35 1313.47 1472 1344.31C1447.21 1401.6 1397.71 1444.37 1356.96 1468.13C1375.63 1520.59 1394.96 1605.56 1396.57 1701.87C1398.27 1803.89 1380.1 1919.44 1319.38 2022.69L1319.04 2023.26L1318.65 2023.78C1271.03 2086.31 1131.71 2215.8 951.601 2236.76L743.207 2366.46L737.09 2370.26L731.155 2366.18L529.47 2227.27C506.371 2224.8 469.579 2218.41 429.986 2206.85C388.804 2194.82 343.835 2176.98 308.031 2151.59V2151.59C207.859 2082.25 90.5552 1947.3 64.6446 1767.17C49.4416 1661.48 65.8315 1541.21 134.393 1410.59C89.7327 1382.53 36.7186 1325.58 13.0313 1257.08C0.331379 1220.36 -4.05406 1179.97 6.17874 1138.85C16.4258 1097.67 41.1209 1056.62 85.1768 1018.31ZM254.824 982.423C194.662 978.364 135.022 1004.13 99.6114 1034.92C58.4612 1070.69 36.5327 1107.97 27.5274 1144.16C18.5081 1180.41 22.2417 1216.41 33.8223 1249.89C55.5381 1312.69 104.434 1365.38 144.907 1391.21C193.749 1304.04 265.915 1212.42 367.384 1117.58L370.555 1114.62H387.285V1136.62H379.244C123.336 1377.11 61.7994 1592.87 86.42 1764.04C111.048 1935.25 222.259 2064.68 318.385 2131.99L320.653 2133.57L320.706 2133.61L320.759 2133.64C353.754 2157.05 396.12 2174.04 436.153 2185.73C476.104 2197.4 512.98 2203.57 534.465 2205.67L537.294 2205.95L539.634 2207.56L737.7 2343.97L942.083 2216.78L944.203 2215.46L946.686 2215.18C1119.27 2196.09 1254.53 2071.35 1300.75 2010.97C1358.55 1912.37 1376.23 1801.4 1374.57 1702.24C1372.91 1602.85 1351.84 1516.11 1333.12 1467.04L1329.67 1457.99L1338.2 1453.42C1377.59 1432.32 1427.9 1390.83 1451.81 1335.57C1463.68 1308.15 1469.05 1277.36 1463.48 1243.7C1457.9 1210 1441.24 1172.74 1407.93 1132.64C1374.63 1092.55 1341.18 1069.53 1309.27 1058.16C1277.4 1046.81 1246.39 1046.82 1217.49 1053.88C1163.97 1066.95 1117.81 1104.24 1089.22 1137.83C1094.42 1141.74 1099.58 1145.78 1104.71 1149.93C1105.6 1150.66 1106.49 1151.39 1107.38 1152.12L1093.43 1169.13L1093.41 1169.11L1090.84 1167.01C1082.98 1160.63 1075.02 1154.56 1066.98 1148.79C956.08 1069.18 828.673 1046.13 713.383 1050.28C598.005 1054.43 495.543 1085.81 435.584 1114.07L434.89 1112.59L434.395 1113.12L426.829 1121.1L417.329 1112.1L415.74 1110.6L414.849 1108.6C375.006 1019.29 313.966 986.414 254.824 982.423Z" fill="#1F4371"/>
<path d="M85.1768 1018.31L85.5048 1018.69V1018.69L85.1768 1018.31ZM256.305 960.473L256.338 959.974V959.974L256.305 960.473ZM431.323 1091.79L430.872 1092.01L431.083 1092.45L431.531 1092.25L431.323 1091.79ZM712.592 1028.3L712.574 1027.8V1027.8L712.592 1028.3ZM1071.31 1124.94L1071.03 1125.35L1071.4 1125.61L1071.69 1125.26L1071.31 1124.94ZM1212.27 1032.51L1212.15 1032.02V1032.02L1212.27 1032.51ZM1316.65 1037.44L1316.82 1036.97V1036.97L1316.65 1037.44ZM1424.86 1118.59L1425.24 1118.27V1118.27L1424.86 1118.59ZM1485.18 1240.11L1485.68 1240.03V1240.03L1485.18 1240.11ZM1472 1344.31L1471.54 1344.11V1344.11L1472 1344.31ZM1356.96 1468.13L1356.71 1467.7L1356.35 1467.9L1356.49 1468.29L1356.96 1468.13ZM1396.57 1701.87L1397.07 1701.86V1701.86L1396.57 1701.87ZM1319.38 2022.69L1318.95 2022.44L1318.95 2022.44L1319.38 2022.69ZM1319.04 2023.26L1319.44 2023.56L1319.46 2023.54L1319.47 2023.51L1319.04 2023.26ZM1318.65 2023.78L1318.25 2023.48L1318.25 2023.48L1318.65 2023.78ZM951.601 2236.76L951.543 2236.27L951.432 2236.28L951.336 2236.34L951.601 2236.76ZM743.207 2366.46L742.943 2366.03V2366.03L743.207 2366.46ZM737.09 2370.26L736.806 2370.67L737.076 2370.86L737.354 2370.69L737.09 2370.26ZM731.155 2366.18L730.872 2366.59V2366.59L731.155 2366.18ZM529.47 2227.27L529.753 2226.86L529.649 2226.79L529.523 2226.77L529.47 2227.27ZM429.986 2206.85L429.846 2207.33V2207.33L429.986 2206.85ZM308.031 2151.59H307.531V2151.85L307.742 2152L308.031 2151.59ZM308.031 2151.59H308.531V2151.33L308.316 2151.18L308.031 2151.59ZM64.6446 1767.17L64.1497 1767.24V1767.24L64.6446 1767.17ZM134.393 1410.59L134.835 1410.83L135.05 1410.42L134.659 1410.17L134.393 1410.59ZM13.0313 1257.08L12.5587 1257.25V1257.25L13.0313 1257.08ZM6.17874 1138.85L5.69354 1138.73H5.69354L6.17874 1138.85ZM254.824 982.423L254.858 981.924V981.924L254.824 982.423ZM99.6114 1034.92L99.9394 1035.29V1035.29L99.6114 1034.92ZM27.5274 1144.16L27.0422 1144.04V1144.04L27.5274 1144.16ZM33.8223 1249.89L33.3498 1250.06V1250.06L33.8223 1249.89ZM144.907 1391.21L144.638 1391.64L145.085 1391.92L145.343 1391.46L144.907 1391.21ZM367.384 1117.58L367.042 1117.22V1117.22L367.384 1117.58ZM370.555 1114.62V1114.12H370.357L370.213 1114.25L370.555 1114.62ZM387.285 1114.62H387.785V1114.12H387.285V1114.62ZM387.285 1136.62V1137.12H387.785V1136.62H387.285ZM379.244 1136.62V1136.12H379.046L378.902 1136.25L379.244 1136.62ZM86.42 1764.04L85.925 1764.11V1764.11L86.42 1764.04ZM318.385 2131.99L318.098 2132.4L318.099 2132.4L318.385 2131.99ZM320.653 2133.57L320.368 2133.98L320.371 2133.98L320.653 2133.57ZM320.706 2133.61L320.999 2133.2L320.989 2133.19L320.706 2133.61ZM320.759 2133.64L320.466 2134.05L320.47 2134.05L320.759 2133.64ZM436.153 2185.73L436.294 2185.25V2185.25L436.153 2185.73ZM534.465 2205.67L534.514 2205.17H534.513L534.465 2205.67ZM537.294 2205.95L537.578 2205.53L537.471 2205.46L537.343 2205.45L537.294 2205.95ZM539.634 2207.56L539.917 2207.15V2207.15L539.634 2207.56ZM737.7 2343.97L737.417 2344.38L737.686 2344.57L737.964 2344.39L737.7 2343.97ZM942.083 2216.78L942.347 2217.2L942.347 2217.2L942.083 2216.78ZM944.203 2215.46L944.148 2214.96L944.035 2214.97L943.939 2215.03L944.203 2215.46ZM946.686 2215.18L946.741 2215.68V2215.68L946.686 2215.18ZM1300.75 2010.97L1301.14 2011.27L1301.16 2011.25L1301.18 2011.22L1300.75 2010.97ZM1374.57 1702.24L1374.07 1702.25V1702.25L1374.57 1702.24ZM1333.12 1467.04L1333.58 1466.86V1466.86L1333.12 1467.04ZM1329.67 1457.99L1329.43 1457.55L1329.04 1457.76L1329.2 1458.17L1329.67 1457.99ZM1338.2 1453.42L1337.96 1452.98V1452.98L1338.2 1453.42ZM1451.81 1335.57L1452.27 1335.77V1335.77L1451.81 1335.57ZM1463.48 1243.7L1463.97 1243.62V1243.62L1463.48 1243.7ZM1407.93 1132.64L1408.32 1132.32V1132.32L1407.93 1132.64ZM1309.27 1058.16L1309.43 1057.69V1057.69L1309.27 1058.16ZM1217.49 1053.88L1217.37 1053.39V1053.39L1217.49 1053.88ZM1089.22 1137.83L1088.84 1137.51L1088.5 1137.91L1088.92 1138.23L1089.22 1137.83ZM1104.71 1149.93L1105.02 1149.55V1149.55L1104.71 1149.93ZM1107.38 1152.12L1107.77 1152.44L1108.09 1152.05L1107.7 1151.73L1107.38 1152.12ZM1093.43 1169.13L1093.12 1169.52L1093.5 1169.84L1093.82 1169.45L1093.43 1169.13ZM1093.41 1169.11L1093.72 1168.72L1093.72 1168.72L1093.41 1169.11ZM1090.84 1167.01L1091.16 1166.63L1091.16 1166.63L1090.84 1167.01ZM1066.98 1148.79L1067.27 1148.38V1148.38L1066.98 1148.79ZM713.383 1050.28L713.365 1049.78V1049.78L713.383 1050.28ZM435.584 1114.07L435.132 1114.28L435.345 1114.73L435.797 1114.52L435.584 1114.07ZM434.89 1112.59L435.342 1112.38L435.03 1111.72L434.526 1112.25L434.89 1112.59ZM434.395 1113.12L434.758 1113.46L434.758 1113.46L434.395 1113.12ZM426.829 1121.1L426.485 1121.46L426.848 1121.81L427.192 1121.45L426.829 1121.1ZM417.329 1112.1L417.673 1111.74L417.673 1111.74L417.329 1112.1ZM415.74 1110.6L415.284 1110.8L415.324 1110.89L415.396 1110.96L415.74 1110.6ZM414.849 1108.6L415.305 1108.39V1108.39L414.849 1108.6ZM85.1768 1018.31L85.5048 1018.69C124.596 984.705 189.68 956.479 256.271 960.972L256.305 960.473L256.338 959.974C189.448 955.461 124.111 983.801 84.8487 1017.94L85.1768 1018.31ZM256.305 960.473L256.271 960.972C321.973 965.405 387.853 1001.63 430.872 1092.01L431.323 1091.79L431.775 1091.58C388.608 1000.89 322.418 964.432 256.338 959.974L256.305 960.473ZM431.323 1091.79L431.531 1092.25C494.477 1063.51 597.301 1032.95 712.61 1028.79L712.592 1028.3L712.574 1027.8C597.123 1031.95 494.171 1062.55 431.116 1091.34L431.323 1091.79ZM712.592 1028.3L712.61 1028.79C828.293 1024.63 957.252 1047.04 1071.03 1125.35L1071.31 1124.94L1071.6 1124.53C957.594 1046.06 828.406 1023.63 712.574 1027.8L712.592 1028.3ZM1071.31 1124.94L1071.69 1125.26C1102.15 1089.04 1152.43 1047.64 1212.39 1032.99L1212.27 1032.51L1212.15 1032.02C1151.91 1046.74 1101.47 1088.3 1070.93 1124.62L1071.31 1124.94ZM1212.27 1032.51L1212.39 1032.99C1244.87 1025.06 1280.21 1024.98 1316.48 1037.91L1316.65 1037.44L1316.82 1036.97C1280.34 1023.97 1244.8 1024.05 1212.15 1032.02L1212.27 1032.51ZM1316.65 1037.44L1316.48 1037.91C1352.72 1050.82 1389.22 1076.46 1424.47 1118.91L1424.86 1118.59L1425.24 1118.27C1389.9 1075.71 1353.25 1049.95 1316.82 1036.97L1316.65 1037.44ZM1424.86 1118.59L1424.47 1118.91C1459.72 1161.35 1478.38 1202.04 1484.69 1240.19L1485.18 1240.11L1485.68 1240.03C1479.33 1201.67 1460.58 1160.82 1425.24 1118.27L1424.86 1118.59ZM1485.18 1240.11L1484.69 1240.19C1491.01 1278.37 1484.86 1313.35 1471.54 1344.11L1472 1344.31L1472.46 1344.51C1485.84 1313.59 1492.03 1278.42 1485.68 1240.03L1485.18 1240.11ZM1472 1344.31L1471.54 1344.11C1446.81 1401.27 1397.4 1443.97 1356.71 1467.7L1356.96 1468.13L1357.21 1468.56C1398.02 1444.76 1447.62 1401.93 1472.46 1344.51L1472 1344.31ZM1356.96 1468.13L1356.49 1468.29C1375.14 1520.71 1394.46 1605.63 1396.07 1701.88L1396.57 1701.87L1397.07 1701.86C1395.46 1605.49 1376.11 1520.48 1357.43 1467.96L1356.96 1468.13ZM1396.57 1701.87L1396.07 1701.88C1397.77 1803.84 1379.61 1919.28 1318.95 2022.44L1319.38 2022.69L1319.81 2022.95C1380.6 1919.59 1398.77 1803.94 1397.07 1701.86L1396.57 1701.87ZM1319.38 2022.69L1318.95 2022.44L1318.61 2023.01L1319.04 2023.26L1319.47 2023.51L1319.81 2022.95L1319.38 2022.69ZM1319.04 2023.26L1318.65 2022.96L1318.25 2023.48L1318.65 2023.78L1319.04 2024.08L1319.44 2023.56L1319.04 2023.26ZM1318.65 2023.78L1318.25 2023.48C1270.68 2085.95 1131.46 2215.32 951.543 2236.27L951.601 2236.76L951.658 2237.26C1131.95 2216.27 1271.38 2086.67 1319.04 2024.08L1318.65 2023.78ZM951.601 2236.76L951.336 2236.34L742.943 2366.03L743.207 2366.46L743.471 2366.88L951.865 2237.19L951.601 2236.76ZM743.207 2366.46L742.943 2366.03L736.826 2369.84L737.09 2370.26L737.354 2370.69L743.471 2366.88L743.207 2366.46ZM737.09 2370.26L737.373 2369.85L731.439 2365.76L731.155 2366.18L730.872 2366.59L736.806 2370.67L737.09 2370.26ZM731.155 2366.18L731.439 2365.76L529.753 2226.86L529.47 2227.27L529.186 2227.68L730.872 2366.59L731.155 2366.18ZM529.47 2227.27L529.523 2226.77C506.453 2224.3 469.69 2217.92 430.127 2206.37L429.986 2206.85L429.846 2207.33C469.468 2218.9 506.289 2225.29 529.417 2227.77L529.47 2227.27ZM429.986 2206.85L430.127 2206.37C388.97 2194.35 344.061 2176.53 308.321 2151.18L308.031 2151.59L307.742 2152C343.61 2177.44 388.638 2195.3 429.846 2207.33L429.986 2206.85ZM308.031 2151.59H308.531V2151.59H308.031H307.531V2151.59H308.031ZM308.031 2151.59L308.316 2151.18C208.224 2081.9 91.0251 1947.06 65.1395 1767.1L64.6446 1767.17L64.1497 1767.24C90.0852 1947.54 207.493 2082.61 307.747 2152L308.031 2151.59ZM64.6446 1767.17L65.1395 1767.1C49.9523 1661.52 66.3203 1541.36 134.835 1410.83L134.393 1410.59L133.95 1410.36C65.3427 1541.07 48.9309 1661.44 64.1497 1767.24L64.6446 1767.17ZM134.393 1410.59L134.659 1410.17C90.0826 1382.16 37.1493 1325.29 13.5038 1256.92L13.0313 1257.08L12.5587 1257.25C36.2879 1325.86 89.3829 1382.91 134.127 1411.02L134.393 1410.59ZM13.0313 1257.08L13.5038 1256.92C0.829346 1220.27 -3.54128 1179.98 6.66394 1138.97L6.17874 1138.85L5.69354 1138.73C-4.56685 1179.96 -0.166588 1220.45 12.5587 1257.25L13.0313 1257.08ZM6.17874 1138.85L6.66394 1138.97C16.8827 1097.91 41.515 1056.94 85.5048 1018.69L85.1768 1018.31L84.8487 1017.94C40.7268 1056.3 15.9688 1097.44 5.69354 1138.73L6.17874 1138.85ZM254.824 982.423L254.858 981.924C194.546 977.855 134.779 1003.68 99.2833 1034.54L99.6114 1034.92L99.9394 1035.29C135.264 1004.58 194.778 978.873 254.791 982.922L254.824 982.423ZM99.6114 1034.92L99.2833 1034.54C58.067 1070.37 36.0757 1107.74 27.0422 1144.04L27.5274 1144.16L28.0126 1144.28C36.9897 1108.21 58.8553 1071.01 99.9394 1035.29L99.6114 1034.92ZM27.5274 1144.16L27.0422 1144.04C17.9953 1180.4 21.7437 1216.5 33.3498 1250.06L33.8223 1249.89L34.2948 1249.73C22.7397 1216.32 19.0209 1180.42 28.0126 1144.28L27.5274 1144.16ZM33.8223 1249.89L33.3498 1250.06C55.1072 1312.97 104.083 1365.75 144.638 1391.64L144.907 1391.21L145.176 1390.79C104.785 1365.01 55.9689 1312.4 34.2948 1249.73L33.8223 1249.89ZM144.907 1391.21L145.343 1391.46C194.155 1304.34 266.287 1212.76 367.725 1117.95L367.384 1117.58L367.042 1117.22C265.544 1212.09 193.342 1303.75 144.471 1390.97L144.907 1391.21ZM367.384 1117.58L367.725 1117.95L370.896 1114.98L370.555 1114.62L370.213 1114.25L367.042 1117.22L367.384 1117.58ZM370.555 1114.62V1115.12H387.285V1114.62V1114.12H370.555V1114.62ZM387.285 1114.62H386.785V1136.62H387.285H387.785V1114.62H387.285ZM387.285 1136.62V1136.12H379.244V1136.62V1137.12H387.285V1136.62ZM379.244 1136.62L378.902 1136.25C122.91 1376.82 61.2751 1592.74 85.925 1764.11L86.42 1764.04L86.9149 1763.97C62.3237 1593.01 123.762 1377.39 379.587 1136.98L379.244 1136.62ZM86.42 1764.04L85.925 1764.11C110.578 1935.5 221.892 2065.04 318.098 2132.4L318.385 2131.99L318.672 2131.58C222.625 2064.33 111.518 1935.01 86.9149 1763.97L86.42 1764.04ZM318.385 2131.99L318.099 2132.4L320.368 2133.98L320.653 2133.57L320.939 2133.16L318.67 2131.58L318.385 2131.99ZM320.653 2133.57L320.371 2133.98L320.423 2134.02L320.706 2133.61L320.989 2133.19L320.936 2133.16L320.653 2133.57ZM320.706 2133.61L320.413 2134.01L320.466 2134.05L320.759 2133.64L321.052 2133.24L320.999 2133.2L320.706 2133.61ZM320.759 2133.64L320.47 2134.05C353.529 2157.5 395.953 2174.51 436.013 2186.21L436.153 2185.73L436.294 2185.25C396.286 2173.57 353.98 2156.6 321.048 2133.24L320.759 2133.64ZM436.153 2185.73L436.013 2186.21C475.993 2197.89 512.9 2204.06 534.416 2206.17L534.465 2205.67L534.513 2205.17C513.059 2203.07 476.214 2196.91 436.294 2185.25L436.153 2185.73ZM534.465 2205.67L534.416 2206.17L537.245 2206.44L537.294 2205.95L537.343 2205.45L534.514 2205.17L534.465 2205.67ZM537.294 2205.95L537.01 2206.36L539.35 2207.97L539.634 2207.56L539.917 2207.15L537.578 2205.53L537.294 2205.95ZM539.634 2207.56L539.35 2207.97L737.417 2344.38L737.7 2343.97L737.984 2343.56L539.917 2207.15L539.634 2207.56ZM737.7 2343.97L737.964 2344.39L942.347 2217.2L942.083 2216.78L941.819 2216.35L737.436 2343.55L737.7 2343.97ZM942.083 2216.78L942.347 2217.2L944.467 2215.88L944.203 2215.46L943.939 2215.03L941.819 2216.35L942.083 2216.78ZM944.203 2215.46L944.258 2215.95L946.741 2215.68L946.686 2215.18L946.631 2214.69L944.148 2214.96L944.203 2215.46ZM946.686 2215.18L946.741 2215.68C1119.52 2196.57 1254.89 2071.71 1301.14 2011.27L1300.75 2010.97L1300.35 2010.67C1254.18 2070.99 1119.03 2195.62 946.631 2214.69L946.686 2215.18ZM1300.75 2010.97L1301.18 2011.22C1359.04 1912.52 1376.73 1801.46 1375.07 1702.23L1374.57 1702.24L1374.07 1702.25C1375.73 1801.35 1358.06 1912.22 1300.31 2010.72L1300.75 2010.97ZM1374.57 1702.24L1375.07 1702.23C1373.41 1602.78 1352.32 1515.99 1333.58 1466.86L1333.12 1467.04L1332.65 1467.21C1351.35 1516.23 1372.41 1602.91 1374.07 1702.25L1374.57 1702.24ZM1333.12 1467.04L1333.58 1466.86L1330.13 1457.81L1329.67 1457.99L1329.2 1458.17L1332.65 1467.21L1333.12 1467.04ZM1329.67 1457.99L1329.9 1458.43L1338.44 1453.86L1338.2 1453.42L1337.96 1452.98L1329.43 1457.55L1329.67 1457.99ZM1338.2 1453.42L1338.44 1453.86C1377.89 1432.72 1428.3 1391.16 1452.27 1335.77L1451.81 1335.57L1451.35 1335.37C1427.5 1390.49 1377.29 1431.91 1337.96 1452.98L1338.2 1453.42ZM1451.81 1335.57L1452.27 1335.77C1464.17 1308.27 1469.56 1277.38 1463.97 1243.62L1463.48 1243.7L1462.99 1243.78C1468.54 1277.33 1463.19 1308.03 1451.35 1335.37L1451.81 1335.57ZM1463.48 1243.7L1463.97 1243.62C1458.38 1209.82 1441.67 1172.48 1408.32 1132.32L1407.93 1132.64L1407.55 1132.96C1440.81 1173.01 1457.42 1210.19 1462.99 1243.78L1463.48 1243.7ZM1407.93 1132.64L1408.32 1132.32C1374.97 1092.17 1341.44 1069.1 1309.43 1057.69L1309.27 1058.16L1309.1 1058.63C1340.91 1069.97 1374.29 1092.92 1407.55 1132.96L1407.93 1132.64ZM1309.27 1058.16L1309.43 1057.69C1277.47 1046.3 1246.35 1046.31 1217.37 1053.39L1217.49 1053.88L1217.61 1054.36C1246.42 1047.33 1277.34 1047.32 1309.1 1058.63L1309.27 1058.16ZM1217.49 1053.88L1217.37 1053.39C1163.71 1066.5 1117.47 1103.87 1088.84 1137.51L1089.22 1137.83L1089.6 1138.15C1118.15 1104.62 1164.22 1067.4 1217.61 1054.36L1217.49 1053.88ZM1089.22 1137.83L1088.92 1138.23C1094.12 1142.14 1099.27 1146.17 1104.39 1150.32L1104.71 1149.93L1105.02 1149.55C1099.89 1145.38 1094.73 1141.35 1089.52 1137.43L1089.22 1137.83ZM1104.71 1149.93L1104.39 1150.32C1105.28 1151.05 1106.18 1151.77 1107.07 1152.51L1107.38 1152.12L1107.7 1151.73C1106.81 1151 1105.92 1150.27 1105.02 1149.55L1104.71 1149.93ZM1107.38 1152.12L1107 1151.8L1093.05 1168.82L1093.43 1169.13L1093.82 1169.45L1107.77 1152.44L1107.38 1152.12ZM1093.43 1169.13L1093.75 1168.75L1093.72 1168.72L1093.41 1169.11L1093.09 1169.5L1093.12 1169.52L1093.43 1169.13ZM1093.41 1169.11L1093.72 1168.72L1091.16 1166.63L1090.84 1167.01L1090.53 1167.4L1093.09 1169.5L1093.41 1169.11ZM1090.84 1167.01L1091.16 1166.63C1083.29 1160.24 1075.32 1154.16 1067.27 1148.38L1066.98 1148.79L1066.69 1149.19C1074.72 1154.96 1082.67 1161.03 1090.53 1167.4L1090.84 1167.01ZM1066.98 1148.79L1067.27 1148.38C956.257 1068.69 828.731 1045.63 713.365 1049.78L713.383 1050.28L713.401 1050.78C828.615 1046.63 955.903 1069.66 1066.69 1149.19L1066.98 1148.79ZM713.383 1050.28L713.365 1049.78C597.915 1053.94 495.387 1085.33 435.371 1113.61L435.584 1114.07L435.797 1114.52C495.7 1086.29 598.096 1054.93 713.401 1050.78L713.383 1050.28ZM435.584 1114.07L436.036 1113.85L435.342 1112.38L434.89 1112.59L434.437 1112.81L435.132 1114.28L435.584 1114.07ZM434.89 1112.59L434.526 1112.25L434.031 1112.77L434.395 1113.12L434.758 1113.46L435.253 1112.94L434.89 1112.59ZM434.395 1113.12L434.032 1112.77L426.466 1120.76L426.829 1121.1L427.192 1121.45L434.758 1113.46L434.395 1113.12ZM426.829 1121.1L427.173 1120.74L417.673 1111.74L417.329 1112.1L416.985 1112.46L426.485 1121.46L426.829 1121.1ZM417.329 1112.1L417.673 1111.74L416.084 1110.23L415.74 1110.6L415.396 1110.96L416.985 1112.46L417.329 1112.1ZM415.74 1110.6L416.197 1110.39L415.305 1108.39L414.849 1108.6L414.392 1108.8L415.284 1110.8L415.74 1110.6ZM414.849 1108.6L415.305 1108.39C375.392 1018.93 314.195 985.928 254.858 981.924L254.824 982.423L254.791 982.922C313.736 986.899 374.62 1019.65 414.392 1108.8L414.849 1108.6Z" fill="#1F4371"/>
<path d="M1179.89 1216.12C1205.89 1234.62 1263.09 1287.62 1283.89 1351.62" stroke="#1F4371" stroke-width="22"/>
<path d="M762.393 1881.62C693.926 1881.62 686.061 1792.28 690.895 1748.62C720.395 1755.62 752.395 1729.62 771.395 1702.62C776.595 1726.62 815.895 1755.62 829.895 1755.62C832.395 1794.62 822.892 1881.62 762.393 1881.62Z" fill="url(#paint0_linear_29_192)" stroke="#FFE6E8" stroke-width="2"/>
<path d="M222.479 2077C164.98 2212.5 178.479 2339 164.98 2455.5C164.98 2455.5 149.981 2544.5 230.98 2558.5" stroke="#1F4371" stroke-width="20"/>
<path d="M1302.48 2594.5V2678.5L1202.98 2712" stroke="#1F4371" stroke-width="20"/>
<path d="M660 320C426.4 441.6 562.667 631.667 660 711.5L806.5 715.5C1034.5 509.5 901.5 366 806.5 320C772.9 294.8 694.833 309.5 660 320Z" fill="url(#paint1_linear_29_192)" stroke="#1F4371"/>
<path d="M809.5 852H669V868.5L701.5 907.5L753.5 917L798.5 900.5L809.5 852Z" fill="black" stroke="#1F4371"/>
<path d="M628.5 736.5L662 722C711.833 719.5 811.5 715 811.5 717C811.5 719.5 844.5 747.5 844.5 751C844.5 753.8 829.167 763.834 821.5 768.5L844.5 791L821.5 807L844.5 830L811.5 855H662L628.5 827.5L643.5 807L628.5 785L640.5 768.5L628.5 736.5Z" fill="#D9D9D9" stroke="#1F4371"/>
<path d="M665.488 852C664.321 866.566 678.188 918.5 742.988 918.5C807.788 918.5 813.988 866.566 808.988 852M665.488 852H808.988M665.488 852C636.154 841.704 595.087 817.654 665.488 809.5H808.988C836.488 813.359 874.987 830.183 808.988 852M665.499 717C595.099 726.442 636.166 766.251 665.499 768H809C874.999 764.295 836.499 721.469 809 717M665.499 717H809M665.499 717C561.658 634.167 416.277 438.8 665.488 320C693.158 311.667 760.6 300 809 320C903.666 365 1036.2 507.4 809 717M665.497 809.5H808.998C874.997 801.145 836.498 769.711 808.998 768H737.248H665.497C595.097 771.616 636.164 805.557 665.497 809.5Z" stroke="#1F4371" stroke-width="20"/>
<path d="M702 715.5C699.2 709.1 673.167 603.167 660.5 551" stroke="#1F4371" stroke-width="10"/>
<path d="M769 716L800.822 583M808 553L800.822 583M800.822 583C781.802 605.605 700.248 591.458 756.5 583C812.752 574.542 679.021 609.754 708.5 583C732.657 611.591 717.097 604.701 669 583" stroke="#1F4371" stroke-width="10"/>
<path d="M644.5 5L734.5 235L818.5 5H644.5Z" fill="#FDE10C" stroke="#1F4371" stroke-width="10"/>
<path d="M1051.96 94L934.687 311.363L1164.46 226.742L1051.96 94Z" fill="#FDE10C" stroke="#1F4371" stroke-width="10"/>
<path d="M1234.71 396.288L1003.07 481.984L1231.46 570.258L1234.71 396.288Z" fill="#FDE10C" stroke="#1F4371" stroke-width="10"/>
<path d="M301.5 192.42L535.632 271.048L413.192 58.9998L301.5 192.42Z" fill="#FDE10C" stroke="#1F4371" stroke-width="10"/>
<path d="M243.5 565.963L475.313 480.741L247.1 392L243.5 565.963Z" fill="#FDE10C" stroke="#1F4371" stroke-width="10"/>
<defs>
<linearGradient id="paint0_linear_29_192" x1="761.708" y1="1704.62" x2="761.708" y2="1881.38" gradientUnits="userSpaceOnUse">
<stop stop-color="#F1C9EB"/>
<stop offset="1" stop-color="#E9EFFF"/>
</linearGradient>
<linearGradient id="paint1_linear_29_192" x1="731.704" y1="306.086" x2="731.704" y2="715.5" gradientUnits="userSpaceOnUse">
<stop stop-color="white"/>
<stop offset="0.5" stop-color="#FDE10C"/>
<stop offset="1" stop-color="#FF9245"/>
</linearGradient>
</defs>
</svg>
