<svg width="1801" height="1817" viewBox="0 0 1801 1817" fill="none" xmlns="http://www.w3.org/2000/svg">
<path d="M347.427 1044.12C359.827 1118.52 518.26 1163.12 595.927 1176.12C675.526 1230.92 790.093 1249.62 837.427 1252.12L1046.93 1394.62L1270.43 1263.12C1379.63 1257.12 1510.26 1171.62 1561.93 1129.62C1737.13 1282.42 1758.93 1539.62 1747.93 1649.12C1610.33 1735.92 1538.59 1752.28 1519.93 1749.62C1151.53 1874.82 724.427 1765.78 556.927 1695.62L564.927 1582.12C181.727 1594.52 112.593 1261.95 125.927 1094.12C237.527 1109.32 320.093 1067.12 347.427 1044.12Z" fill="#4EA9FE"/>
<path d="M97.4144 790.615C-71.3856 908.615 46.7477 1037.12 126.914 1086.62C264.514 1110.22 327.914 1055.12 342.415 1024.61C378.415 960.215 352.081 890.448 334.415 863.615C288.415 718.815 157.248 754.615 97.4144 790.615Z" fill="#FEFEFE" stroke="black"/>
<path d="M1563.92 1135.12C1634.42 1189.62 1770.02 1358.12 1748.42 1596.12V1652.62C1748.42 1652.62 1659.42 1707.95 1563.92 1745.12C1501.41 1769.44 1522.41 1745.12 1522.41 1652.62" stroke="#1F4371" stroke-width="20"/>
<path d="M122.524 1093.11C122.737 1087.07 123.038 1081.23 123.414 1075.61C51.9146 1075.61 45.3948 1004.12 19.4143 959.615C-6.56627 915.115 21.9147 823.031 96.4141 786.615C203.414 734.312 277.247 753.115 313.914 819.615C361.332 905.615 379.415 992.115 340.413 1013.12C340.98 1020.29 342.269 1027.12 344.211 1033.61C371.363 1124.5 526.154 1151.82 620.414 1182.62M1501.41 1548.62L1521.91 1751.12C1095.51 1875.12 697.58 1763.12 551.914 1691.62L584.414 1510.12L566.914 1581.12C178.491 1585.75 116.611 1261.07 122.524 1093.11M122.524 1093.11C175.852 1097.95 294.848 1092.81 344.211 1033.61" stroke="#1F4371" stroke-width="20"/>
<path d="M846.414 1254.12C304.014 1154.52 361.081 672.949 457.414 444.616C258.614 338.216 321.248 172.949 377.414 103.616C573.414 -72.3842 700.748 54.9491 739.914 140.616C1063.91 12.6158 1302.25 109.949 1380.91 174.616C1531.71 18.6157 1669.75 93.949 1719.91 151.116C1876.31 321.516 1741.41 456.782 1654.41 503.116C1830.81 1045.92 1466.25 1235.95 1261.91 1263.12L1054.41 1390.12L846.414 1254.12Z" fill="#FEFEFE" stroke="black"/>
<path d="M561.415 733.117C532.615 860.317 613.081 881.116 656.915 879.116C723.915 866.616 789.915 849.116 762.915 733.117C734.052 609.115 574.66 674.619 561.415 733.117Z" fill="#FFE6E8"/>
<path d="M1369.91 804.115C1353.41 904.614 1430.91 946.116 1480.41 942.115C1620.91 930.757 1583.42 747.617 1521.91 726.116C1460.41 704.615 1386.41 703.616 1369.91 804.115Z" fill="#FFE6E8"/>
<path d="M561.415 733.117C532.615 860.317 613.081 881.116 656.915 879.116C723.915 866.616 789.915 849.116 762.915 733.117C734.052 609.115 574.66 674.619 561.415 733.117Z" stroke="#FFE6E8" stroke-width="2"/>
<path d="M1369.91 804.115C1353.41 904.614 1430.91 946.116 1480.41 942.115C1620.91 930.757 1583.42 747.617 1521.91 726.116C1460.41 704.615 1386.41 703.616 1369.91 804.115Z" stroke="#FFE6E8" stroke-width="2"/>
<path d="M1082.91 724.116C1053.25 703.949 1012.91 662.116 1088.91 656.116C1122.58 659.782 1168.51 678.516 1082.91 724.116Z" fill="#1F4371" stroke="#1F4371" stroke-width="2"/>
<path d="M1094.18 716.666C1100.89 734.103 1114.02 755.603 1130.9 766.148C1139.02 771.22 1147.7 773.59 1157.12 772.203C1166.66 770.795 1178.28 765.326 1191.74 752.229L1207.08 768.001C1191.35 783.304 1175.7 791.701 1160.32 793.967C1144.82 796.254 1130.93 792.105 1119.25 784.807C1103.25 774.813 1090.87 758.646 1082.35 743.183C1058.73 775.982 1033.48 789.443 1009.3 789.913C982.09 790.442 960.231 774.354 948.444 760.135L965.382 746.094C974.595 757.209 990.636 768.271 1008.87 767.917C1026.34 767.577 1049.91 756.612 1074.44 715.026L1086.01 695.415L1094.18 716.666ZM1312 566.49C1327.39 558.355 1343.21 560.942 1353.44 565.838L1354.42 566.318L1354.46 566.339L1354.5 566.36C1371.42 575.179 1394.12 605.411 1384.23 659.591C1379.38 686.185 1370.3 702.978 1359.23 712.576C1348.39 721.979 1336.23 723.851 1327.09 721.39C1315.28 719.58 1299.66 712.561 1288.46 697.35C1276.76 681.464 1270.87 658.04 1277.11 625.541C1283.25 593.571 1295.95 574.972 1312 566.49ZM803.049 531.458C809.994 525.309 819.054 521.753 829.418 524.026C842.053 523.396 859.433 527.01 872.561 540.509C886.74 555.088 893.718 578.83 887.758 613.956C881.994 647.921 872.173 668.639 860.494 680.14C849.298 691.166 836.444 693.469 826.398 690.121C814.652 689.931 798.62 686.073 786.59 674.173C773.199 660.926 766.983 639.986 773.549 610.306C775.243 595.241 779.5 573.161 787.146 555.392C790.986 546.47 796.11 537.6 803.049 531.458Z" fill="#1F4371"/>
<path d="M515.001 348.278L624.914 206.116C583.714 124.516 518.081 153.783 490.414 178.616C424.814 242.616 482.834 323.778 515.001 348.278Z" fill="#9DD0FA"/>
<path d="M1597.5 391.278L1507.91 255.116C1538.31 193.516 1602.25 219.782 1630.41 240.616C1684.41 306.216 1628.5 367.445 1597.5 391.278Z" fill="#9DD0FA"/>
<path d="M515.001 348.278L624.914 206.116C583.714 124.516 518.081 153.783 490.414 178.616C424.814 242.616 482.834 323.778 515.001 348.278Z" stroke="#9DD0FA" stroke-width="2"/>
<path d="M1597.5 391.278L1507.91 255.116C1538.31 193.516 1602.25 219.782 1630.41 240.616C1684.41 306.216 1628.5 367.445 1597.5 391.278Z" stroke="#9DD0FA" stroke-width="2"/>
<path d="M397.196 58.8148C436.373 24.7532 501.584 -3.52991 568.324 0.972962C634.215 5.41861 700.25 41.7558 743.343 132.293C806.343 103.531 909.232 72.9477 1024.61 68.7943C1140.37 64.6272 1269.44 87.0528 1383.33 165.442C1413.83 129.167 1464.19 87.6863 1524.29 73.0052C1556.85 65.0517 1592.29 64.9753 1628.67 77.9368C1665 90.8826 1701.58 116.584 1736.88 159.087C1772.17 201.588 1790.87 242.358 1797.2 280.607C1803.54 318.897 1797.37 353.965 1784.02 384.809C1759.23 442.1 1709.73 484.865 1668.98 508.626C1687.64 561.094 1706.98 646.059 1708.59 742.369C1710.29 844.387 1692.12 959.934 1631.4 1063.19L1631.06 1063.76L1630.67 1064.28C1583.05 1126.81 1443.73 1256.3 1263.62 1277.26L1055.23 1406.95L1049.11 1410.76L1043.17 1406.68L841.489 1267.77C818.391 1265.3 781.598 1258.91 742.006 1247.35C700.823 1235.32 655.855 1217.48 620.051 1192.09V1192.09C519.878 1122.75 402.575 987.799 376.664 807.669C361.461 701.977 377.851 581.712 446.412 451.093C401.752 423.034 348.738 366.077 325.051 297.584C312.351 260.862 307.966 220.468 318.198 179.348C328.445 138.171 353.14 97.1182 397.196 58.8148ZM566.844 22.9232C506.681 18.8641 447.041 44.6305 411.631 75.4173C370.481 111.194 348.552 148.474 339.547 184.661C330.528 220.905 334.261 256.908 345.842 290.394C367.558 353.186 416.453 405.876 456.927 431.713C505.768 344.543 577.935 252.923 679.403 158.079L682.574 155.116H699.305V177.116H691.264C435.356 417.608 373.819 633.373 398.439 804.536C423.068 975.752 534.278 1105.18 630.404 1172.49L632.673 1174.07L632.726 1174.11L632.778 1174.14C665.774 1197.55 708.139 1214.54 748.173 1226.23C788.123 1237.9 824.999 1244.07 846.484 1246.17L849.313 1246.44L851.653 1248.06L1049.72 1384.47L1254.1 1257.28L1256.22 1255.96L1258.71 1255.68C1431.29 1236.59 1566.55 1111.85 1612.76 1051.47C1670.57 952.869 1688.25 841.903 1686.59 742.737C1684.93 643.346 1663.85 556.609 1645.14 507.535L1641.69 498.492L1650.22 493.919C1689.61 472.814 1739.92 431.326 1763.83 376.072C1775.7 348.649 1781.07 317.854 1775.5 284.2C1769.92 250.503 1753.25 213.242 1719.95 173.143C1686.65 133.047 1653.2 110.03 1621.29 98.6605C1589.42 87.3072 1558.41 87.3185 1529.51 94.3763C1475.99 107.451 1429.83 144.744 1401.24 178.329C1406.44 182.24 1411.6 186.275 1416.73 190.434C1417.62 191.159 1418.51 191.887 1419.4 192.619L1405.45 209.632L1405.43 209.61L1402.86 207.514C1395 201.131 1387.04 195.059 1379 189.286C1268.1 109.675 1140.69 86.6294 1025.4 90.7796C910.025 94.933 807.563 126.313 747.604 154.566L746.909 153.093L746.414 153.617L738.849 161.602L729.349 152.602L727.76 151.097L726.868 149.098C687.026 59.7892 625.986 26.9136 566.844 22.9232Z" fill="#1F4371"/>
<path d="M397.196 58.8148L396.868 58.4374V58.4374L397.196 58.8148ZM568.324 0.972962L568.358 0.474097V0.474097L568.324 0.972962ZM743.343 132.293L742.891 132.508L743.103 132.952L743.55 132.748L743.343 132.293ZM1024.61 68.7943L1024.59 68.2946V68.2946L1024.61 68.7943ZM1383.33 165.442L1383.05 165.854L1383.42 166.111L1383.71 165.763L1383.33 165.442ZM1524.29 73.0052L1524.17 72.5195V72.5195L1524.29 73.0052ZM1628.67 77.9368L1628.84 77.4658V77.4658L1628.67 77.9368ZM1736.88 159.087L1737.26 158.768V158.768L1736.88 159.087ZM1797.2 280.607L1797.7 280.525V280.525L1797.2 280.607ZM1784.02 384.809L1784.48 385.007V385.007L1784.02 384.809ZM1668.98 508.626L1668.73 508.194L1668.37 508.403L1668.51 508.794L1668.98 508.626ZM1708.59 742.369L1709.09 742.361V742.361L1708.59 742.369ZM1631.4 1063.19L1630.97 1062.94V1062.94L1631.4 1063.19ZM1631.06 1063.76L1631.46 1064.06L1631.48 1064.04L1631.49 1064.01L1631.06 1063.76ZM1630.67 1064.28L1630.27 1063.98L1630.27 1063.98L1630.67 1064.28ZM1263.62 1277.26L1263.56 1276.77L1263.45 1276.78L1263.36 1276.84L1263.62 1277.26ZM1055.23 1406.95L1054.96 1406.53H1054.96L1055.23 1406.95ZM1049.11 1410.76L1048.83 1411.17L1049.1 1411.36L1049.37 1411.19L1049.11 1410.76ZM1043.17 1406.68L1042.89 1407.09V1407.09L1043.17 1406.68ZM841.489 1267.77L841.773 1267.36L841.669 1267.29L841.542 1267.27L841.489 1267.77ZM742.006 1247.35L741.866 1247.83V1247.83L742.006 1247.35ZM620.051 1192.09H619.551V1192.35L619.762 1192.5L620.051 1192.09ZM620.051 1192.09H620.551V1191.83L620.335 1191.68L620.051 1192.09ZM376.664 807.669L376.169 807.74H376.169L376.664 807.669ZM446.412 451.093L446.855 451.325L447.07 450.916L446.678 450.67L446.412 451.093ZM325.051 297.584L324.578 297.748V297.748L325.051 297.584ZM318.198 179.348L317.713 179.227H317.713L318.198 179.348ZM566.844 22.9232L566.877 22.4243V22.4243L566.844 22.9232ZM411.631 75.4173L411.959 75.7946V75.7946L411.631 75.4173ZM339.547 184.661L339.062 184.541V184.541L339.547 184.661ZM345.842 290.394L345.369 290.557V290.557L345.842 290.394ZM456.927 431.713L456.658 432.135L457.104 432.42L457.363 431.958L456.927 431.713ZM679.403 158.079L679.062 157.714V157.714L679.403 158.079ZM682.574 155.116V154.616H682.377L682.233 154.75L682.574 155.116ZM699.305 155.116H699.805V154.616H699.305V155.116ZM699.305 177.116V177.616H699.805V177.116H699.305ZM691.264 177.116V176.616H691.066L690.921 176.751L691.264 177.116ZM398.439 804.536L397.945 804.608V804.608L398.439 804.536ZM630.404 1172.49L630.118 1172.9L630.119 1172.9L630.404 1172.49ZM632.673 1174.07L632.387 1174.48L632.39 1174.48L632.673 1174.07ZM632.726 1174.11L633.018 1173.7L633.008 1173.69L632.726 1174.11ZM632.778 1174.14L632.486 1174.55L632.489 1174.55L632.778 1174.14ZM748.173 1226.23L748.313 1225.75V1225.75L748.173 1226.23ZM846.484 1246.17L846.533 1245.67H846.533L846.484 1246.17ZM849.313 1246.44L849.597 1246.03L849.491 1245.96L849.362 1245.95L849.313 1246.44ZM851.653 1248.06L851.937 1247.64V1247.64L851.653 1248.06ZM1049.72 1384.47L1049.44 1384.88L1049.71 1385.07L1049.98 1384.89L1049.72 1384.47ZM1254.1 1257.28L1254.37 1257.7L1254.37 1257.7L1254.1 1257.28ZM1256.22 1255.96L1256.17 1255.46L1256.05 1255.47L1255.96 1255.53L1256.22 1255.96ZM1258.71 1255.68L1258.76 1256.18H1258.76L1258.71 1255.68ZM1612.76 1051.47L1613.16 1051.77L1613.18 1051.75L1613.2 1051.72L1612.76 1051.47ZM1686.59 742.737L1687.09 742.728V742.728L1686.59 742.737ZM1645.14 507.535L1645.6 507.357V507.357L1645.14 507.535ZM1641.69 498.492L1641.45 498.051L1641.06 498.259L1641.22 498.67L1641.69 498.492ZM1650.22 493.919L1649.98 493.479V493.479L1650.22 493.919ZM1763.83 376.072L1764.29 376.27V376.27L1763.83 376.072ZM1775.5 284.2L1775.99 284.118V284.118L1775.5 284.2ZM1719.95 173.143L1720.34 172.823V172.823L1719.95 173.143ZM1621.29 98.6605L1621.45 98.1895V98.1895L1621.29 98.6605ZM1529.51 94.3763L1529.39 93.8906V93.8906L1529.51 94.3763ZM1401.24 178.329L1400.86 178.005L1400.52 178.41L1400.94 178.729L1401.24 178.329ZM1416.73 190.434L1417.04 190.046V190.046L1416.73 190.434ZM1419.4 192.619L1419.79 192.936L1420.11 192.55L1419.72 192.233L1419.4 192.619ZM1405.45 209.632L1405.14 210.019L1405.52 210.336L1405.84 209.949L1405.45 209.632ZM1405.43 209.61L1405.74 209.223L1405.74 209.222L1405.43 209.61ZM1402.86 207.514L1403.18 207.127L1403.18 207.126L1402.86 207.514ZM1379 189.286L1379.29 188.88V188.88L1379 189.286ZM1025.4 90.7796L1025.38 90.2799V90.2799L1025.4 90.7796ZM747.604 154.566L747.151 154.779L747.364 155.231L747.817 155.018L747.604 154.566ZM746.909 153.093L747.361 152.88L747.049 152.217L746.546 152.749L746.909 153.093ZM746.414 153.617L746.777 153.96L746.777 153.96L746.414 153.617ZM738.849 161.602L738.505 161.965L738.868 162.309L739.212 161.946L738.849 161.602ZM729.349 152.602L729.693 152.239L729.692 152.239L729.349 152.602ZM727.76 151.097L727.303 151.301L727.344 151.392L727.416 151.46L727.76 151.097ZM726.868 149.098L727.325 148.894L727.325 148.894L726.868 149.098ZM397.196 58.8148L397.524 59.1921C436.616 25.2049 501.7 -3.02095 568.291 1.47183L568.324 0.972962L568.358 0.474097C501.468 -4.03886 436.131 24.3014 396.868 58.4374L397.196 58.8148ZM568.324 0.972962L568.291 1.47183C633.993 5.90475 699.872 42.1263 742.891 132.508L743.343 132.293L743.794 132.078C700.627 41.3852 634.437 4.93246 568.358 0.474097L568.324 0.972962ZM743.343 132.293L743.55 132.748C806.496 104.011 909.32 73.4448 1024.63 69.2939L1024.61 68.7943L1024.59 68.2946C909.143 72.4506 806.19 103.051 743.135 131.838L743.343 132.293ZM1024.61 68.7943L1024.63 69.2939C1140.31 65.1296 1269.27 87.5419 1383.05 165.854L1383.33 165.442L1383.61 165.03C1269.61 86.5637 1140.43 64.1249 1024.59 68.2946L1024.61 68.7943ZM1383.33 165.442L1383.71 165.763C1414.17 129.538 1464.45 88.1384 1524.41 73.4909L1524.29 73.0052L1524.17 72.5195C1463.93 87.2342 1413.49 128.796 1382.95 165.12L1383.33 165.442ZM1524.29 73.0052L1524.41 73.4909C1556.89 65.5578 1592.23 65.4828 1628.5 78.4078L1628.67 77.9368L1628.84 77.4658C1592.36 64.4677 1556.82 64.5457 1524.17 72.5195L1524.29 73.0052ZM1628.67 77.9368L1628.5 78.4078C1664.74 91.3178 1701.24 116.958 1736.49 159.407L1736.88 159.087L1737.26 158.768C1701.92 116.21 1665.27 90.4475 1628.84 77.4658L1628.67 77.9368ZM1736.88 159.087L1736.49 159.407C1771.74 201.853 1790.4 242.543 1796.71 280.688L1797.2 280.607L1797.7 280.525C1791.35 242.172 1772.6 201.323 1737.26 158.768L1736.88 159.087ZM1797.2 280.607L1796.71 280.688C1803.03 318.874 1796.88 353.844 1783.56 384.61L1784.02 384.809L1784.48 385.007C1797.86 354.086 1804.05 318.921 1797.7 280.525L1797.2 280.607ZM1784.02 384.809L1783.56 384.61C1758.83 441.771 1709.42 484.466 1668.73 508.194L1668.98 508.626L1669.23 509.058C1710.04 485.264 1759.64 442.428 1784.48 385.007L1784.02 384.809ZM1668.98 508.626L1668.51 508.794C1687.16 561.213 1706.48 646.124 1708.09 742.378L1708.59 742.369L1709.09 742.361C1707.48 645.994 1688.13 560.975 1669.45 508.459L1668.98 508.626ZM1708.59 742.369L1708.09 742.378C1709.79 844.335 1691.63 959.784 1630.97 1062.94L1631.4 1063.19L1631.83 1063.45C1692.62 960.085 1710.79 844.439 1709.09 742.361L1708.59 742.369ZM1631.4 1063.19L1630.97 1062.94L1630.63 1063.5L1631.06 1063.76L1631.49 1064.01L1631.83 1063.45L1631.4 1063.19ZM1631.06 1063.76L1630.67 1063.46L1630.27 1063.98L1630.67 1064.28L1631.06 1064.58L1631.46 1064.06L1631.06 1063.76ZM1630.67 1064.28L1630.27 1063.98C1582.7 1126.45 1443.48 1255.82 1263.56 1276.77L1263.62 1277.26L1263.68 1277.76C1443.97 1256.77 1583.4 1127.17 1631.06 1064.58L1630.67 1064.28ZM1263.62 1277.26L1263.36 1276.84L1054.96 1406.53L1055.23 1406.95L1055.49 1407.38L1263.88 1277.69L1263.62 1277.26ZM1055.23 1406.95L1054.96 1406.53L1048.85 1410.34L1049.11 1410.76L1049.37 1411.19L1055.49 1407.38L1055.23 1406.95ZM1049.11 1410.76L1049.39 1410.35L1043.46 1406.26L1043.17 1406.68L1042.89 1407.09L1048.83 1411.17L1049.11 1410.76ZM1043.17 1406.68L1043.46 1406.26L841.773 1267.36L841.489 1267.77L841.206 1268.18L1042.89 1407.09L1043.17 1406.68ZM841.489 1267.77L841.542 1267.27C818.472 1264.8 781.709 1258.42 742.146 1246.87L742.006 1247.35L741.866 1247.83C781.487 1259.4 818.309 1265.79 841.436 1268.27L841.489 1267.77ZM742.006 1247.35L742.146 1246.87C700.99 1234.85 656.08 1217.03 620.34 1191.68L620.051 1192.09L619.762 1192.5C655.63 1217.94 700.657 1235.8 741.866 1247.83L742.006 1247.35ZM620.051 1192.09H620.551V1192.09H620.051H619.551V1192.09H620.051ZM620.051 1192.09L620.335 1191.68C520.244 1122.4 403.045 987.555 377.159 807.598L376.664 807.669L376.169 807.74C402.105 988.044 519.513 1123.11 619.766 1192.5L620.051 1192.09ZM376.664 807.669L377.159 807.598C361.972 702.016 378.34 581.857 446.855 451.325L446.412 451.093L445.969 450.861C377.362 581.568 360.95 701.939 376.169 807.74L376.664 807.669ZM446.412 451.093L446.678 450.67C402.102 422.663 349.169 365.793 325.523 297.421L325.051 297.584L324.578 297.748C348.307 366.361 401.403 423.404 446.146 451.516L446.412 451.093ZM325.051 297.584L325.523 297.421C312.849 260.772 308.478 220.478 318.683 179.469L318.198 179.348L317.713 179.227C307.453 220.458 311.853 260.952 324.578 297.748L325.051 297.584ZM318.198 179.348L318.683 179.469C328.902 138.406 353.535 97.4381 397.524 59.1921L397.196 58.8148L396.868 58.4374C352.746 96.7983 327.988 137.937 317.713 179.227L318.198 179.348ZM566.844 22.9232L566.877 22.4243C506.566 18.3551 446.799 44.1787 411.303 75.04L411.631 75.4173L411.959 75.7946C447.284 45.0823 506.797 19.373 566.81 23.422L566.844 22.9232ZM411.631 75.4173L411.303 75.04C370.087 110.875 348.095 148.24 339.062 184.541L339.547 184.661L340.032 184.782C349.009 148.708 370.875 111.514 411.959 75.7946L411.631 75.4173ZM339.547 184.661L339.062 184.541C330.015 220.895 333.763 256.998 345.369 290.557L345.842 290.394L346.314 290.23C334.759 256.818 331.04 220.915 340.032 184.782L339.547 184.661ZM345.842 290.394L345.369 290.557C367.127 353.47 416.103 406.245 456.658 432.135L456.927 431.713L457.196 431.292C416.804 405.507 367.988 352.902 346.314 290.23L345.842 290.394ZM456.927 431.713L457.363 431.958C506.175 344.84 578.307 253.26 679.745 158.445L679.403 158.079L679.062 157.714C577.563 252.586 505.361 344.246 456.491 431.469L456.927 431.713ZM679.403 158.079L679.745 158.445L682.916 155.481L682.574 155.116L682.233 154.75L679.062 157.714L679.403 158.079ZM682.574 155.116V155.616H699.305V155.116V154.616H682.574V155.116ZM699.305 155.116H698.805V177.116H699.305H699.805V155.116H699.305ZM699.305 177.116V176.616H691.264V177.116V177.616H699.305V177.116ZM691.264 177.116L690.921 176.751C434.93 417.322 373.295 633.24 397.945 804.608L398.439 804.536L398.934 804.465C374.343 633.506 435.781 417.894 691.606 177.48L691.264 177.116ZM398.439 804.536L397.945 804.608C422.597 975.996 533.911 1105.53 630.118 1172.9L630.404 1172.49L630.691 1172.08C534.645 1104.83 423.538 975.509 398.934 804.465L398.439 804.536ZM630.404 1172.49L630.119 1172.9L632.387 1174.48L632.673 1174.07L632.959 1173.66L630.69 1172.08L630.404 1172.49ZM632.673 1174.07L632.39 1174.48L632.443 1174.52L632.726 1174.11L633.008 1173.69L632.955 1173.66L632.673 1174.07ZM632.726 1174.11L632.433 1174.51L632.486 1174.55L632.778 1174.14L633.071 1173.74L633.018 1173.7L632.726 1174.11ZM632.778 1174.14L632.489 1174.55C665.549 1198 707.973 1215.01 748.033 1226.71L748.173 1226.23L748.313 1225.75C708.305 1214.07 665.999 1197.09 633.068 1173.74L632.778 1174.14ZM748.173 1226.23L748.033 1226.71C788.013 1238.39 824.92 1244.56 846.436 1246.66L846.484 1246.17L846.533 1245.67C825.079 1243.57 788.234 1237.41 748.313 1225.75L748.173 1226.23ZM846.484 1246.17L846.436 1246.66L849.265 1246.94L849.313 1246.44L849.362 1245.95L846.533 1245.67L846.484 1246.17ZM849.313 1246.44L849.03 1246.86L851.37 1248.47L851.653 1248.06L851.937 1247.64L849.597 1246.03L849.313 1246.44ZM851.653 1248.06L851.37 1248.47L1049.44 1384.88L1049.72 1384.47L1050 1384.06L851.937 1247.64L851.653 1248.06ZM1049.72 1384.47L1049.98 1384.89L1254.37 1257.7L1254.1 1257.28L1253.84 1256.85L1049.46 1384.04L1049.72 1384.47ZM1254.1 1257.28L1254.37 1257.7L1256.49 1256.38L1256.22 1255.96L1255.96 1255.53L1253.84 1256.85L1254.1 1257.28ZM1256.22 1255.96L1256.28 1256.45L1258.76 1256.18L1258.71 1255.68L1258.65 1255.18L1256.17 1255.46L1256.22 1255.96ZM1258.71 1255.68L1258.76 1256.18C1431.54 1237.07 1566.91 1112.21 1613.16 1051.77L1612.76 1051.47L1612.37 1051.17C1566.2 1111.49 1431.05 1236.12 1258.65 1255.18L1258.71 1255.68ZM1612.76 1051.47L1613.2 1051.72C1671.06 953.019 1688.75 841.955 1687.09 742.728L1686.59 742.737L1686.09 742.745C1687.75 841.851 1670.08 952.718 1612.33 1051.22L1612.76 1051.47ZM1686.59 742.737L1687.09 742.728C1685.43 643.279 1664.34 556.484 1645.6 507.357L1645.14 507.535L1644.67 507.714C1663.37 556.734 1684.43 643.414 1686.09 742.745L1686.59 742.737ZM1645.14 507.535L1645.6 507.357L1642.15 498.313L1641.69 498.492L1641.22 498.67L1644.67 507.714L1645.14 507.535ZM1641.69 498.492L1641.92 498.932L1650.46 494.36L1650.22 493.919L1649.98 493.479L1641.45 498.051L1641.69 498.492ZM1650.22 493.919L1650.46 494.36C1689.91 473.222 1740.32 431.662 1764.29 376.27L1763.83 376.072L1763.37 375.873C1739.52 430.991 1689.31 472.407 1649.98 493.479L1650.22 493.919ZM1763.83 376.072L1764.29 376.27C1776.19 348.77 1781.58 317.878 1775.99 284.118L1775.5 284.2L1775 284.281C1780.56 317.83 1775.21 348.529 1763.37 375.873L1763.83 376.072ZM1775.5 284.2L1775.99 284.118C1770.4 250.318 1753.68 212.977 1720.34 172.823L1719.95 173.143L1719.57 173.462C1752.82 213.507 1769.44 250.688 1775 284.281L1775.5 284.2ZM1719.95 173.143L1720.34 172.823C1686.99 132.673 1653.46 109.595 1621.45 98.1895L1621.29 98.6605L1621.12 99.1315C1652.93 110.465 1686.31 133.421 1719.57 173.462L1719.95 173.143ZM1621.29 98.6605L1621.45 98.1895C1589.49 86.7997 1558.37 86.8124 1529.39 93.8906L1529.51 94.3763L1529.63 94.862C1558.44 87.8246 1589.36 87.8148 1621.12 99.1315L1621.29 98.6605ZM1529.51 94.3763L1529.39 93.8906C1475.73 106.999 1429.49 144.371 1400.86 178.005L1401.24 178.329L1401.62 178.654C1430.17 145.116 1476.24 107.904 1529.63 94.862L1529.51 94.3763ZM1401.24 178.329L1400.94 178.729C1406.14 182.636 1411.29 186.667 1416.41 190.822L1416.73 190.434L1417.04 190.046C1411.91 185.882 1406.75 181.844 1401.54 177.93L1401.24 178.329ZM1416.73 190.434L1416.41 190.822C1417.3 191.546 1418.2 192.274 1419.08 193.006L1419.4 192.619L1419.72 192.233C1418.83 191.5 1417.94 190.771 1417.04 190.046L1416.73 190.434ZM1419.4 192.619L1419.02 192.302L1405.07 209.315L1405.45 209.632L1405.84 209.949L1419.79 192.936L1419.4 192.619ZM1405.45 209.632L1405.77 209.246L1405.74 209.223L1405.43 209.61L1405.11 209.996L1405.14 210.019L1405.45 209.632ZM1405.43 209.61L1405.74 209.222L1403.18 207.127L1402.86 207.514L1402.55 207.901L1405.11 209.997L1405.43 209.61ZM1402.86 207.514L1403.18 207.126C1395.31 200.737 1387.34 194.659 1379.29 188.88L1379 189.286L1378.71 189.693C1386.74 195.46 1394.69 201.526 1402.55 207.902L1402.86 207.514ZM1379 189.286L1379.29 188.88C1268.28 109.186 1140.75 86.127 1025.38 90.2799L1025.4 90.7796L1025.42 91.2793C1140.63 87.1318 1267.92 110.163 1378.71 189.693L1379 189.286ZM1025.4 90.7796L1025.38 90.2799C909.935 94.4359 807.407 125.834 747.39 154.113L747.604 154.566L747.817 155.018C807.719 126.792 910.115 95.4301 1025.42 91.2793L1025.4 90.7796ZM747.604 154.566L748.056 154.353L747.361 152.88L746.909 153.093L746.457 153.306L747.151 154.779L747.604 154.566ZM746.909 153.093L746.546 152.749L746.051 153.273L746.414 153.617L746.777 153.96L747.272 153.437L746.909 153.093ZM746.414 153.617L746.051 153.273L738.486 161.258L738.849 161.602L739.212 161.946L746.777 153.96L746.414 153.617ZM738.849 161.602L739.193 161.239L729.693 152.239L729.349 152.602L729.005 152.965L738.505 161.965L738.849 161.602ZM729.349 152.602L729.692 152.239L728.104 150.734L727.76 151.097L727.416 151.46L729.005 152.965L729.349 152.602ZM727.76 151.097L728.216 150.893L727.325 148.894L726.868 149.098L726.412 149.302L727.303 151.301L727.76 151.097ZM726.868 149.098L727.325 148.894C687.411 59.4268 626.215 26.4279 566.877 22.4243L566.844 22.9232L566.81 23.422C625.756 27.3992 686.64 60.1517 726.412 149.302L726.868 149.098Z" fill="#1F4371"/>
<path d="M1491.91 256.616C1517.91 275.116 1575.11 328.116 1595.91 392.116" stroke="#1F4371" stroke-width="22"/>
</svg>
