<svg width="1801" height="1817" viewBox="0 0 1801 1817" fill="none" xmlns="http://www.w3.org/2000/svg">
<path d="M347.427 1044.12C359.827 1118.52 518.26 1163.12 595.927 1176.12C675.526 1230.92 790.093 1249.62 837.427 1252.12L1046.93 1394.62L1270.43 1263.12C1379.63 1257.12 1510.26 1171.62 1561.93 1129.62C1737.13 1282.42 1758.93 1539.62 1747.93 1649.12C1610.33 1735.92 1538.59 1752.28 1519.93 1749.62C1151.53 1874.82 724.427 1765.78 556.927 1695.62L564.927 1582.12C181.727 1594.52 112.593 1261.95 125.927 1094.12C237.527 1109.32 320.093 1067.12 347.427 1044.12Z" fill="#4EA9FE"/>
<path d="M97.4144 790.616C-71.3856 908.616 46.7477 1037.12 126.914 1086.62C264.514 1110.22 327.914 1055.12 342.415 1024.62C378.415 960.215 352.081 890.449 334.415 863.616C288.415 718.816 157.248 754.616 97.4144 790.616Z" fill="#FEFEFE" stroke="black"/>
<path d="M1563.92 1135.12C1634.42 1189.62 1770.02 1358.12 1748.42 1596.12V1652.62C1748.42 1652.62 1659.42 1707.95 1563.92 1745.12C1501.41 1769.44 1522.41 1745.12 1522.41 1652.62" stroke="#1F4371" stroke-width="20"/>
<path d="M122.524 1093.12C122.737 1087.07 123.038 1081.23 123.414 1075.62C51.9146 1075.62 45.3948 1004.12 19.4143 959.615C-6.56627 915.115 21.9147 823.032 96.4141 786.615C203.414 734.313 277.247 753.115 313.914 819.615C361.332 905.615 379.415 992.115 340.413 1013.12C340.98 1020.29 342.269 1027.12 344.211 1033.62C371.363 1124.5 526.154 1151.82 620.414 1182.62M1501.41 1548.62L1521.91 1751.12C1095.51 1875.12 697.58 1763.12 551.914 1691.62L584.414 1510.12L566.914 1581.12C178.491 1585.75 116.611 1261.07 122.524 1093.12M122.524 1093.12C175.852 1097.95 294.848 1092.82 344.211 1033.62" stroke="#1F4371" stroke-width="20"/>
<path d="M846.414 1254.12C304.014 1154.52 361.081 672.949 457.414 444.616C258.614 338.216 321.248 172.949 377.414 103.616C573.414 -72.3839 700.748 54.9494 739.914 140.616C1063.91 12.616 1302.25 109.949 1380.91 174.616C1531.71 18.616 1669.75 93.9493 1719.91 151.116C1876.31 321.516 1741.41 456.783 1654.41 503.116C1830.81 1045.92 1466.25 1235.95 1261.91 1263.12L1054.41 1390.12L846.414 1254.12Z" fill="#FEFEFE" stroke="black"/>
<path d="M561.415 733.118C532.615 860.318 613.081 881.116 656.915 879.116C723.915 866.616 789.915 849.116 762.915 733.117C734.052 609.116 574.66 674.619 561.415 733.118Z" fill="#FFE6E8"/>
<path d="M1369.91 804.115C1353.41 904.614 1430.91 946.116 1480.41 942.115C1620.91 930.758 1583.42 747.617 1521.91 726.116C1460.41 704.615 1386.41 703.616 1369.91 804.115Z" fill="#FFE6E8"/>
<path d="M561.415 733.118C532.615 860.318 613.081 881.116 656.915 879.116C723.915 866.616 789.915 849.116 762.915 733.117C734.052 609.116 574.66 674.619 561.415 733.118Z" stroke="#FFE6E8" stroke-width="2"/>
<path d="M1369.91 804.115C1353.41 904.614 1430.91 946.116 1480.41 942.115C1620.91 930.758 1583.42 747.617 1521.91 726.116C1460.41 704.615 1386.41 703.616 1369.91 804.115Z" stroke="#FFE6E8" stroke-width="2"/>
<path d="M1082.91 724.116C1053.25 703.949 1012.91 662.116 1088.91 656.116C1122.58 659.783 1168.51 678.516 1082.91 724.116Z" fill="#1F4371" stroke="#1F4371" stroke-width="2"/>
<path d="M1096.27 720.166C1102.97 737.603 1116.11 759.103 1132.99 769.648C1141.11 774.721 1149.79 777.091 1159.2 775.703C1168.75 774.296 1180.37 768.826 1193.83 755.729L1209.17 771.501C1193.44 786.804 1177.79 795.201 1162.41 797.468C1146.91 799.754 1133.02 795.606 1121.34 788.308C1105.34 778.313 1092.96 762.146 1084.43 746.684C1060.81 779.483 1035.56 792.943 1011.39 793.413C984.178 793.942 962.319 777.854 950.532 763.636L967.47 749.595C976.683 760.709 992.724 771.771 1010.96 771.417C1028.43 771.078 1052 760.113 1076.53 718.526L1088.09 698.915L1096.27 720.166ZM949.963 622.402L778.463 645.402L775.539 623.598L947.039 600.598L949.963 622.402ZM1385.79 621.083L1383.22 640.917L1201.72 617.417L1204.29 597.583L1385.79 621.083Z" fill="#1F4371"/>
<path d="M515.001 348.279L624.914 206.116C583.714 124.516 518.081 153.783 490.414 178.616C424.814 242.616 482.834 323.779 515.001 348.279Z" fill="#9DD0FA"/>
<path d="M1597.5 391.279L1507.91 255.116C1538.31 193.516 1602.25 219.783 1630.41 240.616C1684.41 306.216 1628.5 367.445 1597.5 391.279Z" fill="#9DD0FA"/>
<path d="M515.001 348.279L624.914 206.116C583.714 124.516 518.081 153.783 490.414 178.616C424.814 242.616 482.834 323.779 515.001 348.279Z" stroke="#9DD0FA" stroke-width="2"/>
<path d="M1597.5 391.279L1507.91 255.116C1538.31 193.516 1602.25 219.783 1630.41 240.616C1684.41 306.216 1628.5 367.445 1597.5 391.279Z" stroke="#9DD0FA" stroke-width="2"/>
<path d="M397.196 58.8148C436.373 24.7532 501.584 -3.52989 568.324 0.97296C634.215 5.4186 700.25 41.756 743.343 132.293C806.343 103.531 909.232 72.9487 1024.61 68.7952C1140.37 64.6282 1269.44 87.0537 1383.33 165.443C1413.83 129.168 1464.19 87.6873 1524.29 73.0062C1556.85 65.0527 1592.29 64.9762 1628.67 77.9378C1665 90.8837 1701.58 116.585 1736.88 159.088C1772.17 201.589 1790.87 242.359 1797.2 280.608C1803.54 318.898 1797.37 353.966 1784.02 384.81C1759.23 442.101 1709.73 484.866 1668.98 508.627C1687.64 561.095 1706.98 646.06 1708.59 742.37C1710.29 844.388 1692.12 959.935 1631.4 1063.19L1631.06 1063.76L1630.67 1064.28C1583.05 1126.81 1443.73 1256.3 1263.62 1277.26L1055.23 1406.96L1049.11 1410.76L1043.17 1406.68L841.489 1267.77C818.391 1265.3 781.598 1258.91 742.006 1247.35C700.823 1235.32 655.855 1217.48 620.051 1192.09V1192.09C519.878 1122.75 402.575 987.8 376.664 807.67C361.461 701.979 377.851 581.713 446.412 451.094C401.752 423.035 348.738 366.077 325.051 297.584C312.351 260.862 307.965 220.468 318.198 179.348C328.445 138.171 353.14 97.1182 397.196 58.8148ZM566.844 22.9232C506.681 18.8641 447.041 44.6305 411.631 75.4173C370.481 111.194 348.552 148.474 339.547 184.661C330.528 220.905 334.261 256.908 345.842 290.394C367.558 353.186 416.453 405.877 456.927 431.714C505.768 344.544 577.935 252.924 679.403 158.08L682.574 155.117H699.305V177.117H691.264C435.355 417.609 373.819 633.374 398.439 804.537C423.068 975.753 534.278 1105.18 630.404 1172.49L632.673 1174.07L632.726 1174.11L632.778 1174.14C665.774 1197.55 708.139 1214.54 748.173 1226.23C788.123 1237.9 824.999 1244.07 846.484 1246.17L849.313 1246.45L851.653 1248.06L1049.72 1384.47L1254.1 1257.28L1256.22 1255.96L1258.71 1255.68C1431.29 1236.59 1566.55 1111.85 1612.76 1051.47C1670.57 952.87 1688.25 841.904 1686.59 742.738C1684.93 643.347 1663.85 556.61 1645.14 507.536L1641.69 498.492L1650.22 493.92C1689.61 472.815 1739.92 431.327 1763.83 376.073C1775.7 348.65 1781.07 317.855 1775.5 284.201C1769.92 250.504 1753.25 213.243 1719.95 173.144C1686.65 133.048 1653.2 110.031 1621.29 98.6614C1589.42 87.3082 1558.41 87.3194 1529.51 94.3773C1475.99 107.452 1429.83 144.745 1401.24 178.33C1406.44 182.241 1411.6 186.276 1416.73 190.435C1417.62 191.16 1418.51 191.888 1419.4 192.62L1405.45 209.633L1405.43 209.611L1402.86 207.515C1395 201.132 1387.04 195.06 1379 189.287C1268.1 109.675 1140.69 86.6303 1025.4 90.7806C910.025 94.934 807.563 126.314 747.604 154.567L746.909 153.093L746.414 153.617L738.849 161.602L729.349 152.602L727.76 151.097L726.868 149.098C687.026 59.7894 625.985 26.9136 566.844 22.9232Z" fill="#1F4371"/>
<path d="M397.196 58.8148L397.524 59.1921V59.1921L397.196 58.8148ZM568.324 0.97296L568.358 0.474094V0.474094L568.324 0.97296ZM743.343 132.293L742.891 132.508L743.103 132.952L743.55 132.748L743.343 132.293ZM1024.61 68.7952L1024.59 68.2955V68.2955L1024.61 68.7952ZM1383.33 165.443L1383.05 165.855L1383.42 166.112L1383.71 165.764L1383.33 165.443ZM1524.29 73.0062L1524.17 72.5204V72.5204L1524.29 73.0062ZM1628.67 77.9378L1628.84 77.4668V77.4668L1628.67 77.9378ZM1736.88 159.088L1737.26 158.769V158.769L1736.88 159.088ZM1797.2 280.608L1797.7 280.526V280.526L1797.2 280.608ZM1784.02 384.81L1783.56 384.611V384.611L1784.02 384.81ZM1668.98 508.627L1668.73 508.195L1668.37 508.404L1668.51 508.795L1668.98 508.627ZM1708.59 742.37L1709.09 742.362V742.362L1708.59 742.37ZM1631.4 1063.19L1630.97 1062.94L1630.97 1062.94L1631.4 1063.19ZM1631.06 1063.76L1631.46 1064.06L1631.48 1064.04L1631.49 1064.01L1631.06 1063.76ZM1630.67 1064.28L1630.27 1063.98L1630.27 1063.98L1630.67 1064.28ZM1263.62 1277.26L1263.56 1276.77L1263.45 1276.78L1263.36 1276.84L1263.62 1277.26ZM1055.23 1406.96L1054.96 1406.53V1406.53L1055.23 1406.96ZM1049.11 1410.76L1048.83 1411.17L1049.1 1411.36L1049.37 1411.19L1049.11 1410.76ZM1043.17 1406.68L1042.89 1407.09V1407.09L1043.17 1406.68ZM841.489 1267.77L841.773 1267.36L841.669 1267.29L841.542 1267.27L841.489 1267.77ZM742.006 1247.35L741.866 1247.83V1247.83L742.006 1247.35ZM620.051 1192.09H619.551V1192.35L619.762 1192.5L620.051 1192.09ZM620.051 1192.09H620.551V1191.83L620.335 1191.68L620.051 1192.09ZM376.664 807.67L376.169 807.741V807.741L376.664 807.67ZM446.412 451.094L446.855 451.326L447.07 450.917L446.678 450.671L446.412 451.094ZM325.051 297.584L324.578 297.748V297.748L325.051 297.584ZM318.198 179.348L317.713 179.227H317.713L318.198 179.348ZM566.844 22.9232L566.877 22.4243V22.4243L566.844 22.9232ZM411.631 75.4173L411.959 75.7946V75.7946L411.631 75.4173ZM339.547 184.661L339.062 184.541V184.541L339.547 184.661ZM345.842 290.394L345.369 290.557V290.557L345.842 290.394ZM456.927 431.714L456.658 432.136L457.104 432.421L457.363 431.959L456.927 431.714ZM679.403 158.08L679.062 157.715V157.715L679.403 158.08ZM682.574 155.117V154.617H682.377L682.233 154.751L682.574 155.117ZM699.305 155.117H699.805V154.617H699.305V155.117ZM699.305 177.117V177.617H699.805V177.117H699.305ZM691.264 177.117V176.617H691.066L690.921 176.752L691.264 177.117ZM398.439 804.537L397.945 804.609V804.609L398.439 804.537ZM630.404 1172.49L630.118 1172.9L630.119 1172.9L630.404 1172.49ZM632.673 1174.07L632.387 1174.48L632.39 1174.48L632.673 1174.07ZM632.726 1174.11L633.018 1173.7L633.008 1173.69L632.726 1174.11ZM632.778 1174.14L632.486 1174.55L632.489 1174.55L632.778 1174.14ZM748.173 1226.23L748.313 1225.75V1225.75L748.173 1226.23ZM846.484 1246.17L846.533 1245.67H846.533L846.484 1246.17ZM849.313 1246.45L849.597 1246.03L849.491 1245.96L849.362 1245.95L849.313 1246.45ZM851.653 1248.06L851.937 1247.65V1247.65L851.653 1248.06ZM1049.72 1384.47L1049.44 1384.88L1049.71 1385.07L1049.98 1384.89L1049.72 1384.47ZM1254.1 1257.28L1254.37 1257.7L1254.37 1257.7L1254.1 1257.28ZM1256.22 1255.96L1256.17 1255.46L1256.05 1255.47L1255.96 1255.53L1256.22 1255.96ZM1258.71 1255.68L1258.76 1256.18V1256.18L1258.71 1255.68ZM1612.76 1051.47L1613.16 1051.77L1613.18 1051.75L1613.2 1051.72L1612.76 1051.47ZM1686.59 742.738L1686.09 742.746V742.746L1686.59 742.738ZM1645.14 507.536L1645.6 507.358V507.358L1645.14 507.536ZM1641.69 498.492L1641.45 498.052L1641.06 498.26L1641.22 498.671L1641.69 498.492ZM1650.22 493.92L1649.98 493.479V493.479L1650.22 493.92ZM1763.83 376.073L1764.29 376.271V376.271L1763.83 376.073ZM1775.5 284.201L1775.99 284.119V284.119L1775.5 284.201ZM1719.95 173.144L1720.34 172.824V172.824L1719.95 173.144ZM1621.29 98.6614L1621.45 98.1904V98.1904L1621.29 98.6614ZM1529.51 94.3773L1529.39 93.8915V93.8915L1529.51 94.3773ZM1401.24 178.33L1400.86 178.006L1400.52 178.411L1400.94 178.73L1401.24 178.33ZM1416.73 190.435L1417.04 190.047V190.047L1416.73 190.435ZM1419.4 192.62L1419.79 192.937L1420.11 192.551L1419.72 192.234L1419.4 192.62ZM1405.45 209.633L1405.14 210.019L1405.52 210.337L1405.84 209.95L1405.45 209.633ZM1405.43 209.611L1405.74 209.224L1405.74 209.223L1405.43 209.611ZM1402.86 207.515L1403.18 207.128L1403.18 207.127L1402.86 207.515ZM1379 189.287L1379.29 188.881V188.881L1379 189.287ZM1025.4 90.7806L1025.38 90.2809V90.2809L1025.4 90.7806ZM747.604 154.567L747.151 154.78L747.364 155.232L747.817 155.019L747.604 154.567ZM746.909 153.093L747.362 152.88L747.049 152.217L746.546 152.749L746.909 153.093ZM746.414 153.617L746.777 153.96L746.777 153.96L746.414 153.617ZM738.849 161.602L738.505 161.965L738.868 162.309L739.212 161.946L738.849 161.602ZM729.349 152.602L729.693 152.239L729.693 152.239L729.349 152.602ZM727.76 151.097L727.303 151.301L727.344 151.392L727.416 151.46L727.76 151.097ZM726.868 149.098L727.325 148.894V148.894L726.868 149.098ZM397.196 58.8148L397.524 59.1921C436.616 25.2049 501.7 -3.02094 568.291 1.47183L568.324 0.97296L568.358 0.474094C501.468 -4.03885 436.131 24.3014 396.868 58.4374L397.196 58.8148ZM568.324 0.97296L568.291 1.47183C633.993 5.90474 699.872 42.1265 742.891 132.508L743.343 132.293L743.794 132.078C700.627 41.3854 634.437 4.93246 568.358 0.474094L568.324 0.97296ZM743.343 132.293L743.55 132.748C806.496 104.011 909.321 73.4458 1024.63 69.2949L1024.61 68.7952L1024.59 68.2955C909.143 72.4516 806.19 103.051 743.135 131.838L743.343 132.293ZM1024.61 68.7952L1024.63 69.2949C1140.31 65.1306 1269.27 87.5428 1383.05 165.855L1383.33 165.443L1383.61 165.031C1269.61 86.5646 1140.43 64.1259 1024.59 68.2955L1024.61 68.7952ZM1383.33 165.443L1383.71 165.764C1414.17 129.539 1464.45 88.1395 1524.41 73.4919L1524.29 73.0062L1524.17 72.5204C1463.93 87.2352 1413.49 128.797 1382.95 165.121L1383.33 165.443ZM1524.29 73.0062L1524.41 73.4919C1556.89 65.5587 1592.23 65.4838 1628.5 78.4088L1628.67 77.9378L1628.84 77.4668C1592.36 64.4687 1556.82 64.5466 1524.17 72.5204L1524.29 73.0062ZM1628.67 77.9378L1628.5 78.4088C1664.74 91.3188 1701.24 116.959 1736.49 159.408L1736.88 159.088L1737.26 158.769C1701.92 116.21 1665.27 90.4485 1628.84 77.4668L1628.67 77.9378ZM1736.88 159.088L1736.49 159.408C1771.74 201.854 1790.4 242.544 1796.71 280.689L1797.2 280.608L1797.7 280.526C1791.35 242.173 1772.6 201.324 1737.26 158.769L1736.88 159.088ZM1797.2 280.608L1796.71 280.689C1803.03 318.875 1796.88 353.845 1783.56 384.611L1784.02 384.81L1784.48 385.008C1797.86 354.087 1804.05 318.922 1797.7 280.526L1797.2 280.608ZM1784.02 384.81L1783.56 384.611C1758.83 441.773 1709.42 484.467 1668.73 508.195L1668.98 508.627L1669.23 509.059C1710.04 485.265 1759.64 442.429 1784.48 385.008L1784.02 384.81ZM1668.98 508.627L1668.51 508.795C1687.16 561.214 1706.48 646.125 1708.09 742.379L1708.59 742.37L1709.09 742.362C1707.48 645.995 1688.13 560.976 1669.45 508.46L1668.98 508.627ZM1708.59 742.37L1708.09 742.379C1709.79 844.336 1691.63 959.784 1630.97 1062.94L1631.4 1063.19L1631.83 1063.45C1692.62 960.086 1710.79 844.44 1709.09 742.362L1708.59 742.37ZM1631.4 1063.19L1630.97 1062.94L1630.63 1063.51L1631.06 1063.76L1631.49 1064.01L1631.83 1063.45L1631.4 1063.19ZM1631.06 1063.76L1630.67 1063.46L1630.27 1063.98L1630.67 1064.28L1631.06 1064.58L1631.46 1064.06L1631.06 1063.76ZM1630.67 1064.28L1630.27 1063.98C1582.7 1126.45 1443.48 1255.82 1263.56 1276.77L1263.62 1277.26L1263.68 1277.76C1443.97 1256.77 1583.4 1127.17 1631.06 1064.58L1630.67 1064.28ZM1263.62 1277.26L1263.36 1276.84L1054.96 1406.53L1055.23 1406.96L1055.49 1407.38L1263.88 1277.69L1263.62 1277.26ZM1055.23 1406.96L1054.96 1406.53L1048.85 1410.34L1049.11 1410.76L1049.37 1411.19L1055.49 1407.38L1055.23 1406.96ZM1049.11 1410.76L1049.39 1410.35L1043.46 1406.26L1043.17 1406.68L1042.89 1407.09L1048.83 1411.17L1049.11 1410.76ZM1043.17 1406.68L1043.46 1406.26L841.773 1267.36L841.489 1267.77L841.206 1268.18L1042.89 1407.09L1043.17 1406.68ZM841.489 1267.77L841.542 1267.27C818.473 1264.8 781.709 1258.42 742.146 1246.87L742.006 1247.35L741.866 1247.83C781.487 1259.4 818.309 1265.79 841.436 1268.27L841.489 1267.77ZM742.006 1247.35L742.146 1246.87C700.99 1234.85 656.08 1217.03 620.34 1191.68L620.051 1192.09L619.762 1192.5C655.63 1217.94 700.657 1235.8 741.866 1247.83L742.006 1247.35ZM620.051 1192.09H620.551V1192.09H620.051H619.551V1192.09H620.051ZM620.051 1192.09L620.335 1191.68C520.244 1122.4 403.045 987.556 377.159 807.599L376.664 807.67L376.169 807.741C402.105 988.045 519.513 1123.11 619.766 1192.5L620.051 1192.09ZM376.664 807.67L377.159 807.599C361.972 702.017 378.34 581.858 446.855 451.326L446.412 451.094L445.969 450.862C377.362 581.569 360.95 701.94 376.169 807.741L376.664 807.67ZM446.412 451.094L446.678 450.671C402.102 422.664 349.169 365.793 325.523 297.421L325.051 297.584L324.578 297.748C348.307 366.362 401.402 423.405 446.146 451.517L446.412 451.094ZM325.051 297.584L325.523 297.421C312.849 260.772 308.478 220.478 318.683 179.469L318.198 179.348L317.713 179.227C307.453 220.458 311.853 260.952 324.578 297.748L325.051 297.584ZM318.198 179.348L318.683 179.469C328.902 138.406 353.534 97.4381 397.524 59.1921L397.196 58.8148L396.868 58.4374C352.746 96.7983 327.988 137.937 317.713 179.227L318.198 179.348ZM566.844 22.9232L566.877 22.4243C506.566 18.3551 446.799 44.1787 411.303 75.04L411.631 75.4173L411.959 75.7946C447.284 45.0823 506.797 19.373 566.81 23.422L566.844 22.9232ZM411.631 75.4173L411.303 75.04C370.087 110.875 348.095 148.24 339.062 184.541L339.547 184.661L340.032 184.782C349.009 148.708 370.875 111.514 411.959 75.7946L411.631 75.4173ZM339.547 184.661L339.062 184.541C330.015 220.895 333.763 256.998 345.369 290.557L345.842 290.394L346.314 290.23C334.759 256.818 331.04 220.915 340.032 184.782L339.547 184.661ZM345.842 290.394L345.369 290.557C367.127 353.47 416.103 406.246 456.658 432.136L456.927 431.714L457.196 431.293C416.804 405.508 367.988 352.902 346.314 290.23L345.842 290.394ZM456.927 431.714L457.363 431.959C506.175 344.841 578.307 253.261 679.745 158.446L679.403 158.08L679.062 157.715C577.563 252.588 505.361 344.247 456.491 431.47L456.927 431.714ZM679.403 158.08L679.745 158.446L682.916 155.482L682.574 155.117L682.233 154.751L679.062 157.715L679.403 158.08ZM682.574 155.117V155.617H699.305V155.117V154.617H682.574V155.117ZM699.305 155.117H698.805V177.117H699.305H699.805V155.117H699.305ZM699.305 177.117V176.617H691.264V177.117V177.617H699.305V177.117ZM691.264 177.117L690.921 176.752C434.93 417.323 373.295 633.241 397.945 804.609L398.439 804.537L398.934 804.466C374.343 633.507 435.781 417.895 691.606 177.481L691.264 177.117ZM398.439 804.537L397.945 804.609C422.598 975.997 533.911 1105.54 630.118 1172.9L630.404 1172.49L630.691 1172.08C534.645 1104.83 423.538 975.51 398.934 804.466L398.439 804.537ZM630.404 1172.49L630.119 1172.9L632.387 1174.48L632.673 1174.07L632.959 1173.66L630.69 1172.08L630.404 1172.49ZM632.673 1174.07L632.39 1174.48L632.443 1174.52L632.726 1174.11L633.008 1173.69L632.956 1173.66L632.673 1174.07ZM632.726 1174.11L632.433 1174.51L632.486 1174.55L632.778 1174.14L633.071 1173.74L633.018 1173.7L632.726 1174.11ZM632.778 1174.14L632.489 1174.55C665.549 1198 707.973 1215.01 748.033 1226.71L748.173 1226.23L748.313 1225.75C708.305 1214.07 665.999 1197.1 633.068 1173.74L632.778 1174.14ZM748.173 1226.23L748.033 1226.71C788.013 1238.39 824.92 1244.56 846.436 1246.67L846.484 1246.17L846.533 1245.67C825.079 1243.57 788.234 1237.41 748.313 1225.75L748.173 1226.23ZM846.484 1246.17L846.436 1246.67L849.265 1246.94L849.313 1246.45L849.362 1245.95L846.533 1245.67L846.484 1246.17ZM849.313 1246.45L849.03 1246.86L851.37 1248.47L851.653 1248.06L851.937 1247.65L849.597 1246.03L849.313 1246.45ZM851.653 1248.06L851.37 1248.47L1049.44 1384.88L1049.72 1384.47L1050 1384.06L851.937 1247.65L851.653 1248.06ZM1049.72 1384.47L1049.98 1384.89L1254.37 1257.7L1254.1 1257.28L1253.84 1256.85L1049.46 1384.05L1049.72 1384.47ZM1254.1 1257.28L1254.37 1257.7L1256.49 1256.38L1256.22 1255.96L1255.96 1255.53L1253.84 1256.85L1254.1 1257.28ZM1256.22 1255.96L1256.28 1256.45L1258.76 1256.18L1258.71 1255.68L1258.65 1255.19L1256.17 1255.46L1256.22 1255.96ZM1258.71 1255.68L1258.76 1256.18C1431.54 1237.07 1566.91 1112.21 1613.16 1051.77L1612.76 1051.47L1612.37 1051.17C1566.2 1111.49 1431.05 1236.12 1258.65 1255.19L1258.71 1255.68ZM1612.76 1051.47L1613.2 1051.72C1671.06 953.02 1688.75 841.956 1687.09 742.729L1686.59 742.738L1686.09 742.746C1687.75 841.852 1670.08 952.719 1612.33 1051.22L1612.76 1051.47ZM1686.59 742.738L1687.09 742.729C1685.43 643.28 1664.34 556.486 1645.6 507.358L1645.14 507.536L1644.67 507.715C1663.37 556.735 1684.43 643.415 1686.09 742.746L1686.59 742.738ZM1645.14 507.536L1645.6 507.358L1642.15 498.314L1641.69 498.492L1641.22 498.671L1644.67 507.715L1645.14 507.536ZM1641.69 498.492L1641.92 498.933L1650.46 494.361L1650.22 493.92L1649.98 493.479L1641.45 498.052L1641.69 498.492ZM1650.22 493.92L1650.46 494.361C1689.91 473.223 1740.32 431.663 1764.29 376.271L1763.83 376.073L1763.37 375.874C1739.52 430.992 1689.31 472.408 1649.98 493.479L1650.22 493.92ZM1763.83 376.073L1764.29 376.271C1776.19 348.771 1781.58 317.879 1775.99 284.119L1775.5 284.201L1775 284.282C1780.56 317.831 1775.21 348.529 1763.37 375.874L1763.83 376.073ZM1775.5 284.201L1775.99 284.119C1770.4 250.319 1753.68 212.978 1720.34 172.824L1719.95 173.144L1719.57 173.463C1752.82 213.508 1769.44 250.689 1775 284.282L1775.5 284.201ZM1719.95 173.144L1720.34 172.824C1686.99 132.674 1653.46 109.596 1621.45 98.1904L1621.29 98.6614L1621.12 99.1324C1652.93 110.466 1686.31 133.422 1719.57 173.463L1719.95 173.144ZM1621.29 98.6614L1621.45 98.1904C1589.49 86.8006 1558.37 86.8134 1529.39 93.8915L1529.51 94.3773L1529.63 94.863C1558.44 87.8255 1589.36 87.8157 1621.12 99.1324L1621.29 98.6614ZM1529.51 94.3773L1529.39 93.8915C1475.73 107 1429.49 144.372 1400.86 178.006L1401.24 178.33L1401.62 178.654C1430.17 145.117 1476.24 107.905 1529.63 94.863L1529.51 94.3773ZM1401.24 178.33L1400.94 178.73C1406.14 182.637 1411.29 186.668 1416.41 190.823L1416.73 190.435L1417.04 190.047C1411.91 185.883 1406.75 181.845 1401.54 177.931L1401.24 178.33ZM1416.73 190.435L1416.41 190.823C1417.3 191.547 1418.2 192.275 1419.08 193.007L1419.4 192.62L1419.72 192.234C1418.83 191.501 1417.94 190.772 1417.04 190.047L1416.73 190.435ZM1419.4 192.62L1419.02 192.303L1405.07 209.316L1405.45 209.633L1405.84 209.95L1419.79 192.937L1419.4 192.62ZM1405.45 209.633L1405.77 209.247L1405.74 209.224L1405.43 209.611L1405.11 209.997L1405.14 210.019L1405.45 209.633ZM1405.43 209.611L1405.74 209.223L1403.18 207.128L1402.86 207.515L1402.55 207.902L1405.11 209.998L1405.43 209.611ZM1402.86 207.515L1403.18 207.127C1395.31 200.738 1387.34 194.66 1379.29 188.881L1379 189.287L1378.71 189.694C1386.74 195.461 1394.69 201.527 1402.55 207.903L1402.86 207.515ZM1379 189.287L1379.29 188.881C1268.28 109.187 1140.75 86.1279 1025.38 90.2809L1025.4 90.7806L1025.42 91.2803C1140.63 87.1328 1267.92 110.164 1378.71 189.694L1379 189.287ZM1025.4 90.7806L1025.38 90.2809C909.934 94.4369 807.407 125.835 747.39 154.114L747.604 154.567L747.817 155.019C807.719 126.793 910.115 95.4311 1025.42 91.2803L1025.4 90.7806ZM747.604 154.567L748.056 154.354L747.362 152.88L746.909 153.093L746.457 153.306L747.151 154.78L747.604 154.567ZM746.909 153.093L746.546 152.749L746.051 153.273L746.414 153.617L746.777 153.96L747.272 153.437L746.909 153.093ZM746.414 153.617L746.051 153.273L738.486 161.258L738.849 161.602L739.212 161.946L746.777 153.96L746.414 153.617ZM738.849 161.602L739.193 161.239L729.693 152.239L729.349 152.602L729.005 152.965L738.505 161.965L738.849 161.602ZM729.349 152.602L729.693 152.239L728.104 150.734L727.76 151.097L727.416 151.46L729.005 152.965L729.349 152.602ZM727.76 151.097L728.216 150.893L727.325 148.894L726.868 149.098L726.412 149.302L727.303 151.301L727.76 151.097ZM726.868 149.098L727.325 148.894C687.411 59.4269 626.215 26.4279 566.877 22.4243L566.844 22.9232L566.81 23.422C625.756 27.3992 686.64 60.1519 726.412 149.302L726.868 149.098Z" fill="#1F4371"/>
<path d="M1491.91 256.616C1517.91 275.116 1575.11 328.116 1595.91 392.116" stroke="#1F4371" stroke-width="22"/>
</svg>
