<svg width="666" height="704" viewBox="0 0 666 704" fill="none" xmlns="http://www.w3.org/2000/svg">
<path d="M201.5 10L10 541V584.5L47 619L310 670L444 693L476 670L485.5 596L603 248L654 116.5L633 93L559.5 68L538.5 42.5L372.5 10H342.5H201.5Z" fill="#9DD0FA"/>
<path d="M531.5 56.5L524.5 130L485.5 144L372.5 116.5H342.5L331 75L342.5 10M342.5 10H372.5L538.5 42.5L559.5 68L633 93L654 116.5L603 248L485.5 596L476 670L444 693L310 670L47 619L10 584.5V541L201.5 10H342.5Z" stroke="#1F4371" stroke-width="20"/>
</svg>
