<svg width="3654" height="2322" viewBox="0 0 3654 2322" fill="none" xmlns="http://www.w3.org/2000/svg">
<path d="M20 1619V20H3200.5V1619H20Z" fill="#289840" stroke="#A2580F" stroke-width="40"/>
<path d="M2080.61 1504.15C2124.82 1565.26 2371.26 1668.12 2448.92 1681.12C2528.52 1735.92 2643.09 1754.62 2690.42 1757.12L2899.92 1899.62L3123.42 1768.12C3232.62 1762.12 3363.26 1676.62 3414.92 1634.62C3590.12 1787.42 3611.92 2044.62 3600.92 2154.12C3463.32 2240.92 3391.59 2257.28 3372.92 2254.62C3004.52 2379.82 2577.42 2270.78 2409.92 2200.62L2417.92 2087.12C2034.72 2099.52 1967.25 1803.73 1904.5 1647.5C2011.2 1611.45 2066.36 1536.91 2080.61 1504.15Z" fill="#4EA9FE"/>
<path d="M1750.55 1383.15C1645.44 1560.27 1806.06 1628.6 1899.51 1640.63C2034.59 1605.38 2069.62 1529.03 2070.25 1495.27C2076.48 1421.75 2023.72 1369.06 1996.56 1351.9C1894.93 1238.96 1790.21 1325.68 1750.55 1383.15Z" fill="#FEFEFE" stroke="black"/>
<path d="M3416.91 1640.12C3487.41 1694.62 3623.01 1863.12 3601.41 2101.12V2157.62C3601.41 2157.62 3512.42 2212.95 3416.91 2250.12C3354.41 2274.44 3375.41 2250.12 3375.41 2157.62" stroke="#1F4371" stroke-width="20"/>
<path d="M3354.41 2053.62L3374.91 2256.12C2948.51 2380.12 2550.58 2268.12 2404.91 2196.62L2437.41 2015.12L2419.91 2086.12C2031.49 2090.75 1966.03 1798.53 1901.05 1643.53C1898.71 1637.96 1896.54 1632.53 1894.53 1627.27C1829.6 1657.22 1793.73 1595.03 1751.5 1565.5C1709.27 1535.97 1696.56 1440.43 1748.96 1376.16C1824.21 1283.84 1899.13 1269.99 1960.28 1315.02C2039.36 1373.25 2092.01 1444.22 2065.39 1479.62C2068.91 1485.9 2072.94 1491.56 2077.43 1496.65C2140.15 1567.8 2379.15 1656.82 2473.41 1687.62M1901.05 1643.53C1951.5 1625.59 2057.4 1571.08 2077.43 1496.65" stroke="#1F4371" stroke-width="20"/>
<path d="M2699.41 1759.12C2157.01 1659.52 2214.08 1177.95 2310.41 949.616C2111.61 843.216 2174.25 677.949 2230.41 608.616C2426.41 432.616 2553.75 559.949 2592.91 645.616C2916.91 517.616 3155.25 614.949 3233.91 679.616C3384.71 523.616 3522.75 598.949 3572.91 656.116C3729.31 826.516 3594.41 961.783 3507.41 1008.12C3683.81 1550.92 3319.25 1740.95 3114.91 1768.12L2907.41 1895.12L2699.41 1759.12Z" fill="#FEFEFE" stroke="black"/>
<path d="M2414.42 1238.12C2385.62 1365.32 2466.08 1386.12 2509.91 1384.12C2576.91 1371.62 2642.92 1354.12 2615.92 1238.12C2587.05 1114.12 2427.66 1179.62 2414.42 1238.12Z" fill="#FFE6E8"/>
<path d="M3222.91 1309.11C3206.41 1409.61 3283.91 1451.12 3333.41 1447.11C3473.91 1435.76 3436.42 1252.62 3374.91 1231.12C3313.41 1209.61 3239.41 1208.62 3222.91 1309.11Z" fill="#FFE6E8"/>
<path d="M2414.42 1238.12C2385.62 1365.32 2466.08 1386.12 2509.91 1384.12C2576.91 1371.62 2642.92 1354.12 2615.92 1238.12C2587.05 1114.12 2427.66 1179.62 2414.42 1238.12Z" stroke="#FFE6E8" stroke-width="2"/>
<path d="M3222.91 1309.11C3206.41 1409.61 3283.91 1451.12 3333.41 1447.11C3473.91 1435.76 3436.42 1252.62 3374.91 1231.12C3313.41 1209.61 3239.41 1208.62 3222.91 1309.11Z" stroke="#FFE6E8" stroke-width="2"/>
<path d="M2935.91 1229.12C2906.25 1208.95 2865.91 1167.12 2941.91 1161.12C2975.58 1164.78 3021.51 1183.52 2935.91 1229.12Z" fill="#1F4371" stroke="#1F4371" stroke-width="2"/>
<path d="M2947.18 1221.67C2953.89 1239.1 2967.02 1260.6 2983.9 1271.15C2992.02 1276.22 3000.71 1278.59 3010.12 1277.2C3019.66 1275.8 3031.28 1270.33 3044.74 1257.23L3060.08 1273C3045.99 1286.71 3031.97 1294.87 3018.15 1298.05C3019.85 1324.38 3017.74 1361.86 3005.57 1393.04C2999.15 1409.49 2989.64 1424.91 2975.69 1435.76C2961.49 1446.81 2943.46 1452.5 2921.45 1450.57C2899.49 1448.65 2882.31 1439.96 2869.39 1426.92C2856.64 1414.06 2848.5 1397.47 2843.45 1380.22C2834.61 1350.08 2834.63 1316.08 2837.65 1290.8C2821.96 1285.19 2809.4 1274.74 2801.45 1265.14L2818.38 1251.09C2827.6 1262.21 2843.64 1273.27 2861.87 1272.92C2879.34 1272.58 2902.91 1261.61 2927.44 1220.03L2939.01 1200.41L2947.18 1221.67ZM2935.35 1248.18C2911.73 1280.98 2886.48 1294.44 2862.3 1294.91C2861.3 1294.93 2860.31 1294.93 2859.32 1294.9C2856.73 1317.94 2856.95 1348.09 2864.56 1374.03C2868.94 1389 2875.61 1401.95 2885.01 1411.43C2894.23 1420.74 2906.54 1427.18 2923.37 1428.66C2940.17 1430.13 2952.62 1425.84 2962.19 1418.39C2972.01 1410.76 2979.55 1399.19 2985.08 1385.04C2995.76 1357.67 2997.8 1323.37 2996.16 1298.93C2987.45 1297.59 2979.43 1294.29 2972.25 1289.81C2956.25 1279.81 2943.87 1263.65 2935.35 1248.18ZM3165 1071.49C3180.39 1063.35 3196.21 1065.94 3206.44 1070.84L3207.42 1071.32L3207.46 1071.34L3207.5 1071.36C3224.42 1080.18 3247.12 1110.41 3237.24 1164.59C3232.38 1191.19 3223.3 1207.98 3212.23 1217.58C3201.39 1226.98 3189.23 1228.85 3180.09 1226.39C3168.28 1224.58 3152.66 1217.56 3141.46 1202.35C3129.76 1186.46 3123.87 1163.04 3130.11 1130.54C3136.25 1098.57 3148.95 1079.97 3165 1071.49ZM2656.05 1036.46C2663 1030.31 2672.05 1026.75 2682.42 1029.03C2695.05 1028.4 2712.43 1032.01 2725.56 1045.51C2739.74 1060.09 2746.72 1083.83 2740.76 1118.96C2734.99 1152.92 2725.17 1173.64 2713.49 1185.14C2702.3 1196.17 2689.45 1198.47 2679.4 1195.12C2667.65 1194.93 2651.62 1191.07 2639.59 1179.17C2626.2 1165.93 2619.98 1144.99 2626.55 1115.31C2628.24 1100.24 2632.5 1078.16 2640.15 1060.39C2643.99 1051.47 2649.11 1042.6 2656.05 1036.46Z" fill="#1F4371"/>
<path d="M2368 853.279L2477.91 711.116C2436.71 629.516 2371.08 658.783 2343.41 683.616C2277.81 747.616 2335.83 828.779 2368 853.279Z" fill="#9DD0FA"/>
<path d="M3450.5 896.279L3360.91 760.116C3391.31 698.516 3455.25 724.783 3483.41 745.616C3537.41 811.216 3481.5 872.445 3450.5 896.279Z" fill="#9DD0FA"/>
<path d="M2368 853.279L2477.91 711.116C2436.71 629.516 2371.08 658.783 2343.41 683.616C2277.81 747.616 2335.83 828.779 2368 853.279Z" stroke="#9DD0FA" stroke-width="2"/>
<path d="M3450.5 896.279L3360.91 760.116C3391.31 698.516 3455.25 724.783 3483.41 745.616C3537.41 811.216 3481.5 872.445 3450.5 896.279Z" stroke="#9DD0FA" stroke-width="2"/>
<path d="M2250.2 563.815C2289.37 529.753 2354.58 501.47 2421.32 505.973C2487.21 510.419 2553.25 546.756 2596.34 637.293C2659.34 608.531 2762.23 577.949 2877.61 573.795C2993.37 569.628 3122.44 592.054 3236.33 670.443C3266.83 634.168 3317.19 592.687 3377.29 578.006C3409.85 570.053 3445.29 569.976 3481.67 582.938C3518 595.884 3554.58 621.585 3589.88 664.088C3625.17 706.589 3643.87 747.359 3650.2 785.608C3656.54 823.898 3650.37 858.966 3637.02 889.81C3612.23 947.101 3562.73 989.866 3521.98 1013.63C3540.64 1066.09 3559.98 1151.06 3561.59 1247.37C3563.29 1349.39 3545.12 1464.94 3484.4 1568.19L3484.06 1568.76L3483.67 1569.28C3436.05 1631.81 3296.73 1761.3 3116.62 1782.26L2908.23 1911.96L2902.11 1915.76L2896.17 1911.68L2694.49 1772.77C2671.39 1770.3 2634.6 1763.91 2595.01 1752.35C2553.82 1740.32 2508.85 1722.48 2473.05 1697.09V1697.09C2372.88 1627.75 2255.57 1492.8 2229.66 1312.67C2214.46 1206.98 2230.85 1086.71 2299.41 956.094C2254.75 928.035 2201.74 871.077 2178.05 802.584C2165.35 765.862 2160.97 725.468 2171.2 684.348C2181.45 643.171 2206.14 602.118 2250.2 563.815ZM2419.84 527.923C2359.68 523.864 2300.04 549.631 2264.63 580.417C2223.48 616.194 2201.55 653.474 2192.55 689.661C2183.53 725.905 2187.26 761.908 2198.84 795.394C2220.56 858.186 2269.45 910.877 2309.93 936.714C2358.77 849.544 2430.94 757.924 2532.4 663.08L2535.57 660.117H2552.3V682.117H2544.26C2288.36 922.609 2226.82 1138.37 2251.44 1309.54C2276.07 1480.75 2387.28 1610.18 2483.4 1677.49L2485.67 1679.07L2485.73 1679.11L2485.78 1679.14C2518.77 1702.55 2561.14 1719.54 2601.17 1731.23C2641.12 1742.9 2678 1749.07 2699.48 1751.17L2702.31 1751.45L2704.65 1753.06L2902.72 1889.47L3107.1 1762.28L3109.22 1760.96L3111.71 1760.68C3284.29 1741.59 3419.55 1616.85 3465.76 1556.47C3523.57 1457.87 3541.25 1346.9 3539.59 1247.74C3537.93 1148.35 3516.85 1061.61 3498.14 1012.54L3494.69 1003.49L3503.22 998.92C3542.61 977.815 3592.92 936.327 3616.83 881.073C3628.7 853.65 3634.07 822.855 3628.5 789.201C3622.92 755.504 3606.25 718.243 3572.95 678.144C3539.65 638.048 3506.2 615.031 3474.29 603.661C3442.42 592.308 3411.41 592.319 3382.51 599.377C3328.99 612.452 3282.83 649.745 3254.24 683.33C3259.44 687.241 3264.6 691.276 3269.73 695.435C3270.62 696.16 3271.51 696.888 3272.4 697.62L3258.45 714.633L3258.43 714.611L3255.86 712.515C3248 706.132 3240.04 700.06 3232 694.287C3121.1 614.675 2993.69 591.63 2878.4 595.781C2763.02 599.934 2660.56 631.314 2600.6 659.567L2599.91 658.093L2599.41 658.617L2591.85 666.602L2582.35 657.602L2580.76 656.097L2579.87 654.098C2540.03 564.789 2478.99 531.914 2419.84 527.923Z" fill="#1F4371"/>
<path d="M2250.2 563.815L2250.52 564.192V564.192L2250.2 563.815ZM2421.32 505.973L2421.36 505.474V505.474L2421.32 505.973ZM2596.34 637.293L2595.89 637.508L2596.1 637.952L2596.55 637.748L2596.34 637.293ZM2877.61 573.795L2877.59 573.296V573.296L2877.61 573.795ZM3236.33 670.443L3236.05 670.855L3236.42 671.112L3236.71 670.764L3236.33 670.443ZM3377.29 578.006L3377.17 577.52V577.52L3377.29 578.006ZM3481.67 582.938L3481.84 582.467V582.467L3481.67 582.938ZM3589.88 664.088L3590.26 663.769V663.769L3589.88 664.088ZM3650.2 785.608L3650.7 785.526V785.526L3650.2 785.608ZM3637.02 889.81L3636.56 889.611V889.611L3637.02 889.81ZM3521.98 1013.63L3521.73 1013.2L3521.37 1013.4L3521.51 1013.79L3521.98 1013.63ZM3561.59 1247.37L3562.09 1247.36V1247.36L3561.59 1247.37ZM3484.4 1568.19L3483.97 1567.94L3483.97 1567.94L3484.4 1568.19ZM3484.06 1568.76L3484.46 1569.06L3484.48 1569.04L3484.49 1569.01L3484.06 1568.76ZM3483.67 1569.28L3483.27 1568.98L3483.27 1568.98L3483.67 1569.28ZM3116.62 1782.26L3116.56 1781.77L3116.45 1781.78L3116.36 1781.84L3116.62 1782.26ZM2908.23 1911.96L2907.96 1911.53V1911.53L2908.23 1911.96ZM2902.11 1915.76L2901.83 1916.17L2902.1 1916.36L2902.37 1916.19L2902.11 1915.76ZM2896.17 1911.68L2895.89 1912.09V1912.09L2896.17 1911.68ZM2694.49 1772.77L2694.77 1772.36L2694.67 1772.29L2694.54 1772.27L2694.49 1772.77ZM2595.01 1752.35L2594.87 1752.83V1752.83L2595.01 1752.35ZM2473.05 1697.09H2472.55V1697.35L2472.76 1697.5L2473.05 1697.09ZM2473.05 1697.09H2473.55V1696.83L2473.34 1696.68L2473.05 1697.09ZM2229.66 1312.67L2229.17 1312.74V1312.74L2229.66 1312.67ZM2299.41 956.094L2299.85 956.326L2300.07 955.917L2299.68 955.671L2299.41 956.094ZM2178.05 802.584L2177.58 802.748V802.748L2178.05 802.584ZM2171.2 684.348L2170.71 684.227H2170.71L2171.2 684.348ZM2419.84 527.923L2419.88 527.424V527.424L2419.84 527.923ZM2264.63 580.417L2264.96 580.795V580.795L2264.63 580.417ZM2192.55 689.661L2192.06 689.541V689.541L2192.55 689.661ZM2198.84 795.394L2198.37 795.557V795.557L2198.84 795.394ZM2309.93 936.714L2309.66 937.136L2310.1 937.421L2310.36 936.959L2309.93 936.714ZM2532.4 663.08L2532.06 662.715V662.715L2532.4 663.08ZM2535.57 660.117V659.617H2535.38L2535.23 659.751L2535.57 660.117ZM2552.3 660.117H2552.8V659.617H2552.3V660.117ZM2552.3 682.117V682.617H2552.8V682.117H2552.3ZM2544.26 682.117V681.617H2544.07L2543.92 681.752L2544.26 682.117ZM2251.44 1309.54L2250.94 1309.61V1309.61L2251.44 1309.54ZM2483.4 1677.49L2483.12 1677.9L2483.12 1677.9L2483.4 1677.49ZM2485.67 1679.07L2485.39 1679.48L2485.39 1679.48L2485.67 1679.07ZM2485.73 1679.11L2486.02 1678.7L2486.01 1678.69L2485.73 1679.11ZM2485.78 1679.14L2485.49 1679.55L2485.49 1679.55L2485.78 1679.14ZM2601.17 1731.23L2601.31 1730.75V1730.75L2601.17 1731.23ZM2699.48 1751.17L2699.53 1750.67H2699.53L2699.48 1751.17ZM2702.31 1751.45L2702.6 1751.03L2702.49 1750.96L2702.36 1750.95L2702.31 1751.45ZM2704.65 1753.06L2704.94 1752.65V1752.65L2704.65 1753.06ZM2902.72 1889.47L2902.44 1889.88L2902.71 1890.07L2902.98 1889.89L2902.72 1889.47ZM3107.1 1762.28L3107.37 1762.7L3107.37 1762.7L3107.1 1762.28ZM3109.22 1760.96L3109.17 1760.46L3109.05 1760.47L3108.96 1760.53L3109.22 1760.96ZM3111.71 1760.68L3111.76 1761.18V1761.18L3111.71 1760.68ZM3465.76 1556.47L3466.16 1556.77L3466.18 1556.75L3466.2 1556.72L3465.76 1556.47ZM3539.59 1247.74L3539.09 1247.75V1247.75L3539.59 1247.74ZM3498.14 1012.54L3498.6 1012.36V1012.36L3498.14 1012.54ZM3494.69 1003.49L3494.45 1003.05L3494.06 1003.26L3494.22 1003.67L3494.69 1003.49ZM3503.22 998.92L3502.98 998.479V998.479L3503.22 998.92ZM3616.83 881.073L3617.29 881.271V881.271L3616.83 881.073ZM3628.5 789.201L3628.99 789.119V789.119L3628.5 789.201ZM3572.95 678.144L3573.34 677.824V677.824L3572.95 678.144ZM3474.29 603.661L3474.45 603.19V603.19L3474.29 603.661ZM3382.51 599.377L3382.39 598.892V598.892L3382.51 599.377ZM3254.24 683.33L3253.86 683.006L3253.52 683.411L3253.94 683.73L3254.24 683.33ZM3269.73 695.435L3270.04 695.047V695.047L3269.73 695.435ZM3272.4 697.62L3272.79 697.937L3273.11 697.551L3272.72 697.234L3272.4 697.62ZM3258.45 714.633L3258.14 715.019L3258.52 715.337L3258.84 714.95L3258.45 714.633ZM3258.43 714.611L3258.74 714.224L3258.74 714.223L3258.43 714.611ZM3255.86 712.515L3256.18 712.128L3256.18 712.127L3255.86 712.515ZM3232 694.287L3232.29 693.881V693.881L3232 694.287ZM2878.4 595.781L2878.38 595.281V595.281L2878.4 595.781ZM2600.6 659.567L2600.15 659.78L2600.36 660.232L2600.82 660.019L2600.6 659.567ZM2599.91 658.093L2600.36 657.88L2600.05 657.217L2599.55 657.749L2599.91 658.093ZM2599.41 658.617L2599.78 658.96L2599.78 658.96L2599.41 658.617ZM2591.85 666.602L2591.5 666.965L2591.87 667.309L2592.21 666.946L2591.85 666.602ZM2582.35 657.602L2582.69 657.239L2582.69 657.239L2582.35 657.602ZM2580.76 656.097L2580.3 656.301L2580.34 656.392L2580.42 656.46L2580.76 656.097ZM2579.87 654.098L2580.32 653.894V653.894L2579.87 654.098ZM2250.2 563.815L2250.52 564.192C2289.62 530.205 2354.7 501.979 2421.29 506.472L2421.32 505.973L2421.36 505.474C2354.47 500.961 2289.13 529.301 2249.87 563.437L2250.2 563.815ZM2421.32 505.973L2421.29 506.472C2486.99 510.905 2552.87 547.127 2595.89 637.508L2596.34 637.293L2596.79 637.078C2553.63 546.385 2487.44 509.932 2421.36 505.474L2421.32 505.973ZM2596.34 637.293L2596.55 637.748C2659.5 609.011 2762.32 578.446 2877.63 574.295L2877.61 573.795L2877.59 573.296C2762.14 577.452 2659.19 608.051 2596.14 636.838L2596.34 637.293ZM2877.61 573.795L2877.63 574.295C2993.31 570.131 3122.27 592.543 3236.05 670.855L3236.33 670.443L3236.61 670.031C3122.61 591.565 2993.43 569.126 2877.59 573.296L2877.61 573.795ZM3236.33 670.443L3236.71 670.764C3267.17 634.539 3317.45 593.139 3377.41 578.492L3377.29 578.006L3377.17 577.52C3316.93 592.235 3266.49 633.797 3235.95 670.121L3236.33 670.443ZM3377.29 578.006L3377.41 578.492C3409.89 570.559 3445.23 570.484 3481.5 583.409L3481.67 582.938L3481.84 582.467C3445.36 569.469 3409.82 569.547 3377.17 577.52L3377.29 578.006ZM3481.67 582.938L3481.5 583.409C3517.74 596.319 3554.24 621.959 3589.49 664.408L3589.88 664.088L3590.26 663.769C3554.92 621.21 3518.27 595.449 3481.84 582.467L3481.67 582.938ZM3589.88 664.088L3589.49 664.408C3624.74 706.854 3643.4 747.544 3649.71 785.689L3650.2 785.608L3650.7 785.526C3644.35 747.173 3625.6 706.324 3590.26 663.769L3589.88 664.088ZM3650.2 785.608L3649.71 785.689C3656.03 823.875 3649.88 858.845 3636.56 889.611L3637.02 889.81L3637.48 890.008C3650.86 859.087 3657.05 823.922 3650.7 785.526L3650.2 785.608ZM3637.02 889.81L3636.56 889.611C3611.83 946.773 3562.42 989.467 3521.73 1013.2L3521.98 1013.63L3522.23 1014.06C3563.04 990.265 3612.64 947.429 3637.48 890.008L3637.02 889.81ZM3521.98 1013.63L3521.51 1013.79C3540.16 1066.21 3559.48 1151.13 3561.09 1247.38L3561.59 1247.37L3562.09 1247.36C3560.48 1150.99 3541.13 1065.98 3522.45 1013.46L3521.98 1013.63ZM3561.59 1247.37L3561.09 1247.38C3562.79 1349.34 3544.63 1464.78 3483.97 1567.94L3484.4 1568.19L3484.83 1568.45C3545.62 1465.09 3563.79 1349.44 3562.09 1247.36L3561.59 1247.37ZM3484.4 1568.19L3483.97 1567.94L3483.63 1568.51L3484.06 1568.76L3484.49 1569.01L3484.83 1568.45L3484.4 1568.19ZM3484.06 1568.76L3483.67 1568.46L3483.27 1568.98L3483.67 1569.28L3484.06 1569.58L3484.46 1569.06L3484.06 1568.76ZM3483.67 1569.28L3483.27 1568.98C3435.7 1631.45 3296.48 1760.82 3116.56 1781.77L3116.62 1782.26L3116.68 1782.76C3296.97 1761.77 3436.4 1632.17 3484.06 1569.58L3483.67 1569.28ZM3116.62 1782.26L3116.36 1781.84L2907.96 1911.53L2908.23 1911.96L2908.49 1912.38L3116.88 1782.69L3116.62 1782.26ZM2908.23 1911.96L2907.96 1911.53L2901.85 1915.34L2902.11 1915.76L2902.37 1916.19L2908.49 1912.38L2908.23 1911.96ZM2902.11 1915.76L2902.39 1915.35L2896.46 1911.26L2896.17 1911.68L2895.89 1912.09L2901.83 1916.17L2902.11 1915.76ZM2896.17 1911.68L2896.46 1911.26L2694.77 1772.36L2694.49 1772.77L2694.21 1773.18L2895.89 1912.09L2896.17 1911.68ZM2694.49 1772.77L2694.54 1772.27C2671.47 1769.8 2634.71 1763.42 2595.15 1751.87L2595.01 1752.35L2594.87 1752.83C2634.49 1764.4 2671.31 1770.79 2694.44 1773.27L2694.49 1772.77ZM2595.01 1752.35L2595.15 1751.87C2553.99 1739.85 2509.08 1722.03 2473.34 1696.68L2473.05 1697.09L2472.76 1697.5C2508.63 1722.94 2553.66 1740.8 2594.87 1752.83L2595.01 1752.35ZM2473.05 1697.09H2473.55V1697.09H2473.05H2472.55V1697.09H2473.05ZM2473.05 1697.09L2473.34 1696.68C2373.24 1627.4 2256.04 1492.56 2230.16 1312.6L2229.66 1312.67L2229.17 1312.74C2255.1 1493.04 2372.51 1628.11 2472.77 1697.5L2473.05 1697.09ZM2229.66 1312.67L2230.16 1312.6C2214.97 1207.02 2231.34 1086.86 2299.85 956.326L2299.41 956.094L2298.97 955.862C2230.36 1086.57 2213.95 1206.94 2229.17 1312.74L2229.66 1312.67ZM2299.41 956.094L2299.68 955.671C2255.1 927.664 2202.17 870.793 2178.52 802.421L2178.05 802.584L2177.58 802.748C2201.31 871.362 2254.4 928.405 2299.15 956.517L2299.41 956.094ZM2178.05 802.584L2178.52 802.421C2165.85 765.772 2161.48 725.478 2171.68 684.469L2171.2 684.348L2170.71 684.227C2160.45 725.458 2164.85 765.952 2177.58 802.748L2178.05 802.584ZM2171.2 684.348L2171.68 684.469C2181.9 643.406 2206.53 602.438 2250.52 564.192L2250.2 563.815L2249.87 563.437C2205.75 601.798 2180.99 642.937 2170.71 684.227L2171.2 684.348ZM2419.84 527.923L2419.88 527.424C2359.57 523.355 2299.8 549.179 2264.3 580.04L2264.63 580.417L2264.96 580.795C2300.28 550.082 2359.8 524.373 2419.81 528.422L2419.84 527.923ZM2264.63 580.417L2264.3 580.04C2223.09 615.875 2201.1 653.24 2192.06 689.541L2192.55 689.661L2193.03 689.782C2202.01 653.708 2223.87 616.514 2264.96 580.795L2264.63 580.417ZM2192.55 689.661L2192.06 689.541C2183.01 725.895 2186.76 761.998 2198.37 795.557L2198.84 795.394L2199.31 795.23C2187.76 761.818 2184.04 725.915 2193.03 689.782L2192.55 689.661ZM2198.84 795.394L2198.37 795.557C2220.13 858.47 2269.1 911.246 2309.66 937.136L2309.93 936.714L2310.2 936.293C2269.8 910.508 2220.99 857.902 2199.31 795.23L2198.84 795.394ZM2309.93 936.714L2310.36 936.959C2359.17 849.841 2431.31 758.261 2532.74 663.446L2532.4 663.08L2532.06 662.715C2430.56 757.588 2358.36 849.247 2309.49 936.47L2309.93 936.714ZM2532.4 663.08L2532.74 663.446L2535.92 660.482L2535.57 660.117L2535.23 659.751L2532.06 662.715L2532.4 663.08ZM2535.57 660.117V660.617H2552.3V660.117V659.617H2535.57V660.117ZM2552.3 660.117H2551.8V682.117H2552.3H2552.8V660.117H2552.3ZM2552.3 682.117V681.617H2544.26V682.117V682.617H2552.3V682.117ZM2544.26 682.117L2543.92 681.752C2287.93 922.323 2226.29 1138.24 2250.94 1309.61L2251.44 1309.54L2251.93 1309.47C2227.34 1138.51 2288.78 922.895 2544.61 682.481L2544.26 682.117ZM2251.44 1309.54L2250.94 1309.61C2275.6 1481 2386.91 1610.54 2483.12 1677.9L2483.4 1677.49L2483.69 1677.08C2387.64 1609.83 2276.54 1480.51 2251.93 1309.47L2251.44 1309.54ZM2483.4 1677.49L2483.12 1677.9L2485.39 1679.48L2485.67 1679.07L2485.96 1678.66L2483.69 1677.08L2483.4 1677.49ZM2485.67 1679.07L2485.39 1679.48L2485.44 1679.52L2485.73 1679.11L2486.01 1678.69L2485.96 1678.66L2485.67 1679.07ZM2485.73 1679.11L2485.43 1679.51L2485.49 1679.55L2485.78 1679.14L2486.07 1678.74L2486.02 1678.7L2485.73 1679.11ZM2485.78 1679.14L2485.49 1679.55C2518.55 1703 2560.97 1720.01 2601.03 1731.71L2601.17 1731.23L2601.31 1730.75C2561.31 1719.07 2519 1702.1 2486.07 1678.74L2485.78 1679.14ZM2601.17 1731.23L2601.03 1731.71C2641.01 1743.39 2677.92 1749.56 2699.44 1751.67L2699.48 1751.17L2699.53 1750.67C2678.08 1748.57 2641.23 1742.41 2601.31 1730.75L2601.17 1731.23ZM2699.48 1751.17L2699.44 1751.67L2702.26 1751.94L2702.31 1751.45L2702.36 1750.95L2699.53 1750.67L2699.48 1751.17ZM2702.31 1751.45L2702.03 1751.86L2704.37 1753.47L2704.65 1753.06L2704.94 1752.65L2702.6 1751.03L2702.31 1751.45ZM2704.65 1753.06L2704.37 1753.47L2902.44 1889.88L2902.72 1889.47L2903 1889.06L2704.94 1752.65L2704.65 1753.06ZM2902.72 1889.47L2902.98 1889.89L3107.37 1762.7L3107.1 1762.28L3106.84 1761.85L2902.46 1889.05L2902.72 1889.47ZM3107.1 1762.28L3107.37 1762.7L3109.49 1761.38L3109.22 1760.96L3108.96 1760.53L3106.84 1761.85L3107.1 1762.28ZM3109.22 1760.96L3109.28 1761.45L3111.76 1761.18L3111.71 1760.68L3111.65 1760.19L3109.17 1760.46L3109.22 1760.96ZM3111.71 1760.68L3111.76 1761.18C3284.54 1742.07 3419.91 1617.21 3466.16 1556.77L3465.76 1556.47L3465.37 1556.17C3419.2 1616.49 3284.05 1741.12 3111.65 1760.19L3111.71 1760.68ZM3465.76 1556.47L3466.2 1556.72C3524.06 1458.02 3541.75 1346.96 3540.09 1247.73L3539.59 1247.74L3539.09 1247.75C3540.75 1346.85 3523.08 1457.72 3465.33 1556.22L3465.76 1556.47ZM3539.59 1247.74L3540.09 1247.73C3538.43 1148.28 3517.34 1061.49 3498.6 1012.36L3498.14 1012.54L3497.67 1012.71C3516.37 1061.73 3537.43 1148.41 3539.09 1247.75L3539.59 1247.74ZM3498.14 1012.54L3498.6 1012.36L3495.15 1003.31L3494.69 1003.49L3494.22 1003.67L3497.67 1012.71L3498.14 1012.54ZM3494.69 1003.49L3494.92 1003.93L3503.46 999.361L3503.22 998.92L3502.98 998.479L3494.45 1003.05L3494.69 1003.49ZM3503.22 998.92L3503.46 999.361C3542.91 978.223 3593.32 936.663 3617.29 881.271L3616.83 881.073L3616.37 880.874C3592.52 935.992 3542.31 977.408 3502.98 998.479L3503.22 998.92ZM3616.83 881.073L3617.29 881.271C3629.19 853.771 3634.58 822.879 3628.99 789.119L3628.5 789.201L3628 789.282C3633.56 822.831 3628.21 853.529 3616.37 880.874L3616.83 881.073ZM3628.5 789.201L3628.99 789.119C3623.4 755.319 3606.68 717.978 3573.34 677.824L3572.95 678.144L3572.57 678.463C3605.82 718.508 3622.44 755.689 3628 789.282L3628.5 789.201ZM3572.95 678.144L3573.34 677.824C3539.99 637.674 3506.46 614.596 3474.45 603.19L3474.29 603.661L3474.12 604.132C3505.93 615.466 3539.31 638.422 3572.57 678.463L3572.95 678.144ZM3474.29 603.661L3474.45 603.19C3442.49 591.801 3411.37 591.813 3382.39 598.892L3382.51 599.377L3382.63 599.863C3411.44 592.826 3442.36 592.816 3474.12 604.132L3474.29 603.661ZM3382.51 599.377L3382.39 598.892C3328.73 612 3282.49 649.372 3253.86 683.006L3254.24 683.33L3254.62 683.654C3283.17 650.117 3329.24 612.905 3382.63 599.863L3382.51 599.377ZM3254.24 683.33L3253.94 683.73C3259.14 687.637 3264.29 691.668 3269.41 695.823L3269.73 695.435L3270.04 695.047C3264.91 690.883 3259.75 686.845 3254.54 682.931L3254.24 683.33ZM3269.73 695.435L3269.41 695.823C3270.3 696.547 3271.2 697.275 3272.08 698.007L3272.4 697.62L3272.72 697.234C3271.83 696.501 3270.94 695.772 3270.04 695.047L3269.73 695.435ZM3272.4 697.62L3272.02 697.303L3258.07 714.316L3258.45 714.633L3258.84 714.95L3272.79 697.937L3272.4 697.62ZM3258.45 714.633L3258.77 714.247L3258.74 714.224L3258.43 714.611L3258.11 714.997L3258.14 715.019L3258.45 714.633ZM3258.43 714.611L3258.74 714.223L3256.18 712.128L3255.86 712.515L3255.55 712.902L3258.11 714.998L3258.43 714.611ZM3255.86 712.515L3256.18 712.127C3248.31 705.738 3240.34 699.66 3232.29 693.881L3232 694.287L3231.71 694.694C3239.74 700.461 3247.69 706.527 3255.55 712.903L3255.86 712.515ZM3232 694.287L3232.29 693.881C3121.28 614.187 2993.75 591.128 2878.38 595.281L2878.4 595.781L2878.42 596.28C2993.63 592.133 3120.92 615.164 3231.71 694.694L3232 694.287ZM2878.4 595.781L2878.38 595.281C2762.93 599.437 2660.41 630.835 2600.39 659.114L2600.6 659.567L2600.82 660.019C2660.72 631.793 2763.12 600.431 2878.42 596.28L2878.4 595.781ZM2600.6 659.567L2601.06 659.354L2600.36 657.88L2599.91 658.093L2599.46 658.306L2600.15 659.78L2600.6 659.567ZM2599.91 658.093L2599.55 657.749L2599.05 658.273L2599.41 658.617L2599.78 658.96L2600.27 658.437L2599.91 658.093ZM2599.41 658.617L2599.05 658.273L2591.49 666.258L2591.85 666.602L2592.21 666.946L2599.78 658.96L2599.41 658.617ZM2591.85 666.602L2592.19 666.239L2582.69 657.239L2582.35 657.602L2582 657.965L2591.5 666.965L2591.85 666.602ZM2582.35 657.602L2582.69 657.239L2581.1 655.734L2580.76 656.097L2580.42 656.46L2582 657.965L2582.35 657.602ZM2580.76 656.097L2581.22 655.893L2580.32 653.894L2579.87 654.098L2579.41 654.302L2580.3 656.301L2580.76 656.097ZM2579.87 654.098L2580.32 653.894C2540.41 564.427 2479.21 531.428 2419.88 527.424L2419.84 527.923L2419.81 528.422C2478.76 532.399 2539.64 565.152 2579.41 654.302L2579.87 654.098Z" fill="#1F4371"/>
<path d="M3344.91 761.616C3370.91 780.116 3428.11 833.116 3448.91 897.116" stroke="#1F4371" stroke-width="22"/>
<path d="M2927.41 1427.12C2858.95 1427.12 2851.08 1337.78 2855.91 1294.12C2885.41 1301.12 2917.41 1275.12 2936.41 1248.12C2941.61 1272.12 2980.91 1301.12 2994.91 1301.12C2997.41 1340.12 2987.91 1427.12 2927.41 1427.12Z" fill="url(#paint0_linear_35_330)" stroke="#FFE6E8" stroke-width="2"/>
<path d="M2263 1084C2298.83 1075.33 2401.6 1061.6 2488 1072M2488 1072C2491.67 1050 2522 987.144 2543.5 978C2601.5 953.333 2723.6 931.3 2828 990.5C2851.5 1008 2854.81 1076 2854.81 1116M2488 1072L2523.5 1182.5C2689 1341.5 2780.17 1253.5 2828 1182.5C2842.82 1160.5 2854.81 1142 2854.81 1116M2854.81 1116C2876.5 1095.5 2982.5 1084 3010 1116M3010 1116C3016 1082.17 3053.97 1011.21 3060 1006C3078.5 990 3167 950.5 3330 1032.5C3347.5 1041.3 3387.2 1093.1 3382 1129.5M3010 1116L3060 1232C3161.5 1358.5 3261 1305 3310 1261C3337.5 1236.31 3373 1173.5 3382 1129.5M3382 1129.5C3409 1120.5 3472.5 1129.5 3535.5 1140.5" stroke="#1F4371" stroke-width="30"/>
<path d="M1628 857.5C1694 1108.7 1772.5 1336.17 1803.5 1418.5L1862 1388L1662.5 844.5L1628 857.5Z" fill="url(#paint1_linear_35_330)" stroke="#1F4371" stroke-width="10"/>
<path d="M1609.5 778C1591.9 846 1614.17 858.666 1627.5 856.5L1662.5 846C1682.5 828.8 1652.17 788.167 1634.5 770C1622.5 769.2 1612.83 775 1609.5 778Z" fill="#D9D9D9" stroke="#1F4371" stroke-width="10"/>
<defs>
<linearGradient id="paint0_linear_35_330" x1="2926.73" y1="1250.12" x2="2926.73" y2="1426.88" gradientUnits="userSpaceOnUse">
<stop stop-color="#F1C9EB"/>
<stop offset="1" stop-color="#E9EFFF"/>
</linearGradient>
<linearGradient id="paint1_linear_35_330" x1="1745" y1="844.5" x2="1745" y2="1418.5" gradientUnits="userSpaceOnUse">
<stop stop-color="#BDBDBD"/>
<stop offset="1" stop-color="#0A0A0A"/>
</linearGradient>
</defs>
</svg>
