<svg width="834" height="623" viewBox="0 0 834 623" fill="none" xmlns="http://www.w3.org/2000/svg">
<path d="M170.114 483.525C137.114 476.192 66.9136 455.726 32.1136 404.526C7.44692 358.859 -17.2864 233.526 81.1136 97.5255C108.114 56.6922 183.614 -16.0745 269.614 19.5255C355.614 55.1255 375.447 72.0254 374.614 76.0254C393.28 89.3587 425.014 133.025 402.614 201.025C380.214 269.025 312.947 400.692 282.114 458.025C264.28 475.031 213.314 498.339 170.114 483.525Z" fill="#52ADFF"/>
<path d="M170.114 483.525C137.114 476.192 66.9136 455.726 32.1136 404.526C7.44692 358.859 -17.2864 233.526 81.1136 97.5255C108.114 56.6922 183.614 -16.0745 269.614 19.5255C355.614 55.1255 375.447 72.0254 374.614 76.0254M374.614 76.0254C341.614 51.6921 258.714 26.4254 191.114 120.025C123.514 213.625 115.777 256.525 111.614 296.525C100.114 407.025 135.78 465.525 170.114 483.525C213.314 498.339 264.28 475.031 282.114 458.025C312.947 400.692 380.214 269.025 402.614 201.025C425.014 133.025 393.28 89.3587 374.614 76.0254Z" stroke="#003F74" stroke-width="20"/>
<path d="M279.114 329.026C349.514 373.426 424.78 384.526 453.614 384.526C453.614 349.326 487.281 271.526 504.114 237.026L503.242 236.786C470.938 227.895 379.525 202.734 315.114 225.524C242.022 251.385 259.614 304.026 279.114 329.026Z" fill="white" stroke="#003F74" stroke-width="10"/>
<path d="M819.113 282.524C844.713 434.124 758.78 544.024 712.613 580.024C699.78 596.024 663.213 623.924 619.613 607.524L503.613 580.024C471.113 565.191 418.013 491.324 465.613 314.524C490.447 254.858 553.613 151.524 614.613 151.525C648.613 151.525 705.713 143.416 772.113 205.242C793.86 212.359 811.137 235.288 819.113 282.524Z" fill="#52ADFF"/>
<path d="M772.113 205.242C793.86 212.359 811.137 235.288 819.113 282.524C844.713 434.124 758.78 544.024 712.613 580.024C699.78 596.024 663.213 623.924 619.613 607.524C575.613 578.691 513.013 476.424 614.613 298.024C654.197 250.982 724.065 189.517 772.113 205.242ZM619.613 607.524L503.613 580.024C471.113 565.191 418.013 491.324 465.613 314.524C490.447 254.858 553.613 151.524 614.613 151.525C648.613 151.525 705.713 143.416 772.113 205.242" stroke="#003F74" stroke-width="20"/>
<path d="M730.614 363.025C673.814 371.825 676.113 427.525 692.113 441.525C713.613 446.192 760.414 455.925 787.614 435.525C814.814 415.125 760.947 378.692 730.614 363.025Z" fill="white" stroke="#003F74" stroke-width="10"/>
</svg>
