<svg width="2096" height="1711" viewBox="0 0 2096 1711" fill="none" xmlns="http://www.w3.org/2000/svg">
<path d="M1141.4 1158.65C599 1066.7 656.067 622.13 752.401 411.339C553.6 313.114 616.234 160.545 672.401 96.5384C868.401 -65.9397 995.734 51.6107 1034.9 130.696C1358.9 12.5297 1597.23 102.385 1675.9 162.083C1826.7 18.0687 1964.73 87.6142 2014.9 140.389C2171.3 297.697 2036.4 422.571 1949.4 465.345C2125.8 966.442 1761.23 1141.88 1556.9 1166.95L1349.4 1284.2L1141.4 1158.65Z" fill="#FEFEFE" stroke="black"/>
<path d="M823.084 674.024C794.272 820.894 874.771 844.909 918.622 842.6C985.649 828.167 1051.68 807.96 1024.66 674.023C995.79 530.846 836.334 606.479 823.084 674.024Z" fill="#FFE6E8"/>
<path d="M1631.91 756C1615.4 872.041 1692.93 919.961 1742.45 915.341C1883.01 902.227 1845.5 690.765 1783.97 665.939C1722.44 641.113 1648.42 639.96 1631.91 756Z" fill="#FFE6E8"/>
<path d="M823.084 674.024C794.272 820.894 874.771 844.909 918.622 842.6C985.649 828.167 1051.68 807.96 1024.66 674.023C995.79 530.846 836.334 606.479 823.084 674.024Z" stroke="#FFE6E8" stroke-width="2"/>
<path d="M1631.91 756C1615.4 872.041 1692.93 919.961 1742.45 915.341C1883.01 902.227 1845.5 690.765 1783.97 665.939C1722.44 641.113 1648.42 639.96 1631.91 756Z" stroke="#FFE6E8" stroke-width="2"/>
<path d="M1344.82 663.31C1314.99 639.873 1274.43 591.256 1350.86 584.283C1384.71 588.544 1430.9 610.315 1344.82 663.31Z" fill="#1F4371" stroke="#1F4371" stroke-width="2"/>
<path d="M1358.44 659.803C1365.28 680.406 1378.62 705.629 1395.61 717.93C1403.72 723.801 1412.07 726.33 1420.96 724.813C1430.1 723.25 1441.65 717.087 1455.27 701.738L1471.73 716.34C1456.15 733.9 1440.43 743.804 1424.66 746.499C1408.62 749.239 1394.41 744.214 1382.71 735.751C1366.95 724.344 1354.79 706.04 1346.38 688.52C1323.16 725.555 1298.1 741.265 1273.42 741.82C1245.47 742.45 1223.54 723.381 1212.05 707.327L1221 700.928L1229.95 694.527C1239.46 707.829 1255.43 720.22 1272.93 719.826C1289.6 719.451 1313.29 707.199 1338.2 658.277L1350.14 634.809L1358.44 659.803ZM1212.19 543.643L1040.69 570.295L1039 559.425L1037.31 548.556L1208.81 521.904L1212.19 543.643ZM1647.98 545.481L1646.5 555.369L1645.02 565.259L1463.52 538.028L1466.48 518.249L1647.98 545.481Z" fill="#1F4371"/>
<path d="M809.987 322.404L919.9 191.163C878.7 115.833 813.067 142.851 785.4 165.776C719.8 224.859 777.821 299.786 809.987 322.404Z" fill="#9DD0FA"/>
<path d="M1892.49 362.1L1802.9 236.399C1833.3 179.531 1897.23 203.78 1925.4 223.013C1979.4 283.573 1923.49 340.098 1892.49 362.1Z" fill="#9DD0FA"/>
<path d="M809.987 322.404L919.9 191.163C878.7 115.833 813.067 142.851 785.4 165.776C719.8 224.859 777.821 299.786 809.987 322.404Z" stroke="#9DD0FA" stroke-width="2"/>
<path d="M1892.49 362.1L1802.9 236.399C1833.3 179.531 1897.23 203.78 1925.4 223.013C1979.4 283.573 1923.49 340.098 1892.49 362.1Z" stroke="#9DD0FA" stroke-width="2"/>
<path d="M692.515 54.2648C731.727 22.7921 796.802 -3.20432 863.255 0.934706C928.723 5.0125 994.869 38.3564 1038.16 122.31C1101.07 95.7219 1204.09 67.3867 1319.63 63.547C1435.36 59.7008 1564.47 80.4175 1678.4 152.964C1708.96 119.334 1759.41 80.9583 1819.47 67.4142C1884.96 52.6451 1960.43 67.7894 2031.58 146.88C2066.92 186.168 2085.77 223.992 2092.16 259.649C2098.57 295.376 2092.32 328.08 2078.87 356.764C2054.09 409.645 2004.85 449.024 1964.29 470.991C1982.88 519.657 2001.97 597.755 2003.57 686.189C2005.28 780.612 1987.06 887.585 1926.18 983.154L1925.82 983.723L1925.39 984.243C1877.63 1042.14 1738.25 1161.61 1558.36 1180.88L1349.88 1300.66L1344.11 1303.97L1338.5 1300.4L1136.73 1172.12C1113.69 1169.85 1076.86 1163.96 1037.21 1153.27C996.08 1142.18 951.157 1125.74 915.375 1102.3V1102.3C815.289 1038.35 697.669 913.615 671.669 746.748C656.444 649.036 672.799 538.086 740.919 417.761C696.48 391.721 643.801 339.325 620.133 276.145C607.35 242.022 602.903 204.383 613.238 166.042C623.581 127.672 648.451 89.6325 692.515 54.2648ZM861.887 22.8917C801.437 19.1265 741.662 43.0284 706.286 71.422C665.145 104.443 643.389 138.717 634.48 171.768C625.563 204.847 629.236 237.735 640.734 268.427C662.408 326.283 711.434 375.004 752.048 398.784C800.962 318.167 873.209 233.497 974.715 145.908L977.81 143.236H994.291C994.291 154.203 994.291 165.17 994.291 165.236H985.999C730.021 387.284 668.905 586.107 693.407 743.361C717.946 900.852 828.845 1020.18 925.052 1082.37L927.321 1083.83L927.374 1083.86L927.427 1083.9C960.444 1105.52 1002.85 1121.23 1042.94 1132.03C1081.68 1142.48 1117.54 1148.16 1139.33 1150.27L1141.39 1150.46L1144.05 1150.7L1146.3 1152.13L1344.69 1278.27L1549.42 1160.65L1551.45 1159.48L1553.78 1159.24C1726.62 1141.59 1861.87 1026.37 1907.98 970.765C1965.61 879.995 1983.23 777.876 1981.58 686.586C1979.92 595.045 1958.89 515.161 1940.23 470.008L1936.31 460.506L1945.52 455.947C1985.02 436.41 2035.18 398.136 2058.95 347.427C2070.72 322.321 2076.01 294.222 2070.51 263.531C2064.99 232.77 2048.48 198.56 2015.22 161.594C1949.17 88.177 1881.72 75.9281 1824.31 88.8751C1771.23 100.845 1725.51 134.677 1696.93 165.319C1701.78 168.703 1706.59 172.184 1711.38 175.769C1711.39 175.775 1711.4 175.782 1711.41 175.789L1713.04 177.024C1713.38 177.278 1713.72 177.532 1714.05 177.787L1700.78 195.329L1698.18 193.373C1690.32 187.482 1682.37 181.877 1674.32 176.547C1563.37 103.015 1435.82 81.6983 1320.36 85.5353C1204.85 89.3738 1102.3 118.371 1042.29 144.476L1041.48 142.61L1041.4 142.697L1034.16 150.978L1024.66 142.669L1022.97 141.193L1022 139.175C982.363 57.1597 921.458 26.6023 861.887 22.8917Z" fill="#1F4371"/>
<path d="M692.515 54.2648L692.828 54.6547V54.6547L692.515 54.2648ZM863.255 0.934706L863.286 0.435673V0.435673L863.255 0.934706ZM1038.16 122.31L1037.72 122.539L1037.93 122.951L1038.36 122.77L1038.16 122.31ZM1319.63 63.547L1319.61 63.0473V63.0473L1319.63 63.547ZM1678.4 152.964L1678.13 153.386L1678.49 153.612L1678.77 153.3L1678.4 152.964ZM1819.47 67.4142L1819.36 66.9264V66.9264L1819.47 67.4142ZM2031.58 146.88L2031.95 146.546V146.546L2031.58 146.88ZM2092.16 259.649L2092.66 259.56V259.56L2092.16 259.649ZM2078.87 356.764L2078.42 356.552V356.552L2078.87 356.764ZM1964.29 470.991L1964.05 470.552L1963.67 470.76L1963.83 471.17L1964.29 470.991ZM2003.57 686.189L2004.07 686.18V686.18L2003.57 686.189ZM1926.18 983.154L1926.6 983.423L1926.6 983.423L1926.18 983.154ZM1925.82 983.723L1926.2 984.041L1926.22 984.017L1926.24 983.992L1925.82 983.723ZM1925.39 984.243L1925.77 984.561L1925.77 984.561L1925.39 984.243ZM1558.36 1180.88L1558.31 1180.39L1558.21 1180.4L1558.11 1180.45L1558.36 1180.88ZM1349.88 1300.66L1350.13 1301.09H1350.13L1349.88 1300.66ZM1344.11 1303.97L1343.84 1304.4L1344.1 1304.56L1344.36 1304.41L1344.11 1303.97ZM1338.5 1300.4L1338.77 1299.98H1338.77L1338.5 1300.4ZM1136.73 1172.12L1137 1171.7L1136.9 1171.63L1136.78 1171.62L1136.73 1172.12ZM1037.21 1153.27L1037.08 1153.76V1153.76L1037.21 1153.27ZM915.375 1102.3H914.875V1102.58L915.101 1102.72L915.375 1102.3ZM915.375 1102.3H915.875V1102.03L915.644 1101.88L915.375 1102.3ZM671.669 746.748L671.175 746.825V746.825L671.669 746.748ZM740.919 417.761L741.354 418.007L741.597 417.579L741.172 417.329L740.919 417.761ZM620.133 276.145L619.664 276.32V276.32L620.133 276.145ZM613.238 166.042L612.755 165.912H612.755L613.238 166.042ZM861.887 22.8917L861.919 22.3927V22.3927L861.887 22.8917ZM706.286 71.422L706.599 71.8119V71.8119L706.286 71.422ZM634.48 171.768L633.998 171.638H633.998L634.48 171.768ZM640.734 268.427L640.266 268.602V268.602L640.734 268.427ZM752.048 398.784L751.795 399.216L752.22 399.465L752.475 399.044L752.048 398.784ZM974.715 145.908L975.041 146.287L975.041 146.287L974.715 145.908ZM977.81 143.236V142.736H977.624L977.484 142.858L977.81 143.236ZM994.291 143.236H994.791V142.736H994.291V143.236ZM994.291 165.236V165.736H994.79L994.791 165.237L994.291 165.236ZM985.999 165.236V164.736H985.812L985.671 164.859L985.999 165.236ZM693.407 743.361L692.913 743.438V743.438L693.407 743.361ZM925.052 1082.37L924.78 1082.79L924.781 1082.79L925.052 1082.37ZM927.321 1083.83L927.051 1084.25L927.055 1084.25L927.321 1083.83ZM927.374 1083.86L927.651 1083.45L927.64 1083.44L927.374 1083.86ZM927.427 1083.9L927.149 1084.32L927.153 1084.32L927.427 1083.9ZM1042.94 1132.03L1042.81 1132.52V1132.52L1042.94 1132.03ZM1139.33 1150.27L1139.28 1150.77L1139.28 1150.77L1139.33 1150.27ZM1141.39 1150.46L1141.34 1150.96L1141.34 1150.96L1141.39 1150.46ZM1144.05 1150.7L1144.32 1150.28L1144.21 1150.21L1144.09 1150.2L1144.05 1150.7ZM1146.3 1152.13L1146.57 1151.71L1146.57 1151.71L1146.3 1152.13ZM1344.69 1278.27L1344.42 1278.69L1344.68 1278.85L1344.94 1278.7L1344.69 1278.27ZM1549.42 1160.65L1549.67 1161.08V1161.08L1549.42 1160.65ZM1551.45 1159.48L1551.4 1158.98L1551.3 1158.99L1551.2 1159.05L1551.45 1159.48ZM1553.78 1159.24L1553.73 1158.75H1553.73L1553.78 1159.24ZM1907.98 970.765L1908.37 971.084L1908.39 971.06L1908.4 971.033L1907.98 970.765ZM1981.58 686.586L1981.08 686.595V686.595L1981.58 686.586ZM1940.23 470.008L1939.77 470.199V470.199L1940.23 470.008ZM1936.31 460.506L1936.09 460.058L1935.67 460.265L1935.85 460.697L1936.31 460.506ZM1945.52 455.947L1945.3 455.499V455.499L1945.52 455.947ZM2058.95 347.427L2059.41 347.639V347.639L2058.95 347.427ZM2070.51 263.531L2071 263.443V263.443L2070.51 263.531ZM2015.22 161.594L2015.59 161.259V161.259L2015.22 161.594ZM1824.31 88.8751L1824.2 88.3874V88.3874L1824.31 88.8751ZM1696.93 165.319L1696.56 164.978L1696.17 165.4L1696.64 165.73L1696.93 165.319ZM1711.38 175.769L1711.08 176.169V176.169L1711.38 175.769ZM1711.41 175.789L1711.71 175.39L1711.7 175.389L1711.41 175.789ZM1713.04 177.024L1713.34 176.625L1713.34 176.624L1713.04 177.024ZM1714.05 177.787L1714.45 178.089L1714.75 177.691L1714.36 177.389L1714.05 177.787ZM1700.78 195.329L1700.48 195.728L1700.87 196.029L1701.17 195.631L1700.78 195.329ZM1698.18 193.373L1698.48 192.974L1698.48 192.973L1698.18 193.373ZM1674.32 176.547L1674.05 176.964V176.964L1674.32 176.547ZM1320.36 85.5353L1320.34 85.0356V85.0356L1320.36 85.5353ZM1042.29 144.476L1041.83 144.675L1042.03 145.134L1042.49 144.934L1042.29 144.476ZM1041.48 142.61L1041.93 142.411L1041.62 141.683L1041.1 142.283L1041.48 142.61ZM1041.4 142.697L1041.78 143.027L1041.78 143.025L1041.4 142.697ZM1034.16 150.978L1033.83 151.354L1034.21 151.683L1034.54 151.307L1034.16 150.978ZM1024.66 142.669L1024.99 142.293L1024.99 142.293L1024.66 142.669ZM1022.97 141.193L1022.52 141.411L1022.57 141.503L1022.64 141.57L1022.97 141.193ZM1022 139.175L1022.45 138.958L1022.45 138.957L1022 139.175ZM692.515 54.2648L692.828 54.6547C731.953 23.252 796.908 -2.69679 863.224 1.43374L863.255 0.934706L863.286 0.435673C796.697 -3.71185 731.501 22.3322 692.202 53.8749L692.515 54.2648ZM863.255 0.934706L863.224 1.43374C928.522 5.50096 994.508 38.7473 1037.72 122.539L1038.16 122.31L1038.61 122.081C995.23 37.9655 928.924 4.52403 863.286 0.435673L863.255 0.934706ZM1038.16 122.31L1038.36 122.77C1101.21 96.2047 1204.17 67.8843 1319.64 64.0467L1319.63 63.547L1319.61 63.0473C1204.01 66.8892 1100.93 95.2392 1037.97 121.849L1038.16 122.31ZM1319.63 63.547L1319.64 64.0467C1435.31 60.2028 1564.31 80.909 1678.13 153.386L1678.4 152.964L1678.67 152.542C1564.63 79.926 1435.42 59.1988 1319.61 63.0473L1319.63 63.547ZM1678.4 152.964L1678.77 153.3C1709.29 119.721 1759.65 81.4168 1819.58 67.9019L1819.47 67.4142L1819.36 66.9264C1759.17 80.4999 1708.64 118.948 1678.03 152.628L1678.4 152.964ZM1819.47 67.4142L1819.58 67.9019C1884.89 53.1742 1960.17 68.2527 2031.21 147.214L2031.58 146.88L2031.95 146.546C1960.68 67.3261 1885.04 52.1159 1819.36 66.9264L1819.47 67.4142ZM2031.58 146.88L2031.21 147.214C2066.5 186.45 2085.3 224.191 2091.67 259.737L2092.16 259.649L2092.66 259.56C2086.24 223.792 2067.34 185.886 2031.95 146.546L2031.58 146.88ZM2092.16 259.649L2091.67 259.737C2098.06 295.35 2091.83 327.949 2078.42 356.552L2078.87 356.764L2079.33 356.976C2092.81 328.211 2099.08 295.402 2092.66 259.56L2092.16 259.649ZM2078.87 356.764L2078.42 356.552C2053.7 409.301 2004.56 448.613 1964.05 470.552L1964.29 470.991L1964.53 471.431C2005.14 449.435 2054.48 409.989 2079.33 356.976L2078.87 356.764ZM1964.29 470.991L1963.83 471.17C1982.4 519.785 2001.47 597.826 2003.07 686.198L2003.57 686.189L2004.07 686.18C2002.47 597.685 1983.37 519.53 1964.76 470.813L1964.29 470.991ZM2003.57 686.189L2003.07 686.198C2004.78 780.554 1986.57 887.423 1925.76 982.886L1926.18 983.154L1926.6 983.423C1987.55 887.748 2005.79 780.67 2004.07 686.18L2003.57 686.189ZM1926.18 983.154L1925.76 982.886L1925.39 983.454L1925.82 983.723L1926.24 983.992L1926.6 983.423L1926.18 983.154ZM1925.82 983.723L1925.43 983.405L1925 983.925L1925.39 984.243L1925.77 984.561L1926.2 984.041L1925.82 983.723ZM1925.39 984.243L1925 983.925C1877.29 1041.76 1738.03 1161.13 1558.31 1180.39L1558.36 1180.88L1558.42 1181.38C1738.48 1162.08 1877.96 1042.52 1925.77 984.561L1925.39 984.243ZM1558.36 1180.88L1558.11 1180.45L1349.63 1300.23L1349.88 1300.66L1350.13 1301.09L1558.61 1181.32L1558.36 1180.88ZM1349.88 1300.66L1349.63 1300.23L1343.86 1303.54L1344.11 1303.97L1344.36 1304.41L1350.13 1301.09L1349.88 1300.66ZM1344.11 1303.97L1344.38 1303.55L1338.77 1299.98L1338.5 1300.4L1338.23 1300.83L1343.84 1304.4L1344.11 1303.97ZM1338.5 1300.4L1338.77 1299.98L1137 1171.7L1136.73 1172.12L1136.46 1172.54L1338.23 1300.83L1338.5 1300.4ZM1136.73 1172.12L1136.78 1171.62C1113.77 1169.36 1076.96 1163.47 1037.34 1152.79L1037.21 1153.27L1037.08 1153.76C1076.76 1164.45 1113.61 1170.35 1136.68 1172.61L1136.73 1172.12ZM1037.21 1153.27L1037.34 1152.79C996.234 1141.71 951.368 1125.28 915.649 1101.89L915.375 1102.3L915.101 1102.72C950.946 1126.19 995.926 1142.66 1037.08 1153.76L1037.21 1153.27ZM915.375 1102.3H915.875V1102.3H915.375H914.875V1102.3H915.375ZM915.375 1102.3L915.644 1101.88C815.635 1037.98 698.134 913.352 672.163 746.671L671.669 746.748L671.175 746.825C697.204 913.878 814.943 1038.72 915.106 1102.73L915.375 1102.3ZM671.669 746.748L672.163 746.671C656.956 649.078 673.285 538.242 741.354 418.007L740.919 417.761L740.484 417.515C672.313 537.93 655.931 648.993 671.175 746.825L671.669 746.748ZM740.919 417.761L741.172 417.329C696.813 391.336 644.222 339.023 620.601 275.969L620.133 276.145L619.664 276.32C643.381 339.627 696.148 392.105 740.666 418.192L740.919 417.761ZM620.133 276.145L620.601 275.969C607.847 241.925 603.418 204.393 613.721 166.172L613.238 166.042L612.755 165.912C602.388 204.372 606.852 242.12 619.664 276.32L620.133 276.145ZM613.238 166.042L613.721 166.172C624.031 127.923 648.83 89.9691 692.828 54.6547L692.515 54.2648L692.202 53.8749C648.071 89.2958 623.131 127.421 612.755 165.912L613.238 166.042ZM861.887 22.8917L861.919 22.3927C801.331 18.619 741.436 42.5685 705.973 71.0321L706.286 71.422L706.599 71.8119C741.887 43.4883 801.542 19.634 861.856 23.3908L861.887 22.8917ZM706.286 71.422L705.973 71.0321C664.765 104.107 642.939 138.466 633.998 171.638L634.48 171.768L634.963 171.898C643.84 138.968 665.524 104.78 706.599 71.8119L706.286 71.422ZM634.48 171.768L633.998 171.638C625.048 204.837 628.739 237.832 640.266 268.602L640.734 268.427L641.202 268.251C629.734 237.637 626.078 204.858 634.963 171.898L634.48 171.768ZM640.734 268.427L640.266 268.602C661.987 326.585 711.101 375.389 751.795 399.216L752.048 398.784L752.3 398.353C711.766 374.619 662.829 325.98 641.202 268.251L640.734 268.427ZM752.048 398.784L752.475 399.044C801.357 318.48 873.567 233.849 975.041 146.287L974.715 145.908L974.388 145.53C872.852 233.146 800.567 317.854 751.62 398.525L752.048 398.784ZM974.715 145.908L975.041 146.287L978.137 143.615L977.81 143.236L977.484 142.858L974.388 145.53L974.715 145.908ZM977.81 143.236V143.736H994.291V143.236V142.736H977.81V143.236ZM994.291 143.236H993.791C993.791 148.72 993.791 154.203 993.791 158.324C993.791 160.384 993.791 162.104 993.791 163.313C993.791 163.917 993.791 164.394 993.791 164.722C993.791 164.886 993.791 165.012 993.791 165.099C993.791 165.142 993.791 165.176 993.791 165.199C993.791 165.21 993.791 165.219 993.791 165.225C993.791 165.228 993.791 165.231 993.791 165.233C993.791 165.234 993.791 165.234 993.791 165.235C993.791 165.235 993.791 165.235 993.791 165.236C993.791 165.236 993.791 165.236 993.791 165.236L994.291 165.236L994.791 165.237C994.791 165.17 994.791 154.202 994.791 143.236H994.291ZM994.291 165.236V164.736H985.999V165.236V165.736H994.291V165.236ZM985.999 165.236L985.671 164.859C729.61 386.978 668.376 585.961 692.913 743.438L693.407 743.361L693.901 743.284C669.434 586.254 730.432 387.59 986.326 165.614L985.999 165.236ZM693.407 743.361L692.913 743.438C717.481 901.113 828.498 1020.55 924.78 1082.79L925.052 1082.37L925.323 1081.95C829.193 1019.81 718.412 900.59 693.901 743.284L693.407 743.361ZM925.052 1082.37L924.781 1082.79L927.051 1084.25L927.321 1083.83L927.591 1083.41L925.322 1081.95L925.052 1082.37ZM927.321 1083.83L927.055 1084.25L927.107 1084.29L927.374 1083.86L927.64 1083.44L927.587 1083.41L927.321 1083.83ZM927.374 1083.86L927.096 1084.28L927.149 1084.32L927.427 1083.9L927.704 1083.48L927.651 1083.45L927.374 1083.86ZM927.427 1083.9L927.153 1084.32C960.233 1105.98 1002.7 1121.7 1042.81 1132.52L1042.94 1132.03L1043.07 1131.55C1003.01 1120.75 960.655 1105.06 927.7 1083.48L927.427 1083.9ZM1042.94 1132.03L1042.81 1132.52C1081.58 1142.97 1117.47 1148.65 1139.28 1150.77L1139.33 1150.27L1139.37 1149.77C1117.62 1147.66 1081.78 1141.99 1043.07 1131.55L1042.94 1132.03ZM1139.33 1150.27L1139.28 1150.77L1141.34 1150.96L1141.39 1150.46L1141.44 1149.96L1139.37 1149.77L1139.33 1150.27ZM1141.39 1150.46L1141.34 1150.96L1144 1151.2L1144.05 1150.7L1144.09 1150.2L1141.43 1149.96L1141.39 1150.46ZM1144.05 1150.7L1143.78 1151.12L1146.03 1152.56L1146.3 1152.13L1146.57 1151.71L1144.32 1150.28L1144.05 1150.7ZM1146.3 1152.13L1146.03 1152.56L1344.42 1278.69L1344.69 1278.27L1344.96 1277.85L1146.57 1151.71L1146.3 1152.13ZM1344.69 1278.27L1344.94 1278.7L1549.67 1161.08L1549.42 1160.65L1549.17 1160.22L1344.44 1277.84L1344.69 1278.27ZM1549.42 1160.65L1549.67 1161.08L1551.7 1159.92L1551.45 1159.48L1551.2 1159.05L1549.17 1160.22L1549.42 1160.65ZM1551.45 1159.48L1551.5 1159.98L1553.83 1159.74L1553.78 1159.24L1553.73 1158.75L1551.4 1158.98L1551.45 1159.48ZM1553.78 1159.24L1553.83 1159.74C1726.84 1142.07 1862.2 1026.75 1908.37 971.084L1907.98 970.765L1907.6 970.446C1861.53 1025.99 1726.39 1141.12 1553.73 1158.75L1553.78 1159.24ZM1907.98 970.765L1908.4 971.033C1966.1 880.158 1983.73 777.934 1982.08 686.577L1981.58 686.586L1981.08 686.595C1982.73 777.818 1965.12 879.833 1907.56 970.497L1907.98 970.765ZM1981.58 686.586L1982.08 686.577C1980.42 594.971 1959.38 515.026 1940.7 469.817L1940.23 470.008L1939.77 470.199C1958.4 515.295 1979.42 595.118 1981.08 686.595L1981.58 686.586ZM1940.23 470.008L1940.7 469.817L1936.77 460.315L1936.31 460.506L1935.85 460.697L1939.77 470.199L1940.23 470.008ZM1936.31 460.506L1936.53 460.954L1945.74 456.396L1945.52 455.947L1945.3 455.499L1936.09 460.058L1936.31 460.506ZM1945.52 455.947L1945.74 456.396C1985.3 436.83 2035.57 398.488 2059.41 347.639L2058.95 347.427L2058.5 347.215C2034.8 397.784 1984.74 435.99 1945.3 455.499L1945.52 455.947ZM2058.95 347.427L2059.41 347.639C2071.21 322.452 2076.53 294.248 2071 263.443L2070.51 263.531L2070.02 263.62C2075.5 294.196 2070.23 322.19 2058.5 347.215L2058.95 347.427ZM2070.51 263.531L2071 263.443C2065.47 232.57 2048.9 198.278 2015.59 161.259L2015.22 161.594L2014.85 161.928C2048.06 198.841 2064.52 232.969 2070.02 263.62L2070.51 263.531ZM2015.22 161.594L2015.59 161.259C1949.43 87.7136 1881.79 75.3989 1824.2 88.3874L1824.31 88.8751L1824.42 89.3629C1881.65 76.4572 1948.92 88.6404 2014.85 161.928L2015.22 161.594ZM1824.31 88.8751L1824.2 88.3874C1770.99 100.386 1725.19 134.288 1696.56 164.978L1696.93 165.319L1697.29 165.661C1725.83 135.066 1771.47 101.304 1824.42 89.3629L1824.31 88.8751ZM1696.93 165.319L1696.64 165.73C1701.48 169.11 1706.3 172.588 1711.08 176.169L1711.38 175.769L1711.68 175.369C1706.89 171.781 1702.07 168.296 1697.21 164.909L1696.93 165.319ZM1711.38 175.769L1711.08 176.169C1711.09 176.177 1711.09 176.18 1711.11 176.189L1711.41 175.789L1711.7 175.389C1711.7 175.384 1711.68 175.374 1711.68 175.369L1711.38 175.769ZM1711.41 175.789L1711.1 176.188L1712.74 177.423L1713.04 177.024L1713.34 176.624L1711.71 175.39L1711.41 175.789ZM1713.04 177.024L1712.74 177.423C1713.08 177.68 1713.41 177.93 1713.75 178.185L1714.05 177.787L1714.36 177.389C1714.02 177.134 1713.68 176.876 1713.34 176.625L1713.04 177.024ZM1714.05 177.787L1713.65 177.485L1700.38 195.027L1700.78 195.329L1701.17 195.631L1714.45 178.089L1714.05 177.787ZM1700.78 195.329L1701.08 194.93L1698.48 192.974L1698.18 193.373L1697.88 193.772L1700.48 195.728L1700.78 195.329ZM1698.18 193.373L1698.48 192.973C1690.61 187.076 1682.65 181.465 1674.6 176.13L1674.32 176.547L1674.05 176.964C1682.08 182.288 1690.03 187.888 1697.88 193.773L1698.18 193.373ZM1674.32 176.547L1674.6 176.13C1563.53 102.524 1435.87 81.1963 1320.34 85.0356L1320.36 85.5353L1320.37 86.035C1435.76 82.2003 1563.2 103.506 1674.05 176.964L1674.32 176.547ZM1320.36 85.5353L1320.34 85.0356C1204.77 88.8763 1102.15 117.889 1042.09 144.017L1042.29 144.476L1042.49 144.934C1102.44 118.854 1204.94 89.8713 1320.37 86.035L1320.36 85.5353ZM1042.29 144.476L1042.75 144.276L1041.93 142.411L1041.48 142.61L1041.02 142.81L1041.83 144.675L1042.29 144.476ZM1041.48 142.61L1041.1 142.283L1041.02 142.37L1041.4 142.697L1041.78 143.025L1041.85 142.938L1041.48 142.61ZM1041.4 142.697L1041.02 142.368L1033.78 150.648L1034.16 150.978L1034.54 151.307L1041.78 143.027L1041.4 142.697ZM1034.16 150.978L1034.49 150.601L1024.99 142.293L1024.66 142.669L1024.33 143.045L1033.83 151.354L1034.16 150.978ZM1024.66 142.669L1024.99 142.293L1023.3 140.817L1022.97 141.193L1022.64 141.57L1024.33 143.045L1024.66 142.669ZM1022.97 141.193L1023.42 140.976L1022.45 138.958L1022 139.175L1021.55 139.392L1022.52 141.411L1022.97 141.193ZM1022 139.175L1022.45 138.957C982.733 56.776 921.666 26.1142 861.919 22.3927L861.887 22.8917L861.856 23.3908C921.251 27.0903 981.993 57.5433 1021.55 139.392L1022 139.175Z" fill="#1F4371"/>
<path d="M1786.9 237.783C1812.9 254.862 1870.1 303.79 1890.9 362.873" stroke="#1F4371" stroke-width="22"/>
<path d="M1297.5 1300.25L1302.5 1242.75L1438.5 1249.25L1407 1312.75L1297.5 1300.25Z" fill="#4CA9FF"/>
<path d="M412.17 1172.1C464.987 1225.94 805 1078.75 881.5 1078.75C953 1130.75 1081.67 1164.25 1129 1166.75L1347.5 1302.25L1557.5 1175.25C1666.7 1169.25 1797.83 1098.25 1849.5 1056.25C1892.59 1026.13 2046 1213.75 1929.5 1427.75C1731.5 1473.25 1783 1462.25 1814.91 1643.36C1446.51 1768.56 1019.41 1659.53 851.913 1589.36L868.5 1503.25C640 1694.75 344.669 1485.21 259.363 1340.06C359.512 1288.53 402.963 1206.61 412.17 1172.1Z" fill="#4EA9FE"/>
<path d="M91.6624 1083.96C-17.2576 1258.76 141.84 1330.56 235.004 1344.61C370.821 1312.29 407.498 1236.73 408.86 1202.98C416.686 1129.62 365.076 1075.79 338.293 1058.05C239.138 942.937 132.558 1027.36 91.6624 1083.96Z" fill="#FEFEFE" stroke="black"/>
<path d="M972.473 1316.39C1001.97 1497.39 1169.8 1472.2 1245.47 1430.89C1328.06 1332.16 1297.7 1260.26 1280.97 1234.89C1248.18 1177.05 1176.56 1170.8 1147.6 1172.68C1014.46 1143.59 972.726 1252.47 972.473 1316.39Z" fill="#FEFEFE" stroke="black"/>
<path d="M269.184 1350.03C265.809 1345.01 262.624 1340.1 259.632 1335.34C201.747 1377.31 154.499 1323.25 107.344 1302.47C60.1883 1281.69 29.1933 1190.43 68.131 1117.21C124.056 1012.06 194.867 983.944 263.587 1016.26C352.459 1058.05 417.873 1117.46 398.625 1157.36C403.296 1162.83 408.346 1167.6 413.733 1171.73C489.066 1229.37 821.143 1045.57 915.402 1076.36M1781.65 1473.15L1816.9 1644.87C1390.5 1768.87 992.569 1656.87 846.902 1585.37L856.486 1507.75L867.402 1500.93C572.5 1689.25 362.989 1489.47 269.184 1350.03M1289.5 1230.96C1525.41 1287.87 1727.5 1131.28 1860.5 1062.75C1874.13 1052.54 1879 1054.78 1879 1054.78C1959 1147.78 2023.5 1284.78 1921.5 1430.46C1904.27 1438.78 1852.17 1458.97 1781.65 1473.15C1462.57 1554.15 1342.27 1497.96 1238.5 1430.46M269.184 1350.03C315.195 1322.64 408.52 1248.63 413.733 1171.73M1289.5 1230.96C1298.5 1275.48 1308.1 1383.61 1238.5 1430.46M1289.5 1230.96C1253.03 1183.3 1080.48 1116.56 1000.4 1230.96C920.324 1345.36 1042.97 1437.59 1084 1453.96C1100 1462.59 1175.7 1451.16 1238.5 1430.46" stroke="#1F4371" stroke-width="20"/>
</svg>
