<svg width="1483" height="1294" viewBox="0 0 1483 1294" fill="none" xmlns="http://www.w3.org/2000/svg">
<path d="M123.5 958C237.1 1228.8 576.833 1286.5 732.5 1281.5L807 1274C1049.8 1273.2 1204.17 1165.33 1251 1111.5C1431 957.5 1384.67 641.334 1339 502.5C1420.2 453.3 1460.17 377 1470 345C1481.83 315.667 1477.8 230 1367 122C1256.2 14.0005 1123.5 113.334 1071 176.5C838.2 13.7005 541 86.0001 421.5 142.5C299.5 -65.9001 142.667 20.3333 79.4998 89.4999C-69.3002 258.7 58.5 396.667 141 444.5C14.2001 674.1 76.5002 882.5 123.5 958Z" fill="#FEFEFE" stroke="#FEFEFE" stroke-width="2"/>
<path d="M244.054 728.768C215.254 855.968 295.72 876.767 339.553 874.767C406.553 862.267 472.554 844.767 445.554 728.768C416.691 604.766 257.299 670.27 244.054 728.768Z" fill="#FFE6E8"/>
<path d="M1052.55 799.766C1036.05 900.265 1113.55 941.767 1163.05 937.766C1303.55 926.408 1266.06 743.268 1204.55 721.767C1143.05 700.265 1069.05 699.267 1052.55 799.766Z" fill="#FFE6E8"/>
<path d="M244.054 728.768C215.254 855.968 295.72 876.767 339.553 874.767C406.553 862.267 472.554 844.767 445.554 728.768C416.691 604.766 257.299 670.27 244.054 728.768Z" stroke="#FFE6E8" stroke-width="2"/>
<path d="M1052.55 799.766C1036.05 900.265 1113.55 941.767 1163.05 937.766C1303.55 926.408 1266.06 743.268 1204.55 721.767C1143.05 700.265 1069.05 699.267 1052.55 799.766Z" stroke="#FFE6E8" stroke-width="2"/>
<path d="M765.553 719.767C735.886 699.6 695.553 657.767 771.553 651.767C805.219 655.433 851.152 674.167 765.553 719.767Z" fill="#1F4371" stroke="#1F4371" stroke-width="2"/>
<path d="M776.818 712.316C783.525 729.753 796.66 751.253 813.542 761.799C821.662 766.871 830.343 769.241 839.755 767.853C849.299 766.446 860.917 760.976 874.383 747.88L889.72 763.651C873.986 778.954 858.337 787.351 842.964 789.618C827.458 791.904 813.57 787.756 801.886 780.458C785.887 770.464 773.512 754.296 764.984 738.834C741.365 771.633 716.115 785.093 691.94 785.563C664.728 786.092 642.869 770.004 631.083 755.786L648.02 741.745C657.234 752.859 673.275 763.921 691.512 763.567C708.976 763.228 732.547 752.262 757.077 710.676L768.645 691.065L776.818 712.316ZM994.636 562.14C1010.03 554.005 1025.85 556.592 1036.08 561.488L1037.05 561.968L1037.09 561.989L1037.14 562.01C1054.06 570.829 1076.76 601.061 1066.87 655.241C1062.02 681.836 1052.94 698.629 1041.87 708.226C1031.03 717.629 1018.87 719.502 1009.73 717.041C997.914 715.23 982.297 708.212 971.094 693.001C959.395 677.115 953.507 653.69 959.749 621.191C965.889 589.221 978.588 570.623 994.636 562.14ZM485.687 527.108C492.633 520.959 501.693 517.403 512.056 519.676C524.692 519.046 542.072 522.66 555.2 536.159C569.379 550.738 576.357 574.48 570.396 609.606C564.632 643.571 554.812 664.289 543.133 675.791C531.936 686.816 519.083 689.12 509.037 685.771C497.291 685.582 481.259 681.724 469.228 669.823C455.838 656.577 449.621 635.636 456.187 605.957C457.881 590.892 462.138 568.812 469.785 551.043C473.624 542.12 478.749 533.25 485.687 527.108Z" fill="#1F4371"/>
<path d="M194.053 343.767L307.552 201.768C266.352 120.168 200.719 149.434 173.052 174.268C107.452 238.268 161.886 319.267 194.053 343.767Z" fill="#9DD0FA"/>
<path d="M1285.55 383.767L1190.55 250.768C1220.95 189.167 1284.89 215.434 1313.05 236.268C1367.05 301.868 1316.55 359.933 1285.55 383.767Z" fill="#9DD0FA"/>
<path d="M194.053 343.767L307.552 201.768C266.352 120.168 200.719 149.434 173.052 174.268C107.452 238.268 161.886 319.267 194.053 343.767Z" stroke="#9DD0FA" stroke-width="2"/>
<path d="M1285.55 383.767L1190.55 250.768C1220.95 189.167 1284.89 215.434 1313.05 236.268C1367.05 301.868 1316.55 359.933 1285.55 383.767Z" stroke="#9DD0FA" stroke-width="2"/>
<path d="M84.0747 63.5765C115.595 28.5023 179.931 -1.73635 247.147 0.630184C313.656 2.97199 382.588 37.2062 425.973 127.948C488.973 99.1843 591.865 68.5993 707.25 64.4456C823.007 60.2786 952.081 82.7041 1065.97 161.093C1096.47 124.818 1146.83 83.3377 1206.93 68.6565C1239.49 60.703 1274.93 60.6266 1311.31 73.5882C1347.64 86.534 1384.22 112.235 1419.52 154.739C1454.81 197.239 1473.51 238.009 1479.84 276.258C1486.18 314.549 1480.01 349.616 1466.66 380.46C1441.87 437.751 1392.37 480.517 1351.62 504.278C1370.28 556.745 1389.62 641.71 1391.23 738.021C1392.93 840.039 1374.76 955.586 1314.03 1058.84L1313.7 1059.41L1313.3 1059.93C1265.47 1122.75 1125.08 1253.15 943.762 1273.2L943.659 1273.21L943.555 1273.22L730.555 1292.72L729.521 1292.81L728.488 1292.71L527.988 1273.22H527.982C504.647 1270.93 465.948 1261.98 424.609 1247.58C383.219 1233.16 338.246 1212.96 302.689 1187.74V1187.74C202.517 1118.4 85.2129 983.451 59.3022 803.321C44.1025 697.651 60.483 577.415 129.007 446.828C85.2762 420.423 33.9298 374.156 11.6753 311.439C-12.4744 243.38 -1.42537 158.713 84.0747 63.5765ZM246.374 22.6165C185.246 20.4643 127.332 48.3563 100.438 78.2825C19.1385 168.745 11.5024 245.164 32.4087 304.082C52.2581 360.022 98.6745 402.616 139.508 427.466C188.35 340.266 260.534 248.612 362.042 153.731L365.212 150.767H376.052V168.72L377.064 169.803C376.726 170.119 376.389 170.435 376.052 170.75V172.767H373.902C117.994 413.259 56.4571 629.024 81.0776 800.188C105.706 971.404 216.916 1100.83 313.042 1168.14L315.311 1169.72L315.364 1169.76L315.417 1169.8C348.659 1193.37 391.52 1212.76 431.846 1226.8C472.223 1240.87 509.124 1249.27 530.123 1251.32H530.122L729.583 1270.72L941.42 1251.32C1113.97 1232.21 1249.2 1107.49 1295.4 1047.12C1353.21 948.52 1370.89 837.554 1369.23 738.388C1367.57 638.998 1346.49 552.261 1327.77 503.187L1324.32 494.143L1332.86 489.571C1372.25 468.466 1422.56 426.978 1446.47 371.723C1458.34 344.301 1463.71 313.505 1458.14 279.851C1452.56 246.154 1435.89 208.893 1402.59 168.794C1369.29 128.698 1335.83 105.681 1303.92 94.3118C1272.06 82.9586 1241.04 82.9699 1212.15 90.0276C1158.62 103.103 1112.47 140.395 1083.88 173.981C1089.08 177.892 1094.24 181.926 1099.37 186.085C1100.26 186.81 1101.15 187.539 1102.04 188.271L1088.09 205.284L1088.06 205.261L1085.5 203.165C1077.64 196.783 1069.68 190.711 1061.64 184.938C950.738 105.326 823.331 82.2807 708.041 86.431C592.663 90.5844 490.201 121.964 430.242 150.217L429.547 148.743L429.052 149.267L421.488 157.252L411.988 148.252L410.399 146.747L409.507 144.748C369.811 55.7669 306.326 24.7276 246.374 22.6165Z" fill="#1F4371"/>
<path d="M84.0747 63.5765L84.4466 63.9107L84.4466 63.9107L84.0747 63.5765ZM247.147 0.630184L247.165 0.130493V0.130493L247.147 0.630184ZM425.973 127.948L425.522 128.163L425.734 128.606L426.181 128.402L425.973 127.948ZM707.25 64.4456L707.232 63.9459V63.9459L707.25 64.4456ZM1065.97 161.093L1065.69 161.505L1066.06 161.762L1066.35 161.415L1065.97 161.093ZM1206.93 68.6565L1206.81 68.1708V68.1708L1206.93 68.6565ZM1311.31 73.5882L1311.48 73.1172V73.1172L1311.31 73.5882ZM1419.52 154.739L1419.9 154.419V154.419L1419.52 154.739ZM1479.84 276.258L1480.33 276.176V276.176L1479.84 276.258ZM1466.66 380.46L1467.12 380.659V380.659L1466.66 380.46ZM1351.62 504.278L1351.36 503.846L1351.01 504.055L1351.15 504.445L1351.62 504.278ZM1391.23 738.021L1391.73 738.012V738.012L1391.23 738.021ZM1314.03 1058.84L1313.6 1058.59V1058.59L1314.03 1058.84ZM1313.7 1059.41L1314.1 1059.71L1314.12 1059.69L1314.13 1059.66L1313.7 1059.41ZM1313.3 1059.93L1312.91 1059.63L1312.91 1059.63L1313.3 1059.93ZM943.762 1273.2L943.814 1273.7L943.817 1273.7L943.762 1273.2ZM943.659 1273.21L943.706 1273.71L943.71 1273.71L943.659 1273.21ZM943.555 1273.22L943.601 1273.72L943.602 1273.72L943.555 1273.22ZM730.555 1292.72L730.51 1292.22V1292.22L730.555 1292.72ZM729.521 1292.81L729.473 1293.31L729.52 1293.32L729.567 1293.31L729.521 1292.81ZM728.488 1292.71L728.536 1292.22H728.536L728.488 1292.71ZM527.988 1273.22L528.036 1272.72L528.012 1272.72H527.988V1273.22ZM527.982 1273.22L527.933 1273.71L527.958 1273.72H527.982V1273.22ZM424.609 1247.58L424.444 1248.05V1248.05L424.609 1247.58ZM302.689 1187.74H302.189V1188L302.4 1188.15L302.689 1187.74ZM302.689 1187.74H303.189V1187.48L302.974 1187.33L302.689 1187.74ZM59.3022 803.321L58.8073 803.392V803.392L59.3022 803.321ZM129.007 446.828L129.45 447.061L129.669 446.644L129.266 446.4L129.007 446.828ZM11.6753 311.439L11.2041 311.606V311.606L11.6753 311.439ZM246.374 22.6165L246.391 22.1168V22.1168L246.374 22.6165ZM100.438 78.2825L100.81 78.6167L100.81 78.6167L100.438 78.2825ZM32.4087 304.082L31.9375 304.25V304.25L32.4087 304.082ZM139.508 427.466L139.248 427.893L139.691 428.163L139.945 427.71L139.508 427.466ZM362.042 153.731L361.7 153.365V153.365L362.042 153.731ZM365.212 150.767V150.267H365.015L364.871 150.402L365.212 150.767ZM376.052 150.767H376.552V150.267H376.052V150.767ZM376.052 168.72H375.552V168.917L375.687 169.061L376.052 168.72ZM377.064 169.803L377.405 170.168L377.771 169.827L377.429 169.462L377.064 169.803ZM376.052 170.75L375.711 170.385L375.552 170.533V170.75H376.052ZM376.052 172.767V173.267H376.552V172.767H376.052ZM373.902 172.767V172.267H373.704L373.559 172.403L373.902 172.767ZM81.0776 800.188L80.5827 800.259V800.259L81.0776 800.188ZM313.042 1168.14L312.756 1168.55L312.757 1168.55L313.042 1168.14ZM315.311 1169.72L315.025 1170.13L315.028 1170.13L315.311 1169.72ZM315.364 1169.76L315.657 1169.35L315.646 1169.34L315.364 1169.76ZM315.417 1169.8L315.124 1170.2L315.127 1170.2L315.417 1169.8ZM431.846 1226.8L432.011 1226.33V1226.33L431.846 1226.8ZM530.123 1251.32V1251.82L530.171 1250.82L530.123 1251.32ZM530.122 1251.32V1250.82L530.073 1251.82L530.122 1251.32ZM729.583 1270.72L729.534 1271.21L729.581 1271.22L729.628 1271.21L729.583 1270.72ZM941.42 1251.32L941.466 1251.82L941.475 1251.82L941.42 1251.32ZM1295.4 1047.12L1295.8 1047.42L1295.82 1047.4L1295.83 1047.37L1295.4 1047.12ZM1369.23 738.388L1369.73 738.38V738.38L1369.23 738.388ZM1327.77 503.187L1328.24 503.009V503.009L1327.77 503.187ZM1324.32 494.143L1324.09 493.702L1323.7 493.91L1323.86 494.321L1324.32 494.143ZM1332.86 489.571L1332.62 489.13H1332.62L1332.86 489.571ZM1446.47 371.723L1446.93 371.922V371.922L1446.47 371.723ZM1458.14 279.851L1458.63 279.769V279.769L1458.14 279.851ZM1402.59 168.794L1402.97 168.475V168.475L1402.59 168.794ZM1303.92 94.3118L1304.09 93.8408V93.8408L1303.92 94.3118ZM1212.15 90.0276L1212.03 89.5419V89.5419L1212.15 90.0276ZM1083.88 173.981L1083.5 173.657L1083.15 174.061L1083.58 174.38L1083.88 173.981ZM1099.37 186.085L1099.05 186.473V186.473L1099.37 186.085ZM1102.04 188.271L1102.43 188.588L1102.74 188.202L1102.36 187.885L1102.04 188.271ZM1088.09 205.284L1087.77 205.67L1088.16 205.988L1088.48 205.601L1088.09 205.284ZM1088.06 205.261L1088.38 204.875L1088.38 204.874L1088.06 205.261ZM1085.5 203.165L1085.82 202.778L1085.81 202.777L1085.5 203.165ZM1061.64 184.938L1061.93 184.532V184.532L1061.64 184.938ZM708.041 86.431L708.023 85.9313V85.9313L708.041 86.431ZM430.242 150.217L429.789 150.43L430.003 150.883L430.455 150.669L430.242 150.217ZM429.547 148.743L430 148.53L429.687 147.868L429.184 148.4L429.547 148.743ZM429.052 149.267L429.415 149.611L429.415 149.61L429.052 149.267ZM421.488 157.252L421.144 157.615L421.507 157.959L421.851 157.596L421.488 157.252ZM411.988 148.252L412.332 147.889L412.332 147.889L411.988 148.252ZM410.399 146.747L409.942 146.951L409.983 147.042L410.055 147.11L410.399 146.747ZM409.507 144.748L409.964 144.545L409.964 144.545L409.507 144.748ZM84.0747 63.5765L84.4466 63.9107C115.862 28.9536 180.051 -1.23179 247.129 1.12987L247.147 0.630184L247.165 0.130493C179.81 -2.24091 115.329 28.0511 83.7028 63.2423L84.0747 63.5765ZM247.147 0.630184L247.129 1.12987C313.454 3.46519 382.218 37.5914 425.522 128.163L425.973 127.948L426.424 127.732C382.958 36.8209 313.858 2.4788 247.165 0.130493L247.147 0.630184ZM425.973 127.948L426.181 128.402C489.126 99.6641 591.954 69.0964 707.268 64.9453L707.25 64.4456L707.232 63.9459C591.776 68.1021 488.82 98.7046 425.765 127.493L425.973 127.948ZM707.25 64.4456L707.268 64.9453C822.951 60.7809 951.909 83.1932 1065.69 161.505L1065.97 161.093L1066.25 160.681C952.252 82.215 823.064 59.7762 707.232 63.9459L707.25 64.4456ZM1065.97 161.093L1066.35 161.415C1096.81 125.189 1147.08 83.7898 1207.05 69.1423L1206.93 68.6565L1206.81 68.1708C1146.57 82.8856 1096.13 124.447 1065.59 160.771L1065.97 161.093ZM1206.93 68.6565L1207.05 69.1423C1239.53 61.2091 1274.87 61.1341 1311.14 74.0592L1311.31 73.5882L1311.48 73.1172C1275 60.119 1239.46 60.1969 1206.81 68.1708L1206.93 68.6565ZM1311.31 73.5882L1311.14 74.0592C1347.37 86.9692 1383.88 112.609 1419.13 155.058L1419.52 154.739L1419.9 154.419C1384.55 111.861 1347.91 86.0989 1311.48 73.1172L1311.31 73.5882ZM1419.52 154.739L1419.13 155.058C1454.38 197.504 1473.03 238.194 1479.35 276.34L1479.84 276.258L1480.33 276.176C1473.99 237.824 1455.24 196.975 1419.9 154.419L1419.52 154.739ZM1479.84 276.258L1479.35 276.34C1485.67 314.525 1479.51 349.496 1466.2 380.262L1466.66 380.46L1467.12 380.659C1480.5 349.737 1486.69 314.572 1480.33 276.176L1479.84 276.258ZM1466.66 380.46L1466.2 380.262C1441.47 437.423 1392.06 480.118 1351.36 503.846L1351.62 504.278L1351.87 504.71C1392.68 480.915 1442.27 438.079 1467.12 380.659L1466.66 380.46ZM1351.62 504.278L1351.15 504.445C1369.79 556.864 1389.12 641.776 1390.73 738.029L1391.23 738.021L1391.73 738.012C1390.11 641.645 1370.77 556.626 1352.09 504.11L1351.62 504.278ZM1391.23 738.021L1390.73 738.029C1392.43 839.986 1374.27 955.435 1313.6 1058.59L1314.03 1058.84L1314.47 1059.1C1375.25 955.737 1393.43 840.091 1391.73 738.012L1391.23 738.021ZM1314.03 1058.84L1313.6 1058.59L1313.27 1059.16L1313.7 1059.41L1314.13 1059.66L1314.47 1059.1L1314.03 1058.84ZM1313.7 1059.41L1313.3 1059.11L1312.91 1059.63L1313.3 1059.93L1313.7 1060.23L1314.1 1059.71L1313.7 1059.41ZM1313.3 1059.93L1312.91 1059.63C1265.12 1122.39 1124.83 1252.67 943.707 1272.7L943.762 1273.2L943.817 1273.7C1125.32 1253.62 1265.82 1123.11 1313.7 1060.23L1313.3 1059.93ZM943.762 1273.2L943.711 1272.7L943.607 1272.71L943.659 1273.21L943.71 1273.71L943.814 1273.7L943.762 1273.2ZM943.659 1273.21L943.612 1272.71L943.508 1272.72L943.555 1273.22L943.602 1273.72L943.706 1273.71L943.659 1273.21ZM943.555 1273.22L943.51 1272.72L730.51 1292.22L730.555 1292.72L730.601 1293.22L943.601 1273.72L943.555 1273.22ZM730.555 1292.72L730.51 1292.22L729.475 1292.32L729.521 1292.81L729.567 1293.31L730.601 1293.22L730.555 1292.72ZM729.521 1292.81L729.569 1292.32L728.536 1292.22L728.488 1292.71L728.439 1293.21L729.473 1293.31L729.521 1292.81ZM728.488 1292.71L728.536 1292.22L528.036 1272.72L527.988 1273.22L527.939 1273.71L728.439 1293.21L728.488 1292.71ZM527.988 1273.22V1272.72H527.982V1273.22V1273.72H527.988V1273.22ZM527.982 1273.22L528.031 1272.72C504.749 1270.44 466.091 1261.5 424.773 1247.11L424.609 1247.58L424.444 1248.05C465.805 1262.46 504.545 1271.43 527.933 1273.71L527.982 1273.22ZM424.609 1247.58L424.773 1247.11C383.408 1232.7 338.483 1212.52 302.978 1187.33L302.689 1187.74L302.4 1188.15C338.01 1213.41 383.03 1233.62 424.444 1248.05L424.609 1247.58ZM302.689 1187.74H303.189V1187.74H302.689H302.189V1187.74H302.689ZM302.689 1187.74L302.974 1187.33C202.882 1118.05 85.6828 983.206 59.7971 803.249L59.3022 803.321L58.8073 803.392C84.7429 983.695 202.151 1118.76 302.404 1188.15L302.689 1187.74ZM59.3022 803.321L59.7971 803.249C44.6132 697.69 60.9719 577.56 129.45 447.061L129.007 446.828L128.565 446.596C59.9942 577.271 43.5918 697.613 58.8073 803.392L59.3022 803.321ZM129.007 446.828L129.266 446.4C85.5913 420.029 34.3485 373.841 12.1465 311.272L11.6753 311.439L11.2041 311.606C33.511 374.471 84.9611 420.817 128.749 447.256L129.007 446.828ZM11.6753 311.439L12.1465 311.272C-11.9294 243.421 -0.958163 158.941 84.4466 63.9107L84.0747 63.5765L83.7028 63.2423C-1.89258 158.485 -13.0194 243.339 11.2041 311.606L11.6753 311.439ZM246.374 22.6165L246.391 22.1168C185.125 19.9597 127.065 47.9051 100.066 77.9483L100.438 78.2825L100.81 78.6167C127.599 48.8075 185.367 20.9689 246.356 23.1162L246.374 22.6165ZM100.438 78.2825L100.066 77.9483C18.671 168.518 10.9575 245.124 31.9375 304.25L32.4087 304.082L32.8799 303.915C12.0472 245.205 19.606 168.973 100.81 78.6167L100.438 78.2825ZM32.4087 304.082L31.9375 304.25C51.8391 360.336 98.3584 403.009 139.248 427.893L139.508 427.466L139.768 427.039C98.9906 402.223 52.6772 359.707 32.8799 303.915L32.4087 304.082ZM139.508 427.466L139.945 427.71C188.757 340.563 260.906 248.948 362.383 154.096L362.042 153.731L361.7 153.365C260.162 248.275 187.944 339.968 139.072 427.222L139.508 427.466ZM362.042 153.731L362.383 154.096L365.554 151.132L365.212 150.767L364.871 150.402L361.7 153.365L362.042 153.731ZM365.212 150.767V151.267H376.052V150.767V150.267H365.212V150.767ZM376.052 150.767H375.552V168.72H376.052H376.552V150.767H376.052ZM376.052 168.72L375.687 169.061L376.699 170.144L377.064 169.803L377.429 169.462L376.418 168.379L376.052 168.72ZM377.064 169.803L376.723 169.438C376.385 169.754 376.047 170.07 375.711 170.385L376.052 170.75L376.394 171.115C376.731 170.799 377.068 170.484 377.405 170.168L377.064 169.803ZM376.052 170.75H375.552V172.767H376.052H376.552V170.75H376.052ZM376.052 172.767V172.267H373.902V172.767V173.267H376.052V172.767ZM373.902 172.767L373.559 172.403C117.568 412.973 55.9328 628.891 80.5827 800.259L81.0776 800.188L81.5725 800.117C56.9814 629.157 118.42 413.545 374.244 173.131L373.902 172.767ZM81.0776 800.188L80.5827 800.259C105.236 971.647 216.55 1101.19 312.756 1168.55L313.042 1168.14L313.329 1167.73C217.283 1100.48 106.176 971.16 81.5725 800.117L81.0776 800.188ZM313.042 1168.14L312.757 1168.55L315.025 1170.13L315.311 1169.72L315.597 1169.31L313.328 1167.73L313.042 1168.14ZM315.311 1169.72L315.028 1170.13L315.081 1170.17L315.364 1169.76L315.646 1169.34L315.594 1169.31L315.311 1169.72ZM315.364 1169.76L315.071 1170.16L315.124 1170.2L315.417 1169.8L315.709 1169.39L315.657 1169.35L315.364 1169.76ZM315.417 1169.8L315.127 1170.2C348.422 1193.82 391.331 1213.22 431.682 1227.28L431.846 1226.8L432.011 1226.33C391.709 1212.29 348.896 1192.93 315.706 1169.39L315.417 1169.8ZM431.846 1226.8L431.682 1227.28C472.081 1241.35 509.022 1249.76 530.074 1251.82L530.123 1251.32L530.171 1250.82C509.226 1248.77 472.366 1240.39 432.011 1226.33L431.846 1226.8ZM530.123 1251.32V1250.82H530.122V1251.32V1251.82H530.123V1251.32ZM530.122 1251.32L530.073 1251.82L729.534 1271.21L729.583 1270.72L729.631 1270.22L530.17 1250.82L530.122 1251.32ZM729.583 1270.72L729.628 1271.21L941.466 1251.82L941.42 1251.32L941.375 1250.83L729.537 1270.22L729.583 1270.72ZM941.42 1251.32L941.475 1251.82C1114.21 1232.68 1249.55 1107.86 1295.8 1047.42L1295.4 1047.12L1295.01 1046.82C1248.85 1107.13 1113.73 1231.73 941.365 1250.83L941.42 1251.32ZM1295.4 1047.12L1295.83 1047.37C1353.7 948.671 1371.39 837.606 1369.73 738.38L1369.23 738.388L1368.73 738.396C1370.39 837.502 1352.72 948.37 1294.97 1046.87L1295.4 1047.12ZM1369.23 738.388L1369.73 738.38C1368.07 638.93 1346.98 552.136 1328.24 503.009L1327.77 503.187L1327.31 503.365C1346.01 552.385 1367.07 639.065 1368.73 738.396L1369.23 738.388ZM1327.77 503.187L1328.24 503.009L1324.79 493.965L1324.32 494.143L1323.86 494.321L1327.31 503.365L1327.77 503.187ZM1324.32 494.143L1324.56 494.584L1333.09 490.011L1332.86 489.571L1332.62 489.13L1324.09 493.702L1324.32 494.143ZM1332.86 489.571L1333.09 490.011C1372.55 468.873 1422.96 427.313 1446.93 371.922L1446.47 371.723L1446.01 371.524C1422.16 426.642 1371.95 468.058 1332.62 489.13L1332.86 489.571ZM1446.47 371.723L1446.93 371.922C1458.83 344.421 1464.22 313.529 1458.63 279.769L1458.14 279.851L1457.64 279.933C1463.2 313.482 1457.84 344.18 1446.01 371.524L1446.47 371.723ZM1458.14 279.851L1458.63 279.769C1453.03 245.969 1436.32 208.628 1402.97 168.475L1402.59 168.794L1402.21 169.114C1435.46 209.158 1452.08 246.339 1457.64 279.933L1458.14 279.851ZM1402.59 168.794L1402.97 168.475C1369.63 128.324 1336.1 105.246 1304.09 93.8408L1303.92 94.3118L1303.76 94.7828C1335.56 106.116 1368.95 129.072 1402.21 169.114L1402.59 168.794ZM1303.92 94.3118L1304.09 93.8408C1272.13 82.4511 1241.01 82.4639 1212.03 89.5419L1212.15 90.0276L1212.27 90.5134C1241.08 83.476 1271.99 83.4662 1303.76 94.7828L1303.92 94.3118ZM1212.15 90.0276L1212.03 89.5419C1158.37 102.65 1112.13 140.023 1083.5 173.657L1083.88 173.981L1084.26 174.305C1112.81 140.767 1158.88 103.555 1212.27 90.5134L1212.15 90.0276ZM1083.88 173.981L1083.58 174.38C1088.77 178.287 1093.93 182.318 1099.05 186.473L1099.37 186.085L1099.68 185.697C1094.55 181.534 1089.38 177.496 1084.18 173.581L1083.88 173.981ZM1099.37 186.085L1099.05 186.473C1099.94 187.198 1100.83 187.925 1101.72 188.657L1102.04 188.271L1102.36 187.885C1101.47 187.152 1100.57 186.423 1099.68 185.697L1099.37 186.085ZM1102.04 188.271L1101.65 187.954L1087.71 204.966L1088.09 205.284L1088.48 205.601L1102.43 188.588L1102.04 188.271ZM1088.09 205.284L1088.41 204.897L1088.38 204.875L1088.06 205.261L1087.75 205.647L1087.77 205.67L1088.09 205.284ZM1088.06 205.261L1088.38 204.874L1085.82 202.778L1085.5 203.165L1085.18 203.553L1087.75 205.648L1088.06 205.261ZM1085.5 203.165L1085.81 202.777C1077.94 196.388 1069.98 190.31 1061.93 184.532L1061.64 184.938L1061.35 185.344C1069.38 191.111 1077.33 197.177 1085.18 203.554L1085.5 203.165ZM1061.64 184.938L1061.93 184.532C950.915 104.837 823.389 81.7783 708.023 85.9313L708.041 86.431L708.059 86.9306C823.273 82.7831 950.561 105.814 1061.35 185.344L1061.64 184.938ZM708.041 86.431L708.023 85.9313C592.573 90.0873 490.045 121.485 430.029 149.765L430.242 150.217L430.455 150.669C490.357 122.443 592.753 91.0815 708.059 86.9306L708.041 86.431ZM430.242 150.217L430.694 150.004L430 148.53L429.547 148.743L429.095 148.957L429.789 150.43L430.242 150.217ZM429.547 148.743L429.184 148.4L428.689 148.923L429.052 149.267L429.415 149.61L429.911 149.087L429.547 148.743ZM429.052 149.267L428.689 148.923L421.125 156.908L421.488 157.252L421.851 157.596L429.415 149.611L429.052 149.267ZM421.488 157.252L421.832 156.889L412.332 147.889L411.988 148.252L411.644 148.615L421.144 157.615L421.488 157.252ZM411.988 148.252L412.332 147.889L410.743 146.384L410.399 146.747L410.055 147.11L411.644 148.615L411.988 148.252ZM410.399 146.747L410.856 146.544L409.964 144.545L409.507 144.748L409.051 144.952L409.942 146.951L410.399 146.747ZM409.507 144.748L409.964 144.545C370.19 55.3896 306.535 24.2347 246.391 22.1168L246.374 22.6165L246.356 23.1162C306.117 25.2206 369.432 56.1441 409.051 144.952L409.507 144.748Z" fill="#1F4371"/>
<path d="M1174.55 252.267C1200.55 270.767 1257.75 323.767 1278.55 387.767" stroke="#1F4371" stroke-width="22"/>
</svg>
