<svg width="1483" height="1294" viewBox="0 0 1483 1294" fill="none" xmlns="http://www.w3.org/2000/svg">
<path d="M123.5 958C237.1 1228.8 576.833 1286.5 732.5 1281.5L807 1274C1049.8 1273.2 1204.17 1165.33 1251 1111.5C1431 957.5 1384.67 641.334 1339 502.5C1420.2 453.3 1460.17 377 1470 345C1481.83 315.667 1477.8 230 1367 122C1256.2 14.0005 1123.5 113.334 1071 176.5C838.2 13.7005 541 86.0001 421.5 142.5C299.5 -65.9001 142.667 20.3333 79.4998 89.4999C-69.3002 258.7 58.5 396.667 141 444.5C14.2001 674.1 76.5002 882.5 123.5 958Z" fill="#FEFEFE" stroke="#FEFEFE" stroke-width="2"/>
<path d="M244.054 728.768C215.254 855.968 295.72 876.766 339.553 874.766C406.553 862.266 472.554 844.766 445.554 728.767C416.691 604.766 257.299 670.269 244.054 728.768Z" fill="#FFE6E8"/>
<path d="M1052.55 799.765C1036.05 900.264 1113.55 941.766 1163.05 937.765C1303.55 926.408 1266.06 743.267 1204.55 721.766C1143.05 700.265 1069.05 699.266 1052.55 799.765Z" fill="#FFE6E8"/>
<path d="M244.054 728.768C215.254 855.968 295.72 876.766 339.553 874.766C406.553 862.266 472.554 844.766 445.554 728.767C416.691 604.766 257.299 670.269 244.054 728.768Z" stroke="#FFE6E8" stroke-width="2"/>
<path d="M1052.55 799.765C1036.05 900.264 1113.55 941.766 1163.05 937.765C1303.55 926.408 1266.06 743.267 1204.55 721.766C1143.05 700.265 1069.05 699.266 1052.55 799.765Z" stroke="#FFE6E8" stroke-width="2"/>
<path d="M765.553 719.766C735.886 699.599 695.553 657.766 771.553 651.766C805.219 655.433 851.152 674.166 765.553 719.766Z" fill="#1F4371" stroke="#1F4371" stroke-width="2"/>
<path d="M776.818 712.316C783.524 729.753 796.66 751.253 813.542 761.799C821.662 766.871 830.343 769.241 839.755 767.853C849.299 766.446 860.917 760.976 874.382 747.88L889.72 763.651C875.63 777.355 861.608 785.519 847.792 788.704C849.487 815.035 847.381 852.515 835.211 883.69C828.789 900.14 819.282 915.56 805.331 926.411C791.128 937.457 773.093 943.151 751.09 941.223C729.123 939.298 711.947 930.606 699.025 917.57C686.282 904.715 678.14 888.121 673.083 870.873C664.245 840.734 664.273 806.725 667.287 781.453C651.595 775.839 639.042 765.387 631.083 755.786L648.02 741.745C657.234 752.859 673.275 763.921 691.512 763.567C708.976 763.228 732.547 752.262 757.077 710.676L768.645 691.065L776.818 712.316ZM764.984 738.834C741.365 771.633 716.115 785.093 691.94 785.563C690.94 785.583 689.947 785.576 688.962 785.551C686.369 808.594 686.587 838.739 694.194 864.682C698.582 879.646 705.247 892.598 714.649 902.083C723.872 911.387 736.179 917.832 753.011 919.307C769.808 920.779 782.258 916.485 791.825 909.045C801.643 901.408 809.192 889.84 814.716 875.69C825.401 848.321 827.44 814.022 825.801 789.583C817.087 788.241 809.07 784.945 801.886 780.458C785.887 770.464 773.512 754.296 764.984 738.834ZM994.636 562.14C1010.03 554.005 1025.85 556.592 1036.08 561.488L1037.05 561.968L1037.09 561.989L1037.14 562.01C1054.06 570.829 1076.76 601.061 1066.87 655.241C1062.02 681.836 1052.94 698.629 1041.87 708.226C1031.03 717.629 1018.87 719.502 1009.73 717.041C997.914 715.23 982.297 708.212 971.094 693.001C959.395 677.115 953.507 653.69 959.749 621.191C965.889 589.221 978.588 570.623 994.636 562.14ZM485.687 527.108C492.633 520.959 501.693 517.403 512.056 519.676C524.692 519.046 542.072 522.66 555.2 536.159C569.379 550.738 576.357 574.48 570.396 609.606C564.632 643.571 554.812 664.289 543.132 675.791C531.936 686.816 519.083 689.12 509.037 685.771C497.291 685.582 481.258 681.724 469.228 669.823C455.838 656.577 449.622 635.636 456.187 605.957C457.881 590.892 462.138 568.812 469.785 551.043C473.624 542.12 478.749 533.25 485.687 527.108Z" fill="#1F4371"/>
<path d="M194.053 343.766L307.552 201.767C266.352 120.167 200.719 149.434 173.052 174.267C107.452 238.267 161.886 319.266 194.053 343.766Z" fill="#9DD0FA"/>
<path d="M1285.55 383.766L1190.55 250.767C1220.95 189.167 1284.89 215.434 1313.05 236.267C1367.05 301.867 1316.55 359.933 1285.55 383.766Z" fill="#9DD0FA"/>
<path d="M194.053 343.766L307.552 201.767C266.352 120.167 200.719 149.434 173.052 174.267C107.452 238.267 161.886 319.266 194.053 343.766Z" stroke="#9DD0FA" stroke-width="2"/>
<path d="M1285.55 383.766L1190.55 250.767C1220.95 189.167 1284.89 215.434 1313.05 236.267C1367.05 301.867 1316.55 359.933 1285.55 383.766Z" stroke="#9DD0FA" stroke-width="2"/>
<path d="M84.0747 63.5765C115.595 28.5023 179.931 -1.7363 247.147 0.630179C313.656 2.97188 382.588 37.2056 425.973 127.947C488.973 99.1834 591.865 68.5983 707.25 64.4446C823.007 60.2776 952.081 82.7034 1065.97 161.092C1096.47 124.817 1146.83 83.3368 1206.93 68.6556C1239.49 60.702 1274.93 60.6258 1311.31 73.5872C1347.64 86.533 1384.22 112.234 1419.52 154.738C1454.81 197.238 1473.51 238.008 1479.84 276.257C1486.18 314.548 1480.01 349.615 1466.66 380.459C1441.87 437.75 1392.37 480.516 1351.62 504.277C1370.28 556.744 1389.62 641.709 1391.23 738.02C1392.93 840.038 1374.76 955.585 1314.03 1058.84L1313.7 1059.41L1313.3 1059.93C1265.47 1122.75 1125.08 1253.14 943.762 1273.2L943.659 1273.21L943.555 1273.22L730.555 1292.72L729.521 1292.81L728.488 1292.71L527.988 1273.21H527.982C504.647 1270.93 465.948 1261.98 424.609 1247.58C383.219 1233.16 338.246 1212.96 302.689 1187.74V1187.74C202.517 1118.4 85.2127 983.45 59.3022 803.32C44.1026 697.651 60.4826 577.415 129.006 446.828C85.2754 420.423 33.9296 374.156 11.6753 311.439C-12.4744 243.38 -1.42527 158.713 84.0747 63.5765ZM246.374 22.6165C185.246 20.4643 127.332 48.3562 100.438 78.2825C19.1386 168.745 11.5023 245.164 32.4087 304.082C52.2582 360.022 98.6754 402.616 139.509 427.466C188.351 340.265 260.534 248.611 362.041 153.73L365.212 150.766H376.052V168.719L377.064 169.802C376.726 170.118 376.389 170.434 376.052 170.749V172.766H373.902C117.994 413.258 56.4573 629.023 81.0776 800.187C105.706 971.403 216.916 1100.83 313.042 1168.14L315.311 1169.72L315.364 1169.76L315.416 1169.79C348.659 1193.37 391.52 1212.76 431.846 1226.8C472.223 1240.87 509.124 1249.27 530.123 1251.32H530.122L729.583 1270.72L941.42 1251.32C1113.97 1232.2 1249.2 1107.49 1295.4 1047.12C1353.21 948.519 1370.89 837.553 1369.23 738.387C1367.57 638.997 1346.49 552.26 1327.77 503.186L1324.32 494.142L1332.86 489.57C1372.25 468.465 1422.56 426.977 1446.47 371.722C1458.34 344.3 1463.71 313.504 1458.14 279.85C1452.56 246.153 1435.89 208.892 1402.59 168.793C1369.29 128.697 1335.83 105.68 1303.92 94.3108C1272.06 82.9578 1241.04 82.969 1212.15 90.0267C1158.62 103.102 1112.47 140.394 1083.88 173.98C1089.08 177.891 1094.24 181.925 1099.37 186.084C1100.26 186.809 1101.15 187.538 1102.04 188.27L1088.09 205.283L1088.06 205.26L1085.5 203.164C1077.64 196.782 1069.68 190.71 1061.64 184.937C950.738 105.325 823.331 82.2797 708.041 86.43C592.663 90.5835 490.201 121.963 430.242 150.216L429.547 148.743L429.052 149.267L421.488 157.252L411.988 148.252L410.399 146.747L409.507 144.748C369.811 55.7667 306.326 24.7275 246.374 22.6165Z" fill="#1F4371"/>
<path d="M84.0747 63.5765L84.4466 63.9107L84.4466 63.9107L84.0747 63.5765ZM247.147 0.630179L247.165 0.130489V0.130489L247.147 0.630179ZM425.973 127.947L425.522 128.162L425.734 128.605L426.181 128.401L425.973 127.947ZM707.25 64.4446L707.232 63.945V63.945L707.25 64.4446ZM1065.97 161.092L1065.69 161.504L1066.06 161.761L1066.35 161.414L1065.97 161.092ZM1206.93 68.6556L1206.81 68.1699V68.1699L1206.93 68.6556ZM1311.31 73.5872L1311.48 73.1162V73.1162L1311.31 73.5872ZM1419.52 154.738L1419.9 154.418V154.418L1419.52 154.738ZM1479.84 276.257L1480.33 276.175V276.175L1479.84 276.257ZM1466.66 380.459L1466.2 380.261V380.261L1466.66 380.459ZM1351.62 504.277L1351.36 503.845L1351.01 504.054L1351.15 504.444L1351.62 504.277ZM1391.23 738.02L1391.73 738.011V738.011L1391.23 738.02ZM1314.03 1058.84L1313.6 1058.59V1058.59L1314.03 1058.84ZM1313.7 1059.41L1314.1 1059.71L1314.12 1059.69L1314.13 1059.66L1313.7 1059.41ZM1313.3 1059.93L1312.91 1059.63L1312.91 1059.63L1313.3 1059.93ZM943.762 1273.2L943.814 1273.7L943.817 1273.7L943.762 1273.2ZM943.659 1273.21L943.706 1273.71L943.71 1273.71L943.659 1273.21ZM943.555 1273.22L943.601 1273.72L943.602 1273.72L943.555 1273.22ZM730.555 1292.72L730.51 1292.22L730.51 1292.22L730.555 1292.72ZM729.521 1292.81L729.473 1293.31L729.52 1293.32L729.567 1293.31L729.521 1292.81ZM728.488 1292.71L728.536 1292.22V1292.22L728.488 1292.71ZM527.988 1273.21L528.036 1272.72L528.012 1272.71H527.988V1273.21ZM527.982 1273.21L527.933 1273.71L527.958 1273.71H527.982V1273.21ZM424.609 1247.58L424.444 1248.05V1248.05L424.609 1247.58ZM302.689 1187.74H302.189V1188L302.4 1188.15L302.689 1187.74ZM302.689 1187.74H303.189V1187.48L302.974 1187.33L302.689 1187.74ZM59.3022 803.32L58.8073 803.391V803.391L59.3022 803.32ZM129.006 446.828L129.449 447.061L129.668 446.644L129.265 446.4L129.006 446.828ZM11.6753 311.439L11.2041 311.606V311.606L11.6753 311.439ZM246.374 22.6165L246.391 22.1168V22.1168L246.374 22.6165ZM100.438 78.2825L100.81 78.6167H100.81L100.438 78.2825ZM32.4087 304.082L31.9375 304.25V304.25L32.4087 304.082ZM139.509 427.466L139.249 427.893L139.692 428.163L139.945 427.71L139.509 427.466ZM362.041 153.73L361.7 153.365V153.365L362.041 153.73ZM365.212 150.766V150.266H365.015L364.871 150.401L365.212 150.766ZM376.052 150.766H376.552V150.266H376.052V150.766ZM376.052 168.719H375.552V168.916L375.687 169.06L376.052 168.719ZM377.064 169.802L377.405 170.167L377.771 169.826L377.429 169.461L377.064 169.802ZM376.052 170.749L375.71 170.384L375.552 170.533V170.749H376.052ZM376.052 172.766V173.266H376.552V172.766H376.052ZM373.902 172.766V172.266H373.704L373.559 172.402L373.902 172.766ZM81.0776 800.187L80.5827 800.258V800.258L81.0776 800.187ZM313.042 1168.14L312.756 1168.55L312.757 1168.55L313.042 1168.14ZM315.311 1169.72L315.025 1170.13L315.028 1170.13L315.311 1169.72ZM315.364 1169.76L315.657 1169.35L315.646 1169.34L315.364 1169.76ZM315.416 1169.79L315.124 1170.2L315.127 1170.2L315.416 1169.79ZM431.846 1226.8L432.011 1226.33V1226.33L431.846 1226.8ZM530.123 1251.32V1251.82L530.171 1250.82L530.123 1251.32ZM530.122 1251.32V1250.82L530.073 1251.82L530.122 1251.32ZM729.583 1270.72L729.534 1271.21L729.581 1271.22L729.628 1271.21L729.583 1270.72ZM941.42 1251.32L941.466 1251.82L941.475 1251.82L941.42 1251.32ZM1295.4 1047.12L1295.8 1047.42L1295.82 1047.4L1295.83 1047.37L1295.4 1047.12ZM1369.23 738.387L1369.73 738.379V738.379L1369.23 738.387ZM1327.77 503.186L1328.24 503.008V503.008L1327.77 503.186ZM1324.32 494.142L1324.09 493.701L1323.7 493.909L1323.86 494.32L1324.32 494.142ZM1332.86 489.57L1332.62 489.129V489.129L1332.86 489.57ZM1446.47 371.722L1446.93 371.921V371.921L1446.47 371.722ZM1458.14 279.85L1458.63 279.768V279.768L1458.14 279.85ZM1402.59 168.793L1402.97 168.474V168.474L1402.59 168.793ZM1303.92 94.3108L1304.09 93.8398V93.8398L1303.92 94.3108ZM1212.15 90.0267L1212.03 89.5409V89.5409L1212.15 90.0267ZM1083.88 173.98L1083.5 173.656L1083.15 174.06L1083.58 174.379L1083.88 173.98ZM1099.37 186.084L1099.05 186.472V186.472L1099.37 186.084ZM1102.04 188.27L1102.43 188.587L1102.74 188.201L1102.36 187.884L1102.04 188.27ZM1088.09 205.283L1087.77 205.669L1088.16 205.987L1088.48 205.6L1088.09 205.283ZM1088.06 205.26L1088.38 204.874L1088.38 204.873L1088.06 205.26ZM1085.5 203.164L1085.82 202.777L1085.81 202.776L1085.5 203.164ZM1061.64 184.937L1061.93 184.531V184.531L1061.64 184.937ZM708.041 86.43L708.023 85.9303V85.9303L708.041 86.43ZM430.242 150.216L429.789 150.429L430.003 150.882L430.455 150.668L430.242 150.216ZM429.547 148.743L430 148.53L429.687 147.868L429.184 148.4L429.547 148.743ZM429.052 149.267L429.415 149.611L429.415 149.61L429.052 149.267ZM421.488 157.252L421.144 157.615L421.507 157.959L421.851 157.596L421.488 157.252ZM411.988 148.252L412.332 147.889L412.332 147.889L411.988 148.252ZM410.399 146.747L409.942 146.951L409.983 147.042L410.055 147.11L410.399 146.747ZM409.507 144.748L409.964 144.545V144.545L409.507 144.748ZM84.0747 63.5765L84.4466 63.9107C115.862 28.9535 180.051 -1.23174 247.129 1.12987L247.147 0.630179L247.165 0.130489C179.81 -2.24087 115.328 28.051 83.7028 63.2423L84.0747 63.5765ZM247.147 0.630179L247.129 1.12987C313.454 3.46508 382.218 37.5908 425.522 128.162L425.973 127.947L426.424 127.731C382.958 36.8204 313.858 2.47868 247.165 0.130489L247.147 0.630179ZM425.973 127.947L426.181 128.401C489.126 99.6631 591.954 69.0955 707.267 64.9443L707.25 64.4446L707.232 63.945C591.776 68.1012 488.82 98.7036 425.765 127.492L425.973 127.947ZM707.25 64.4446L707.267 64.9443C822.951 60.7799 951.909 83.1925 1065.69 161.504L1065.97 161.092L1066.25 160.68C952.252 82.2143 823.064 59.7752 707.232 63.945L707.25 64.4446ZM1065.97 161.092L1066.35 161.414C1096.81 125.189 1147.08 83.7889 1207.05 69.1413L1206.93 68.6556L1206.81 68.1699C1146.57 82.8847 1096.13 124.446 1065.59 160.77L1065.97 161.092ZM1206.93 68.6556L1207.05 69.1413C1239.53 61.2081 1274.87 61.1333 1311.14 74.0582L1311.31 73.5872L1311.48 73.1162C1275 60.1182 1239.46 60.196 1206.81 68.1699L1206.93 68.6556ZM1311.31 73.5872L1311.14 74.0582C1347.37 86.9681 1383.88 112.608 1419.13 155.057L1419.52 154.738L1419.9 154.418C1384.55 111.86 1347.91 86.0978 1311.48 73.1162L1311.31 73.5872ZM1419.52 154.738L1419.13 155.057C1454.38 197.503 1473.03 238.193 1479.35 276.339L1479.84 276.257L1480.33 276.175C1473.99 237.823 1455.24 196.973 1419.9 154.418L1419.52 154.738ZM1479.84 276.257L1479.35 276.339C1485.67 314.524 1479.51 349.494 1466.2 380.261L1466.66 380.459L1467.12 380.658C1480.5 349.736 1486.69 314.572 1480.33 276.175L1479.84 276.257ZM1466.66 380.459L1466.2 380.261C1441.47 437.422 1392.06 480.117 1351.36 503.845L1351.62 504.277L1351.87 504.709C1392.68 480.914 1442.27 438.078 1467.12 380.658L1466.66 380.459ZM1351.62 504.277L1351.15 504.444C1369.79 556.863 1389.12 641.775 1390.73 738.028L1391.23 738.02L1391.73 738.011C1390.11 641.644 1370.77 556.625 1352.09 504.109L1351.62 504.277ZM1391.23 738.02L1390.73 738.028C1392.43 839.985 1374.27 955.434 1313.6 1058.59L1314.03 1058.84L1314.47 1059.1C1375.25 955.736 1393.43 840.09 1391.73 738.011L1391.23 738.02ZM1314.03 1058.84L1313.6 1058.59L1313.27 1059.16L1313.7 1059.41L1314.13 1059.66L1314.47 1059.1L1314.03 1058.84ZM1313.7 1059.41L1313.3 1059.11L1312.91 1059.63L1313.3 1059.93L1313.7 1060.23L1314.1 1059.71L1313.7 1059.41ZM1313.3 1059.93L1312.91 1059.63C1265.12 1122.38 1124.83 1252.67 943.707 1272.7L943.762 1273.2L943.817 1273.7C1125.32 1253.62 1265.82 1123.11 1313.7 1060.23L1313.3 1059.93ZM943.762 1273.2L943.711 1272.7L943.607 1272.71L943.659 1273.21L943.71 1273.71L943.814 1273.7L943.762 1273.2ZM943.659 1273.21L943.612 1272.71L943.508 1272.72L943.555 1273.22L943.602 1273.72L943.706 1273.71L943.659 1273.21ZM943.555 1273.22L943.51 1272.72L730.51 1292.22L730.555 1292.72L730.601 1293.22L943.601 1273.72L943.555 1273.22ZM730.555 1292.72L730.51 1292.22L729.475 1292.32L729.521 1292.81L729.567 1293.31L730.601 1293.22L730.555 1292.72ZM729.521 1292.81L729.569 1292.32L728.536 1292.22L728.488 1292.71L728.439 1293.21L729.473 1293.31L729.521 1292.81ZM728.488 1292.71L728.536 1292.22L528.036 1272.72L527.988 1273.21L527.939 1273.71L728.439 1293.21L728.488 1292.71ZM527.988 1273.21V1272.71H527.982V1273.21V1273.71H527.988V1273.21ZM527.982 1273.21L528.031 1272.72C504.749 1270.44 466.09 1261.5 424.773 1247.11L424.609 1247.58L424.444 1248.05C465.805 1262.46 504.545 1271.43 527.933 1273.71L527.982 1273.21ZM424.609 1247.58L424.773 1247.11C383.408 1232.7 338.483 1212.51 302.978 1187.33L302.689 1187.74L302.4 1188.15C338.01 1213.4 383.03 1233.62 424.444 1248.05L424.609 1247.58ZM302.689 1187.74H303.189V1187.74H302.689H302.189V1187.74H302.689ZM302.689 1187.74L302.974 1187.33C202.882 1118.05 85.6827 983.205 59.7971 803.248L59.3022 803.32L58.8073 803.391C84.7428 983.694 202.151 1118.76 302.404 1188.15L302.689 1187.74ZM59.3022 803.32L59.7971 803.248C44.6134 697.69 60.9714 577.559 129.449 447.061L129.006 446.828L128.564 446.596C59.9938 577.27 43.5919 697.612 58.8073 803.391L59.3022 803.32ZM129.006 446.828L129.265 446.4C85.5905 420.029 34.3484 373.841 12.1465 311.272L11.6753 311.439L11.2041 311.606C33.5109 374.471 84.9603 420.817 128.748 447.256L129.006 446.828ZM11.6753 311.439L12.1465 311.272C-11.9294 243.421 -0.958064 158.941 84.4466 63.9107L84.0747 63.5765L83.7028 63.2423C-1.89248 158.485 -13.0194 243.339 11.2041 311.606L11.6753 311.439ZM246.374 22.6165L246.391 22.1168C185.125 19.9598 127.065 47.905 100.066 77.9483L100.438 78.2825L100.81 78.6167C127.599 48.8074 185.367 20.9689 246.356 23.1162L246.374 22.6165ZM100.438 78.2825L100.066 77.9483C18.6711 168.518 10.9575 245.124 31.9375 304.25L32.4087 304.082L32.8799 303.915C12.0472 245.205 19.6061 168.973 100.81 78.6167L100.438 78.2825ZM32.4087 304.082L31.9375 304.25C51.8392 360.336 98.3593 403.009 139.249 427.893L139.509 427.466L139.769 427.039C98.9915 402.223 52.6772 359.708 32.8799 303.915L32.4087 304.082ZM139.509 427.466L139.945 427.71C188.758 340.562 260.906 248.947 362.383 154.095L362.041 153.73L361.7 153.365C260.162 248.274 187.945 339.968 139.073 427.222L139.509 427.466ZM362.041 153.73L362.383 154.095L365.554 151.131L365.212 150.766L364.871 150.401L361.7 153.365L362.041 153.73ZM365.212 150.766V151.266H376.052V150.766V150.266H365.212V150.766ZM376.052 150.766H375.552V168.719H376.052H376.552V150.766H376.052ZM376.052 168.719L375.687 169.06L376.699 170.143L377.064 169.802L377.429 169.461L376.418 168.378L376.052 168.719ZM377.064 169.802L376.723 169.437C376.385 169.753 376.047 170.069 375.71 170.384L376.052 170.749L376.394 171.114C376.731 170.798 377.068 170.483 377.405 170.167L377.064 169.802ZM376.052 170.749H375.552V172.766H376.052H376.552V170.749H376.052ZM376.052 172.766V172.266H373.902V172.766V173.266H376.052V172.766ZM373.902 172.766L373.559 172.402C117.568 412.972 55.933 628.89 80.5827 800.258L81.0776 800.187L81.5725 800.116C56.9815 629.156 118.42 413.544 374.244 173.13L373.902 172.766ZM81.0776 800.187L80.5827 800.258C105.236 971.646 216.55 1101.18 312.756 1168.55L313.042 1168.14L313.329 1167.73C217.283 1100.48 106.176 971.159 81.5725 800.116L81.0776 800.187ZM313.042 1168.14L312.757 1168.55L315.025 1170.13L315.311 1169.72L315.597 1169.31L313.328 1167.73L313.042 1168.14ZM315.311 1169.72L315.028 1170.13L315.081 1170.17L315.364 1169.76L315.646 1169.34L315.594 1169.31L315.311 1169.72ZM315.364 1169.76L315.071 1170.16L315.124 1170.2L315.416 1169.79L315.709 1169.39L315.656 1169.35L315.364 1169.76ZM315.416 1169.79L315.127 1170.2C348.422 1193.82 391.331 1213.22 431.682 1227.28L431.846 1226.8L432.011 1226.33C391.709 1212.29 348.895 1192.93 315.706 1169.39L315.416 1169.79ZM431.846 1226.8L431.682 1227.28C472.08 1241.35 509.022 1249.76 530.074 1251.82L530.123 1251.32L530.171 1250.82C509.226 1248.77 472.366 1240.39 432.011 1226.33L431.846 1226.8ZM530.123 1251.32V1250.82H530.122V1251.32V1251.82H530.123V1251.32ZM530.122 1251.32L530.073 1251.82L729.534 1271.21L729.583 1270.72L729.631 1270.22L530.17 1250.82L530.122 1251.32ZM729.583 1270.72L729.628 1271.21L941.466 1251.82L941.42 1251.32L941.375 1250.83L729.537 1270.22L729.583 1270.72ZM941.42 1251.32L941.475 1251.82C1114.21 1232.68 1249.55 1107.86 1295.8 1047.42L1295.4 1047.12L1295.01 1046.82C1248.85 1107.13 1113.73 1231.73 941.365 1250.83L941.42 1251.32ZM1295.4 1047.12L1295.83 1047.37C1353.7 948.669 1371.39 837.605 1369.73 738.379L1369.23 738.387L1368.73 738.395C1370.39 837.501 1352.72 948.369 1294.97 1046.87L1295.4 1047.12ZM1369.23 738.387L1369.73 738.379C1368.07 638.929 1346.98 552.135 1328.24 503.008L1327.77 503.186L1327.31 503.364C1346.01 552.384 1367.07 639.064 1368.73 738.395L1369.23 738.387ZM1327.77 503.186L1328.24 503.008L1324.79 493.964L1324.32 494.142L1323.86 494.32L1327.31 503.364L1327.77 503.186ZM1324.32 494.142L1324.56 494.583L1333.09 490.01L1332.86 489.57L1332.62 489.129L1324.09 493.701L1324.32 494.142ZM1332.86 489.57L1333.09 490.01C1372.55 468.872 1422.96 427.312 1446.93 371.921L1446.47 371.722L1446.01 371.523C1422.16 426.642 1371.95 468.057 1332.62 489.129L1332.86 489.57ZM1446.47 371.722L1446.93 371.921C1458.83 344.42 1464.22 313.528 1458.63 279.768L1458.14 279.85L1457.64 279.932C1463.2 313.481 1457.84 344.179 1446.01 371.523L1446.47 371.722ZM1458.14 279.85L1458.63 279.768C1453.03 245.968 1436.32 208.627 1402.97 168.474L1402.59 168.793L1402.21 169.113C1435.46 209.157 1452.08 246.339 1457.64 279.932L1458.14 279.85ZM1402.59 168.793L1402.97 168.474C1369.63 128.323 1336.1 105.245 1304.09 93.8398L1303.92 94.3108L1303.76 94.7818C1335.56 106.115 1368.95 129.072 1402.21 169.113L1402.59 168.793ZM1303.92 94.3108L1304.09 93.8398C1272.13 82.4503 1241.01 82.4629 1212.03 89.5409L1212.15 90.0267L1212.27 90.5124C1241.08 83.4751 1271.99 83.4654 1303.76 94.7818L1303.92 94.3108ZM1212.15 90.0267L1212.03 89.5409C1158.37 102.649 1112.13 140.022 1083.5 173.656L1083.88 173.98L1084.26 174.304C1112.81 140.767 1158.88 103.554 1212.27 90.5124L1212.15 90.0267ZM1083.88 173.98L1083.58 174.379C1088.77 178.286 1093.93 182.317 1099.05 186.472L1099.37 186.084L1099.68 185.696C1094.55 181.533 1089.38 177.495 1084.18 173.58L1083.88 173.98ZM1099.37 186.084L1099.05 186.472C1099.94 187.197 1100.83 187.925 1101.72 188.656L1102.04 188.27L1102.36 187.884C1101.47 187.151 1100.57 186.421 1099.68 185.696L1099.37 186.084ZM1102.04 188.27L1101.65 187.953L1087.71 204.966L1088.09 205.283L1088.48 205.6L1102.43 188.587L1102.04 188.27ZM1088.09 205.283L1088.41 204.896L1088.38 204.874L1088.06 205.26L1087.75 205.646L1087.77 205.669L1088.09 205.283ZM1088.06 205.26L1088.38 204.873L1085.82 202.777L1085.5 203.164L1085.18 203.552L1087.75 205.647L1088.06 205.26ZM1085.5 203.164L1085.81 202.776C1077.94 196.387 1069.98 190.309 1061.93 184.531L1061.64 184.937L1061.35 185.343C1069.38 191.11 1077.33 197.176 1085.18 203.553L1085.5 203.164ZM1061.64 184.937L1061.93 184.531C950.915 104.837 823.389 81.7773 708.023 85.9303L708.041 86.43L708.058 86.9297C823.272 82.7822 950.561 105.813 1061.35 185.343L1061.64 184.937ZM708.041 86.43L708.023 85.9303C592.573 90.0864 490.045 121.484 430.029 149.764L430.242 150.216L430.455 150.668C490.357 122.442 592.753 91.0805 708.058 86.9297L708.041 86.43ZM430.242 150.216L430.694 150.003L430 148.53L429.547 148.743L429.095 148.957L429.789 150.429L430.242 150.216ZM429.547 148.743L429.184 148.4L428.689 148.923L429.052 149.267L429.415 149.61L429.911 149.087L429.547 148.743ZM429.052 149.267L428.689 148.923L421.125 156.908L421.488 157.252L421.851 157.596L429.415 149.611L429.052 149.267ZM421.488 157.252L421.832 156.889L412.332 147.889L411.988 148.252L411.644 148.615L421.144 157.615L421.488 157.252ZM411.988 148.252L412.332 147.889L410.743 146.384L410.399 146.747L410.055 147.11L411.644 148.615L411.988 148.252ZM410.399 146.747L410.856 146.544L409.964 144.545L409.507 144.748L409.051 144.952L409.942 146.951L410.399 146.747ZM409.507 144.748L409.964 144.545C370.19 55.3894 306.535 24.2346 246.391 22.1168L246.374 22.6165L246.356 23.1162C306.117 25.2204 369.432 56.144 409.051 144.952L409.507 144.748Z" fill="#1F4371"/>
<path d="M1174.55 252.266C1200.55 270.766 1257.75 323.766 1278.55 387.766" stroke="#1F4371" stroke-width="22"/>
<path d="M757.052 917.766C688.584 917.766 680.719 828.433 685.553 784.766C715.053 791.766 747.053 765.766 766.053 738.766C771.253 762.766 810.553 791.766 824.553 791.766C827.053 830.766 817.55 917.766 757.052 917.766Z" fill="url(#paint0_linear_6_15)" stroke="#FFE6E8" stroke-width="2"/>
<defs>
<linearGradient id="paint0_linear_6_15" x1="756.366" y1="740.766" x2="756.366" y2="917.527" gradientUnits="userSpaceOnUse">
<stop stop-color="#F1C9EB"/>
<stop offset="1" stop-color="#E9EFFF"/>
</linearGradient>
</defs>
</svg>
