<svg width="824" height="1185" viewBox="0 0 824 1185" fill="none" xmlns="http://www.w3.org/2000/svg">
<path d="M704.785 284.51C481.285 704.51 152.785 826.01 43.7857 826.01C-11.2141 826.01 -12.215 761.154 31.7852 751.51C352.985 681.11 521.286 411.51 614.785 254.01C636.593 217.276 586.785 224.789 552.785 224.01C500.385 222.81 505.285 175.796 521.286 165.51C591.285 120.51 729.285 29.01 767.286 8.51038C808.065 -13.4881 813.286 15.3437 814.286 29.0104L822.786 322.51C822.786 362.01 782.785 352.01 770.285 341.01C735.885 293.01 713.452 284.01 704.785 284.51Z" fill="#F89811" stroke="#F89811"/>
<path d="M630.5 554.5V1184H790V554.5H630.5Z" fill="#4CA8FF" stroke="#4CA8FF"/>
<path d="M381.785 792.01V1182.01H541.285V792.01H381.785Z" fill="#7CCAFC" stroke="#7CCAFC"/>
<path d="M137.5 958.5V1184H292.5V958.5H137.5Z" fill="#A5D9FC" stroke="#A5D9FC"/>
</svg>
