<svg width="2202" height="1816" viewBox="0 0 2202 1816" fill="none" xmlns="http://www.w3.org/2000/svg">
<path d="M170.114 1128.44C137.114 1121.1 66.9136 1100.64 32.1136 1049.44C7.44692 1003.77 -17.2864 878.436 81.1136 742.436C108.114 701.603 183.614 628.836 269.614 664.436C355.614 700.036 375.447 716.936 374.614 720.936C393.28 734.269 425.014 777.936 402.614 845.936C380.214 913.936 312.947 1045.6 282.114 1102.94C264.28 1119.94 213.314 1143.25 170.114 1128.44Z" fill="#52ADFF"/>
<path d="M170.114 1128.44C137.114 1121.1 66.9136 1100.64 32.1136 1049.44C7.44692 1003.77 -17.2864 878.436 81.1136 742.436C108.114 701.603 183.614 628.836 269.614 664.436C355.614 700.036 375.447 716.936 374.614 720.936M374.614 720.936C341.614 696.603 258.714 671.336 191.114 764.936C123.514 858.536 115.777 901.436 111.614 941.436C100.114 1051.94 135.78 1110.44 170.114 1128.44C213.314 1143.25 264.28 1119.94 282.114 1102.94C312.947 1045.6 380.214 913.936 402.614 845.936C425.014 777.936 393.28 734.269 374.614 720.936Z" stroke="#003F74" stroke-width="20"/>
<path d="M279.114 973.936C349.514 1018.34 424.78 1029.44 453.614 1029.44C453.614 994.237 487.28 916.436 504.114 881.936C472.614 873.27 390.714 860.236 315.114 877.436C239.514 894.636 259.614 948.936 279.114 973.936Z" fill="#EAF8FF" stroke="#003F74" stroke-width="10"/>
<path d="M616.011 1042.92C628.411 1117.32 786.844 1161.92 864.511 1174.92C944.11 1229.72 1058.68 1248.42 1106.01 1250.92L1315.51 1393.42L1539.01 1261.92C1648.21 1255.92 1778.84 1170.42 1830.51 1128.42C2005.71 1281.22 1866.5 1448.08 1855.5 1557.58C1717.9 1644.38 1807.18 1751.08 1788.51 1748.42C1420.11 1873.62 993.011 1764.58 825.511 1694.42L833.511 1580.92C450.311 1593.32 381.177 1260.75 394.511 1092.92C506.111 1108.12 588.677 1065.92 616.011 1042.92Z" fill="#4EA9FE"/>
<path d="M365.998 789.415C197.198 907.415 315.332 1035.92 395.498 1085.42C533.098 1109.02 596.498 1053.92 610.999 1023.42C646.999 959.015 620.665 889.249 602.999 862.415C556.999 717.615 425.832 753.415 365.998 789.415Z" fill="#FEFEFE" stroke="black"/>
<path d="M391.108 1091.92C391.321 1085.87 391.622 1080.03 391.998 1074.42C320.499 1074.42 313.979 1002.92 287.998 958.415C262.018 913.915 290.499 821.831 364.998 785.415C471.998 733.112 545.831 751.915 582.498 818.415C629.916 904.415 647.999 990.915 608.997 1011.92C609.564 1019.09 610.853 1025.92 612.795 1032.42C639.947 1123.3 794.738 1150.62 888.997 1181.42M1770 1547.42L1790.5 1749.92C1364.1 1873.92 966.164 1761.92 820.498 1690.42L852.998 1508.92L835.498 1579.92C447.075 1584.55 385.195 1259.87 391.108 1091.92M391.108 1091.92C444.436 1096.75 563.432 1091.62 612.795 1032.42" stroke="#1F4371" stroke-width="20"/>
<path d="M1115 1252.92C572.599 1153.32 629.666 671.749 725.999 443.415C527.199 337.015 589.833 171.749 645.999 102.416C841.999 -73.5844 969.333 53.7489 1008.5 139.416C1332.5 11.4156 1570.83 108.749 1649.5 173.416C1800.3 17.4155 1938.33 92.7488 1988.5 149.916C2144.9 320.315 2010 455.582 1923 501.915C2099.4 1044.72 1734.83 1234.75 1530.5 1261.92L1323 1388.92L1115 1252.92Z" fill="#FEFEFE" stroke="black"/>
<path d="M830 731.917C801.2 859.117 881.666 879.916 925.499 877.916C992.499 865.416 1058.5 847.916 1031.5 731.917C1002.64 607.915 843.245 673.419 830 731.917Z" fill="#FFE6E8"/>
<path d="M1638.5 802.915C1621.99 903.413 1699.5 944.916 1749 940.914C1889.5 929.557 1852 746.417 1790.5 724.916C1729 703.414 1655 702.416 1638.5 802.915Z" fill="#FFE6E8"/>
<path d="M830 731.917C801.2 859.117 881.666 879.916 925.499 877.916C992.499 865.416 1058.5 847.916 1031.5 731.917C1002.64 607.915 843.245 673.419 830 731.917Z" stroke="#FFE6E8" stroke-width="2"/>
<path d="M1638.5 802.915C1621.99 903.413 1699.5 944.916 1749 940.914C1889.5 929.557 1852 746.417 1790.5 724.916C1729 703.414 1655 702.416 1638.5 802.915Z" stroke="#FFE6E8" stroke-width="2"/>
<path d="M1351.5 722.916C1321.83 702.749 1281.5 660.916 1357.5 654.916C1391.17 658.582 1437.1 677.316 1351.5 722.916Z" fill="#1F4371" stroke="#1F4371" stroke-width="2"/>
<path d="M1362.76 715.465C1369.47 732.902 1382.61 754.402 1399.49 764.947C1407.61 770.02 1416.29 772.39 1425.7 771.002C1435.25 769.595 1446.86 764.125 1460.33 751.029L1475.67 766.8C1461.58 780.504 1447.55 788.668 1433.74 791.853C1435.43 818.184 1433.33 855.664 1421.16 886.839C1414.74 903.289 1405.23 918.709 1391.28 929.56C1377.07 940.606 1359.04 946.3 1337.04 944.372C1315.07 942.447 1297.89 933.755 1284.97 920.719C1272.23 907.863 1264.09 891.27 1259.03 874.022C1250.19 843.883 1250.22 809.874 1253.23 784.602C1237.54 778.988 1224.99 768.536 1217.03 758.935L1233.97 744.894C1243.18 756.008 1259.22 767.07 1277.46 766.716C1294.92 766.377 1318.49 755.412 1343.02 713.825L1354.59 694.214L1362.76 715.465ZM1350.93 741.983C1327.31 774.782 1302.06 788.242 1277.89 788.712C1276.89 788.732 1275.89 788.725 1274.91 788.7C1272.31 811.743 1272.53 841.888 1280.14 867.831C1284.53 882.795 1291.19 895.747 1300.6 905.232C1309.82 914.536 1322.13 920.981 1338.96 922.456C1355.75 923.928 1368.2 919.635 1377.77 912.194C1387.59 904.557 1395.14 892.989 1400.66 878.839C1411.35 851.47 1413.39 817.17 1411.75 792.732C1403.03 791.389 1395.02 788.094 1387.83 783.607C1371.83 773.612 1359.46 757.445 1350.93 741.983ZM1580.58 565.289C1595.97 557.154 1611.8 559.741 1622.03 564.637L1623 565.117L1623.04 565.138L1623.08 565.159C1640 573.978 1662.71 604.21 1652.82 658.39C1647.96 684.985 1638.88 701.778 1627.82 711.375C1616.97 720.778 1604.82 722.651 1595.67 720.19C1583.86 718.379 1568.24 711.361 1557.04 696.15C1545.34 680.264 1539.45 656.839 1545.7 624.34C1551.84 592.37 1564.53 573.772 1580.58 565.289ZM1071.63 530.257C1078.58 524.108 1087.64 520.552 1098 522.825C1110.64 522.195 1128.02 525.809 1141.15 539.308C1155.33 553.887 1162.3 577.629 1156.34 612.755C1150.58 646.72 1140.76 667.438 1129.08 678.94C1117.88 689.965 1105.03 692.269 1094.98 688.92C1083.24 688.731 1067.2 684.873 1055.17 672.972C1041.78 659.726 1035.57 638.785 1042.13 609.106C1043.83 594.041 1048.08 571.961 1055.73 554.192C1059.57 545.269 1064.7 536.399 1071.63 530.257Z" fill="#1F4371"/>
<path d="M785.499 343.578L893.499 204.916C852.299 123.316 786.666 152.582 758.999 177.416C693.399 241.416 753.332 319.078 785.499 343.578Z" fill="#9DD0FA"/>
<path d="M1873.5 392.916L1776.5 253.916C1806.9 192.315 1870.83 218.582 1899 239.416C1953 305.016 1904.5 369.082 1873.5 392.916Z" fill="#9DD0FA"/>
<path d="M785.499 343.578L893.499 204.916C852.299 123.316 786.666 152.582 758.999 177.416C693.399 241.416 753.332 319.078 785.499 343.578Z" stroke="#9DD0FA" stroke-width="2"/>
<path d="M1873.5 392.916L1776.5 253.916C1806.9 192.315 1870.83 218.582 1899 239.416C1953 305.016 1904.5 369.082 1873.5 392.916Z" stroke="#9DD0FA" stroke-width="2"/>
<path d="M665.627 57.7505C701.933 24.9754 767.214 -3.19778 834.554 0.896973C901.058 4.94111 968.672 40.4318 1011.92 131.095C1074.92 102.332 1177.81 71.7478 1293.2 67.5942C1408.95 63.4272 1538.03 85.8528 1651.92 164.242C1682.42 127.967 1732.78 86.4863 1792.88 71.8052C1825.44 63.8517 1860.88 63.7753 1897.26 76.7368C1933.59 89.6827 1970.16 115.384 2005.46 157.887C2040.76 200.388 2059.46 241.158 2065.79 279.407C2072.13 317.697 2065.95 352.765 2052.61 383.609C2027.82 440.9 1978.31 483.665 1937.56 507.426C1956.23 559.894 1975.56 644.859 1977.17 741.169C1978.88 843.187 1960.71 958.734 1899.98 1061.99L1899.65 1062.56L1899.25 1063.08C1851.63 1125.61 1712.31 1255.1 1532.21 1276.06L1323.81 1405.75L1317.69 1409.56L1311.76 1405.48L1110.07 1266.57C1086.98 1264.1 1050.18 1257.71 1010.59 1246.15C969.408 1234.12 924.44 1216.28 888.636 1190.89V1190.89C788.463 1121.55 671.16 986.599 645.249 806.469C630.046 700.776 646.437 580.508 715.001 449.886C670.422 421.783 618.777 364.842 595.819 296.415C583.513 259.736 579.34 219.419 589.259 178.364C599.191 137.25 623.072 96.1667 665.627 57.7505ZM833.218 22.856C772.133 19.1417 712.563 45.018 680.369 74.0806C640.675 109.914 619.409 147.248 610.644 183.53C601.864 219.87 605.441 255.929 616.677 289.417C637.734 352.179 685.309 404.722 725.517 430.503C774.358 343.336 846.524 251.72 947.988 156.879L951.159 153.916H967.89V175.916H959.849C703.94 416.408 642.404 632.173 667.024 803.336C691.653 974.552 802.863 1103.98 898.989 1171.29L901.258 1172.87L901.311 1172.91L901.363 1172.94C934.359 1196.35 976.724 1213.34 1016.76 1225.03C1056.71 1236.7 1093.58 1242.87 1115.07 1244.97L1117.9 1245.24L1120.24 1246.86L1318.3 1383.27L1522.69 1256.08L1524.81 1254.76L1527.29 1254.48C1699.88 1235.39 1835.14 1110.65 1881.35 1050.27C1939.16 951.669 1956.83 840.703 1955.18 741.537C1953.51 642.146 1932.44 555.409 1913.72 506.335L1910.27 497.292L1918.8 492.719C1958.19 471.614 2008.51 430.126 2032.42 374.872C2044.28 347.449 2049.65 316.654 2044.08 283C2038.51 249.303 2021.84 212.042 1988.54 171.943C1955.24 131.847 1921.78 108.83 1889.87 97.4604C1858.01 86.1072 1826.99 86.1185 1798.1 93.1763C1744.57 106.251 1698.42 143.544 1669.83 177.129C1675.03 181.04 1680.19 185.074 1685.31 189.234C1686.21 189.959 1687.1 190.687 1687.99 191.419L1674.04 208.432L1674.01 208.41L1671.45 206.314C1663.58 199.931 1655.63 193.859 1647.58 188.086C1536.68 108.474 1409.28 85.4294 1293.99 89.5796C1178.61 93.733 1076.15 125.113 1016.19 153.366L1015.49 151.891L1015 152.416L1007.43 160.401L997.934 151.401L996.345 149.896L995.453 147.897C955.689 58.7649 893.254 26.5067 833.218 22.856Z" fill="#1F4371"/>
<path d="M665.627 57.7505L665.292 57.3793V57.3793L665.627 57.7505ZM834.554 0.896973L834.584 0.397895V0.397894L834.554 0.896973ZM1011.92 131.095L1011.47 131.311L1011.68 131.754L1012.13 131.55L1011.92 131.095ZM1293.2 67.5942L1293.18 67.0946V67.0946L1293.2 67.5942ZM1651.92 164.242L1651.63 164.654L1652.01 164.911L1652.3 164.563L1651.92 164.242ZM1792.88 71.8052L1792.76 71.3195V71.3195L1792.88 71.8052ZM1897.26 76.7368L1897.42 76.2658V76.2658L1897.26 76.7368ZM2005.46 157.887L2005.85 157.568V157.568L2005.46 157.887ZM2065.79 279.407L2066.28 279.325V279.325L2065.79 279.407ZM2052.61 383.609L2053.07 383.807V383.807L2052.61 383.609ZM1937.56 507.426L1937.31 506.994L1936.95 507.203L1937.09 507.594L1937.56 507.426ZM1977.17 741.169L1977.67 741.161V741.161L1977.17 741.169ZM1899.98 1061.99L1899.55 1061.74V1061.74L1899.98 1061.99ZM1899.65 1062.56L1900.05 1062.86L1900.06 1062.84L1900.08 1062.81L1899.65 1062.56ZM1899.25 1063.08L1898.85 1062.78L1898.85 1062.78L1899.25 1063.08ZM1532.21 1276.06L1532.15 1275.57L1532.04 1275.58L1531.94 1275.64L1532.21 1276.06ZM1323.81 1405.75L1323.55 1405.33L1323.55 1405.33L1323.81 1405.75ZM1317.69 1409.56L1317.41 1409.97L1317.68 1410.16L1317.96 1409.99L1317.69 1409.56ZM1311.76 1405.48L1311.48 1405.89H1311.48L1311.76 1405.48ZM1110.07 1266.57L1110.36 1266.16L1110.25 1266.09L1110.13 1266.07L1110.07 1266.57ZM1010.59 1246.15L1010.45 1246.63V1246.63L1010.59 1246.15ZM888.636 1190.89H888.136V1191.15L888.346 1191.3L888.636 1190.89ZM888.636 1190.89H889.136V1190.63L888.92 1190.48L888.636 1190.89ZM645.249 806.469L644.754 806.54V806.54L645.249 806.469ZM715.001 449.886L715.444 450.119L715.658 449.71L715.268 449.463L715.001 449.886ZM595.819 296.415L595.345 296.574V296.574L595.819 296.415ZM589.259 178.364L588.773 178.246V178.246L589.259 178.364ZM833.218 22.856L833.248 22.3569V22.3569L833.218 22.856ZM680.369 74.0806L680.704 74.4517L680.369 74.0806ZM610.644 183.53L610.158 183.412V183.412L610.644 183.53ZM616.677 289.417L616.203 289.576L616.203 289.576L616.677 289.417ZM725.517 430.503L725.247 430.924L725.693 431.211L725.953 430.748L725.517 430.503ZM947.988 156.879L947.647 156.514V156.514L947.988 156.879ZM951.159 153.916V153.416H950.962L950.818 153.55L951.159 153.916ZM967.89 153.916H968.39V153.416H967.89V153.916ZM967.89 175.916V176.416H968.39V175.916H967.89ZM959.849 175.916V175.416H959.651L959.506 175.551L959.849 175.916ZM667.024 803.336L666.53 803.408V803.408L667.024 803.336ZM898.989 1171.29L898.702 1171.7L898.704 1171.7L898.989 1171.29ZM901.258 1172.87L900.972 1173.28L900.975 1173.28L901.258 1172.87ZM901.311 1172.91L901.603 1172.5L901.593 1172.49L901.311 1172.91ZM901.363 1172.94L901.071 1173.35L901.074 1173.35L901.363 1172.94ZM1016.76 1225.03L1016.9 1224.55V1224.55L1016.76 1225.03ZM1115.07 1244.97L1115.12 1244.47L1115.12 1244.47L1115.07 1244.97ZM1117.9 1245.24L1118.18 1244.83L1118.08 1244.76L1117.95 1244.75L1117.9 1245.24ZM1120.24 1246.86L1120.52 1246.44H1120.52L1120.24 1246.86ZM1318.3 1383.27L1318.02 1383.68L1318.29 1383.87L1318.57 1383.69L1318.3 1383.27ZM1522.69 1256.08L1522.95 1256.5L1522.95 1256.5L1522.69 1256.08ZM1524.81 1254.76L1524.75 1254.26L1524.64 1254.27L1524.54 1254.33L1524.81 1254.76ZM1527.29 1254.48L1527.34 1254.98H1527.35L1527.29 1254.48ZM1881.35 1050.27L1881.75 1050.57L1881.77 1050.55L1881.78 1050.52L1881.35 1050.27ZM1955.18 741.537L1954.68 741.545V741.545L1955.18 741.537ZM1913.72 506.335L1914.19 506.157V506.157L1913.72 506.335ZM1910.27 497.292L1910.04 496.851L1909.65 497.059L1909.8 497.47L1910.27 497.292ZM1918.8 492.719L1918.57 492.279H1918.57L1918.8 492.719ZM2032.42 374.872L2032.88 375.07V375.07L2032.42 374.872ZM2044.08 283L2044.58 282.918V282.918L2044.08 283ZM1988.54 171.943L1988.92 171.623V171.623L1988.54 171.943ZM1889.87 97.4604L1890.04 96.9895V96.9895L1889.87 97.4604ZM1798.1 93.1763L1797.98 92.6906V92.6906L1798.1 93.1763ZM1669.83 177.129L1669.44 176.805L1669.1 177.21L1669.52 177.529L1669.83 177.129ZM1685.31 189.234L1685.63 188.846V188.846L1685.31 189.234ZM1687.99 191.419L1688.37 191.736L1688.69 191.35L1688.3 191.033L1687.99 191.419ZM1674.04 208.432L1673.72 208.818L1674.11 209.136L1674.43 208.749L1674.04 208.432ZM1674.01 208.41L1674.33 208.023L1674.33 208.022L1674.01 208.41ZM1671.45 206.314L1671.76 205.927L1671.76 205.926L1671.45 206.314ZM1647.58 188.086L1647.88 187.68V187.68L1647.58 188.086ZM1293.99 89.5796L1293.97 89.0799V89.0799L1293.99 89.5796ZM1016.19 153.366L1015.74 153.579L1015.95 154.031L1016.4 153.818L1016.19 153.366ZM1015.49 151.891L1015.95 151.678L1015.63 151.015L1015.13 151.548L1015.49 151.891ZM1015 152.416L1015.36 152.759L1015.36 152.759L1015 152.416ZM1007.43 160.401L1007.09 160.764L1007.45 161.108L1007.8 160.745L1007.43 160.401ZM997.934 151.401L998.277 151.038L998.277 151.038L997.934 151.401ZM996.345 149.896L995.888 150.1L995.929 150.191L996.001 150.259L996.345 149.896ZM995.453 147.897L995.91 147.693V147.693L995.453 147.897ZM665.627 57.7505L665.962 58.1216C702.175 25.4309 767.326 -2.69005 834.523 1.39605L834.554 0.896973L834.584 0.397894C767.102 -3.7055 701.692 24.5199 665.292 57.3793L665.627 57.7505ZM834.554 0.896973L834.523 1.39605C900.845 5.42909 968.299 40.8101 1011.47 131.311L1011.92 131.095L1012.38 130.88C969.046 40.0534 901.271 4.45314 834.584 0.397895L834.554 0.896973ZM1011.92 131.095L1012.13 131.55C1075.08 102.812 1177.9 72.2449 1293.21 68.0939L1293.2 67.5942L1293.18 67.0946C1177.73 71.2507 1074.77 101.853 1011.72 130.64L1011.92 131.095ZM1293.2 67.5942L1293.21 68.0939C1408.9 63.9296 1537.86 86.3419 1651.63 164.654L1651.92 164.242L1652.2 163.83C1538.2 85.3637 1409.01 62.9249 1293.18 67.0946L1293.2 67.5942ZM1651.92 164.242L1652.3 164.563C1682.76 128.338 1733.03 86.9384 1793 72.2909L1792.88 71.8052L1792.76 71.3195C1732.52 86.0342 1682.08 127.596 1651.53 163.92L1651.92 164.242ZM1792.88 71.8052L1793 72.2909C1825.47 64.3578 1860.81 64.2828 1897.09 77.2078L1897.26 76.7368L1897.42 76.2658C1860.94 63.2677 1825.4 63.3456 1792.76 71.3195L1792.88 71.8052ZM1897.26 76.7368L1897.09 77.2078C1933.32 90.1178 1969.82 115.758 2005.08 158.207L2005.46 157.887L2005.85 157.568C1970.5 115.009 1933.86 89.2475 1897.42 76.2658L1897.26 76.7368ZM2005.46 157.887L2005.08 158.207C2040.33 200.653 2058.98 241.343 2065.29 279.488L2065.79 279.407L2066.28 279.325C2059.93 240.972 2041.19 200.123 2005.85 157.568L2005.46 157.887ZM2065.79 279.407L2065.29 279.488C2071.62 317.674 2065.46 352.644 2052.15 383.41L2052.61 383.609L2053.07 383.807C2066.45 352.886 2072.64 317.721 2066.28 279.325L2065.79 279.407ZM2052.61 383.609L2052.15 383.41C2027.41 440.572 1978 483.266 1937.31 506.994L1937.56 507.426L1937.82 507.858C1978.62 484.064 2028.22 441.228 2053.07 383.807L2052.61 383.609ZM1937.56 507.426L1937.09 507.594C1955.74 560.013 1975.06 644.924 1976.67 741.178L1977.17 741.169L1977.67 741.161C1976.06 644.794 1956.72 559.775 1938.03 507.259L1937.56 507.426ZM1977.17 741.169L1976.67 741.178C1978.38 843.135 1960.22 958.583 1899.55 1061.74L1899.98 1061.99L1900.41 1062.25C1961.2 958.885 1979.38 843.239 1977.67 741.161L1977.17 741.169ZM1899.98 1061.99L1899.55 1061.74L1899.22 1062.3L1899.65 1062.56L1900.08 1062.81L1900.41 1062.25L1899.98 1061.99ZM1899.65 1062.56L1899.25 1062.26L1898.85 1062.78L1899.25 1063.08L1899.65 1063.38L1900.05 1062.86L1899.65 1062.56ZM1899.25 1063.08L1898.85 1062.78C1851.28 1125.25 1712.07 1254.62 1532.15 1275.57L1532.21 1276.06L1532.26 1276.56C1712.55 1255.57 1851.99 1125.97 1899.65 1063.38L1899.25 1063.08ZM1532.21 1276.06L1531.94 1275.64L1323.55 1405.33L1323.81 1405.75L1324.08 1406.18L1532.47 1276.49L1532.21 1276.06ZM1323.81 1405.75L1323.55 1405.33L1317.43 1409.14L1317.69 1409.56L1317.96 1409.99L1324.08 1406.18L1323.81 1405.75ZM1317.69 1409.56L1317.98 1409.15L1312.04 1405.06L1311.76 1405.48L1311.48 1405.89L1317.41 1409.97L1317.69 1409.56ZM1311.76 1405.48L1312.04 1405.06L1110.36 1266.16L1110.07 1266.57L1109.79 1266.98L1311.48 1405.89L1311.76 1405.48ZM1110.07 1266.57L1110.13 1266.07C1087.06 1263.6 1050.29 1257.22 1010.73 1245.67L1010.59 1246.15L1010.45 1246.63C1050.07 1258.2 1086.89 1264.59 1110.02 1267.07L1110.07 1266.57ZM1010.59 1246.15L1010.73 1245.67C969.575 1233.65 924.665 1215.83 888.925 1190.48L888.636 1190.89L888.346 1191.3C924.214 1216.74 969.242 1234.6 1010.45 1246.63L1010.59 1246.15ZM888.636 1190.89H889.136V1190.89H888.636H888.136V1190.89H888.636ZM888.636 1190.89L888.92 1190.48C788.829 1121.2 671.63 986.355 645.744 806.398L645.249 806.469L644.754 806.54C670.69 986.844 788.098 1121.91 888.351 1191.3L888.636 1190.89ZM645.249 806.469L645.744 806.398C630.557 700.814 646.926 580.653 715.444 450.119L715.001 449.886L714.558 449.654C645.948 580.364 629.535 700.737 644.754 806.54L645.249 806.469ZM715.001 449.886L715.268 449.463C670.776 421.415 619.211 364.563 596.293 296.255L595.819 296.415L595.345 296.574C618.344 365.12 670.068 422.15 714.734 450.309L715.001 449.886ZM595.819 296.415L596.293 296.256C584.012 259.649 579.852 219.429 589.745 178.481L589.259 178.364L588.773 178.246C578.829 219.408 583.015 259.822 595.345 296.574L595.819 296.415ZM589.259 178.364L589.745 178.481C599.651 137.477 623.472 96.4792 665.962 58.1216L665.627 57.7505L665.292 57.3793C622.672 95.8542 598.732 137.023 588.773 178.246L589.259 178.364ZM833.218 22.856L833.248 22.3569C772.021 18.634 712.321 44.5625 680.034 73.7094L680.369 74.0806L680.704 74.4517C712.804 45.4736 772.245 19.6495 833.187 23.355L833.218 22.856ZM680.369 74.0806L680.034 73.7094C640.275 109.602 618.949 147.021 610.158 183.412L610.644 183.53L611.13 183.647C619.868 147.475 641.075 110.227 680.704 74.4517L680.369 74.0806ZM610.644 183.53L610.158 183.412C601.352 219.86 604.943 256.016 616.203 289.576L616.677 289.417L617.151 289.257C605.94 255.843 602.376 219.881 611.13 183.647L610.644 183.53ZM616.677 289.417L616.203 289.576C637.3 352.458 684.954 405.089 725.247 430.924L725.517 430.503L725.786 430.083C685.664 404.356 638.168 351.901 617.151 289.257L616.677 289.417ZM725.517 430.503L725.953 430.748C774.764 343.633 846.896 252.057 948.33 157.245L947.988 156.879L947.647 156.514C846.152 251.383 773.951 343.039 725.08 430.259L725.517 430.503ZM947.988 156.879L948.33 157.245L951.501 154.281L951.159 153.916L950.818 153.55L947.647 156.514L947.988 156.879ZM951.159 153.916V154.416H967.89V153.916V153.416H951.159V153.916ZM967.89 153.916H967.39V175.916H967.89H968.39V153.916H967.89ZM967.89 175.916V175.416H959.849V175.916V176.416H967.89V175.916ZM959.849 175.916L959.506 175.551C703.515 416.122 641.88 632.04 666.53 803.408L667.024 803.336L667.519 803.265C642.928 632.306 704.366 416.694 960.191 176.28L959.849 175.916ZM667.024 803.336L666.53 803.408C691.182 974.796 802.496 1104.33 898.702 1171.7L898.989 1171.29L899.276 1170.88C803.23 1103.63 692.123 974.309 667.519 803.265L667.024 803.336ZM898.989 1171.29L898.704 1171.7L900.972 1173.28L901.258 1172.87L901.543 1172.46L899.275 1170.88L898.989 1171.29ZM901.258 1172.87L900.975 1173.28L901.028 1173.32L901.311 1172.91L901.593 1172.49L901.54 1172.46L901.258 1172.87ZM901.311 1172.91L901.018 1173.31L901.071 1173.35L901.363 1172.94L901.656 1172.54L901.603 1172.5L901.311 1172.91ZM901.363 1172.94L901.074 1173.35C934.134 1196.8 976.558 1213.81 1016.62 1225.51L1016.76 1225.03L1016.9 1224.55C976.89 1212.87 934.584 1195.89 901.653 1172.54L901.363 1172.94ZM1016.76 1225.03L1016.62 1225.51C1056.6 1237.19 1093.5 1243.36 1115.02 1245.46L1115.07 1244.97L1115.12 1244.47C1093.66 1242.37 1056.82 1236.21 1016.9 1224.55L1016.76 1225.03ZM1115.07 1244.97L1115.02 1245.46L1117.85 1245.74L1117.9 1245.24L1117.95 1244.75L1115.12 1244.47L1115.07 1244.97ZM1117.9 1245.24L1117.61 1245.66L1119.95 1247.27L1120.24 1246.86L1120.52 1246.44L1118.18 1244.83L1117.9 1245.24ZM1120.24 1246.86L1119.95 1247.27L1318.02 1383.68L1318.3 1383.27L1318.59 1382.86L1120.52 1246.44L1120.24 1246.86ZM1318.3 1383.27L1318.57 1383.69L1522.95 1256.5L1522.69 1256.08L1522.42 1255.65L1318.04 1382.84L1318.3 1383.27ZM1522.69 1256.08L1522.95 1256.5L1525.07 1255.18L1524.81 1254.76L1524.54 1254.33L1522.42 1255.65L1522.69 1256.08ZM1524.81 1254.76L1524.86 1255.25L1527.34 1254.98L1527.29 1254.48L1527.24 1253.98L1524.75 1254.26L1524.81 1254.76ZM1527.29 1254.48L1527.35 1254.98C1700.12 1235.87 1835.49 1111.01 1881.75 1050.57L1881.35 1050.27L1880.95 1049.97C1834.79 1110.29 1699.64 1234.92 1527.24 1253.98L1527.29 1254.48ZM1881.35 1050.27L1881.78 1050.52C1939.65 951.819 1957.33 840.755 1955.68 741.528L1955.18 741.537L1954.68 741.545C1956.33 840.651 1938.66 951.518 1880.92 1050.02L1881.35 1050.27ZM1955.18 741.537L1955.68 741.528C1954.01 642.079 1932.93 555.284 1914.19 506.157L1913.72 506.335L1913.25 506.514C1931.95 555.534 1953.02 642.214 1954.68 741.545L1955.18 741.537ZM1913.72 506.335L1914.19 506.157L1910.74 497.113L1910.27 497.292L1909.8 497.47L1913.25 506.514L1913.72 506.335ZM1910.27 497.292L1910.51 497.732L1919.04 493.16L1918.8 492.719L1918.57 492.279L1910.04 496.851L1910.27 497.292ZM1918.8 492.719L1919.04 493.16C1958.49 472.022 2008.91 430.462 2032.88 375.07L2032.42 374.872L2031.96 374.673C2008.11 429.791 1957.9 471.207 1918.57 492.279L1918.8 492.719ZM2032.42 374.872L2032.88 375.07C2044.78 347.57 2050.16 316.678 2044.58 282.918L2044.08 283L2043.59 283.081C2049.14 316.63 2043.79 347.328 2031.96 374.673L2032.42 374.872ZM2044.08 283L2044.58 282.918C2038.98 249.118 2022.27 211.777 1988.92 171.623L1988.54 171.943L1988.15 172.262C2021.41 212.307 2038.03 249.488 2043.59 283.081L2044.08 283ZM1988.54 171.943L1988.92 171.623C1955.58 131.473 1922.05 108.395 1890.04 96.9895L1889.87 97.4604L1889.7 97.9314C1921.51 109.265 1954.9 132.221 1988.15 172.262L1988.54 171.943ZM1889.87 97.4604L1890.04 96.9895C1858.07 85.5997 1826.95 85.6124 1797.98 92.6906L1798.1 93.1763L1798.22 93.662C1827.03 86.6246 1857.94 86.6148 1889.7 97.9314L1889.87 97.4604ZM1798.1 93.1763L1797.98 92.6906C1744.32 105.799 1698.08 143.171 1669.44 176.805L1669.83 177.129L1670.21 177.454C1698.76 143.916 1744.83 106.704 1798.22 93.662L1798.1 93.1763ZM1669.83 177.129L1669.52 177.529C1674.72 181.436 1679.88 185.467 1685 189.622L1685.31 189.234L1685.63 188.846C1680.5 184.682 1675.33 180.644 1670.13 176.73L1669.83 177.129ZM1685.31 189.234L1685 189.622C1685.89 190.346 1686.78 191.074 1687.67 191.806L1687.99 191.419L1688.3 191.033C1687.41 190.3 1686.52 189.571 1685.63 188.846L1685.31 189.234ZM1687.99 191.419L1687.6 191.102L1673.65 208.115L1674.04 208.432L1674.43 208.749L1688.37 191.736L1687.99 191.419ZM1674.04 208.432L1674.36 208.046L1674.33 208.023L1674.01 208.41L1673.69 208.796L1673.72 208.818L1674.04 208.432ZM1674.01 208.41L1674.33 208.022L1671.76 205.927L1671.45 206.314L1671.13 206.701L1673.7 208.797L1674.01 208.41ZM1671.45 206.314L1671.76 205.926C1663.89 199.537 1655.93 193.459 1647.88 187.68L1647.58 188.086L1647.29 188.493C1655.33 194.26 1663.28 200.326 1671.13 206.702L1671.45 206.314ZM1647.58 188.086L1647.88 187.68C1536.86 107.986 1409.34 84.9269 1293.97 89.0799L1293.99 89.5796L1294.01 90.0793C1409.22 85.9318 1536.51 108.963 1647.29 188.493L1647.58 188.086ZM1293.99 89.5796L1293.97 89.0799C1178.52 93.2359 1075.99 124.634 1015.98 152.913L1016.19 153.366L1016.4 153.818C1076.3 125.592 1178.7 94.2301 1294.01 90.0793L1293.99 89.5796ZM1016.19 153.366L1016.64 153.152L1015.95 151.678L1015.49 151.891L1015.04 152.104L1015.74 153.579L1016.19 153.366ZM1015.49 151.891L1015.13 151.548L1014.63 152.072L1015 152.416L1015.36 152.759L1015.86 152.234L1015.49 151.891ZM1015 152.416L1014.64 152.072L1007.07 160.057L1007.43 160.401L1007.8 160.745L1015.36 152.759L1015 152.416ZM1007.43 160.401L1007.78 160.038L998.277 151.038L997.934 151.401L997.59 151.764L1007.09 160.764L1007.43 160.401ZM997.934 151.401L998.277 151.038L996.689 149.533L996.345 149.896L996.001 150.259L997.59 151.764L997.934 151.401ZM996.345 149.896L996.801 149.692L995.91 147.693L995.453 147.897L994.996 148.101L995.888 150.1L996.345 149.896ZM995.453 147.897L995.91 147.693C956.072 58.3944 893.474 26.0192 833.248 22.3569L833.218 22.856L833.187 23.355C893.034 26.9942 955.307 59.1353 994.996 148.101L995.453 147.897Z" fill="#1F4371"/>
<path d="M1760.5 255.416C1786.5 273.916 1843.7 326.916 1864.5 390.916" stroke="#1F4371" stroke-width="22"/>
<path d="M1343 920.916C1274.53 920.916 1266.67 831.582 1271.5 787.916C1301 794.916 1333 768.916 1352 741.916C1357.2 765.916 1396.5 794.916 1410.5 794.916C1413 833.916 1403.5 920.916 1343 920.916Z" fill="url(#paint0_linear_10_36)" stroke="#FFE6E8" stroke-width="2"/>
<path d="M819.113 927.435C844.713 1079.03 758.78 1188.93 712.613 1224.94C699.78 1240.93 663.213 1268.83 619.613 1252.43L503.613 1224.94C471.113 1210.1 418.013 1136.24 465.613 959.435C490.447 899.768 553.613 796.435 614.613 796.435C648.613 796.436 705.713 788.327 772.113 850.152C793.86 857.27 811.137 880.199 819.113 927.435Z" fill="#52ADFF"/>
<path d="M772.113 850.152C793.86 857.27 811.137 880.199 819.113 927.435C844.713 1079.03 758.78 1188.93 712.613 1224.94C699.78 1240.93 663.213 1268.83 619.613 1252.43C575.613 1223.6 513.013 1121.33 614.613 942.935C654.197 895.893 724.065 834.428 772.113 850.152ZM619.613 1252.43L503.613 1224.94C471.113 1210.1 418.013 1136.24 465.613 959.435C490.447 899.768 553.613 796.435 614.613 796.435C648.613 796.436 705.713 788.327 772.113 850.152" stroke="#003F74" stroke-width="20"/>
<path d="M730.614 1007.94C673.814 1016.74 676.113 1072.44 692.113 1086.44C713.613 1091.1 760.414 1100.84 787.614 1080.44C814.814 1060.04 760.947 1023.6 730.614 1007.94Z" fill="white" stroke="#003F74" stroke-width="10"/>
<path d="M1734.5 1054.92L1543 1585.92V1629.42L1580 1663.92L1843 1714.92L1977 1737.92L2009 1714.92L2018.5 1640.92L2136 1292.92L2187 1161.42L2166 1137.92L2092.5 1112.92L2071.5 1087.42L1905.5 1054.92H1875.5H1734.5Z" fill="#9DD0FA"/>
<path d="M2064.5 1101.42L2057.5 1174.92L2018.5 1188.92L1905.5 1161.42H1875.5L1864 1119.92L1875.5 1054.92M1875.5 1054.92H1905.5L2071.5 1087.42L2092.5 1112.92L2166 1137.92L2187 1161.42L2136 1292.92L2018.5 1640.92L2009 1714.92L1977 1737.92L1843 1714.92L1580 1663.92L1543 1629.42V1585.92L1734.5 1054.92H1875.5Z" stroke="#1F4371" stroke-width="20"/>
<path d="M2115.5 1352.42C2293 1514.42 2115.5 1672.92 2020.5 1634.42C1974.83 1627.25 1886.2 1581.32 1897 1454.92C1907.8 1328.52 2047.17 1333.92 2115.5 1352.42Z" fill="#FEFEFE" stroke="#1F4371" stroke-width="20"/>
<defs>
<linearGradient id="paint0_linear_10_36" x1="1342.31" y1="743.916" x2="1342.31" y2="920.676" gradientUnits="userSpaceOnUse">
<stop stop-color="#F1C9EB"/>
<stop offset="1" stop-color="#E9EFFF"/>
</linearGradient>
</defs>
</svg>
