<svg width="1224" height="714" viewBox="0 0 1224 714" fill="none" xmlns="http://www.w3.org/2000/svg">
<path d="M69.1957 10H1154.75V444.072H1212.72C1201.32 629.395 1173.99 694.219 1154.75 703.465H69.1957C55.7012 703.215 25.1138 650.986 10.7197 444.072H69.1957V10Z" fill="#9DD0FA"/>
<path d="M69.1957 444.072H10.7197C25.1138 650.986 55.7012 703.215 69.1957 703.465H1154.75C1173.99 694.219 1201.32 629.395 1212.72 444.072H1154.75M69.1957 703.465V444.072M1154.75 703.465V444.072M69.1957 444.072V10H1154.75V444.072" stroke="#1F4371" stroke-width="20"/>
<path d="M508.515 432.077C565.491 381.097 527.007 348.611 508.515 325.621C543 270.893 655.454 277.64 675.696 325.621C636.712 360.856 653.455 407.836 675.696 432.077C642.709 494.301 522.759 483.805 508.515 432.077Z" fill="#FEFEFE"/>
<path d="M582.734 255.899C578.236 237.906 585.433 201.921 650.206 201.921C641.21 229.16 615.121 278.09 582.734 255.899Z" fill="#FEFEFE"/>
</svg>
