<svg width="1489" height="1817" viewBox="0 0 1489 1817" fill="none" xmlns="http://www.w3.org/2000/svg">
<path d="M237.981 1129.62L283.906 1176.12C283.906 1176.12 478.073 1249.62 525.406 1252.12L734.906 1394.62L958.406 1263.12C1067.61 1257.12 1198.24 1171.62 1249.91 1129.62C1425.11 1282.42 1429.48 1550 1418.48 1659.5C1280.88 1746.3 1226.57 1752.28 1207.91 1749.62C839.507 1874.82 412.406 1765.78 244.906 1695.62L237.981 1687.5L90.9814 1594.5C90.9814 1594.5 125.981 1121 237.981 1129.62Z" fill="#4EA9FE"/>
<path d="M1251.9 1135.12C1322.4 1189.62 1421.48 1326 1421.48 1569.5V1662C1421.48 1662 1347.4 1707.95 1251.9 1745.12C1189.4 1769.44 1210.4 1745.12 1210.4 1652.62" stroke="#1F4371" stroke-width="20"/>
<path d="M239.894 1125C145.635 1094.2 88.9814 1519 88.9814 1600C127.481 1642 239.894 1691.62 239.894 1691.62M272.394 1510.12L239.894 1691.62M239.894 1691.62C385.561 1763.12 783.494 1875.12 1209.89 1751.12L1189.39 1548.62" stroke="#1F4371" stroke-width="20"/>
<path d="M534.395 1254.12C-8.00537 1154.52 49.0613 672.95 145.395 444.616C-53.4054 338.216 9.22804 172.95 65.3948 103.616C261.395 -72.3837 388.728 54.9496 427.895 140.616C751.895 12.6162 990.228 109.95 1068.89 174.616C1219.69 18.6162 1357.73 93.9495 1407.89 151.116C1564.29 321.516 1429.39 456.783 1342.39 503.116C1518.79 1045.92 1154.23 1235.95 949.895 1263.12L742.395 1390.12L534.395 1254.12Z" fill="#FEFEFE" stroke="black"/>
<path d="M249.396 733.118C220.596 860.318 301.062 881.116 344.895 879.116C411.895 866.616 477.895 849.116 450.895 733.117C422.033 609.116 262.64 674.619 249.396 733.118Z" fill="#FFE6E8"/>
<path d="M1057.89 804.115C1041.39 904.614 1118.89 946.116 1168.39 942.115C1308.89 930.758 1271.4 747.617 1209.89 726.116C1148.39 704.615 1074.39 703.616 1057.89 804.115Z" fill="#FFE6E8"/>
<path d="M249.396 733.118C220.596 860.318 301.062 881.116 344.895 879.116C411.895 866.616 477.895 849.116 450.895 733.117C422.033 609.116 262.64 674.619 249.396 733.118Z" stroke="#FFE6E8" stroke-width="2"/>
<path d="M1057.89 804.115C1041.39 904.614 1118.89 946.116 1168.39 942.115C1308.89 930.758 1271.4 747.617 1209.89 726.116C1148.39 704.615 1074.39 703.616 1057.89 804.115Z" stroke="#FFE6E8" stroke-width="2"/>
<path d="M770.894 724.116C741.228 703.95 700.894 662.116 776.894 656.116C810.561 659.783 856.494 678.516 770.894 724.116Z" fill="#1F4371" stroke="#1F4371" stroke-width="2"/>
<path d="M784.248 720.166C790.955 737.603 804.09 759.103 820.972 769.649C829.092 774.721 837.773 777.091 847.185 775.703C856.729 774.296 868.347 768.826 881.812 755.73L897.15 771.501C881.416 786.804 865.767 795.201 850.394 797.468C834.888 799.754 821 795.606 809.316 788.308C793.317 778.314 780.942 762.146 772.414 746.684C748.794 779.483 723.545 792.943 699.37 793.413C672.158 793.942 650.299 777.854 638.513 763.636L655.45 749.595C664.664 760.709 680.705 771.772 698.942 771.417C716.406 771.078 739.977 760.113 764.507 718.527L776.075 698.915L784.248 720.166ZM637.943 622.403L466.443 645.403L463.52 623.598L635.02 600.598L637.943 622.403ZM1073.77 621.083L1071.2 640.917L889.697 617.417L892.266 597.583L1073.77 621.083Z" fill="#1F4371"/>
<path d="M202.981 348.279L312.895 206.116C271.695 124.516 206.061 153.783 178.395 178.616C112.795 242.616 170.815 323.779 202.981 348.279Z" fill="#9DD0FA"/>
<path d="M1285.48 391.279L1195.89 255.116C1226.29 193.516 1290.23 219.783 1318.39 240.616C1372.39 306.216 1316.48 367.445 1285.48 391.279Z" fill="#9DD0FA"/>
<path d="M202.981 348.279L312.895 206.116C271.695 124.516 206.061 153.783 178.395 178.616C112.795 242.616 170.815 323.779 202.981 348.279Z" stroke="#9DD0FA" stroke-width="2"/>
<path d="M1285.48 391.279L1195.89 255.116C1226.29 193.516 1290.23 219.783 1318.39 240.616C1372.39 306.216 1316.48 367.445 1285.48 391.279Z" stroke="#9DD0FA" stroke-width="2"/>
<path d="M85.1768 58.8148C124.354 24.7532 189.564 -3.52988 256.305 0.972955C322.196 5.4186 388.23 41.7566 431.323 132.294C494.324 103.532 597.212 72.9487 712.592 68.7952C828.35 64.6282 957.423 87.0537 1071.31 165.443C1101.81 129.168 1152.17 87.6873 1212.27 73.0062C1244.83 65.0527 1280.27 64.9762 1316.65 77.9378C1352.98 90.8836 1389.56 116.585 1424.86 159.088C1460.15 201.589 1478.85 242.358 1485.18 280.608C1491.52 318.898 1485.35 353.966 1472 384.81C1447.21 442.101 1397.71 484.866 1356.96 508.627C1375.63 561.095 1394.96 646.06 1396.57 742.37C1398.27 844.388 1380.1 959.935 1319.38 1063.19L1319.04 1063.76L1318.65 1064.28C1271.03 1126.81 1131.71 1256.3 951.601 1277.26L743.207 1406.96L737.09 1410.76L731.155 1406.68L529.47 1267.77C506.371 1265.3 469.579 1258.91 429.986 1247.35C388.804 1235.32 343.835 1217.48 308.031 1192.09V1192.09C207.859 1122.75 90.5551 987.8 64.6445 807.67C49.4416 701.978 65.8314 581.713 134.393 451.094C89.7328 423.035 36.7186 366.077 13.0312 297.584C0.331422 260.862 -4.05407 220.468 6.17871 179.348C16.4258 138.171 41.1209 97.1181 85.1768 58.8148ZM254.824 22.9232C194.662 18.8641 135.022 44.6306 99.6113 75.4173C58.4612 111.194 36.5327 148.474 27.5273 184.661C18.5081 220.905 22.2417 256.908 33.8223 290.394C55.538 353.186 104.434 405.877 144.907 431.714C193.749 344.544 265.916 252.924 367.384 158.08L370.555 155.117H387.285V177.117H379.244C123.336 417.609 61.7994 633.374 86.4199 804.537C111.048 975.753 222.258 1105.18 318.385 1172.49L320.653 1174.07L320.706 1174.11L320.759 1174.14C353.754 1197.55 396.12 1214.54 436.153 1226.23C476.104 1237.9 512.98 1244.07 534.465 1246.17L537.294 1246.45L539.634 1248.06L737.7 1384.47L942.083 1257.28L944.203 1255.96L946.686 1255.68C1119.27 1236.59 1254.53 1111.85 1300.75 1051.47C1358.55 952.87 1376.23 841.904 1374.57 742.738C1372.91 643.347 1351.84 556.61 1333.12 507.536L1329.67 498.492L1338.2 493.92C1377.59 472.815 1427.9 431.327 1451.81 376.073C1463.68 348.65 1469.05 317.855 1463.48 284.201C1457.9 250.504 1441.24 213.243 1407.93 173.144C1374.63 133.048 1341.18 110.031 1309.27 98.6614C1277.4 87.3082 1246.39 87.3194 1217.49 94.3773C1163.97 107.452 1117.81 144.745 1089.22 178.33C1094.42 182.241 1099.58 186.275 1104.71 190.435C1105.6 191.16 1106.49 191.888 1107.38 192.62L1093.43 209.633L1093.41 209.611L1090.84 207.515C1082.98 201.132 1075.02 195.06 1066.98 189.287C956.08 109.675 828.673 86.6303 713.383 90.7806C598.005 94.934 495.543 126.314 435.584 154.567L434.89 153.093L434.395 153.617L426.829 161.602L417.329 152.602L415.74 151.097L414.849 149.098C375.006 59.7896 313.966 26.9135 254.824 22.9232Z" fill="#1F4371"/>
<path d="M85.1768 58.8148L84.8487 58.4374V58.4374L85.1768 58.8148ZM256.305 0.972955L256.338 0.47409V0.474089L256.305 0.972955ZM431.323 132.294L430.872 132.509L431.083 132.953L431.531 132.749L431.323 132.294ZM712.592 68.7952L712.574 68.2955V68.2955L712.592 68.7952ZM1071.31 165.443L1071.03 165.855L1071.4 166.112L1071.69 165.764L1071.31 165.443ZM1212.27 73.0062L1212.15 72.5204V72.5204L1212.27 73.0062ZM1316.65 77.9378L1316.82 77.4668V77.4668L1316.65 77.9378ZM1424.86 159.088L1425.24 158.769V158.769L1424.86 159.088ZM1485.18 280.608L1485.68 280.526V280.526L1485.18 280.608ZM1472 384.81L1471.54 384.611V384.611L1472 384.81ZM1356.96 508.627L1356.71 508.195L1356.35 508.404L1356.49 508.795L1356.96 508.627ZM1396.57 742.37L1397.07 742.362V742.362L1396.57 742.37ZM1319.38 1063.19L1318.95 1062.94V1062.94L1319.38 1063.19ZM1319.04 1063.76L1319.44 1064.06L1319.46 1064.04L1319.47 1064.01L1319.04 1063.76ZM1318.65 1064.28L1318.25 1063.98L1318.25 1063.98L1318.65 1064.28ZM951.601 1277.26L951.543 1276.77L951.432 1276.78L951.336 1276.84L951.601 1277.26ZM743.207 1406.96L742.943 1406.53H742.943L743.207 1406.96ZM737.09 1410.76L736.806 1411.17L737.076 1411.36L737.354 1411.19L737.09 1410.76ZM731.155 1406.68L730.872 1407.09H730.872L731.155 1406.68ZM529.47 1267.77L529.753 1267.36L529.649 1267.29L529.523 1267.27L529.47 1267.77ZM429.986 1247.35L429.846 1247.83V1247.83L429.986 1247.35ZM308.031 1192.09H307.531V1192.35L307.742 1192.5L308.031 1192.09ZM308.031 1192.09H308.531V1191.83L308.316 1191.68L308.031 1192.09ZM64.6445 807.67L64.1496 807.741V807.741L64.6445 807.67ZM134.393 451.094L134.835 451.326L135.05 450.917L134.659 450.671L134.393 451.094ZM13.0312 297.584L12.5587 297.748H12.5587L13.0312 297.584ZM6.17871 179.348L5.69351 179.227L5.69351 179.227L6.17871 179.348ZM254.824 22.9232L254.858 22.4243V22.4243L254.824 22.9232ZM99.6113 75.4173L99.9394 75.7946V75.7946L99.6113 75.4173ZM27.5273 184.661L27.0421 184.541V184.541L27.5273 184.661ZM33.8223 290.394L33.3497 290.557V290.557L33.8223 290.394ZM144.907 431.714L144.638 432.136L145.085 432.421L145.343 431.959L144.907 431.714ZM367.384 158.08L367.042 157.715V157.715L367.384 158.08ZM370.555 155.117V154.617H370.357L370.213 154.751L370.555 155.117ZM387.285 155.117H387.785V154.617H387.285V155.117ZM387.285 177.117V177.617H387.785V177.117H387.285ZM379.244 177.117V176.617H379.046L378.902 176.752L379.244 177.117ZM86.4199 804.537L85.925 804.609V804.609L86.4199 804.537ZM318.385 1172.49L318.098 1172.9L318.099 1172.9L318.385 1172.49ZM320.653 1174.07L320.368 1174.48L320.371 1174.48L320.653 1174.07ZM320.706 1174.11L320.999 1173.7L320.989 1173.69L320.706 1174.11ZM320.759 1174.14L320.466 1174.55L320.47 1174.55L320.759 1174.14ZM436.153 1226.23L436.293 1225.75V1225.75L436.153 1226.23ZM534.465 1246.17L534.514 1245.67H534.513L534.465 1246.17ZM537.294 1246.45L537.578 1246.03L537.471 1245.96L537.343 1245.95L537.294 1246.45ZM539.634 1248.06L539.917 1247.65H539.917L539.634 1248.06ZM737.7 1384.47L737.417 1384.88L737.686 1385.07L737.964 1384.89L737.7 1384.47ZM942.083 1257.28L942.347 1257.7L942.347 1257.7L942.083 1257.28ZM944.203 1255.96L944.148 1255.46L944.035 1255.47L943.939 1255.53L944.203 1255.96ZM946.686 1255.68L946.74 1256.18H946.741L946.686 1255.68ZM1300.75 1051.47L1301.14 1051.77L1301.16 1051.75L1301.18 1051.72L1300.75 1051.47ZM1374.57 742.738L1374.07 742.746V742.746L1374.57 742.738ZM1333.12 507.536L1333.58 507.358V507.358L1333.12 507.536ZM1329.67 498.492L1329.43 498.052L1329.04 498.26L1329.2 498.671L1329.67 498.492ZM1338.2 493.92L1337.96 493.479H1337.96L1338.2 493.92ZM1451.81 376.073L1452.27 376.271V376.271L1451.81 376.073ZM1463.48 284.201L1463.97 284.119V284.119L1463.48 284.201ZM1407.93 173.144L1408.32 172.824V172.824L1407.93 173.144ZM1309.27 98.6614L1309.43 98.1904V98.1904L1309.27 98.6614ZM1217.49 94.3773L1217.37 93.8915V93.8915L1217.49 94.3773ZM1089.22 178.33L1088.84 178.006L1088.5 178.411L1088.92 178.73L1089.22 178.33ZM1104.71 190.435L1105.02 190.047V190.047L1104.71 190.435ZM1107.38 192.62L1107.77 192.937L1108.09 192.551L1107.7 192.234L1107.38 192.62ZM1093.43 209.633L1093.12 210.019L1093.5 210.337L1093.82 209.95L1093.43 209.633ZM1093.41 209.611L1093.72 209.224L1093.72 209.223L1093.41 209.611ZM1090.84 207.515L1091.16 207.128L1091.16 207.127L1090.84 207.515ZM1066.98 189.287L1067.27 188.881V188.881L1066.98 189.287ZM713.383 90.7806L713.365 90.2809V90.2809L713.383 90.7806ZM435.584 154.567L435.132 154.78L435.345 155.232L435.797 155.019L435.584 154.567ZM434.89 153.093L435.342 152.88L435.03 152.217L434.526 152.749L434.89 153.093ZM434.395 153.617L434.758 153.96L434.758 153.96L434.395 153.617ZM426.829 161.602L426.485 161.965L426.848 162.309L427.192 161.946L426.829 161.602ZM417.329 152.602L417.673 152.239L417.673 152.239L417.329 152.602ZM415.74 151.097L415.284 151.301L415.324 151.392L415.396 151.46L415.74 151.097ZM414.849 149.098L415.305 148.894V148.894L414.849 149.098ZM85.1768 58.8148L85.5048 59.1921C124.596 25.2049 189.68 -3.02092 256.271 1.47182L256.305 0.972955L256.338 0.474089C189.448 -4.03883 124.111 24.3015 84.8487 58.4374L85.1768 58.8148ZM256.305 0.972955L256.271 1.47182C321.973 5.90475 387.853 42.1271 430.872 132.509L431.323 132.294L431.775 132.079C388.608 41.386 322.418 4.93246 256.338 0.47409L256.305 0.972955ZM431.323 132.294L431.531 132.749C494.477 104.012 597.301 73.4458 712.61 69.2949L712.592 68.7952L712.574 68.2955C597.123 72.4516 494.171 103.052 431.116 131.839L431.323 132.294ZM712.592 68.7952L712.61 69.2949C828.293 65.1306 957.252 87.5428 1071.03 165.855L1071.31 165.443L1071.59 165.031C957.594 86.5646 828.406 64.1258 712.574 68.2955L712.592 68.7952ZM1071.31 165.443L1071.69 165.764C1102.15 129.539 1152.43 88.1394 1212.39 73.4919L1212.27 73.0062L1212.15 72.5204C1151.91 87.2352 1101.47 128.797 1070.93 165.121L1071.31 165.443ZM1212.27 73.0062L1212.39 73.4919C1244.87 65.5587 1280.21 65.4838 1316.48 78.4088L1316.65 77.9378L1316.82 77.4668C1280.34 64.4687 1244.8 64.5466 1212.15 72.5204L1212.27 73.0062ZM1316.65 77.9378L1316.48 78.4088C1352.72 91.3188 1389.22 116.959 1424.47 159.408L1424.86 159.088L1425.24 158.769C1389.9 116.21 1353.25 90.4485 1316.82 77.4668L1316.65 77.9378ZM1424.86 159.088L1424.47 159.408C1459.72 201.854 1478.38 242.544 1484.69 280.689L1485.18 280.608L1485.68 280.526C1479.33 242.173 1460.58 201.324 1425.24 158.769L1424.86 159.088ZM1485.18 280.608L1484.69 280.689C1491.01 318.875 1484.86 353.845 1471.54 384.611L1472 384.81L1472.46 385.008C1485.84 354.087 1492.03 318.922 1485.68 280.526L1485.18 280.608ZM1472 384.81L1471.54 384.611C1446.81 441.773 1397.4 484.467 1356.71 508.195L1356.96 508.627L1357.21 509.059C1398.02 485.265 1447.62 442.429 1472.46 385.008L1472 384.81ZM1356.96 508.627L1356.49 508.795C1375.14 561.214 1394.46 646.125 1396.07 742.379L1396.57 742.37L1397.07 742.362C1395.46 645.995 1376.11 560.976 1357.43 508.46L1356.96 508.627ZM1396.57 742.37L1396.07 742.379C1397.77 844.336 1379.61 959.784 1318.95 1062.94L1319.38 1063.19L1319.81 1063.45C1380.6 960.086 1398.77 844.44 1397.07 742.362L1396.57 742.37ZM1319.38 1063.19L1318.95 1062.94L1318.61 1063.51L1319.04 1063.76L1319.47 1064.01L1319.81 1063.45L1319.38 1063.19ZM1319.04 1063.76L1318.65 1063.46L1318.25 1063.98L1318.65 1064.28L1319.04 1064.58L1319.44 1064.06L1319.04 1063.76ZM1318.65 1064.28L1318.25 1063.98C1270.68 1126.45 1131.46 1255.82 951.543 1276.77L951.601 1277.26L951.658 1277.76C1131.95 1256.77 1271.38 1127.17 1319.04 1064.58L1318.65 1064.28ZM951.601 1277.26L951.336 1276.84L742.943 1406.53L743.207 1406.96L743.471 1407.38L951.865 1277.69L951.601 1277.26ZM743.207 1406.96L742.943 1406.53L736.826 1410.34L737.09 1410.76L737.354 1411.19L743.471 1407.38L743.207 1406.96ZM737.09 1410.76L737.373 1410.35L731.439 1406.26L731.155 1406.68L730.872 1407.09L736.806 1411.17L737.09 1410.76ZM731.155 1406.68L731.439 1406.26L529.753 1267.36L529.47 1267.77L529.186 1268.18L730.872 1407.09L731.155 1406.68ZM529.47 1267.77L529.523 1267.27C506.453 1264.8 469.69 1258.42 430.126 1246.87L429.986 1247.35L429.846 1247.83C469.468 1259.4 506.289 1265.79 529.417 1268.27L529.47 1267.77ZM429.986 1247.35L430.126 1246.87C388.97 1234.85 344.061 1217.03 308.321 1191.68L308.031 1192.09L307.742 1192.5C343.61 1217.94 388.638 1235.8 429.846 1247.83L429.986 1247.35ZM308.031 1192.09H308.531V1192.09H308.031H307.531V1192.09H308.031ZM308.031 1192.09L308.316 1191.68C208.224 1122.4 91.025 987.556 65.1394 807.599L64.6445 807.67L64.1496 807.741C90.0851 988.045 207.493 1123.11 307.747 1192.5L308.031 1192.09ZM64.6445 807.67L65.1394 807.599C49.9523 702.017 66.3202 581.858 134.835 451.326L134.393 451.094L133.95 450.862C65.3426 581.569 48.9309 701.94 64.1496 807.741L64.6445 807.67ZM134.393 451.094L134.659 450.671C90.0826 422.664 37.1493 365.793 13.5038 297.421L13.0312 297.584L12.5587 297.748C36.2878 366.362 89.3829 423.405 134.127 451.517L134.393 451.094ZM13.0312 297.584L13.5038 297.421C0.829389 260.772 -3.54128 220.478 6.66391 179.469L6.17871 179.348L5.69351 179.227C-4.56685 220.458 -0.166544 260.952 12.5587 297.748L13.0312 297.584ZM6.17871 179.348L6.66391 179.469C16.8828 138.406 41.515 97.438 85.5048 59.1921L85.1768 58.8148L84.8487 58.4374C40.7268 96.7982 15.9688 137.937 5.69351 179.227L6.17871 179.348ZM254.824 22.9232L254.858 22.4243C194.546 18.3551 134.779 44.1788 99.2833 75.04L99.6113 75.4173L99.9394 75.7946C135.264 45.0824 194.778 19.373 254.791 23.422L254.824 22.9232ZM99.6113 75.4173L99.2833 75.04C58.0671 110.874 36.0757 148.24 27.0421 184.541L27.5273 184.661L28.0125 184.782C36.9897 148.708 58.8553 111.514 99.9394 75.7946L99.6113 75.4173ZM27.5273 184.661L27.0421 184.541C17.9953 220.895 21.7437 256.998 33.3497 290.557L33.8223 290.394L34.2948 290.23C22.7397 256.818 19.0209 220.915 28.0125 184.782L27.5273 184.661ZM33.8223 290.394L33.3497 290.557C55.1072 353.47 104.083 406.246 144.638 432.136L144.907 431.714L145.176 431.293C104.785 405.508 55.9689 352.902 34.2948 290.23L33.8223 290.394ZM144.907 431.714L145.343 431.959C194.155 344.841 266.287 253.261 367.725 158.446L367.384 158.08L367.042 157.715C265.544 252.588 193.342 344.247 144.471 431.47L144.907 431.714ZM367.384 158.08L367.725 158.446L370.896 155.482L370.555 155.117L370.213 154.751L367.042 157.715L367.384 158.08ZM370.555 155.117V155.617H387.285V155.117V154.617H370.555V155.117ZM387.285 155.117H386.785V177.117H387.285H387.785V155.117H387.285ZM387.285 177.117V176.617H379.244V177.117V177.617H387.285V177.117ZM379.244 177.117L378.902 176.752C122.91 417.323 61.2751 633.241 85.925 804.609L86.4199 804.537L86.9148 804.466C62.3237 633.507 123.762 417.895 379.587 177.481L379.244 177.117ZM86.4199 804.537L85.925 804.609C110.578 975.997 221.892 1105.54 318.098 1172.9L318.385 1172.49L318.672 1172.08C222.625 1104.83 111.518 975.51 86.9148 804.466L86.4199 804.537ZM318.385 1172.49L318.099 1172.9L320.368 1174.48L320.653 1174.07L320.939 1173.66L318.67 1172.08L318.385 1172.49ZM320.653 1174.07L320.371 1174.48L320.423 1174.52L320.706 1174.11L320.989 1173.69L320.936 1173.66L320.653 1174.07ZM320.706 1174.11L320.413 1174.51L320.466 1174.55L320.759 1174.14L321.052 1173.74L320.999 1173.7L320.706 1174.11ZM320.759 1174.14L320.47 1174.55C353.529 1198 395.953 1215.01 436.013 1226.71L436.153 1226.23L436.293 1225.75C396.286 1214.07 353.98 1197.1 321.048 1173.74L320.759 1174.14ZM436.153 1226.23L436.013 1226.71C475.993 1238.39 512.9 1244.56 534.416 1246.67L534.465 1246.17L534.513 1245.67C513.059 1243.57 476.214 1237.41 436.293 1225.75L436.153 1226.23ZM534.465 1246.17L534.416 1246.67L537.245 1246.94L537.294 1246.45L537.343 1245.95L534.514 1245.67L534.465 1246.17ZM537.294 1246.45L537.01 1246.86L539.35 1248.47L539.634 1248.06L539.917 1247.65L537.578 1246.03L537.294 1246.45ZM539.634 1248.06L539.35 1248.47L737.417 1384.88L737.7 1384.47L737.984 1384.06L539.917 1247.65L539.634 1248.06ZM737.7 1384.47L737.964 1384.89L942.347 1257.7L942.083 1257.28L941.819 1256.85L737.436 1384.05L737.7 1384.47ZM942.083 1257.28L942.347 1257.7L944.467 1256.38L944.203 1255.96L943.939 1255.53L941.819 1256.85L942.083 1257.28ZM944.203 1255.96L944.258 1256.45L946.74 1256.18L946.686 1255.68L946.631 1255.19L944.148 1255.46L944.203 1255.96ZM946.686 1255.68L946.741 1256.18C1119.52 1237.07 1254.89 1112.21 1301.14 1051.77L1300.75 1051.47L1300.35 1051.17C1254.18 1111.49 1119.03 1236.12 946.631 1255.19L946.686 1255.68ZM1300.75 1051.47L1301.18 1051.72C1359.04 953.02 1376.73 841.956 1375.07 742.729L1374.57 742.738L1374.07 742.746C1375.73 841.852 1358.06 952.719 1300.31 1051.22L1300.75 1051.47ZM1374.57 742.738L1375.07 742.729C1373.41 643.28 1352.32 556.485 1333.58 507.358L1333.12 507.536L1332.65 507.715C1351.35 556.735 1372.41 643.414 1374.07 742.746L1374.57 742.738ZM1333.12 507.536L1333.58 507.358L1330.13 498.314L1329.67 498.492L1329.2 498.671L1332.65 507.715L1333.12 507.536ZM1329.67 498.492L1329.9 498.933L1338.44 494.361L1338.2 493.92L1337.96 493.479L1329.43 498.052L1329.67 498.492ZM1338.2 493.92L1338.44 494.361C1377.89 473.223 1428.3 431.663 1452.27 376.271L1451.81 376.073L1451.35 375.874C1427.5 430.992 1377.29 472.408 1337.96 493.479L1338.2 493.92ZM1451.81 376.073L1452.27 376.271C1464.17 348.771 1469.56 317.879 1463.97 284.119L1463.48 284.201L1462.99 284.282C1468.54 317.831 1463.19 348.529 1451.35 375.874L1451.81 376.073ZM1463.48 284.201L1463.97 284.119C1458.38 250.319 1441.67 212.978 1408.32 172.824L1407.93 173.144L1407.55 173.463C1440.81 213.508 1457.42 250.689 1462.99 284.282L1463.48 284.201ZM1407.93 173.144L1408.32 172.824C1374.97 132.674 1341.44 109.596 1309.43 98.1904L1309.27 98.6614L1309.1 99.1324C1340.91 110.466 1374.29 133.422 1407.55 173.463L1407.93 173.144ZM1309.27 98.6614L1309.43 98.1904C1277.47 86.8007 1246.35 86.8134 1217.37 93.8915L1217.49 94.3773L1217.61 94.863C1246.42 87.8255 1277.34 87.8157 1309.1 99.1324L1309.27 98.6614ZM1217.49 94.3773L1217.37 93.8915C1163.71 107 1117.47 144.372 1088.84 178.006L1089.22 178.33L1089.6 178.654C1118.15 145.117 1164.22 107.905 1217.61 94.863L1217.49 94.3773ZM1089.22 178.33L1088.92 178.73C1094.12 182.637 1099.27 186.668 1104.39 190.823L1104.71 190.435L1105.02 190.047C1099.89 185.883 1094.73 181.845 1089.52 177.931L1089.22 178.33ZM1104.71 190.435L1104.39 190.823C1105.28 191.547 1106.18 192.275 1107.07 193.007L1107.38 192.62L1107.7 192.234C1106.81 191.501 1105.92 190.772 1105.02 190.047L1104.71 190.435ZM1107.38 192.62L1107 192.303L1093.05 209.316L1093.43 209.633L1093.82 209.95L1107.77 192.937L1107.38 192.62ZM1093.43 209.633L1093.75 209.247L1093.72 209.224L1093.41 209.611L1093.09 209.997L1093.12 210.019L1093.43 209.633ZM1093.41 209.611L1093.72 209.223L1091.16 207.128L1090.84 207.515L1090.53 207.902L1093.09 209.998L1093.41 209.611ZM1090.84 207.515L1091.16 207.127C1083.29 200.738 1075.32 194.66 1067.27 188.881L1066.98 189.287L1066.69 189.694C1074.72 195.461 1082.67 201.527 1090.53 207.903L1090.84 207.515ZM1066.98 189.287L1067.27 188.881C956.257 109.187 828.731 86.1279 713.365 90.2809L713.383 90.7806L713.401 91.2803C828.615 87.1328 955.903 110.164 1066.69 189.694L1066.98 189.287ZM713.383 90.7806L713.365 90.2809C597.915 94.4369 495.387 125.835 435.371 154.114L435.584 154.567L435.797 155.019C495.7 126.793 598.096 95.4311 713.401 91.2803L713.383 90.7806ZM435.584 154.567L436.036 154.354L435.342 152.88L434.89 153.093L434.437 153.306L435.132 154.78L435.584 154.567ZM434.89 153.093L434.526 152.749L434.031 153.273L434.395 153.617L434.758 153.96L435.253 153.437L434.89 153.093ZM434.395 153.617L434.032 153.273L426.466 161.258L426.829 161.602L427.192 161.946L434.758 153.96L434.395 153.617ZM426.829 161.602L427.173 161.239L417.673 152.239L417.329 152.602L416.985 152.965L426.485 161.965L426.829 161.602ZM417.329 152.602L417.673 152.239L416.084 150.734L415.74 151.097L415.396 151.46L416.985 152.965L417.329 152.602ZM415.74 151.097L416.197 150.893L415.305 148.894L414.849 149.098L414.392 149.302L415.284 151.301L415.74 151.097ZM414.849 149.098L415.305 148.894C375.392 59.4271 314.195 26.4279 254.858 22.4243L254.824 22.9232L254.791 23.422C313.736 27.3992 374.62 60.1521 414.392 149.302L414.849 149.098Z" fill="#1F4371"/>
<path d="M1179.89 256.616C1205.89 275.116 1263.09 328.116 1283.89 392.116" stroke="#1F4371" stroke-width="22"/>
<path d="M222.457 1113.5H1308.01V1547.57H1365.98C1354.59 1732.9 1327.25 1797.72 1308.01 1806.96H222.457C208.963 1806.71 178.376 1754.49 163.981 1547.57H222.457V1113.5Z" fill="#9DD0FA"/>
<path d="M222.457 1547.57H163.981C178.376 1754.49 208.963 1806.71 222.457 1806.96H1308.01C1327.25 1797.72 1354.59 1732.9 1365.98 1547.57H1308.01M222.457 1806.96V1547.57M1308.01 1806.96V1547.57M222.457 1547.57V1113.5H1308.01V1547.57" stroke="#1F4371" stroke-width="20"/>
<path d="M661.776 1535.58C718.753 1484.6 680.269 1452.11 661.776 1429.12C696.262 1374.39 808.716 1381.14 828.958 1429.12C789.974 1464.36 806.717 1511.34 828.958 1535.58C795.971 1597.8 676.021 1587.3 661.776 1535.58Z" fill="#FEFEFE"/>
<path d="M735.996 1359.4C731.498 1341.41 738.695 1305.42 803.468 1305.42C794.472 1332.66 768.383 1381.59 735.996 1359.4Z" fill="#FEFEFE"/>
</svg>
