<svg width="1562" height="1817" viewBox="0 0 1562 1817" fill="none" xmlns="http://www.w3.org/2000/svg">
<path d="M607.924 1254.12C65.5239 1154.52 122.591 672.949 218.924 444.616C20.1239 338.216 82.7573 172.949 138.924 103.616C334.924 -72.3842 462.257 54.9491 501.424 140.616C825.424 12.6158 1063.76 109.949 1142.42 174.616C1293.22 18.6157 1431.26 93.949 1481.42 151.116C1637.82 321.516 1502.92 456.782 1415.92 503.116C1592.32 1045.92 1227.76 1235.95 1023.42 1263.12L815.924 1390.12L607.924 1254.12Z" fill="#FEFEFE" stroke="black"/>
<path d="M322.925 733.118C294.125 860.318 374.591 881.116 418.424 879.116C485.424 866.616 551.425 849.116 524.425 733.117C495.562 609.116 336.17 674.619 322.925 733.118Z" fill="#FFE6E8"/>
<path d="M1131.42 804.115C1114.92 904.614 1192.42 946.116 1241.92 942.115C1382.42 930.758 1344.93 747.617 1283.42 726.116C1221.92 704.615 1147.92 703.616 1131.42 804.115Z" fill="#FFE6E8"/>
<path d="M322.925 733.118C294.125 860.318 374.591 881.116 418.424 879.116C485.424 866.616 551.425 849.116 524.425 733.117C495.562 609.116 336.17 674.619 322.925 733.118Z" stroke="#FFE6E8" stroke-width="2"/>
<path d="M1131.42 804.115C1114.92 904.614 1192.42 946.116 1241.92 942.115C1382.42 930.758 1344.93 747.617 1283.42 726.116C1221.92 704.615 1147.92 703.616 1131.42 804.115Z" stroke="#FFE6E8" stroke-width="2"/>
<path d="M844.424 724.116C814.757 703.949 774.424 662.116 850.424 656.116C884.09 659.783 930.023 678.516 844.424 724.116Z" fill="#1F4371" stroke="#1F4371" stroke-width="2"/>
<path d="M855.691 716.666C862.397 734.103 875.532 755.603 892.413 766.149C900.534 771.221 909.215 773.591 918.627 772.203C928.172 770.796 939.789 765.326 953.254 752.23L960.923 760.115L968.593 768C952.859 783.303 937.209 791.701 921.836 793.968C906.331 796.254 892.442 792.105 880.758 784.807C864.759 774.813 852.383 758.646 843.856 743.184C820.236 775.982 794.986 789.443 770.812 789.913C743.6 790.442 721.741 774.353 709.954 760.135L718.423 753.115L726.892 746.095C736.105 757.209 752.147 768.272 770.385 767.917C787.849 767.578 811.419 756.612 835.95 715.026L847.517 695.415L855.691 716.666ZM556.859 515.779C564.575 508.022 574.998 503.22 587.133 506.274C602.09 505.399 622.263 510.313 637.208 527.766C652.958 546.158 661.068 576.309 654.191 622.339C647.461 667.379 636.1 694.148 622.994 708.806C610.322 722.979 595.417 726.119 583.73 721.624C569.834 721.392 551.222 716.197 537.521 700.804C522.689 684.14 515.55 657.757 523.131 619.118C525.087 599.174 530.052 569.907 538.907 546.538C543.326 534.875 549.122 523.558 556.859 515.779ZM1073.51 566.489C1088.9 558.354 1104.72 560.942 1114.95 565.838L1115.93 566.318L1115.97 566.339L1116.01 566.36C1132.93 575.179 1155.63 605.41 1145.74 659.59C1140.89 686.185 1131.81 702.979 1120.74 712.576C1109.9 721.98 1097.74 723.852 1088.6 721.391C1076.79 719.58 1061.17 712.561 1049.97 697.351C1038.27 681.465 1032.38 658.04 1038.62 625.54C1044.76 593.57 1057.46 574.972 1073.51 566.489Z" fill="#1F4371"/>
<path d="M276.511 348.279L386.424 206.116C345.224 124.516 279.591 153.783 251.924 178.616C186.324 242.616 244.344 323.779 276.511 348.279Z" fill="#9DD0FA"/>
<path d="M1359.01 391.279L1269.42 255.116C1299.82 193.516 1363.76 219.783 1391.92 240.616C1445.92 306.216 1390.01 367.445 1359.01 391.279Z" fill="#9DD0FA"/>
<path d="M276.511 348.279L386.424 206.116C345.224 124.516 279.591 153.783 251.924 178.616C186.324 242.616 244.344 323.779 276.511 348.279Z" stroke="#9DD0FA" stroke-width="2"/>
<path d="M1359.01 391.279L1269.42 255.116C1299.82 193.516 1363.76 219.783 1391.92 240.616C1445.92 306.216 1390.01 367.445 1359.01 391.279Z" stroke="#9DD0FA" stroke-width="2"/>
<path d="M158.706 58.8148C197.883 24.7532 263.094 -3.52989 329.834 0.97296C395.725 5.4186 461.76 41.756 504.853 132.293C567.853 103.531 670.741 72.9487 786.121 68.7952C901.879 64.6282 1030.95 87.0537 1144.84 165.443C1175.34 129.168 1225.7 87.6873 1285.8 73.0062C1318.36 65.0527 1353.8 64.9762 1390.18 77.9378C1426.51 90.8837 1463.09 116.585 1498.39 159.088C1533.68 201.589 1552.38 242.359 1558.71 280.608C1565.05 318.898 1558.88 353.966 1545.53 384.81C1520.74 442.101 1471.24 484.866 1430.49 508.627C1449.15 561.095 1468.49 646.06 1470.1 742.37C1471.8 844.388 1453.63 959.935 1392.91 1063.19L1392.57 1063.76L1392.18 1064.28C1344.56 1126.81 1205.24 1256.3 1025.13 1277.26L816.736 1406.96L810.619 1410.76L804.685 1406.68L602.999 1267.77C579.9 1265.3 543.108 1258.91 503.516 1247.35C462.333 1235.32 417.365 1217.48 381.561 1192.09V1192.09C281.388 1122.75 164.084 987.8 138.174 807.67C122.971 701.979 139.361 581.713 207.922 451.094C163.262 423.035 110.248 366.077 86.5606 297.584C73.8607 260.862 69.4752 220.468 79.708 179.348C89.9551 138.171 114.65 97.1182 158.706 58.8148ZM328.354 22.9232C268.191 18.8641 208.551 44.6305 173.141 75.4173C131.99 111.194 110.062 148.474 101.057 184.661C92.0374 220.905 95.771 256.908 107.352 290.394C129.067 353.186 177.963 405.877 218.437 431.714C267.278 344.544 339.445 252.924 440.913 158.08L444.084 155.117H460.814V177.117H452.773C196.865 417.609 135.329 633.374 159.949 804.537C184.577 975.753 295.788 1105.18 391.914 1172.49L394.183 1174.07L394.235 1174.11L394.288 1174.14C427.284 1197.55 469.649 1214.54 509.683 1226.23C549.633 1237.9 586.509 1244.07 607.994 1246.17L610.823 1246.45L613.163 1248.06L811.229 1384.47L1015.61 1257.28L1017.73 1255.96L1020.21 1255.68C1192.8 1236.59 1328.06 1111.85 1374.27 1051.47C1432.08 952.87 1449.76 841.904 1448.1 742.738C1446.44 643.347 1425.36 556.61 1406.65 507.536L1403.2 498.492L1411.73 493.92C1451.12 472.815 1501.43 431.327 1525.34 376.073C1537.21 348.65 1542.58 317.855 1537.01 284.201C1531.43 250.504 1514.76 213.243 1481.46 173.144C1448.16 133.048 1414.7 110.031 1382.8 98.6614C1350.93 87.3082 1319.92 87.3194 1291.02 94.3773C1237.49 107.452 1191.34 144.745 1162.75 178.33C1167.95 182.241 1173.11 186.276 1178.24 190.435C1179.13 191.16 1180.02 191.888 1180.91 192.62L1166.96 209.633L1166.94 209.611L1164.37 207.515C1156.51 201.132 1148.55 195.06 1140.51 189.287C1029.61 109.675 902.202 86.6303 786.912 90.7806C671.534 94.934 569.073 126.314 509.113 154.567L508.419 153.093L507.924 153.617L500.358 161.602L490.858 152.602L489.27 151.097L488.378 149.098C448.535 59.7894 387.495 26.9136 328.354 22.9232Z" fill="#1F4371"/>
<path d="M158.706 58.8148L159.034 59.1921V59.1921L158.706 58.8148ZM329.834 0.97296L329.868 0.474094V0.474094L329.834 0.97296ZM504.853 132.293L504.401 132.508L504.613 132.952L505.06 132.748L504.853 132.293ZM786.121 68.7952L786.103 68.2955V68.2955L786.121 68.7952ZM1144.84 165.443L1144.56 165.855L1144.93 166.112L1145.22 165.764L1144.84 165.443ZM1285.8 73.0062L1285.68 72.5204V72.5204L1285.8 73.0062ZM1390.18 77.9378L1390.35 77.4668V77.4668L1390.18 77.9378ZM1498.39 159.088L1498.77 158.769V158.769L1498.39 159.088ZM1558.71 280.608L1559.21 280.526V280.526L1558.71 280.608ZM1545.53 384.81L1545.07 384.611V384.611L1545.53 384.81ZM1430.49 508.627L1430.24 508.195L1429.88 508.404L1430.02 508.795L1430.49 508.627ZM1470.1 742.37L1470.6 742.362V742.362L1470.1 742.37ZM1392.91 1063.19L1392.48 1062.94L1392.48 1062.94L1392.91 1063.19ZM1392.57 1063.76L1392.97 1064.06L1392.99 1064.04L1393 1064.01L1392.57 1063.76ZM1392.18 1064.28L1391.78 1063.98L1391.78 1063.98L1392.18 1064.28ZM1025.13 1277.26L1025.07 1276.77L1024.96 1276.78L1024.87 1276.84L1025.13 1277.26ZM816.736 1406.96L816.472 1406.53V1406.53L816.736 1406.96ZM810.619 1410.76L810.336 1411.17L810.605 1411.36L810.883 1411.19L810.619 1410.76ZM804.685 1406.68L804.401 1407.09V1407.09L804.685 1406.68ZM602.999 1267.77L603.283 1267.36L603.178 1267.29L603.052 1267.27L602.999 1267.77ZM503.516 1247.35L503.375 1247.83V1247.83L503.516 1247.35ZM381.561 1192.09H381.061V1192.35L381.271 1192.5L381.561 1192.09ZM381.561 1192.09H382.061V1191.83L381.845 1191.68L381.561 1192.09ZM138.174 807.67L137.679 807.741V807.741L138.174 807.67ZM207.922 451.094L208.365 451.326L208.58 450.917L208.188 450.671L207.922 451.094ZM86.5606 297.584L86.088 297.748V297.748L86.5606 297.584ZM79.708 179.348L79.2228 179.227H79.2228L79.708 179.348ZM328.354 22.9232L328.387 22.4243V22.4243L328.354 22.9232ZM173.141 75.4173L173.469 75.7946V75.7946L173.141 75.4173ZM101.057 184.661L100.571 184.541V184.541L101.057 184.661ZM107.352 290.394L106.879 290.557V290.557L107.352 290.394ZM218.437 431.714L218.168 432.136L218.614 432.421L218.873 431.959L218.437 431.714ZM440.913 158.08L440.572 157.715V157.715L440.913 158.08ZM444.084 155.117V154.617H443.887L443.743 154.751L444.084 155.117ZM460.814 155.117H461.314V154.617H460.814V155.117ZM460.814 177.117V177.617H461.314V177.117H460.814ZM452.773 177.117V176.617H452.575L452.431 176.752L452.773 177.117ZM159.949 804.537L159.454 804.609V804.609L159.949 804.537ZM391.914 1172.49L391.627 1172.9L391.628 1172.9L391.914 1172.49ZM394.183 1174.07L393.897 1174.48L393.9 1174.48L394.183 1174.07ZM394.235 1174.11L394.528 1173.7L394.518 1173.69L394.235 1174.11ZM394.288 1174.14L393.995 1174.55L393.999 1174.55L394.288 1174.14ZM509.683 1226.23L509.823 1225.75V1225.75L509.683 1226.23ZM607.994 1246.17L608.043 1245.67H608.043L607.994 1246.17ZM610.823 1246.45L611.107 1246.03L611.001 1245.96L610.872 1245.95L610.823 1246.45ZM613.163 1248.06L613.447 1247.65V1247.65L613.163 1248.06ZM811.229 1384.47L810.946 1384.88L811.216 1385.07L811.494 1384.89L811.229 1384.47ZM1015.61 1257.28L1015.88 1257.7L1015.88 1257.7L1015.61 1257.28ZM1017.73 1255.96L1017.68 1255.46L1017.56 1255.47L1017.47 1255.53L1017.73 1255.96ZM1020.21 1255.68L1020.27 1256.18V1256.18L1020.21 1255.68ZM1374.27 1051.47L1374.67 1051.77L1374.69 1051.75L1374.71 1051.72L1374.27 1051.47ZM1448.1 742.738L1447.6 742.746V742.746L1448.1 742.738ZM1406.65 507.536L1407.11 507.358V507.358L1406.65 507.536ZM1403.2 498.492L1402.96 498.052L1402.57 498.26L1402.73 498.671L1403.2 498.492ZM1411.73 493.92L1411.49 493.479V493.479L1411.73 493.92ZM1525.34 376.073L1525.8 376.271V376.271L1525.34 376.073ZM1537.01 284.201L1537.5 284.119V284.119L1537.01 284.201ZM1481.46 173.144L1481.85 172.824V172.824L1481.46 173.144ZM1382.8 98.6614L1382.96 98.1904V98.1904L1382.8 98.6614ZM1291.02 94.3773L1290.9 93.8915V93.8915L1291.02 94.3773ZM1162.75 178.33L1162.37 178.006L1162.03 178.411L1162.45 178.73L1162.75 178.33ZM1178.24 190.435L1178.55 190.047V190.047L1178.24 190.435ZM1180.91 192.62L1181.3 192.937L1181.62 192.551L1181.23 192.234L1180.91 192.62ZM1166.96 209.633L1166.65 210.019L1167.03 210.337L1167.35 209.95L1166.96 209.633ZM1166.94 209.611L1167.25 209.224L1167.25 209.223L1166.94 209.611ZM1164.37 207.515L1164.69 207.128L1164.69 207.127L1164.37 207.515ZM1140.51 189.287L1140.8 188.881V188.881L1140.51 189.287ZM786.912 90.7806L786.894 90.2809V90.2809L786.912 90.7806ZM509.113 154.567L508.661 154.78L508.874 155.232L509.326 155.019L509.113 154.567ZM508.419 153.093L508.871 152.88L508.559 152.217L508.056 152.749L508.419 153.093ZM507.924 153.617L508.287 153.96L508.287 153.96L507.924 153.617ZM500.358 161.602L500.015 161.965L500.378 162.309L500.721 161.946L500.358 161.602ZM490.858 152.602L491.202 152.239L491.202 152.239L490.858 152.602ZM489.27 151.097L488.813 151.301L488.853 151.392L488.926 151.46L489.27 151.097ZM488.378 149.098L488.835 148.894V148.894L488.378 149.098ZM158.706 58.8148L159.034 59.1921C198.126 25.2049 263.209 -3.02094 329.8 1.47183L329.834 0.97296L329.868 0.474094C262.978 -4.03885 197.641 24.3014 158.378 58.4374L158.706 58.8148ZM329.834 0.97296L329.8 1.47183C395.502 5.90474 461.382 42.1265 504.401 132.508L504.853 132.293L505.304 132.078C462.137 41.3854 395.947 4.93246 329.868 0.474094L329.834 0.97296ZM504.853 132.293L505.06 132.748C568.006 104.011 670.83 73.4458 786.139 69.2949L786.121 68.7952L786.103 68.2955C670.653 72.4516 567.7 103.051 504.645 131.838L504.853 132.293ZM786.121 68.7952L786.139 69.2949C901.823 65.1306 1030.78 87.5428 1144.56 165.855L1144.84 165.443L1145.12 165.031C1031.12 86.5646 901.935 64.1259 786.103 68.2955L786.121 68.7952ZM1144.84 165.443L1145.22 165.764C1175.68 129.539 1225.96 88.1395 1285.92 73.4919L1285.8 73.0062L1285.68 72.5204C1225.44 87.2352 1175 128.797 1144.46 165.121L1144.84 165.443ZM1285.8 73.0062L1285.92 73.4919C1318.4 65.5587 1353.74 65.4838 1390.01 78.4088L1390.18 77.9378L1390.35 77.4668C1353.87 64.4687 1318.33 64.5466 1285.68 72.5204L1285.8 73.0062ZM1390.18 77.9378L1390.01 78.4088C1426.25 91.3188 1462.75 116.959 1498 159.408L1498.39 159.088L1498.77 158.769C1463.43 116.21 1426.78 90.4485 1390.35 77.4668L1390.18 77.9378ZM1498.39 159.088L1498 159.408C1533.25 201.854 1551.91 242.544 1558.22 280.689L1558.71 280.608L1559.21 280.526C1552.86 242.173 1534.11 201.324 1498.77 158.769L1498.39 159.088ZM1558.71 280.608L1558.22 280.689C1564.54 318.875 1558.39 353.845 1545.07 384.611L1545.53 384.81L1545.99 385.008C1559.37 354.087 1565.56 318.922 1559.21 280.526L1558.71 280.608ZM1545.53 384.81L1545.07 384.611C1520.34 441.773 1470.93 484.467 1430.24 508.195L1430.49 508.627L1430.74 509.059C1471.55 485.265 1521.14 442.429 1545.99 385.008L1545.53 384.81ZM1430.49 508.627L1430.02 508.795C1448.67 561.214 1467.99 646.125 1469.6 742.379L1470.1 742.37L1470.6 742.362C1468.99 645.995 1449.64 560.976 1430.96 508.46L1430.49 508.627ZM1470.1 742.37L1469.6 742.379C1471.3 844.336 1453.14 959.784 1392.48 1062.94L1392.91 1063.19L1393.34 1063.45C1454.12 960.086 1472.3 844.44 1470.6 742.362L1470.1 742.37ZM1392.91 1063.19L1392.48 1062.94L1392.14 1063.51L1392.57 1063.76L1393 1064.01L1393.34 1063.45L1392.91 1063.19ZM1392.57 1063.76L1392.18 1063.46L1391.78 1063.98L1392.18 1064.28L1392.57 1064.58L1392.97 1064.06L1392.57 1063.76ZM1392.18 1064.28L1391.78 1063.98C1344.21 1126.45 1204.99 1255.82 1025.07 1276.77L1025.13 1277.26L1025.19 1277.76C1205.48 1256.77 1344.91 1127.17 1392.57 1064.58L1392.18 1064.28ZM1025.13 1277.26L1024.87 1276.84L816.472 1406.53L816.736 1406.96L817.001 1407.38L1025.39 1277.69L1025.13 1277.26ZM816.736 1406.96L816.472 1406.53L810.355 1410.34L810.619 1410.76L810.883 1411.19L817.001 1407.38L816.736 1406.96ZM810.619 1410.76L810.903 1410.35L804.968 1406.26L804.685 1406.68L804.401 1407.09L810.336 1411.17L810.619 1410.76ZM804.685 1406.68L804.968 1406.26L603.283 1267.36L602.999 1267.77L602.715 1268.18L804.401 1407.09L804.685 1406.68ZM602.999 1267.77L603.052 1267.27C579.982 1264.8 543.219 1258.42 503.656 1246.87L503.516 1247.35L503.375 1247.83C542.997 1259.4 579.819 1265.79 602.946 1268.27L602.999 1267.77ZM503.516 1247.35L503.656 1246.87C462.499 1234.85 417.59 1217.03 381.85 1191.68L381.561 1192.09L381.271 1192.5C417.139 1217.94 462.167 1235.8 503.375 1247.83L503.516 1247.35ZM381.561 1192.09H382.061V1192.09H381.561H381.061V1192.09H381.561ZM381.561 1192.09L381.845 1191.68C281.753 1122.4 164.554 987.556 138.669 807.599L138.174 807.67L137.679 807.741C163.614 988.045 281.023 1123.11 381.276 1192.5L381.561 1192.09ZM138.174 807.67L138.669 807.599C123.482 702.017 139.85 581.858 208.365 451.326L207.922 451.094L207.479 450.862C138.872 581.569 122.46 701.94 137.679 807.741L138.174 807.67ZM207.922 451.094L208.188 450.671C163.612 422.664 110.679 365.793 87.0331 297.421L86.5606 297.584L86.088 297.748C109.817 366.362 162.912 423.405 207.656 451.517L207.922 451.094ZM86.5606 297.584L87.0331 297.421C74.3586 260.772 69.988 220.478 80.1932 179.469L79.708 179.348L79.2228 179.227C68.9624 220.458 73.3627 260.952 86.088 297.748L86.5606 297.584ZM79.708 179.348L80.1932 179.469C90.412 138.406 115.044 97.4381 159.034 59.1921L158.706 58.8148L158.378 58.4374C114.256 96.7983 89.4981 137.937 79.2228 179.227L79.708 179.348ZM328.354 22.9232L328.387 22.4243C268.075 18.3551 208.309 44.1787 172.813 75.04L173.141 75.4173L173.469 75.7946C208.793 45.0823 268.307 19.373 328.32 23.422L328.354 22.9232ZM173.141 75.4173L172.813 75.04C131.596 110.875 109.605 148.24 100.571 184.541L101.057 184.661L101.542 184.782C110.519 148.708 132.385 111.514 173.469 75.7946L173.141 75.4173ZM101.057 184.661L100.571 184.541C91.5246 220.895 95.273 256.998 106.879 290.557L107.352 290.394L107.824 290.23C96.269 256.818 92.5502 220.915 101.542 184.782L101.057 184.661ZM107.352 290.394L106.879 290.557C128.637 353.47 177.612 406.246 218.168 432.136L218.437 431.714L218.706 431.293C178.314 405.508 129.498 352.902 107.824 290.23L107.352 290.394ZM218.437 431.714L218.873 431.959C267.685 344.841 339.817 253.261 441.255 158.446L440.913 158.08L440.572 157.715C339.073 252.588 266.871 344.247 218 431.47L218.437 431.714ZM440.913 158.08L441.255 158.446L444.425 155.482L444.084 155.117L443.743 154.751L440.572 157.715L440.913 158.08ZM444.084 155.117V155.617H460.814V155.117V154.617H444.084V155.117ZM460.814 155.117H460.314V177.117H460.814H461.314V155.117H460.814ZM460.814 177.117V176.617H452.773V177.117V177.617H460.814V177.117ZM452.773 177.117L452.431 176.752C196.439 417.323 134.804 633.241 159.454 804.609L159.949 804.537L160.444 804.466C135.853 633.507 197.291 417.895 453.116 177.481L452.773 177.117ZM159.949 804.537L159.454 804.609C184.107 975.997 295.421 1105.54 391.627 1172.9L391.914 1172.49L392.201 1172.08C296.155 1104.83 185.048 975.51 160.444 804.466L159.949 804.537ZM391.914 1172.49L391.628 1172.9L393.897 1174.48L394.183 1174.07L394.468 1173.66L392.2 1172.08L391.914 1172.49ZM394.183 1174.07L393.9 1174.48L393.953 1174.52L394.235 1174.11L394.518 1173.69L394.465 1173.66L394.183 1174.07ZM394.235 1174.11L393.943 1174.51L393.995 1174.55L394.288 1174.14L394.581 1173.74L394.528 1173.7L394.235 1174.11ZM394.288 1174.14L393.999 1174.55C427.058 1198 469.483 1215.01 509.542 1226.71L509.683 1226.23L509.823 1225.75C469.815 1214.07 427.509 1197.1 394.577 1173.74L394.288 1174.14ZM509.683 1226.23L509.542 1226.71C549.523 1238.39 586.429 1244.56 607.946 1246.67L607.994 1246.17L608.043 1245.67C586.589 1243.57 549.743 1237.41 509.823 1225.75L509.683 1226.23ZM607.994 1246.17L607.945 1246.67L610.774 1246.94L610.823 1246.45L610.872 1245.95L608.043 1245.67L607.994 1246.17ZM610.823 1246.45L610.54 1246.86L612.88 1248.47L613.163 1248.06L613.447 1247.65L611.107 1246.03L610.823 1246.45ZM613.163 1248.06L612.88 1248.47L810.946 1384.88L811.229 1384.47L811.513 1384.06L613.447 1247.65L613.163 1248.06ZM811.229 1384.47L811.494 1384.89L1015.88 1257.7L1015.61 1257.28L1015.35 1256.85L810.965 1384.05L811.229 1384.47ZM1015.61 1257.28L1015.88 1257.7L1018 1256.38L1017.73 1255.96L1017.47 1255.53L1015.35 1256.85L1015.61 1257.28ZM1017.73 1255.96L1017.79 1256.45L1020.27 1256.18L1020.21 1255.68L1020.16 1255.19L1017.68 1255.46L1017.73 1255.96ZM1020.21 1255.68L1020.27 1256.18C1193.05 1237.07 1328.41 1112.21 1374.67 1051.77L1374.27 1051.47L1373.88 1051.17C1327.71 1111.49 1192.56 1236.12 1020.16 1255.19L1020.21 1255.68ZM1374.27 1051.47L1374.71 1051.72C1432.57 953.02 1450.26 841.956 1448.6 742.729L1448.1 742.738L1447.6 742.746C1449.26 841.852 1431.59 952.719 1373.84 1051.22L1374.27 1051.47ZM1448.1 742.738L1448.6 742.729C1446.94 643.28 1425.85 556.486 1407.11 507.358L1406.65 507.536L1406.18 507.715C1424.88 556.735 1445.94 643.415 1447.6 742.746L1448.1 742.738ZM1406.65 507.536L1407.11 507.358L1403.66 498.314L1403.2 498.492L1402.73 498.671L1406.18 507.715L1406.65 507.536ZM1403.2 498.492L1403.43 498.933L1411.97 494.361L1411.73 493.92L1411.49 493.479L1402.96 498.052L1403.2 498.492ZM1411.73 493.92L1411.97 494.361C1451.42 473.223 1501.83 431.663 1525.8 376.271L1525.34 376.073L1524.88 375.874C1501.03 430.992 1450.82 472.408 1411.49 493.479L1411.73 493.92ZM1525.34 376.073L1525.8 376.271C1537.7 348.771 1543.09 317.879 1537.5 284.119L1537.01 284.201L1536.51 284.282C1542.07 317.831 1536.72 348.529 1524.88 375.874L1525.34 376.073ZM1537.01 284.201L1537.5 284.119C1531.91 250.319 1515.19 212.978 1481.85 172.824L1481.46 173.144L1481.08 173.463C1514.33 213.508 1530.95 250.689 1536.51 284.282L1537.01 284.201ZM1481.46 173.144L1481.85 172.824C1448.5 132.674 1414.97 109.596 1382.96 98.1904L1382.8 98.6614L1382.63 99.1324C1414.44 110.466 1447.82 133.422 1481.08 173.463L1481.46 173.144ZM1382.8 98.6614L1382.96 98.1904C1351 86.8006 1319.88 86.8134 1290.9 93.8915L1291.02 94.3773L1291.14 94.863C1319.95 87.8255 1350.87 87.8157 1382.63 99.1324L1382.8 98.6614ZM1291.02 94.3773L1290.9 93.8915C1237.24 107 1191 144.372 1162.37 178.006L1162.75 178.33L1163.13 178.654C1191.68 145.117 1237.75 107.905 1291.14 94.863L1291.02 94.3773ZM1162.75 178.33L1162.45 178.73C1167.64 182.637 1172.8 186.668 1177.92 190.823L1178.24 190.435L1178.55 190.047C1173.42 185.883 1168.26 181.845 1163.05 177.931L1162.75 178.33ZM1178.24 190.435L1177.92 190.823C1178.81 191.547 1179.7 192.275 1180.59 193.007L1180.91 192.62L1181.23 192.234C1180.34 191.501 1179.45 190.772 1178.55 190.047L1178.24 190.435ZM1180.91 192.62L1180.53 192.303L1166.58 209.316L1166.96 209.633L1167.35 209.95L1181.3 192.937L1180.91 192.62ZM1166.96 209.633L1167.28 209.247L1167.25 209.224L1166.94 209.611L1166.62 209.997L1166.65 210.019L1166.96 209.633ZM1166.94 209.611L1167.25 209.223L1164.69 207.128L1164.37 207.515L1164.05 207.902L1166.62 209.998L1166.94 209.611ZM1164.37 207.515L1164.69 207.127C1156.82 200.738 1148.85 194.66 1140.8 188.881L1140.51 189.287L1140.22 189.694C1148.25 195.461 1156.2 201.527 1164.06 207.903L1164.37 207.515ZM1140.51 189.287L1140.8 188.881C1029.79 109.187 902.261 86.1279 786.894 90.2809L786.912 90.7806L786.93 91.2803C902.144 87.1328 1029.43 110.164 1140.22 189.694L1140.51 189.287ZM786.912 90.7806L786.894 90.2809C671.444 94.4369 568.916 125.835 508.9 154.114L509.113 154.567L509.326 155.019C569.229 126.793 671.625 95.4311 786.93 91.2803L786.912 90.7806ZM509.113 154.567L509.566 154.354L508.871 152.88L508.419 153.093L507.967 153.306L508.661 154.78L509.113 154.567ZM508.419 153.093L508.056 152.749L507.561 153.273L507.924 153.617L508.287 153.96L508.782 153.437L508.419 153.093ZM507.924 153.617L507.561 153.273L499.995 161.258L500.358 161.602L500.721 161.946L508.287 153.96L507.924 153.617ZM500.358 161.602L500.702 161.239L491.202 152.239L490.858 152.602L490.515 152.965L500.015 161.965L500.358 161.602ZM490.858 152.602L491.202 152.239L489.613 150.734L489.27 151.097L488.926 151.46L490.515 152.965L490.858 152.602ZM489.27 151.097L489.726 150.893L488.835 148.894L488.378 149.098L487.921 149.302L488.813 151.301L489.27 151.097ZM488.378 149.098L488.835 148.894C448.921 59.4269 387.725 26.4279 328.387 22.4243L328.354 22.9232L328.32 23.422C387.266 27.3992 448.15 60.1519 487.921 149.302L488.378 149.098Z" fill="#1F4371"/>
<path d="M1253.42 256.616C1279.42 275.116 1336.62 328.116 1357.42 392.116" stroke="#1F4371" stroke-width="22"/>
<path d="M407.059 445.616C448.103 400.963 529.463 366.084 607.735 374.736C647.026 379.079 685.655 394.406 717.971 425.065C750.275 455.712 775.971 501.391 789.92 565.949C800.419 614.537 782.761 690.724 736.472 748.332C690.399 805.673 615.73 844.899 511.914 820.93L385.518 1045.78C379.694 1061.62 368.146 1070 354.625 1072.57C341.305 1075.11 326.398 1072.01 313.281 1065.89C300.145 1059.77 288.184 1050.35 280.878 1039.49C273.542 1028.58 270.545 1015.52 277.131 1003.23L404.448 764.085C354.411 719.468 300.513 595 406.669 446.097L406.849 445.845L407.059 445.616ZM588.878 433.385C335.313 433.385 359.528 750.1 544.981 771.539C812.931 802.515 801.15 433.385 588.878 433.385Z" fill="#1F4371"/>
<path d="M447.509 1096C447.509 1184.5 459.509 1167.5 447.509 1223C534.01 1263.12 553.176 1260.62 600.51 1263.12L813.01 1407.5L1024.01 1274C1133.21 1268 1275.34 1176 1327.01 1134C1502.21 1286.8 1520.44 1539.62 1509.44 1649.12C1371.84 1735.92 1300.1 1752.28 1281.44 1749.62C913.035 1874.82 485.935 1765.78 318.435 1695.62L357.436 1514.5C318.436 1549 -285.491 1821.5 168.01 1050C279.61 1065.2 420.176 1119 447.509 1096Z" fill="#4EA9FE"/>
<path d="M266.01 856C153.509 944 141.342 1022 221.509 1071.5C359.109 1095.1 474.009 1102 488.509 1071.5C524.509 1007.1 506.176 950.333 488.509 923.5C441.509 824 325.509 834 266.01 856Z" fill="#FEFEFE" stroke="black"/>
<path d="M1325.42 1135.12C1395.92 1189.62 1531.52 1358.12 1509.92 1596.12V1652.62C1509.92 1652.62 1420.92 1707.95 1325.42 1745.12C1262.92 1769.44 1283.92 1745.12 1283.92 1652.62" stroke="#1F4371" stroke-width="20"/>
<path d="M450.51 1098.5C450.241 1092.46 449.861 1086.62 449.385 1081C509.01 1081 504.01 970.5 493.51 942.5C483.01 914.5 481.258 884.629 419.51 856C364.51 830.5 313.423 825 274.51 846C235.891 866.841 125.731 997.5 175.04 1018.5C175.04 1018.5 172.693 1032.5 170.238 1039C135.911 1129.89 -54.2494 1535.2 40.0096 1566C182.01 1588.28 183.808 1576.67 354.011 1519L313.423 1691.62C459.09 1763.12 857.023 1875.12 1283.42 1751.12L1262.92 1548.62M40.0096 1566C381.01 1619.5 457.986 1266.46 450.51 1098.5M450.51 1098.5C383.089 1103.33 232.646 1098.2 170.238 1039" stroke="#1F4371" stroke-width="20"/>
</svg>
