<svg width="520" height="701" viewBox="0 0 520 701" fill="none" xmlns="http://www.w3.org/2000/svg">
<path d="M133.573 72.2056C174.617 27.552 255.978 -7.32665 334.25 1.32478C373.541 5.66771 412.17 20.9947 444.486 51.6539C476.789 82.3012 502.484 127.981 516.434 192.539C526.933 241.126 509.275 317.313 462.986 374.921C416.913 432.262 342.245 471.488 238.428 447.519L112.032 672.369C106.208 688.21 94.6608 696.586 81.1392 699.164C67.8197 701.703 52.9127 698.595 39.7954 692.482C26.6593 686.361 14.6972 676.941 7.39113 666.076C0.0552222 655.166 -2.9409 642.108 3.64504 629.82L130.962 390.675C80.9257 346.058 27.027 221.589 133.184 72.6861L133.364 72.4342L133.573 72.2056ZM315.392 59.9742C61.827 59.9742 86.0424 376.689 271.496 398.128C539.445 429.104 527.664 59.9743 315.392 59.9742Z" fill="#1F4371"/>
</svg>
