<svg width="3181" height="666" viewBox="0 0 3181 666" fill="none" xmlns="http://www.w3.org/2000/svg">
<path d="M1850.84 260.182C1892.34 -82.8175 2206.72 -9.81786 2254.84 64.6819C2285.84 112.682 2228.84 151.182 2191.34 129.682C2170.54 100.482 2120.34 91.1819 2094.84 91.1819C1976.44 93.5819 1936.83 219.182 1946.34 278.182C1980.84 492.182 2150.84 431.682 2191.34 375.182V323.182H2094.84C2063.34 307.682 2072.34 249.182 2094.84 238.182H2272.34C2319.34 238.182 2308.34 311.682 2299.34 314.682C2282.54 315.482 2282.84 316.182 2282.84 323.182C2299.34 472.682 2142.84 520.682 2069.34 520.682C1904.84 520.682 1839.89 350.682 1850.84 260.182Z" fill="#4CA9FF"/>
<path d="M2583.84 193.682L2515.84 375.182C2509.04 405.982 2496.51 388.015 2491.34 375.182L2409.84 190.182C2359.34 166.182 2325.84 213.682 2340.84 246.182L2453.84 489.682C2453.84 536.182 2411.84 576.682 2378.34 586.182C2351.23 593.87 2349.34 665.182 2413.84 665.182C2515.84 665.182 2583.84 407.682 2643.34 263.182L2660.84 215.682C2653.84 174.682 2597.34 178.682 2583.84 193.682Z" fill="#4CA9FF"/>
<path d="M2708.84 489.682V210.182C2726.34 162.682 2780.84 184.682 2785.84 203.682C2789 215.682 2804.34 215.682 2807.34 203.682C2858.84 145.182 2924.51 194.182 2945.34 215.682C2958.42 229.182 2955.62 231.749 2970.34 215.682C3057.34 120.682 3165.34 212.182 3180.34 262.682V484.682C3180.34 520.182 3091.34 513.682 3091.34 484.682V299.682C3073.34 237.182 2985.34 276.182 2985.34 307.682V484.682C2985.34 515.682 2901.84 509.682 2901.84 484.682V307.682C2866.84 227.182 2791.34 281.682 2793.34 307.682V489.682C2793.34 523.682 2708.84 519.182 2708.84 489.682Z" fill="#4CA9FF"/>
<path d="M1850.84 260.182C1892.34 -82.8175 2206.72 -9.81786 2254.84 64.6819C2285.84 112.682 2228.84 151.182 2191.34 129.682C2170.54 100.482 2120.34 91.1819 2094.84 91.1819C1976.44 93.5819 1936.83 219.182 1946.34 278.182C1980.84 492.182 2150.84 431.682 2191.34 375.182V323.182H2094.84C2063.34 307.682 2072.34 249.182 2094.84 238.182H2272.34C2319.34 238.182 2308.34 311.682 2299.34 314.682C2282.54 315.482 2282.84 316.182 2282.84 323.182C2299.34 472.682 2142.84 520.682 2069.34 520.682C1904.84 520.682 1839.89 350.682 1850.84 260.182Z" stroke="#4CA9FF"/>
<path d="M2583.84 193.682L2515.84 375.182C2509.04 405.982 2496.51 388.015 2491.34 375.182L2409.84 190.182C2359.34 166.182 2325.84 213.682 2340.84 246.182L2453.84 489.682C2453.84 536.182 2411.84 576.682 2378.34 586.182C2351.23 593.87 2349.34 665.182 2413.84 665.182C2515.84 665.182 2583.84 407.682 2643.34 263.182L2660.84 215.682C2653.84 174.682 2597.34 178.682 2583.84 193.682Z" stroke="#4CA9FF"/>
<path d="M2708.84 489.682V210.182C2726.34 162.682 2780.84 184.682 2785.84 203.682C2789 215.682 2804.34 215.682 2807.34 203.682C2858.84 145.182 2924.51 194.182 2945.34 215.682C2958.42 229.182 2955.62 231.749 2970.34 215.682C3057.34 120.682 3165.34 212.182 3180.34 262.682V484.682C3180.34 520.182 3091.34 513.682 3091.34 484.682V299.682C3073.34 237.182 2985.34 276.182 2985.34 307.682V484.682C2985.34 515.682 2901.84 509.682 2901.84 484.682V307.682C2866.84 227.182 2791.34 281.682 2793.34 307.682V489.682C2793.34 523.682 2708.84 519.182 2708.84 489.682Z" stroke="#4CA9FF"/>
<path d="M798.338 447.182V33.6821C808.838 -19.3179 883.838 5.18212 883.838 33.6821V409.682C883.838 439.682 938.338 429.682 938.338 459.182C938.338 488.682 922.838 512.182 883.838 512.182C828.338 512.182 798.338 465.682 798.338 447.182Z" fill="#01478A" stroke="#01478A"/>
<path d="M544.34 166.682C640.145 166.683 679.626 235.256 688.326 274.073L688.339 274.126V418.466L716.182 444.819L716.26 444.892L716.301 444.991C722.335 459.575 722.712 471.605 719.642 481.186C716.574 490.764 710.078 497.838 702.475 502.544C694.877 507.248 686.154 509.602 678.581 509.737C671.042 509.871 664.492 507.801 661.43 503.471C651.17 488.956 644.061 479.815 638.243 475.265C635.345 472.999 632.816 471.913 630.42 471.832C628.03 471.751 625.683 472.666 623.139 474.582C580.588 506.62 551.484 516.682 521.839 516.682H521.821C488.292 515.478 456.56 500.8 432.538 483.123C420.524 474.282 410.426 464.681 402.985 455.623C395.554 446.576 390.737 438.026 389.348 431.283C385.137 410.828 384.331 386.659 384.977 365.554C385.624 344.45 387.725 326.371 389.347 318.086C394.861 289.935 409.609 252.105 434.967 221.302C460.331 190.49 496.338 166.682 544.34 166.682ZM604.839 302.682C596.439 260.682 555.005 250.515 538.339 251.682C497.139 251.682 473.839 302.682 464.339 327.182C457.165 345.682 462.339 381.015 464.339 390.682C467.959 408.182 481.139 437.682 530.339 437.682C579.539 437.682 600.505 409.682 604.839 395.682C608.339 382.182 613.239 344.682 604.839 302.682Z" fill="#01478A"/>
<path d="M1161.34 165.682C1184.89 165.682 1221.37 170.817 1251.98 189.696C1282.61 208.595 1307.34 241.254 1307.34 296.19C1307.34 316.084 1298.65 335.327 1285.33 349.594C1272.01 363.86 1254.01 373.19 1235.34 373.19C1189.15 373.19 1113.37 373.519 1080.78 373.193C1079.89 381.555 1084.28 392.288 1092.72 402.775C1101.29 413.425 1113.96 423.738 1129.24 430.925C1159.77 445.291 1200.69 447.166 1240.02 414.306C1246.49 408.903 1254.58 408.272 1262.33 410.919C1270.06 413.564 1277.48 419.484 1282.71 427.252C1287.94 435.025 1290.99 444.677 1289.94 454.801C1288.9 464.934 1283.75 475.49 1272.67 485.068C1259.07 496.815 1220.45 518.19 1161.34 518.19H1161.33C1132.09 517.689 1088.29 508.795 1051.88 483.727C1015.45 458.641 986.437 417.366 986.838 352.187C987.339 270.783 1019.66 224.125 1057.54 197.837C1095.4 171.572 1138.76 165.682 1161.34 165.682ZM1159.34 240.181C1098.54 239.381 1083.84 287.516 1082.34 310.183H1222.84C1222.84 284.184 1220.14 240.981 1159.34 240.181Z" fill="#01478A"/>
<path d="M305.338 440.681C188.538 575.481 14.3386 479.182 3.8384 440.681C-13.6163 376.682 41.3383 366.682 76.8384 399.182C137.816 455.006 208.774 440.681 239.838 399.182C255.183 378.682 251.538 357.182 239.838 337.682C223.938 311.182 185.338 299.182 148.338 291.182C83.7782 277.223 49.2079 246.051 36.3384 233.182C-23.1616 173.682 11.8384 75.5815 41.3384 52.1815C159.338 -41.4185 269.505 13.1812 308.338 52.1815C328.253 72.1821 297.338 148.182 247.838 107.182C234.595 96.2127 222.505 88.1814 209.338 84.1814L179.5 80L148.338 84.1814C49.5384 137.781 99.3383 196.919 144.838 204.682C229.238 219.082 285.172 262.349 302.338 280.682C351.498 333.182 322.838 414.015 305.338 440.681Z" fill="#01478A" stroke="#01478A"/>
<path d="M1607.84 476.182C1526.52 559.219 1386.96 495.211 1379.34 467.182C1366.67 420.589 1414.52 405.587 1443.84 424.682C1489.13 454.182 1513.34 452.182 1539.84 435.682C1555.65 425.838 1560.33 409.379 1551.84 395.182C1540.3 375.889 1515.7 375.006 1488.84 369.182C1441.97 359.02 1411.18 336.551 1401.84 327.182C1358.64 283.865 1392.57 210.843 1413.99 193.808C1491.84 131.885 1595.27 173.182 1614.84 203.682C1631.84 230.182 1611.34 272.182 1562.84 254.682C1551.08 250.44 1545.9 242.594 1536.34 239.682L1491.84 237.182C1435.84 267.182 1476.55 296.368 1498.84 300.182C1560.11 310.666 1595.37 335.835 1607.84 349.182C1643.53 387.404 1620.54 456.768 1607.84 476.182Z" fill="#01478A" stroke="#01478A"/>
</svg>
