<svg width="1636" height="2606" viewBox="0 0 1636 2606" fill="none" xmlns="http://www.w3.org/2000/svg">
<path d="M634.912 2042.62C92.5122 1943.02 149.579 1461.45 245.912 1233.12C47.1122 1126.72 109.746 961.45 165.912 892.116C361.912 716.116 489.246 843.45 528.412 929.116C852.412 801.116 1090.75 898.45 1169.41 963.116C1320.21 807.116 1458.25 882.45 1508.41 939.616C1664.81 1110.02 1529.91 1245.28 1442.91 1291.62C1619.31 1834.42 1312.33 2005.83 1108 2033L971.498 2140.5L634.912 2042.62Z" fill="#FEFEFE" stroke="black"/>
<path d="M473.579 1421.52C444.779 1548.72 525.245 1569.52 569.079 1567.52C636.079 1555.02 702.079 1537.52 675.079 1421.52C646.216 1297.52 486.824 1363.02 473.579 1421.52Z" fill="#FFE6E8"/>
<path d="M1282.08 1492.52C1265.57 1593.01 1343.08 1634.52 1392.58 1630.52C1533.08 1619.16 1495.58 1436.02 1434.08 1414.52C1372.58 1393.02 1298.58 1392.02 1282.08 1492.52Z" fill="#FFE6E8"/>
<path d="M473.579 1421.52C444.779 1548.72 525.245 1569.52 569.079 1567.52C636.079 1555.02 702.079 1537.52 675.079 1421.52C646.216 1297.52 486.824 1363.02 473.579 1421.52Z" stroke="#FFE6E8" stroke-width="2"/>
<path d="M1282.08 1492.52C1265.57 1593.01 1343.08 1634.52 1392.58 1630.52C1533.08 1619.16 1495.58 1436.02 1434.08 1414.52C1372.58 1393.02 1298.58 1392.02 1282.08 1492.52Z" stroke="#FFE6E8" stroke-width="2"/>
<path d="M1027.11 1385C997.443 1364.83 957.109 1323 1033.11 1317C1066.78 1320.67 1112.71 1339.4 1027.11 1385Z" fill="#1F4371" stroke="#1F4371" stroke-width="2"/>
<path d="M1043.23 1368.58C1049.93 1386.02 1063.07 1407.52 1079.95 1418.07C1088.07 1423.14 1096.75 1425.51 1106.16 1424.12C1115.71 1422.71 1127.33 1417.24 1140.79 1404.15L1156.13 1419.92C1140.39 1435.22 1124.75 1443.62 1109.37 1445.88C1093.87 1448.17 1079.98 1444.02 1068.29 1436.72C1052.3 1426.73 1039.92 1410.56 1031.39 1395.1C1007.77 1427.9 982.523 1441.36 958.349 1441.83C931.137 1442.36 909.278 1426.27 897.491 1412.05L914.429 1398.01C923.642 1409.13 939.683 1420.19 957.921 1419.83C975.385 1419.49 998.955 1408.53 1023.49 1366.94L1035.05 1347.33L1043.23 1368.58ZM896.922 1270.82L725.422 1293.82L722.498 1272.01L893.998 1249.01L896.922 1270.82ZM1332.74 1269.5L1330.18 1289.33L1148.68 1265.83L1151.24 1246L1332.74 1269.5Z" fill="#1F4371"/>
<path d="M303.499 1136.78L413.412 994.616C372.212 913.016 306.579 942.283 278.912 967.116C213.312 1031.12 271.332 1112.28 303.499 1136.78Z" fill="#9DD0FA"/>
<path d="M1386 1179.78L1296.41 1043.62C1326.81 982.016 1390.75 1008.28 1418.91 1029.12C1472.91 1094.72 1417 1155.95 1386 1179.78Z" fill="#9DD0FA"/>
<path d="M303.499 1136.78L413.412 994.616C372.212 913.016 306.579 942.283 278.912 967.116C213.312 1031.12 271.332 1112.28 303.499 1136.78Z" stroke="#9DD0FA" stroke-width="2"/>
<path d="M1386 1179.78L1296.41 1043.62C1326.81 982.016 1390.75 1008.28 1418.91 1029.12C1472.91 1094.72 1417 1155.95 1386 1179.78Z" stroke="#9DD0FA" stroke-width="2"/>
<path d="M185.694 847.315C224.871 813.253 290.082 784.97 356.822 789.473C422.713 793.919 488.748 830.256 531.841 920.793C594.841 892.031 697.73 861.449 813.109 857.295C928.867 853.128 1057.94 875.554 1171.83 953.943C1202.33 917.668 1252.69 876.187 1312.79 861.506C1345.35 853.553 1380.79 853.476 1417.17 866.438C1453.5 879.384 1490.08 905.085 1525.38 947.588C1560.67 990.089 1579.37 1030.86 1585.7 1069.11C1592.04 1107.4 1585.87 1142.47 1572.52 1173.31C1547.73 1230.6 1498.23 1273.37 1457.48 1297.13C1476.14 1349.59 1495.48 1434.56 1497.09 1530.87C1498.79 1632.89 1480.62 1748.44 1419.89 1851.69L1419.56 1852.26L1419.16 1852.78C1395.79 1883.48 1364.91 1924.59 1317.19 1960.33C1269.83 1995.78 1206.26 2025.72 1117.31 2036.08L969.744 2150.69L962.979 2155.94L956.228 2150.67L844.756 2063.64C818.091 2061.09 730.232 2053.04 639.549 2039.87C592.217 2033 543.903 2024.7 502.994 2015.01C462.675 2005.47 427.714 1994.18 408.549 1980.59V1980.59C308.376 1911.25 191.073 1776.3 165.162 1596.17C149.959 1490.48 166.35 1370.21 234.911 1239.59C190.251 1211.53 137.236 1154.58 113.549 1086.08C100.849 1049.36 96.4635 1008.97 106.696 967.848C116.943 926.671 141.639 885.618 185.694 847.315ZM355.342 811.423C295.18 807.364 235.539 833.131 200.129 863.917C158.979 899.694 137.05 936.974 128.045 973.161C119.026 1009.41 122.759 1045.41 134.34 1078.89C156.056 1141.69 204.951 1194.38 245.425 1220.21C294.266 1133.04 366.433 1041.42 467.901 946.58L471.072 943.617H487.803V965.617H479.762C223.854 1206.11 162.317 1421.87 186.938 1593.04C211.566 1764.25 322.776 1893.68 418.902 1960.99L421.171 1962.57L421.224 1962.61L421.276 1962.64C436.511 1973.45 467.469 1984 508.063 1993.61C548.069 2003.08 595.663 2011.27 642.71 2018.1C725.02 2030.05 805.006 2037.76 838.626 2040.96L850.067 2042.05L853.247 2042.36L855.767 2044.33L963.015 2128.06L1106.25 2016.81L1108.7 2014.91L1111.79 2014.57C1198.41 2004.99 1259.2 1976.26 1304 1942.72C1348.71 1909.23 1377.87 1870.7 1401.25 1839.99C1459.07 1741.38 1476.75 1630.41 1475.09 1531.24C1473.43 1431.85 1452.35 1345.11 1433.63 1296.04L1430.18 1286.99L1438.72 1282.42C1478.11 1261.32 1528.42 1219.83 1552.33 1164.57C1564.2 1137.15 1569.57 1106.36 1564 1072.7C1558.42 1039 1541.75 1001.74 1508.45 961.644C1475.15 921.548 1441.69 898.531 1409.78 887.161C1377.92 875.808 1346.9 875.819 1318.01 882.877C1264.48 895.952 1218.33 933.245 1189.74 966.83C1194.94 970.741 1200.1 974.775 1205.23 978.935C1206.12 979.66 1207.01 980.388 1207.9 981.12L1193.95 998.133L1193.92 998.111L1191.36 996.015C1183.5 989.632 1175.54 983.56 1167.5 977.787C1056.6 898.175 929.191 875.13 813.9 879.281C698.523 883.434 596.061 914.814 536.102 943.067L535.407 941.593L534.912 942.117L527.347 950.102L517.847 941.102L516.258 939.597L515.366 937.598C475.524 848.29 414.483 815.414 355.342 811.423Z" fill="#1F4371"/>
<path d="M185.694 847.315L186.022 847.692L185.694 847.315ZM356.822 789.473L356.856 788.974V788.974L356.822 789.473ZM531.841 920.793L531.389 921.008L531.601 921.452L532.048 921.248L531.841 920.793ZM813.109 857.295L813.091 856.796V856.796L813.109 857.295ZM1171.83 953.943L1171.55 954.355L1171.92 954.612L1172.21 954.264L1171.83 953.943ZM1312.79 861.506L1312.67 861.02V861.02L1312.79 861.506ZM1417.17 866.438L1417.34 865.967V865.967L1417.17 866.438ZM1525.38 947.588L1525.76 947.269V947.269L1525.38 947.588ZM1585.7 1069.11L1586.19 1069.03V1069.03L1585.7 1069.11ZM1572.52 1173.31L1572.06 1173.11V1173.11L1572.52 1173.31ZM1457.48 1297.13L1457.22 1296.7L1456.87 1296.9L1457.01 1297.29L1457.48 1297.13ZM1497.09 1530.87L1496.59 1530.88V1530.88L1497.09 1530.87ZM1419.89 1851.69L1419.46 1851.44V1851.44L1419.89 1851.69ZM1419.56 1852.26L1419.96 1852.56L1419.98 1852.54L1419.99 1852.51L1419.56 1852.26ZM1419.16 1852.78L1418.77 1852.48L1418.77 1852.48L1419.16 1852.78ZM1317.19 1960.33L1317.49 1960.73V1960.73L1317.19 1960.33ZM1117.31 2036.08L1117.25 2035.58L1117.11 2035.6L1117 2035.69L1117.31 2036.08ZM969.744 2150.69L970.051 2151.08V2151.08L969.744 2150.69ZM962.979 2155.94L962.672 2156.34L962.979 2156.58L963.286 2156.34L962.979 2155.94ZM956.228 2150.67L955.92 2151.07V2151.07L956.228 2150.67ZM844.756 2063.64L845.064 2063.25L844.949 2063.16L844.804 2063.15L844.756 2063.64ZM639.549 2039.87L639.621 2039.37V2039.37L639.549 2039.87ZM502.994 2015.01L502.879 2015.5V2015.5L502.994 2015.01ZM408.549 1980.59H408.049V1980.85L408.26 1981L408.549 1980.59ZM408.549 1980.59H409.049V1980.33L408.833 1980.18L408.549 1980.59ZM165.162 1596.17L164.667 1596.24V1596.24L165.162 1596.17ZM234.911 1239.59L235.354 1239.83L235.569 1239.42L235.177 1239.17L234.911 1239.59ZM113.549 1086.08L113.076 1086.25V1086.25L113.549 1086.08ZM106.696 967.848L106.211 967.727H106.211L106.696 967.848ZM355.342 811.423L355.375 810.924V810.924L355.342 811.423ZM200.129 863.917L200.457 864.295V864.295L200.129 863.917ZM128.045 973.161L127.56 973.041V973.041L128.045 973.161ZM134.34 1078.89L133.867 1079.06V1079.06L134.34 1078.89ZM245.425 1220.21L245.156 1220.64L245.602 1220.92L245.861 1220.46L245.425 1220.21ZM467.901 946.58L467.56 946.215V946.215L467.901 946.58ZM471.072 943.617V943.117H470.875L470.731 943.251L471.072 943.617ZM487.803 943.617H488.303V943.117H487.803V943.617ZM487.803 965.617V966.117H488.303V965.617H487.803ZM479.762 965.617V965.117H479.564L479.419 965.252L479.762 965.617ZM186.938 1593.04L186.443 1593.11V1593.11L186.938 1593.04ZM418.902 1960.99L418.616 1961.4L418.617 1961.4L418.902 1960.99ZM421.171 1962.57L420.885 1962.98L420.888 1962.98L421.171 1962.57ZM421.224 1962.61L421.516 1962.2L421.506 1962.19L421.224 1962.61ZM421.276 1962.64L420.984 1963.05L420.987 1963.05L421.276 1962.64ZM508.063 1993.61L508.179 1993.12V1993.12L508.063 1993.61ZM642.71 2018.1L642.638 2018.59V2018.59L642.71 2018.1ZM838.626 2040.96L838.674 2040.46H838.673L838.626 2040.96ZM850.067 2042.05L850.116 2041.55L850.115 2041.55L850.067 2042.05ZM853.247 2042.36L853.555 2041.97L853.44 2041.88L853.296 2041.87L853.247 2042.36ZM855.767 2044.33L856.074 2043.94L856.074 2043.94L855.767 2044.33ZM963.015 2128.06L962.707 2128.45L963.014 2128.69L963.321 2128.45L963.015 2128.06ZM1106.25 2016.81L1105.94 2016.42H1105.94L1106.25 2016.81ZM1108.7 2014.91L1108.65 2014.41L1108.51 2014.43L1108.4 2014.51L1108.7 2014.91ZM1111.79 2014.57L1111.73 2014.07H1111.73L1111.79 2014.57ZM1304 1942.72L1303.7 1942.32V1942.32L1304 1942.72ZM1401.25 1839.99L1401.65 1840.29L1401.67 1840.27L1401.69 1840.24L1401.25 1839.99ZM1475.09 1531.24L1474.59 1531.25V1531.25L1475.09 1531.24ZM1433.63 1296.04L1434.1 1295.86V1295.86L1433.63 1296.04ZM1430.18 1286.99L1429.95 1286.55L1429.56 1286.76L1429.72 1287.17L1430.18 1286.99ZM1438.72 1282.42L1438.48 1281.98V1281.98L1438.72 1282.42ZM1552.33 1164.57L1552.79 1164.77V1164.77L1552.33 1164.57ZM1564 1072.7L1564.49 1072.62V1072.62L1564 1072.7ZM1508.45 961.644L1508.83 961.324V961.324L1508.45 961.644ZM1409.78 887.161L1409.95 886.69V886.69L1409.78 887.161ZM1318.01 882.877L1317.89 882.392V882.392L1318.01 882.877ZM1189.74 966.83L1189.36 966.506L1189.01 966.911L1189.44 967.23L1189.74 966.83ZM1205.23 978.935L1205.54 978.547V978.547L1205.23 978.935ZM1207.9 981.12L1208.29 981.437L1208.6 981.051L1208.22 980.734L1207.9 981.12ZM1193.95 998.133L1193.63 998.519L1194.02 998.837L1194.34 998.45L1193.95 998.133ZM1193.92 998.111L1194.24 997.724L1194.24 997.723L1193.92 998.111ZM1191.36 996.015L1191.68 995.628L1191.67 995.627L1191.36 996.015ZM1167.5 977.787L1167.79 977.381V977.381L1167.5 977.787ZM813.9 879.281L813.882 878.781V878.781L813.9 879.281ZM536.102 943.067L535.649 943.28L535.862 943.732L536.315 943.519L536.102 943.067ZM535.407 941.593L535.86 941.38L535.547 940.717L535.044 941.249L535.407 941.593ZM534.912 942.117L535.275 942.46L535.275 942.46L534.912 942.117ZM527.347 950.102L527.003 950.465L527.366 950.809L527.71 950.446L527.347 950.102ZM517.847 941.102L518.191 940.739L518.191 940.739L517.847 941.102ZM516.258 939.597L515.801 939.801L515.842 939.892L515.914 939.96L516.258 939.597ZM515.366 937.598L515.823 937.394V937.394L515.366 937.598ZM185.694 847.315L186.022 847.692C225.114 813.705 290.198 785.479 356.789 789.972L356.822 789.473L356.856 788.974C289.966 784.461 224.629 812.801 185.366 846.937L185.694 847.315ZM356.822 789.473L356.789 789.972C422.491 794.405 488.371 830.627 531.389 921.008L531.841 920.793L532.292 920.578C489.125 829.886 422.935 793.432 356.856 788.974L356.822 789.473ZM531.841 920.793L532.048 921.248C594.994 892.511 697.819 861.946 813.127 857.795L813.109 857.295L813.091 856.796C697.641 860.952 594.688 891.551 531.633 920.338L531.841 920.793ZM813.109 857.295L813.127 857.795C928.811 853.631 1057.77 876.043 1171.55 954.355L1171.83 953.943L1172.11 953.531C1058.11 875.065 928.924 852.626 813.091 856.796L813.109 857.295ZM1171.83 953.943L1172.21 954.264C1202.67 918.039 1252.94 876.639 1312.91 861.992L1312.79 861.506L1312.67 861.02C1252.43 875.735 1201.99 917.297 1171.45 953.621L1171.83 953.943ZM1312.79 861.506L1312.91 861.992C1345.39 854.059 1380.73 853.984 1417 866.909L1417.17 866.438L1417.34 865.967C1380.86 852.969 1345.32 853.047 1312.67 861.02L1312.79 861.506ZM1417.17 866.438L1417 866.909C1453.23 879.819 1489.74 905.459 1524.99 947.908L1525.38 947.588L1525.76 947.269C1490.41 904.71 1453.77 878.948 1417.34 865.967L1417.17 866.438ZM1525.38 947.588L1524.99 947.908C1560.24 990.354 1578.89 1031.04 1585.21 1069.19L1585.7 1069.11L1586.19 1069.03C1579.85 1030.67 1561.1 989.824 1525.76 947.269L1525.38 947.588ZM1585.7 1069.11L1585.21 1069.19C1591.53 1107.37 1585.37 1142.35 1572.06 1173.11L1572.52 1173.31L1572.98 1173.51C1586.36 1142.59 1592.55 1107.42 1586.19 1069.03L1585.7 1069.11ZM1572.52 1173.31L1572.06 1173.11C1547.33 1230.27 1497.92 1272.97 1457.22 1296.7L1457.48 1297.13L1457.73 1297.56C1498.54 1273.76 1548.13 1230.93 1572.98 1173.51L1572.52 1173.31ZM1457.48 1297.13L1457.01 1297.29C1475.65 1349.71 1494.98 1434.62 1496.59 1530.88L1497.09 1530.87L1497.59 1530.86C1495.97 1434.49 1476.63 1349.48 1457.95 1296.96L1457.48 1297.13ZM1497.09 1530.87L1496.59 1530.88C1498.29 1632.84 1480.13 1748.28 1419.46 1851.44L1419.89 1851.69L1420.33 1851.95C1481.11 1748.59 1499.29 1632.94 1497.59 1530.86L1497.09 1530.87ZM1419.89 1851.69L1419.46 1851.44L1419.13 1852.01L1419.56 1852.26L1419.99 1852.51L1420.33 1851.95L1419.89 1851.69ZM1419.56 1852.26L1419.16 1851.96L1418.77 1852.48L1419.16 1852.78L1419.56 1853.08L1419.96 1852.56L1419.56 1852.26ZM1419.16 1852.78L1418.77 1852.48C1395.39 1883.18 1364.55 1924.23 1316.89 1959.93L1317.19 1960.33L1317.49 1960.73C1365.27 1924.94 1396.19 1883.78 1419.56 1853.08L1419.16 1852.78ZM1317.19 1960.33L1316.89 1959.93C1269.6 1995.33 1206.11 2025.23 1117.25 2035.58L1117.31 2036.08L1117.36 2036.58C1206.41 2026.21 1270.07 1996.24 1317.49 1960.73L1317.19 1960.33ZM1117.31 2036.08L1117 2035.69L969.437 2150.29L969.744 2150.69L970.051 2151.08L1117.61 2036.48L1117.31 2036.08ZM969.744 2150.69L969.437 2150.29L962.673 2155.55L962.979 2155.94L963.286 2156.34L970.051 2151.08L969.744 2150.69ZM962.979 2155.94L963.287 2155.55L956.535 2150.28L956.228 2150.67L955.92 2151.07L962.672 2156.34L962.979 2155.94ZM956.228 2150.67L956.535 2150.28L845.064 2063.25L844.756 2063.64L844.448 2064.04L955.92 2151.07L956.228 2150.67ZM844.756 2063.64L844.804 2063.15C818.137 2060.59 730.29 2052.54 639.621 2039.37L639.549 2039.87L639.477 2040.36C730.174 2053.53 818.045 2061.59 844.708 2064.14L844.756 2063.64ZM639.549 2039.87L639.621 2039.37C592.295 2032.5 543.997 2024.21 503.109 2014.53L502.994 2015.01L502.879 2015.5C543.808 2025.19 592.139 2033.49 639.477 2040.36L639.549 2039.87ZM502.994 2015.01L503.109 2014.53C462.785 2004.98 427.914 1993.71 408.838 1980.18L408.549 1980.59L408.26 1981C427.514 1994.65 462.566 2005.96 502.879 2015.5L502.994 2015.01ZM408.549 1980.59H409.049V1980.59H408.549H408.049V1980.59H408.549ZM408.549 1980.59L408.833 1980.18C308.742 1910.9 191.543 1776.06 165.657 1596.1L165.162 1596.17L164.667 1596.24C190.603 1776.54 308.011 1911.61 408.264 1981L408.549 1980.59ZM165.162 1596.17L165.657 1596.1C150.47 1490.52 166.839 1370.36 235.354 1239.83L234.911 1239.59L234.468 1239.36C165.861 1370.07 149.448 1490.44 164.667 1596.24L165.162 1596.17ZM234.911 1239.59L235.177 1239.17C190.601 1211.16 137.667 1154.29 114.021 1085.92L113.549 1086.08L113.076 1086.25C136.806 1154.86 189.901 1211.91 234.645 1240.02L234.911 1239.59ZM113.549 1086.08L114.021 1085.92C101.347 1049.27 96.9763 1008.98 107.181 967.969L106.696 967.848L106.211 967.727C95.9507 1008.96 100.351 1049.45 113.076 1086.25L113.549 1086.08ZM106.696 967.848L107.181 967.969C117.4 926.906 142.033 885.938 186.022 847.692L185.694 847.315L185.366 846.937C141.244 885.298 116.486 926.437 106.211 967.727L106.696 967.848ZM355.342 811.423L355.375 810.924C295.064 806.855 235.297 832.679 199.801 863.54L200.129 863.917L200.457 864.295C235.782 833.582 295.295 807.873 355.308 811.922L355.342 811.423ZM200.129 863.917L199.801 863.54C158.585 899.374 136.593 936.74 127.56 973.041L128.045 973.161L128.53 973.282C137.507 937.208 159.373 900.014 200.457 864.295L200.129 863.917ZM128.045 973.161L127.56 973.041C118.513 1009.4 122.261 1045.5 133.867 1079.06L134.34 1078.89L134.812 1078.73C123.257 1045.32 119.538 1009.42 128.53 973.282L128.045 973.161ZM134.34 1078.89L133.867 1079.06C155.625 1141.97 204.601 1194.75 245.156 1220.64L245.425 1220.21L245.694 1219.79C205.302 1194.01 156.486 1141.4 134.812 1078.73L134.34 1078.89ZM245.425 1220.21L245.861 1220.46C294.673 1133.34 366.805 1041.76 468.243 946.946L467.901 946.58L467.56 946.215C366.061 1041.09 293.859 1132.75 244.989 1219.97L245.425 1220.21ZM467.901 946.58L468.243 946.946L471.414 943.982L471.072 943.617L470.731 943.251L467.56 946.215L467.901 946.58ZM471.072 943.617V944.117H487.803V943.617V943.117H471.072V943.617ZM487.803 943.617H487.303V965.617H487.803H488.303V943.617H487.803ZM487.803 965.617V965.117H479.762V965.617V966.117H487.803V965.617ZM479.762 965.617L479.419 965.252C223.428 1205.82 161.793 1421.74 186.443 1593.11L186.938 1593.04L187.432 1592.97C162.841 1422.01 224.279 1206.39 480.104 965.981L479.762 965.617ZM186.938 1593.04L186.443 1593.11C211.096 1764.5 322.409 1894.04 418.616 1961.4L418.902 1960.99L419.189 1960.58C323.143 1893.33 212.036 1764.01 187.432 1592.97L186.938 1593.04ZM418.902 1960.99L418.617 1961.4L420.885 1962.98L421.171 1962.57L421.457 1962.16L419.188 1960.58L418.902 1960.99ZM421.171 1962.57L420.888 1962.98L420.941 1963.02L421.224 1962.61L421.506 1962.19L421.454 1962.16L421.171 1962.57ZM421.224 1962.61L420.931 1963.01L420.984 1963.05L421.276 1962.64L421.569 1962.24L421.516 1962.2L421.224 1962.61ZM421.276 1962.64L420.987 1963.05C428.661 1968.5 440.261 1973.85 454.994 1979.05C469.734 1984.24 487.641 1989.29 507.948 1994.09L508.063 1993.61L508.179 1993.12C487.892 1988.32 470.022 1983.28 455.326 1978.1C440.623 1972.92 429.126 1967.6 421.566 1962.24L421.276 1962.64ZM508.063 1993.61L507.948 1994.09C547.974 2003.57 595.585 2011.76 642.638 2018.59L642.71 2018.1L642.782 2017.6C595.741 2010.77 548.163 2002.59 508.179 1993.12L508.063 1993.61ZM642.71 2018.1L642.638 2018.59C724.962 2030.55 804.958 2038.26 838.579 2041.46L838.626 2040.96L838.673 2040.46C805.055 2037.26 725.079 2029.55 642.782 2017.6L642.71 2018.1ZM838.626 2040.96L838.578 2041.46L850.02 2042.55L850.067 2042.05L850.115 2041.55L838.674 2040.46L838.626 2040.96ZM850.067 2042.05L850.019 2042.55L853.198 2042.86L853.247 2042.36L853.296 2041.87L850.116 2041.55L850.067 2042.05ZM853.247 2042.36L852.94 2042.76L855.459 2044.72L855.767 2044.33L856.074 2043.94L853.555 2041.97L853.247 2042.36ZM855.767 2044.33L855.459 2044.72L962.707 2128.45L963.015 2128.06L963.322 2127.66L856.074 2043.94L855.767 2044.33ZM963.015 2128.06L963.321 2128.45L1106.56 2017.21L1106.25 2016.81L1105.94 2016.42L962.708 2127.66L963.015 2128.06ZM1106.25 2016.81L1106.56 2017.21L1109.01 2015.3L1108.7 2014.91L1108.4 2014.51L1105.94 2016.42L1106.25 2016.81ZM1108.7 2014.91L1108.76 2015.41L1111.84 2015.06L1111.79 2014.57L1111.73 2014.07L1108.65 2014.41L1108.7 2014.91ZM1111.79 2014.57L1111.84 2015.06C1198.55 2005.47 1259.43 1976.72 1304.3 1943.12L1304 1942.72L1303.7 1942.32C1258.97 1975.81 1198.26 2004.5 1111.73 2014.07L1111.79 2014.57ZM1304 1942.72L1304.3 1943.12C1349.08 1909.58 1378.27 1871 1401.65 1840.29L1401.25 1839.99L1400.86 1839.68C1377.47 1870.4 1348.35 1908.88 1303.7 1942.32L1304 1942.72ZM1401.25 1839.99L1401.69 1840.24C1459.56 1741.53 1477.25 1630.46 1475.59 1531.23L1475.09 1531.24L1474.59 1531.25C1476.25 1630.36 1458.58 1741.23 1400.82 1839.73L1401.25 1839.99ZM1475.09 1531.24L1475.59 1531.23C1473.93 1431.78 1452.84 1344.99 1434.1 1295.86L1433.63 1296.04L1433.17 1296.21C1451.87 1345.23 1472.93 1431.91 1474.59 1531.25L1475.09 1531.24ZM1433.63 1296.04L1434.1 1295.86L1430.65 1286.81L1430.18 1286.99L1429.72 1287.17L1433.17 1296.21L1433.63 1296.04ZM1430.18 1286.99L1430.42 1287.43L1438.95 1282.86L1438.72 1282.42L1438.48 1281.98L1429.95 1286.55L1430.18 1286.99ZM1438.72 1282.42L1438.95 1282.86C1478.41 1261.72 1528.82 1220.16 1552.79 1164.77L1552.33 1164.57L1551.87 1164.37C1528.02 1219.49 1477.81 1260.91 1438.48 1281.98L1438.72 1282.42ZM1552.33 1164.57L1552.79 1164.77C1564.69 1137.27 1570.08 1106.38 1564.49 1072.62L1564 1072.7L1563.5 1072.78C1569.06 1106.33 1563.7 1137.03 1551.87 1164.37L1552.33 1164.57ZM1564 1072.7L1564.49 1072.62C1558.89 1038.82 1542.18 1001.48 1508.83 961.324L1508.45 961.644L1508.07 961.963C1541.32 1002.01 1557.94 1039.19 1563.5 1072.78L1564 1072.7ZM1508.45 961.644L1508.83 961.324C1475.49 921.174 1441.96 898.095 1409.95 886.69L1409.78 887.161L1409.62 887.632C1441.42 898.966 1474.81 921.922 1508.07 961.963L1508.45 961.644ZM1409.78 887.161L1409.95 886.69C1377.99 875.301 1346.87 875.313 1317.89 882.392L1318.01 882.877L1318.13 883.363C1346.94 876.325 1377.85 876.316 1409.62 887.632L1409.78 887.161ZM1318.01 882.877L1317.89 882.392C1264.23 895.5 1217.99 932.872 1189.36 966.506L1189.74 966.83L1190.12 967.154C1218.67 933.617 1264.74 896.405 1318.13 883.363L1318.01 882.877ZM1189.74 966.83L1189.44 967.23C1194.63 971.137 1199.79 975.168 1204.91 979.323L1205.23 978.935L1205.54 978.547C1200.41 974.383 1195.24 970.345 1190.04 966.431L1189.74 966.83ZM1205.23 978.935L1204.91 979.323C1205.8 980.047 1206.69 980.775 1207.58 981.507L1207.9 981.12L1208.22 980.734C1207.33 980.001 1206.43 979.272 1205.54 978.547L1205.23 978.935ZM1207.9 981.12L1207.51 980.803L1193.57 997.816L1193.95 998.133L1194.34 998.45L1208.29 981.437L1207.9 981.12ZM1193.95 998.133L1194.27 997.747L1194.24 997.724L1193.92 998.111L1193.61 998.497L1193.63 998.519L1193.95 998.133ZM1193.92 998.111L1194.24 997.723L1191.68 995.628L1191.36 996.015L1191.04 996.402L1193.61 998.498L1193.92 998.111ZM1191.36 996.015L1191.67 995.627C1183.8 989.238 1175.84 983.16 1167.79 977.381L1167.5 977.787L1167.21 978.194C1175.24 983.961 1183.19 990.027 1191.04 996.403L1191.36 996.015ZM1167.5 977.787L1167.79 977.381C1056.77 897.687 929.249 874.628 813.882 878.781L813.9 879.281L813.918 879.78C929.132 875.633 1056.42 898.664 1167.21 978.194L1167.5 977.787ZM813.9 879.281L813.882 878.781C698.432 882.937 595.905 914.335 535.888 942.614L536.102 943.067L536.315 943.519C596.217 915.293 698.613 883.931 813.918 879.78L813.9 879.281ZM536.102 943.067L536.554 942.854L535.86 941.38L535.407 941.593L534.955 941.806L535.649 943.28L536.102 943.067ZM535.407 941.593L535.044 941.249L534.549 941.773L534.912 942.117L535.275 942.46L535.77 941.937L535.407 941.593ZM534.912 942.117L534.549 941.773L526.984 949.758L527.347 950.102L527.71 950.446L535.275 942.46L534.912 942.117ZM527.347 950.102L527.691 949.739L518.191 940.739L517.847 941.102L517.503 941.465L527.003 950.465L527.347 950.102ZM517.847 941.102L518.191 940.739L516.602 939.234L516.258 939.597L515.914 939.96L517.503 941.465L517.847 941.102ZM516.258 939.597L516.714 939.393L515.823 937.394L515.366 937.598L514.91 937.802L515.801 939.801L516.258 939.597ZM515.366 937.598L515.823 937.394C475.91 847.927 414.713 814.928 355.375 810.924L355.342 811.423L355.308 811.922C414.254 815.899 475.138 848.652 514.91 937.802L515.366 937.598Z" fill="#1F4371"/>
<path d="M1280.41 1045.12C1306.41 1063.62 1363.61 1116.62 1384.41 1180.62" stroke="#1F4371" stroke-width="22"/>
<path d="M331.498 1905C353.998 1926.5 361.072 2029.89 397.998 1972C477.598 2026.8 795.165 2060.5 842.498 2063L963.998 2152L1117 2034C1226.2 2028 1298.76 1960.12 1350.42 1918.12C1525.62 2070.92 1547.42 2328.12 1536.42 2437.62C1398.82 2524.42 1327.09 2540.78 1308.42 2538.12C940.024 2663.32 512.924 2554.28 345.424 2484.12L353.424 2370.62C-29.776 2383.02 114.164 2105.33 127.497 1937.5C239.097 1952.7 304.165 1928 331.498 1905Z" fill="#4EA9FE"/>
<path d="M96.4837 1636.05C-72.3163 1754.05 45.8171 1882.55 125.984 1932.05C263.584 1955.65 326.984 1900.55 341.484 1870.05C377.484 1805.65 351.151 1735.88 333.484 1709.05C287.484 1564.25 156.317 1600.05 96.4837 1636.05Z" fill="#FEFEFE" stroke="black"/>
<path d="M1352.41 1923.62C1422.91 1978.12 1558.51 2146.62 1536.91 2384.62V2441.12C1536.91 2441.12 1447.92 2496.45 1352.41 2533.62C1289.91 2557.94 1310.91 2533.62 1310.91 2441.12" stroke="#1F4371" stroke-width="20"/>
<path d="M122.523 1940.5C122.736 1934.46 123.037 1928.62 123.413 1923C51.9136 1923 45.3938 1851.5 19.4133 1807C-6.56726 1762.5 21.9137 1670.42 96.4131 1634C203.413 1581.7 277.246 1600.5 313.913 1667C361.331 1753 379.414 1839.5 340.412 1860.5C340.979 1867.68 342.268 1874.5 344.21 1881C371.362 1971.89 325.114 2016.5 408.911 1971.12M1289.91 2337.12L1310.41 2539.62C884.012 2663.62 486.078 2551.62 340.412 2480.12L372.912 2298.62L355.412 2369.62C-33.0113 2374.25 116.61 2108.46 122.523 1940.5M122.523 1940.5C175.851 1945.33 294.847 1940.2 344.21 1881" stroke="#1F4371" stroke-width="20"/>
<path d="M510.483 246.976C444.689 -2.04713 111.784 119.231 113.548 280.071C109.889 316.003 188.432 358.463 203.941 322.63C256.989 200.063 333.384 212.318 373.536 225.166C413.687 238.015 418.92 304.687 403.407 328.433C366.836 360.352 325.649 408.701 333.386 464.238L362.842 566.068C378.681 620.823 478.99 589.725 463.707 536.891L436.197 441.79C427.435 431.312 557.74 425.838 510.483 246.976Z" fill="#E54144"/>
<path d="M474.885 742.898C408.602 762.072 361.312 666.967 445.847 642.514C515.492 622.368 557.498 719.001 474.885 742.898Z" fill="#E54144"/>
<path d="M510.483 246.976C444.689 -2.04713 111.784 119.231 113.548 280.071C109.889 316.003 188.432 358.463 203.941 322.63C256.989 200.063 333.384 212.318 373.536 225.166C413.687 238.015 418.92 304.687 403.407 328.433C366.836 360.352 325.649 408.701 333.386 464.238L362.842 566.068C378.681 620.823 478.99 589.725 463.707 536.891L436.197 441.79C427.435 431.312 557.74 425.838 510.483 246.976Z" stroke="#E54144" stroke-width="10"/>
<path d="M474.885 742.898C408.602 762.072 361.312 666.967 445.847 642.514C515.492 622.368 557.498 719.001 474.885 742.898Z" stroke="#E54144" stroke-width="10"/>
<path d="M1041.86 199.619C1047.85 -57.8792 694.355 -33.8826 651.356 121.113C637.857 154.614 701.508 217.227 726.363 187.114C811.381 84.1144 881.362 117.115 916.362 140.614C951.362 164.114 937.862 229.614 916.362 248.114C872.362 268.614 819.362 303.615 811.362 359.115V465.119C811.362 522.119 916.362 520.119 916.362 465.119V366.119C910.855 353.619 1037.55 384.569 1041.86 199.619Z" fill="#E54144"/>
<path d="M869.855 666.119C800.855 666.119 781.855 561.619 869.855 561.619C942.355 561.619 955.855 666.119 869.855 666.119Z" fill="#E54144"/>
<path d="M1041.86 199.619C1047.85 -57.8792 694.355 -33.8826 651.356 121.113C637.857 154.614 701.508 217.227 726.363 187.114C811.381 84.1144 881.362 117.115 916.362 140.614C951.362 164.114 937.862 229.614 916.362 248.114C872.362 268.614 819.362 303.615 811.362 359.115V465.119C811.362 522.119 916.362 520.119 916.362 465.119V366.119C910.855 353.619 1037.55 384.569 1041.86 199.619Z" stroke="#E54144" stroke-width="10"/>
<path d="M869.855 666.119C800.855 666.119 781.855 561.619 869.855 561.619C942.355 561.619 955.855 666.119 869.855 666.119Z" stroke="#E54144" stroke-width="10"/>
<path d="M1561.81 389.235C1665.3 153.372 1329.25 41.103 1230.53 168.092C1205.3 193.939 1240.35 276.057 1274.79 257.663C1392.59 194.744 1444.76 251.884 1468.19 286.93C1491.62 321.976 1454.22 377.418 1427.3 386.349C1378.81 388.572 1316.48 400.781 1287.97 449.066L1247.65 547.102C1225.97 599.817 1323.84 637.907 1344.76 587.042L1382.42 495.484C1382.08 481.829 1487.48 558.644 1561.81 389.235Z" fill="#E54144"/>
<path d="M1225.29 755.243C1161.48 728.996 1183.66 625.124 1265.04 658.598C1332.09 686.175 1304.83 787.955 1225.29 755.243Z" fill="#E54144"/>
<path d="M1561.81 389.235C1665.3 153.372 1329.25 41.103 1230.53 168.092C1205.3 193.939 1240.35 276.057 1274.79 257.663C1392.59 194.744 1444.76 251.884 1468.19 286.93C1491.62 321.976 1454.22 377.418 1427.3 386.349C1378.81 388.572 1316.48 400.781 1287.97 449.066L1247.65 547.102C1225.97 599.817 1323.84 637.907 1344.76 587.042L1382.42 495.484C1382.08 481.829 1487.48 558.644 1561.81 389.235Z" stroke="#E54144" stroke-width="10"/>
<path d="M1225.29 755.243C1161.48 728.996 1183.66 625.124 1265.04 658.598C1332.09 686.175 1304.83 787.955 1225.29 755.243Z" stroke="#E54144" stroke-width="10"/>
</svg>
